G04 #@! TF.GenerationSoftware,KiCad,Pcbnew,(5.0.2-5-10.14)*
G04 #@! TF.CreationDate,2019-03-09T09:48:24+01:00*
G04 #@! TF.ProjectId,myduino,6d796475-696e-46f2-9e6b-696361645f70,rev?*
G04 #@! TF.SameCoordinates,Original*
G04 #@! TF.FileFunction,Copper,L1,Top*
G04 #@! TF.FilePolarity,Positive*
%FSLAX46Y46*%
G04 Gerber Fmt 4.6, Leading zero omitted, Abs format (unit mm)*
G04 Created by KiCad (PCBNEW (5.0.2-5-10.14)) date 2019 March 09, Saturday 09:48:24*
%MOMM*%
%LPD*%
G01*
G04 APERTURE LIST*
G04 #@! TA.AperFunction,Conductor*
%ADD10C,0.100000*%
G04 #@! TD*
G04 #@! TA.AperFunction,SMDPad,CuDef*
%ADD11C,1.150000*%
G04 #@! TD*
G04 #@! TA.AperFunction,SMDPad,CuDef*
%ADD12C,1.600000*%
G04 #@! TD*
G04 #@! TA.AperFunction,SMDPad,CuDef*
%ADD13R,2.000000X7.875000*%
G04 #@! TD*
G04 #@! TA.AperFunction,SMDPad,CuDef*
%ADD14C,0.975000*%
G04 #@! TD*
G04 #@! TA.AperFunction,ComponentPad*
%ADD15R,1.700000X1.700000*%
G04 #@! TD*
G04 #@! TA.AperFunction,ComponentPad*
%ADD16O,1.700000X1.700000*%
G04 #@! TD*
G04 #@! TA.AperFunction,SMDPad,CuDef*
%ADD17R,1.550000X1.300000*%
G04 #@! TD*
G04 #@! TA.AperFunction,SMDPad,CuDef*
%ADD18R,2.000000X3.800000*%
G04 #@! TD*
G04 #@! TA.AperFunction,SMDPad,CuDef*
%ADD19R,2.000000X1.500000*%
G04 #@! TD*
G04 #@! TA.AperFunction,SMDPad,CuDef*
%ADD20R,0.550000X1.600000*%
G04 #@! TD*
G04 #@! TA.AperFunction,SMDPad,CuDef*
%ADD21R,1.600000X0.550000*%
G04 #@! TD*
G04 #@! TA.AperFunction,SMDPad,CuDef*
%ADD22R,2.500000X2.300000*%
G04 #@! TD*
G04 #@! TA.AperFunction,SMDPad,CuDef*
%ADD23R,0.450000X1.300000*%
G04 #@! TD*
G04 #@! TA.AperFunction,ComponentPad*
%ADD24C,2.000000*%
G04 #@! TD*
G04 #@! TA.AperFunction,ComponentPad*
%ADD25C,1.800000*%
G04 #@! TD*
G04 #@! TA.AperFunction,ViaPad*
%ADD26C,0.800000*%
G04 #@! TD*
G04 #@! TA.AperFunction,Conductor*
%ADD27C,0.500000*%
G04 #@! TD*
G04 #@! TA.AperFunction,Conductor*
%ADD28C,0.250000*%
G04 #@! TD*
G04 #@! TA.AperFunction,Conductor*
%ADD29C,0.254000*%
G04 #@! TD*
G04 APERTURE END LIST*
D10*
G04 #@! TO.N,Net-(100k1-Pad2)*
G04 #@! TO.C,100k1*
G36*
X145619505Y-132397204D02*
X145643773Y-132400804D01*
X145667572Y-132406765D01*
X145690671Y-132415030D01*
X145712850Y-132425520D01*
X145733893Y-132438132D01*
X145753599Y-132452747D01*
X145771777Y-132469223D01*
X145788253Y-132487401D01*
X145802868Y-132507107D01*
X145815480Y-132528150D01*
X145825970Y-132550329D01*
X145834235Y-132573428D01*
X145840196Y-132597227D01*
X145843796Y-132621495D01*
X145845000Y-132645999D01*
X145845000Y-133546001D01*
X145843796Y-133570505D01*
X145840196Y-133594773D01*
X145834235Y-133618572D01*
X145825970Y-133641671D01*
X145815480Y-133663850D01*
X145802868Y-133684893D01*
X145788253Y-133704599D01*
X145771777Y-133722777D01*
X145753599Y-133739253D01*
X145733893Y-133753868D01*
X145712850Y-133766480D01*
X145690671Y-133776970D01*
X145667572Y-133785235D01*
X145643773Y-133791196D01*
X145619505Y-133794796D01*
X145595001Y-133796000D01*
X144944999Y-133796000D01*
X144920495Y-133794796D01*
X144896227Y-133791196D01*
X144872428Y-133785235D01*
X144849329Y-133776970D01*
X144827150Y-133766480D01*
X144806107Y-133753868D01*
X144786401Y-133739253D01*
X144768223Y-133722777D01*
X144751747Y-133704599D01*
X144737132Y-133684893D01*
X144724520Y-133663850D01*
X144714030Y-133641671D01*
X144705765Y-133618572D01*
X144699804Y-133594773D01*
X144696204Y-133570505D01*
X144695000Y-133546001D01*
X144695000Y-132645999D01*
X144696204Y-132621495D01*
X144699804Y-132597227D01*
X144705765Y-132573428D01*
X144714030Y-132550329D01*
X144724520Y-132528150D01*
X144737132Y-132507107D01*
X144751747Y-132487401D01*
X144768223Y-132469223D01*
X144786401Y-132452747D01*
X144806107Y-132438132D01*
X144827150Y-132425520D01*
X144849329Y-132415030D01*
X144872428Y-132406765D01*
X144896227Y-132400804D01*
X144920495Y-132397204D01*
X144944999Y-132396000D01*
X145595001Y-132396000D01*
X145619505Y-132397204D01*
X145619505Y-132397204D01*
G37*
D11*
G04 #@! TD*
G04 #@! TO.P,100k1,2*
G04 #@! TO.N,Net-(100k1-Pad2)*
X145270000Y-133096000D03*
D10*
G04 #@! TO.N,+3V3*
G04 #@! TO.C,100k1*
G36*
X147669505Y-132397204D02*
X147693773Y-132400804D01*
X147717572Y-132406765D01*
X147740671Y-132415030D01*
X147762850Y-132425520D01*
X147783893Y-132438132D01*
X147803599Y-132452747D01*
X147821777Y-132469223D01*
X147838253Y-132487401D01*
X147852868Y-132507107D01*
X147865480Y-132528150D01*
X147875970Y-132550329D01*
X147884235Y-132573428D01*
X147890196Y-132597227D01*
X147893796Y-132621495D01*
X147895000Y-132645999D01*
X147895000Y-133546001D01*
X147893796Y-133570505D01*
X147890196Y-133594773D01*
X147884235Y-133618572D01*
X147875970Y-133641671D01*
X147865480Y-133663850D01*
X147852868Y-133684893D01*
X147838253Y-133704599D01*
X147821777Y-133722777D01*
X147803599Y-133739253D01*
X147783893Y-133753868D01*
X147762850Y-133766480D01*
X147740671Y-133776970D01*
X147717572Y-133785235D01*
X147693773Y-133791196D01*
X147669505Y-133794796D01*
X147645001Y-133796000D01*
X146994999Y-133796000D01*
X146970495Y-133794796D01*
X146946227Y-133791196D01*
X146922428Y-133785235D01*
X146899329Y-133776970D01*
X146877150Y-133766480D01*
X146856107Y-133753868D01*
X146836401Y-133739253D01*
X146818223Y-133722777D01*
X146801747Y-133704599D01*
X146787132Y-133684893D01*
X146774520Y-133663850D01*
X146764030Y-133641671D01*
X146755765Y-133618572D01*
X146749804Y-133594773D01*
X146746204Y-133570505D01*
X146745000Y-133546001D01*
X146745000Y-132645999D01*
X146746204Y-132621495D01*
X146749804Y-132597227D01*
X146755765Y-132573428D01*
X146764030Y-132550329D01*
X146774520Y-132528150D01*
X146787132Y-132507107D01*
X146801747Y-132487401D01*
X146818223Y-132469223D01*
X146836401Y-132452747D01*
X146856107Y-132438132D01*
X146877150Y-132425520D01*
X146899329Y-132415030D01*
X146922428Y-132406765D01*
X146946227Y-132400804D01*
X146970495Y-132397204D01*
X146994999Y-132396000D01*
X147645001Y-132396000D01*
X147669505Y-132397204D01*
X147669505Y-132397204D01*
G37*
D11*
G04 #@! TD*
G04 #@! TO.P,100k1,1*
G04 #@! TO.N,+3V3*
X147320000Y-133096000D03*
D10*
G04 #@! TO.N,GND*
G04 #@! TO.C,100nF1*
G36*
X140294505Y-95567204D02*
X140318773Y-95570804D01*
X140342572Y-95576765D01*
X140365671Y-95585030D01*
X140387850Y-95595520D01*
X140408893Y-95608132D01*
X140428599Y-95622747D01*
X140446777Y-95639223D01*
X140463253Y-95657401D01*
X140477868Y-95677107D01*
X140490480Y-95698150D01*
X140500970Y-95720329D01*
X140509235Y-95743428D01*
X140515196Y-95767227D01*
X140518796Y-95791495D01*
X140520000Y-95815999D01*
X140520000Y-96716001D01*
X140518796Y-96740505D01*
X140515196Y-96764773D01*
X140509235Y-96788572D01*
X140500970Y-96811671D01*
X140490480Y-96833850D01*
X140477868Y-96854893D01*
X140463253Y-96874599D01*
X140446777Y-96892777D01*
X140428599Y-96909253D01*
X140408893Y-96923868D01*
X140387850Y-96936480D01*
X140365671Y-96946970D01*
X140342572Y-96955235D01*
X140318773Y-96961196D01*
X140294505Y-96964796D01*
X140270001Y-96966000D01*
X139619999Y-96966000D01*
X139595495Y-96964796D01*
X139571227Y-96961196D01*
X139547428Y-96955235D01*
X139524329Y-96946970D01*
X139502150Y-96936480D01*
X139481107Y-96923868D01*
X139461401Y-96909253D01*
X139443223Y-96892777D01*
X139426747Y-96874599D01*
X139412132Y-96854893D01*
X139399520Y-96833850D01*
X139389030Y-96811671D01*
X139380765Y-96788572D01*
X139374804Y-96764773D01*
X139371204Y-96740505D01*
X139370000Y-96716001D01*
X139370000Y-95815999D01*
X139371204Y-95791495D01*
X139374804Y-95767227D01*
X139380765Y-95743428D01*
X139389030Y-95720329D01*
X139399520Y-95698150D01*
X139412132Y-95677107D01*
X139426747Y-95657401D01*
X139443223Y-95639223D01*
X139461401Y-95622747D01*
X139481107Y-95608132D01*
X139502150Y-95595520D01*
X139524329Y-95585030D01*
X139547428Y-95576765D01*
X139571227Y-95570804D01*
X139595495Y-95567204D01*
X139619999Y-95566000D01*
X140270001Y-95566000D01*
X140294505Y-95567204D01*
X140294505Y-95567204D01*
G37*
D11*
G04 #@! TD*
G04 #@! TO.P,100nF1,2*
G04 #@! TO.N,GND*
X139945000Y-96266000D03*
D10*
G04 #@! TO.N,+3V3*
G04 #@! TO.C,100nF1*
G36*
X142344505Y-95567204D02*
X142368773Y-95570804D01*
X142392572Y-95576765D01*
X142415671Y-95585030D01*
X142437850Y-95595520D01*
X142458893Y-95608132D01*
X142478599Y-95622747D01*
X142496777Y-95639223D01*
X142513253Y-95657401D01*
X142527868Y-95677107D01*
X142540480Y-95698150D01*
X142550970Y-95720329D01*
X142559235Y-95743428D01*
X142565196Y-95767227D01*
X142568796Y-95791495D01*
X142570000Y-95815999D01*
X142570000Y-96716001D01*
X142568796Y-96740505D01*
X142565196Y-96764773D01*
X142559235Y-96788572D01*
X142550970Y-96811671D01*
X142540480Y-96833850D01*
X142527868Y-96854893D01*
X142513253Y-96874599D01*
X142496777Y-96892777D01*
X142478599Y-96909253D01*
X142458893Y-96923868D01*
X142437850Y-96936480D01*
X142415671Y-96946970D01*
X142392572Y-96955235D01*
X142368773Y-96961196D01*
X142344505Y-96964796D01*
X142320001Y-96966000D01*
X141669999Y-96966000D01*
X141645495Y-96964796D01*
X141621227Y-96961196D01*
X141597428Y-96955235D01*
X141574329Y-96946970D01*
X141552150Y-96936480D01*
X141531107Y-96923868D01*
X141511401Y-96909253D01*
X141493223Y-96892777D01*
X141476747Y-96874599D01*
X141462132Y-96854893D01*
X141449520Y-96833850D01*
X141439030Y-96811671D01*
X141430765Y-96788572D01*
X141424804Y-96764773D01*
X141421204Y-96740505D01*
X141420000Y-96716001D01*
X141420000Y-95815999D01*
X141421204Y-95791495D01*
X141424804Y-95767227D01*
X141430765Y-95743428D01*
X141439030Y-95720329D01*
X141449520Y-95698150D01*
X141462132Y-95677107D01*
X141476747Y-95657401D01*
X141493223Y-95639223D01*
X141511401Y-95622747D01*
X141531107Y-95608132D01*
X141552150Y-95595520D01*
X141574329Y-95585030D01*
X141597428Y-95576765D01*
X141621227Y-95570804D01*
X141645495Y-95567204D01*
X141669999Y-95566000D01*
X142320001Y-95566000D01*
X142344505Y-95567204D01*
X142344505Y-95567204D01*
G37*
D11*
G04 #@! TD*
G04 #@! TO.P,100nF1,1*
G04 #@! TO.N,+3V3*
X141995000Y-96266000D03*
D10*
G04 #@! TO.N,+3V3*
G04 #@! TO.C,100nF2*
G36*
X142589505Y-110807204D02*
X142613773Y-110810804D01*
X142637572Y-110816765D01*
X142660671Y-110825030D01*
X142682850Y-110835520D01*
X142703893Y-110848132D01*
X142723599Y-110862747D01*
X142741777Y-110879223D01*
X142758253Y-110897401D01*
X142772868Y-110917107D01*
X142785480Y-110938150D01*
X142795970Y-110960329D01*
X142804235Y-110983428D01*
X142810196Y-111007227D01*
X142813796Y-111031495D01*
X142815000Y-111055999D01*
X142815000Y-111956001D01*
X142813796Y-111980505D01*
X142810196Y-112004773D01*
X142804235Y-112028572D01*
X142795970Y-112051671D01*
X142785480Y-112073850D01*
X142772868Y-112094893D01*
X142758253Y-112114599D01*
X142741777Y-112132777D01*
X142723599Y-112149253D01*
X142703893Y-112163868D01*
X142682850Y-112176480D01*
X142660671Y-112186970D01*
X142637572Y-112195235D01*
X142613773Y-112201196D01*
X142589505Y-112204796D01*
X142565001Y-112206000D01*
X141914999Y-112206000D01*
X141890495Y-112204796D01*
X141866227Y-112201196D01*
X141842428Y-112195235D01*
X141819329Y-112186970D01*
X141797150Y-112176480D01*
X141776107Y-112163868D01*
X141756401Y-112149253D01*
X141738223Y-112132777D01*
X141721747Y-112114599D01*
X141707132Y-112094893D01*
X141694520Y-112073850D01*
X141684030Y-112051671D01*
X141675765Y-112028572D01*
X141669804Y-112004773D01*
X141666204Y-111980505D01*
X141665000Y-111956001D01*
X141665000Y-111055999D01*
X141666204Y-111031495D01*
X141669804Y-111007227D01*
X141675765Y-110983428D01*
X141684030Y-110960329D01*
X141694520Y-110938150D01*
X141707132Y-110917107D01*
X141721747Y-110897401D01*
X141738223Y-110879223D01*
X141756401Y-110862747D01*
X141776107Y-110848132D01*
X141797150Y-110835520D01*
X141819329Y-110825030D01*
X141842428Y-110816765D01*
X141866227Y-110810804D01*
X141890495Y-110807204D01*
X141914999Y-110806000D01*
X142565001Y-110806000D01*
X142589505Y-110807204D01*
X142589505Y-110807204D01*
G37*
D11*
G04 #@! TD*
G04 #@! TO.P,100nF2,1*
G04 #@! TO.N,+3V3*
X142240000Y-111506000D03*
D10*
G04 #@! TO.N,GND*
G04 #@! TO.C,100nF2*
G36*
X140539505Y-110807204D02*
X140563773Y-110810804D01*
X140587572Y-110816765D01*
X140610671Y-110825030D01*
X140632850Y-110835520D01*
X140653893Y-110848132D01*
X140673599Y-110862747D01*
X140691777Y-110879223D01*
X140708253Y-110897401D01*
X140722868Y-110917107D01*
X140735480Y-110938150D01*
X140745970Y-110960329D01*
X140754235Y-110983428D01*
X140760196Y-111007227D01*
X140763796Y-111031495D01*
X140765000Y-111055999D01*
X140765000Y-111956001D01*
X140763796Y-111980505D01*
X140760196Y-112004773D01*
X140754235Y-112028572D01*
X140745970Y-112051671D01*
X140735480Y-112073850D01*
X140722868Y-112094893D01*
X140708253Y-112114599D01*
X140691777Y-112132777D01*
X140673599Y-112149253D01*
X140653893Y-112163868D01*
X140632850Y-112176480D01*
X140610671Y-112186970D01*
X140587572Y-112195235D01*
X140563773Y-112201196D01*
X140539505Y-112204796D01*
X140515001Y-112206000D01*
X139864999Y-112206000D01*
X139840495Y-112204796D01*
X139816227Y-112201196D01*
X139792428Y-112195235D01*
X139769329Y-112186970D01*
X139747150Y-112176480D01*
X139726107Y-112163868D01*
X139706401Y-112149253D01*
X139688223Y-112132777D01*
X139671747Y-112114599D01*
X139657132Y-112094893D01*
X139644520Y-112073850D01*
X139634030Y-112051671D01*
X139625765Y-112028572D01*
X139619804Y-112004773D01*
X139616204Y-111980505D01*
X139615000Y-111956001D01*
X139615000Y-111055999D01*
X139616204Y-111031495D01*
X139619804Y-111007227D01*
X139625765Y-110983428D01*
X139634030Y-110960329D01*
X139644520Y-110938150D01*
X139657132Y-110917107D01*
X139671747Y-110897401D01*
X139688223Y-110879223D01*
X139706401Y-110862747D01*
X139726107Y-110848132D01*
X139747150Y-110835520D01*
X139769329Y-110825030D01*
X139792428Y-110816765D01*
X139816227Y-110810804D01*
X139840495Y-110807204D01*
X139864999Y-110806000D01*
X140515001Y-110806000D01*
X140539505Y-110807204D01*
X140539505Y-110807204D01*
G37*
D11*
G04 #@! TD*
G04 #@! TO.P,100nF2,2*
G04 #@! TO.N,GND*
X140190000Y-111506000D03*
D10*
G04 #@! TO.N,/RTS*
G04 #@! TO.C,100nF3*
G36*
X147542505Y-141160204D02*
X147566773Y-141163804D01*
X147590572Y-141169765D01*
X147613671Y-141178030D01*
X147635850Y-141188520D01*
X147656893Y-141201132D01*
X147676599Y-141215747D01*
X147694777Y-141232223D01*
X147711253Y-141250401D01*
X147725868Y-141270107D01*
X147738480Y-141291150D01*
X147748970Y-141313329D01*
X147757235Y-141336428D01*
X147763196Y-141360227D01*
X147766796Y-141384495D01*
X147768000Y-141408999D01*
X147768000Y-142309001D01*
X147766796Y-142333505D01*
X147763196Y-142357773D01*
X147757235Y-142381572D01*
X147748970Y-142404671D01*
X147738480Y-142426850D01*
X147725868Y-142447893D01*
X147711253Y-142467599D01*
X147694777Y-142485777D01*
X147676599Y-142502253D01*
X147656893Y-142516868D01*
X147635850Y-142529480D01*
X147613671Y-142539970D01*
X147590572Y-142548235D01*
X147566773Y-142554196D01*
X147542505Y-142557796D01*
X147518001Y-142559000D01*
X146867999Y-142559000D01*
X146843495Y-142557796D01*
X146819227Y-142554196D01*
X146795428Y-142548235D01*
X146772329Y-142539970D01*
X146750150Y-142529480D01*
X146729107Y-142516868D01*
X146709401Y-142502253D01*
X146691223Y-142485777D01*
X146674747Y-142467599D01*
X146660132Y-142447893D01*
X146647520Y-142426850D01*
X146637030Y-142404671D01*
X146628765Y-142381572D01*
X146622804Y-142357773D01*
X146619204Y-142333505D01*
X146618000Y-142309001D01*
X146618000Y-141408999D01*
X146619204Y-141384495D01*
X146622804Y-141360227D01*
X146628765Y-141336428D01*
X146637030Y-141313329D01*
X146647520Y-141291150D01*
X146660132Y-141270107D01*
X146674747Y-141250401D01*
X146691223Y-141232223D01*
X146709401Y-141215747D01*
X146729107Y-141201132D01*
X146750150Y-141188520D01*
X146772329Y-141178030D01*
X146795428Y-141169765D01*
X146819227Y-141163804D01*
X146843495Y-141160204D01*
X146867999Y-141159000D01*
X147518001Y-141159000D01*
X147542505Y-141160204D01*
X147542505Y-141160204D01*
G37*
D11*
G04 #@! TD*
G04 #@! TO.P,100nF3,2*
G04 #@! TO.N,/RTS*
X147193000Y-141859000D03*
D10*
G04 #@! TO.N,Net-(100k1-Pad2)*
G04 #@! TO.C,100nF3*
G36*
X145492505Y-141160204D02*
X145516773Y-141163804D01*
X145540572Y-141169765D01*
X145563671Y-141178030D01*
X145585850Y-141188520D01*
X145606893Y-141201132D01*
X145626599Y-141215747D01*
X145644777Y-141232223D01*
X145661253Y-141250401D01*
X145675868Y-141270107D01*
X145688480Y-141291150D01*
X145698970Y-141313329D01*
X145707235Y-141336428D01*
X145713196Y-141360227D01*
X145716796Y-141384495D01*
X145718000Y-141408999D01*
X145718000Y-142309001D01*
X145716796Y-142333505D01*
X145713196Y-142357773D01*
X145707235Y-142381572D01*
X145698970Y-142404671D01*
X145688480Y-142426850D01*
X145675868Y-142447893D01*
X145661253Y-142467599D01*
X145644777Y-142485777D01*
X145626599Y-142502253D01*
X145606893Y-142516868D01*
X145585850Y-142529480D01*
X145563671Y-142539970D01*
X145540572Y-142548235D01*
X145516773Y-142554196D01*
X145492505Y-142557796D01*
X145468001Y-142559000D01*
X144817999Y-142559000D01*
X144793495Y-142557796D01*
X144769227Y-142554196D01*
X144745428Y-142548235D01*
X144722329Y-142539970D01*
X144700150Y-142529480D01*
X144679107Y-142516868D01*
X144659401Y-142502253D01*
X144641223Y-142485777D01*
X144624747Y-142467599D01*
X144610132Y-142447893D01*
X144597520Y-142426850D01*
X144587030Y-142404671D01*
X144578765Y-142381572D01*
X144572804Y-142357773D01*
X144569204Y-142333505D01*
X144568000Y-142309001D01*
X144568000Y-141408999D01*
X144569204Y-141384495D01*
X144572804Y-141360227D01*
X144578765Y-141336428D01*
X144587030Y-141313329D01*
X144597520Y-141291150D01*
X144610132Y-141270107D01*
X144624747Y-141250401D01*
X144641223Y-141232223D01*
X144659401Y-141215747D01*
X144679107Y-141201132D01*
X144700150Y-141188520D01*
X144722329Y-141178030D01*
X144745428Y-141169765D01*
X144769227Y-141163804D01*
X144793495Y-141160204D01*
X144817999Y-141159000D01*
X145468001Y-141159000D01*
X145492505Y-141160204D01*
X145492505Y-141160204D01*
G37*
D11*
G04 #@! TD*
G04 #@! TO.P,100nF3,1*
G04 #@! TO.N,Net-(100k1-Pad2)*
X145143000Y-141859000D03*
D10*
G04 #@! TO.N,GND*
G04 #@! TO.C,100nF4*
G36*
X145129505Y-95567204D02*
X145153773Y-95570804D01*
X145177572Y-95576765D01*
X145200671Y-95585030D01*
X145222850Y-95595520D01*
X145243893Y-95608132D01*
X145263599Y-95622747D01*
X145281777Y-95639223D01*
X145298253Y-95657401D01*
X145312868Y-95677107D01*
X145325480Y-95698150D01*
X145335970Y-95720329D01*
X145344235Y-95743428D01*
X145350196Y-95767227D01*
X145353796Y-95791495D01*
X145355000Y-95815999D01*
X145355000Y-96716001D01*
X145353796Y-96740505D01*
X145350196Y-96764773D01*
X145344235Y-96788572D01*
X145335970Y-96811671D01*
X145325480Y-96833850D01*
X145312868Y-96854893D01*
X145298253Y-96874599D01*
X145281777Y-96892777D01*
X145263599Y-96909253D01*
X145243893Y-96923868D01*
X145222850Y-96936480D01*
X145200671Y-96946970D01*
X145177572Y-96955235D01*
X145153773Y-96961196D01*
X145129505Y-96964796D01*
X145105001Y-96966000D01*
X144454999Y-96966000D01*
X144430495Y-96964796D01*
X144406227Y-96961196D01*
X144382428Y-96955235D01*
X144359329Y-96946970D01*
X144337150Y-96936480D01*
X144316107Y-96923868D01*
X144296401Y-96909253D01*
X144278223Y-96892777D01*
X144261747Y-96874599D01*
X144247132Y-96854893D01*
X144234520Y-96833850D01*
X144224030Y-96811671D01*
X144215765Y-96788572D01*
X144209804Y-96764773D01*
X144206204Y-96740505D01*
X144205000Y-96716001D01*
X144205000Y-95815999D01*
X144206204Y-95791495D01*
X144209804Y-95767227D01*
X144215765Y-95743428D01*
X144224030Y-95720329D01*
X144234520Y-95698150D01*
X144247132Y-95677107D01*
X144261747Y-95657401D01*
X144278223Y-95639223D01*
X144296401Y-95622747D01*
X144316107Y-95608132D01*
X144337150Y-95595520D01*
X144359329Y-95585030D01*
X144382428Y-95576765D01*
X144406227Y-95570804D01*
X144430495Y-95567204D01*
X144454999Y-95566000D01*
X145105001Y-95566000D01*
X145129505Y-95567204D01*
X145129505Y-95567204D01*
G37*
D11*
G04 #@! TD*
G04 #@! TO.P,100nF4,2*
G04 #@! TO.N,GND*
X144780000Y-96266000D03*
D10*
G04 #@! TO.N,+3V3*
G04 #@! TO.C,100nF4*
G36*
X147179505Y-95567204D02*
X147203773Y-95570804D01*
X147227572Y-95576765D01*
X147250671Y-95585030D01*
X147272850Y-95595520D01*
X147293893Y-95608132D01*
X147313599Y-95622747D01*
X147331777Y-95639223D01*
X147348253Y-95657401D01*
X147362868Y-95677107D01*
X147375480Y-95698150D01*
X147385970Y-95720329D01*
X147394235Y-95743428D01*
X147400196Y-95767227D01*
X147403796Y-95791495D01*
X147405000Y-95815999D01*
X147405000Y-96716001D01*
X147403796Y-96740505D01*
X147400196Y-96764773D01*
X147394235Y-96788572D01*
X147385970Y-96811671D01*
X147375480Y-96833850D01*
X147362868Y-96854893D01*
X147348253Y-96874599D01*
X147331777Y-96892777D01*
X147313599Y-96909253D01*
X147293893Y-96923868D01*
X147272850Y-96936480D01*
X147250671Y-96946970D01*
X147227572Y-96955235D01*
X147203773Y-96961196D01*
X147179505Y-96964796D01*
X147155001Y-96966000D01*
X146504999Y-96966000D01*
X146480495Y-96964796D01*
X146456227Y-96961196D01*
X146432428Y-96955235D01*
X146409329Y-96946970D01*
X146387150Y-96936480D01*
X146366107Y-96923868D01*
X146346401Y-96909253D01*
X146328223Y-96892777D01*
X146311747Y-96874599D01*
X146297132Y-96854893D01*
X146284520Y-96833850D01*
X146274030Y-96811671D01*
X146265765Y-96788572D01*
X146259804Y-96764773D01*
X146256204Y-96740505D01*
X146255000Y-96716001D01*
X146255000Y-95815999D01*
X146256204Y-95791495D01*
X146259804Y-95767227D01*
X146265765Y-95743428D01*
X146274030Y-95720329D01*
X146284520Y-95698150D01*
X146297132Y-95677107D01*
X146311747Y-95657401D01*
X146328223Y-95639223D01*
X146346401Y-95622747D01*
X146366107Y-95608132D01*
X146387150Y-95595520D01*
X146409329Y-95585030D01*
X146432428Y-95576765D01*
X146456227Y-95570804D01*
X146480495Y-95567204D01*
X146504999Y-95566000D01*
X147155001Y-95566000D01*
X147179505Y-95567204D01*
X147179505Y-95567204D01*
G37*
D11*
G04 #@! TD*
G04 #@! TO.P,100nF4,1*
G04 #@! TO.N,+3V3*
X146830000Y-96266000D03*
D10*
G04 #@! TO.N,+3V3*
G04 #@! TO.C,100nF5*
G36*
X147669505Y-110807204D02*
X147693773Y-110810804D01*
X147717572Y-110816765D01*
X147740671Y-110825030D01*
X147762850Y-110835520D01*
X147783893Y-110848132D01*
X147803599Y-110862747D01*
X147821777Y-110879223D01*
X147838253Y-110897401D01*
X147852868Y-110917107D01*
X147865480Y-110938150D01*
X147875970Y-110960329D01*
X147884235Y-110983428D01*
X147890196Y-111007227D01*
X147893796Y-111031495D01*
X147895000Y-111055999D01*
X147895000Y-111956001D01*
X147893796Y-111980505D01*
X147890196Y-112004773D01*
X147884235Y-112028572D01*
X147875970Y-112051671D01*
X147865480Y-112073850D01*
X147852868Y-112094893D01*
X147838253Y-112114599D01*
X147821777Y-112132777D01*
X147803599Y-112149253D01*
X147783893Y-112163868D01*
X147762850Y-112176480D01*
X147740671Y-112186970D01*
X147717572Y-112195235D01*
X147693773Y-112201196D01*
X147669505Y-112204796D01*
X147645001Y-112206000D01*
X146994999Y-112206000D01*
X146970495Y-112204796D01*
X146946227Y-112201196D01*
X146922428Y-112195235D01*
X146899329Y-112186970D01*
X146877150Y-112176480D01*
X146856107Y-112163868D01*
X146836401Y-112149253D01*
X146818223Y-112132777D01*
X146801747Y-112114599D01*
X146787132Y-112094893D01*
X146774520Y-112073850D01*
X146764030Y-112051671D01*
X146755765Y-112028572D01*
X146749804Y-112004773D01*
X146746204Y-111980505D01*
X146745000Y-111956001D01*
X146745000Y-111055999D01*
X146746204Y-111031495D01*
X146749804Y-111007227D01*
X146755765Y-110983428D01*
X146764030Y-110960329D01*
X146774520Y-110938150D01*
X146787132Y-110917107D01*
X146801747Y-110897401D01*
X146818223Y-110879223D01*
X146836401Y-110862747D01*
X146856107Y-110848132D01*
X146877150Y-110835520D01*
X146899329Y-110825030D01*
X146922428Y-110816765D01*
X146946227Y-110810804D01*
X146970495Y-110807204D01*
X146994999Y-110806000D01*
X147645001Y-110806000D01*
X147669505Y-110807204D01*
X147669505Y-110807204D01*
G37*
D11*
G04 #@! TD*
G04 #@! TO.P,100nF5,1*
G04 #@! TO.N,+3V3*
X147320000Y-111506000D03*
D10*
G04 #@! TO.N,GND*
G04 #@! TO.C,100nF5*
G36*
X145619505Y-110807204D02*
X145643773Y-110810804D01*
X145667572Y-110816765D01*
X145690671Y-110825030D01*
X145712850Y-110835520D01*
X145733893Y-110848132D01*
X145753599Y-110862747D01*
X145771777Y-110879223D01*
X145788253Y-110897401D01*
X145802868Y-110917107D01*
X145815480Y-110938150D01*
X145825970Y-110960329D01*
X145834235Y-110983428D01*
X145840196Y-111007227D01*
X145843796Y-111031495D01*
X145845000Y-111055999D01*
X145845000Y-111956001D01*
X145843796Y-111980505D01*
X145840196Y-112004773D01*
X145834235Y-112028572D01*
X145825970Y-112051671D01*
X145815480Y-112073850D01*
X145802868Y-112094893D01*
X145788253Y-112114599D01*
X145771777Y-112132777D01*
X145753599Y-112149253D01*
X145733893Y-112163868D01*
X145712850Y-112176480D01*
X145690671Y-112186970D01*
X145667572Y-112195235D01*
X145643773Y-112201196D01*
X145619505Y-112204796D01*
X145595001Y-112206000D01*
X144944999Y-112206000D01*
X144920495Y-112204796D01*
X144896227Y-112201196D01*
X144872428Y-112195235D01*
X144849329Y-112186970D01*
X144827150Y-112176480D01*
X144806107Y-112163868D01*
X144786401Y-112149253D01*
X144768223Y-112132777D01*
X144751747Y-112114599D01*
X144737132Y-112094893D01*
X144724520Y-112073850D01*
X144714030Y-112051671D01*
X144705765Y-112028572D01*
X144699804Y-112004773D01*
X144696204Y-111980505D01*
X144695000Y-111956001D01*
X144695000Y-111055999D01*
X144696204Y-111031495D01*
X144699804Y-111007227D01*
X144705765Y-110983428D01*
X144714030Y-110960329D01*
X144724520Y-110938150D01*
X144737132Y-110917107D01*
X144751747Y-110897401D01*
X144768223Y-110879223D01*
X144786401Y-110862747D01*
X144806107Y-110848132D01*
X144827150Y-110835520D01*
X144849329Y-110825030D01*
X144872428Y-110816765D01*
X144896227Y-110810804D01*
X144920495Y-110807204D01*
X144944999Y-110806000D01*
X145595001Y-110806000D01*
X145619505Y-110807204D01*
X145619505Y-110807204D01*
G37*
D11*
G04 #@! TD*
G04 #@! TO.P,100nF5,2*
G04 #@! TO.N,GND*
X145270000Y-111506000D03*
D10*
G04 #@! TO.N,+3V3*
G04 #@! TO.C,100uF1*
G36*
X157896004Y-118073204D02*
X157920273Y-118076804D01*
X157944071Y-118082765D01*
X157967171Y-118091030D01*
X157989349Y-118101520D01*
X158010393Y-118114133D01*
X158030098Y-118128747D01*
X158048277Y-118145223D01*
X158064753Y-118163402D01*
X158079367Y-118183107D01*
X158091980Y-118204151D01*
X158102470Y-118226329D01*
X158110735Y-118249429D01*
X158116696Y-118273227D01*
X158120296Y-118297496D01*
X158121500Y-118322000D01*
X158121500Y-119422000D01*
X158120296Y-119446504D01*
X158116696Y-119470773D01*
X158110735Y-119494571D01*
X158102470Y-119517671D01*
X158091980Y-119539849D01*
X158079367Y-119560893D01*
X158064753Y-119580598D01*
X158048277Y-119598777D01*
X158030098Y-119615253D01*
X158010393Y-119629867D01*
X157989349Y-119642480D01*
X157967171Y-119652970D01*
X157944071Y-119661235D01*
X157920273Y-119667196D01*
X157896004Y-119670796D01*
X157871500Y-119672000D01*
X155046500Y-119672000D01*
X155021996Y-119670796D01*
X154997727Y-119667196D01*
X154973929Y-119661235D01*
X154950829Y-119652970D01*
X154928651Y-119642480D01*
X154907607Y-119629867D01*
X154887902Y-119615253D01*
X154869723Y-119598777D01*
X154853247Y-119580598D01*
X154838633Y-119560893D01*
X154826020Y-119539849D01*
X154815530Y-119517671D01*
X154807265Y-119494571D01*
X154801304Y-119470773D01*
X154797704Y-119446504D01*
X154796500Y-119422000D01*
X154796500Y-118322000D01*
X154797704Y-118297496D01*
X154801304Y-118273227D01*
X154807265Y-118249429D01*
X154815530Y-118226329D01*
X154826020Y-118204151D01*
X154838633Y-118183107D01*
X154853247Y-118163402D01*
X154869723Y-118145223D01*
X154887902Y-118128747D01*
X154907607Y-118114133D01*
X154928651Y-118101520D01*
X154950829Y-118091030D01*
X154973929Y-118082765D01*
X154997727Y-118076804D01*
X155021996Y-118073204D01*
X155046500Y-118072000D01*
X157871500Y-118072000D01*
X157896004Y-118073204D01*
X157896004Y-118073204D01*
G37*
D12*
G04 #@! TD*
G04 #@! TO.P,100uF1,1*
G04 #@! TO.N,+3V3*
X156459000Y-118872000D03*
D10*
G04 #@! TO.N,GND*
G04 #@! TO.C,100uF1*
G36*
X152821004Y-118073204D02*
X152845273Y-118076804D01*
X152869071Y-118082765D01*
X152892171Y-118091030D01*
X152914349Y-118101520D01*
X152935393Y-118114133D01*
X152955098Y-118128747D01*
X152973277Y-118145223D01*
X152989753Y-118163402D01*
X153004367Y-118183107D01*
X153016980Y-118204151D01*
X153027470Y-118226329D01*
X153035735Y-118249429D01*
X153041696Y-118273227D01*
X153045296Y-118297496D01*
X153046500Y-118322000D01*
X153046500Y-119422000D01*
X153045296Y-119446504D01*
X153041696Y-119470773D01*
X153035735Y-119494571D01*
X153027470Y-119517671D01*
X153016980Y-119539849D01*
X153004367Y-119560893D01*
X152989753Y-119580598D01*
X152973277Y-119598777D01*
X152955098Y-119615253D01*
X152935393Y-119629867D01*
X152914349Y-119642480D01*
X152892171Y-119652970D01*
X152869071Y-119661235D01*
X152845273Y-119667196D01*
X152821004Y-119670796D01*
X152796500Y-119672000D01*
X149971500Y-119672000D01*
X149946996Y-119670796D01*
X149922727Y-119667196D01*
X149898929Y-119661235D01*
X149875829Y-119652970D01*
X149853651Y-119642480D01*
X149832607Y-119629867D01*
X149812902Y-119615253D01*
X149794723Y-119598777D01*
X149778247Y-119580598D01*
X149763633Y-119560893D01*
X149751020Y-119539849D01*
X149740530Y-119517671D01*
X149732265Y-119494571D01*
X149726304Y-119470773D01*
X149722704Y-119446504D01*
X149721500Y-119422000D01*
X149721500Y-118322000D01*
X149722704Y-118297496D01*
X149726304Y-118273227D01*
X149732265Y-118249429D01*
X149740530Y-118226329D01*
X149751020Y-118204151D01*
X149763633Y-118183107D01*
X149778247Y-118163402D01*
X149794723Y-118145223D01*
X149812902Y-118128747D01*
X149832607Y-118114133D01*
X149853651Y-118101520D01*
X149875829Y-118091030D01*
X149898929Y-118082765D01*
X149922727Y-118076804D01*
X149946996Y-118073204D01*
X149971500Y-118072000D01*
X152796500Y-118072000D01*
X152821004Y-118073204D01*
X152821004Y-118073204D01*
G37*
D12*
G04 #@! TD*
G04 #@! TO.P,100uF1,2*
G04 #@! TO.N,GND*
X151384000Y-118872000D03*
D10*
G04 #@! TO.N,+5V*
G04 #@! TO.C,10uF1*
G36*
X145619505Y-118173204D02*
X145643773Y-118176804D01*
X145667572Y-118182765D01*
X145690671Y-118191030D01*
X145712850Y-118201520D01*
X145733893Y-118214132D01*
X145753599Y-118228747D01*
X145771777Y-118245223D01*
X145788253Y-118263401D01*
X145802868Y-118283107D01*
X145815480Y-118304150D01*
X145825970Y-118326329D01*
X145834235Y-118349428D01*
X145840196Y-118373227D01*
X145843796Y-118397495D01*
X145845000Y-118421999D01*
X145845000Y-119322001D01*
X145843796Y-119346505D01*
X145840196Y-119370773D01*
X145834235Y-119394572D01*
X145825970Y-119417671D01*
X145815480Y-119439850D01*
X145802868Y-119460893D01*
X145788253Y-119480599D01*
X145771777Y-119498777D01*
X145753599Y-119515253D01*
X145733893Y-119529868D01*
X145712850Y-119542480D01*
X145690671Y-119552970D01*
X145667572Y-119561235D01*
X145643773Y-119567196D01*
X145619505Y-119570796D01*
X145595001Y-119572000D01*
X144944999Y-119572000D01*
X144920495Y-119570796D01*
X144896227Y-119567196D01*
X144872428Y-119561235D01*
X144849329Y-119552970D01*
X144827150Y-119542480D01*
X144806107Y-119529868D01*
X144786401Y-119515253D01*
X144768223Y-119498777D01*
X144751747Y-119480599D01*
X144737132Y-119460893D01*
X144724520Y-119439850D01*
X144714030Y-119417671D01*
X144705765Y-119394572D01*
X144699804Y-119370773D01*
X144696204Y-119346505D01*
X144695000Y-119322001D01*
X144695000Y-118421999D01*
X144696204Y-118397495D01*
X144699804Y-118373227D01*
X144705765Y-118349428D01*
X144714030Y-118326329D01*
X144724520Y-118304150D01*
X144737132Y-118283107D01*
X144751747Y-118263401D01*
X144768223Y-118245223D01*
X144786401Y-118228747D01*
X144806107Y-118214132D01*
X144827150Y-118201520D01*
X144849329Y-118191030D01*
X144872428Y-118182765D01*
X144896227Y-118176804D01*
X144920495Y-118173204D01*
X144944999Y-118172000D01*
X145595001Y-118172000D01*
X145619505Y-118173204D01*
X145619505Y-118173204D01*
G37*
D11*
G04 #@! TD*
G04 #@! TO.P,10uF1,1*
G04 #@! TO.N,+5V*
X145270000Y-118872000D03*
D10*
G04 #@! TO.N,GND*
G04 #@! TO.C,10uF1*
G36*
X147669505Y-118173204D02*
X147693773Y-118176804D01*
X147717572Y-118182765D01*
X147740671Y-118191030D01*
X147762850Y-118201520D01*
X147783893Y-118214132D01*
X147803599Y-118228747D01*
X147821777Y-118245223D01*
X147838253Y-118263401D01*
X147852868Y-118283107D01*
X147865480Y-118304150D01*
X147875970Y-118326329D01*
X147884235Y-118349428D01*
X147890196Y-118373227D01*
X147893796Y-118397495D01*
X147895000Y-118421999D01*
X147895000Y-119322001D01*
X147893796Y-119346505D01*
X147890196Y-119370773D01*
X147884235Y-119394572D01*
X147875970Y-119417671D01*
X147865480Y-119439850D01*
X147852868Y-119460893D01*
X147838253Y-119480599D01*
X147821777Y-119498777D01*
X147803599Y-119515253D01*
X147783893Y-119529868D01*
X147762850Y-119542480D01*
X147740671Y-119552970D01*
X147717572Y-119561235D01*
X147693773Y-119567196D01*
X147669505Y-119570796D01*
X147645001Y-119572000D01*
X146994999Y-119572000D01*
X146970495Y-119570796D01*
X146946227Y-119567196D01*
X146922428Y-119561235D01*
X146899329Y-119552970D01*
X146877150Y-119542480D01*
X146856107Y-119529868D01*
X146836401Y-119515253D01*
X146818223Y-119498777D01*
X146801747Y-119480599D01*
X146787132Y-119460893D01*
X146774520Y-119439850D01*
X146764030Y-119417671D01*
X146755765Y-119394572D01*
X146749804Y-119370773D01*
X146746204Y-119346505D01*
X146745000Y-119322001D01*
X146745000Y-118421999D01*
X146746204Y-118397495D01*
X146749804Y-118373227D01*
X146755765Y-118349428D01*
X146764030Y-118326329D01*
X146774520Y-118304150D01*
X146787132Y-118283107D01*
X146801747Y-118263401D01*
X146818223Y-118245223D01*
X146836401Y-118228747D01*
X146856107Y-118214132D01*
X146877150Y-118201520D01*
X146899329Y-118191030D01*
X146922428Y-118182765D01*
X146946227Y-118176804D01*
X146970495Y-118173204D01*
X146994999Y-118172000D01*
X147645001Y-118172000D01*
X147669505Y-118173204D01*
X147669505Y-118173204D01*
G37*
D11*
G04 #@! TD*
G04 #@! TO.P,10uF1,2*
G04 #@! TO.N,GND*
X147320000Y-118872000D03*
D10*
G04 #@! TO.N,+3V3*
G04 #@! TO.C,1K1*
G36*
X151724505Y-133921204D02*
X151748773Y-133924804D01*
X151772572Y-133930765D01*
X151795671Y-133939030D01*
X151817850Y-133949520D01*
X151838893Y-133962132D01*
X151858599Y-133976747D01*
X151876777Y-133993223D01*
X151893253Y-134011401D01*
X151907868Y-134031107D01*
X151920480Y-134052150D01*
X151930970Y-134074329D01*
X151939235Y-134097428D01*
X151945196Y-134121227D01*
X151948796Y-134145495D01*
X151950000Y-134169999D01*
X151950000Y-135070001D01*
X151948796Y-135094505D01*
X151945196Y-135118773D01*
X151939235Y-135142572D01*
X151930970Y-135165671D01*
X151920480Y-135187850D01*
X151907868Y-135208893D01*
X151893253Y-135228599D01*
X151876777Y-135246777D01*
X151858599Y-135263253D01*
X151838893Y-135277868D01*
X151817850Y-135290480D01*
X151795671Y-135300970D01*
X151772572Y-135309235D01*
X151748773Y-135315196D01*
X151724505Y-135318796D01*
X151700001Y-135320000D01*
X151049999Y-135320000D01*
X151025495Y-135318796D01*
X151001227Y-135315196D01*
X150977428Y-135309235D01*
X150954329Y-135300970D01*
X150932150Y-135290480D01*
X150911107Y-135277868D01*
X150891401Y-135263253D01*
X150873223Y-135246777D01*
X150856747Y-135228599D01*
X150842132Y-135208893D01*
X150829520Y-135187850D01*
X150819030Y-135165671D01*
X150810765Y-135142572D01*
X150804804Y-135118773D01*
X150801204Y-135094505D01*
X150800000Y-135070001D01*
X150800000Y-134169999D01*
X150801204Y-134145495D01*
X150804804Y-134121227D01*
X150810765Y-134097428D01*
X150819030Y-134074329D01*
X150829520Y-134052150D01*
X150842132Y-134031107D01*
X150856747Y-134011401D01*
X150873223Y-133993223D01*
X150891401Y-133976747D01*
X150911107Y-133962132D01*
X150932150Y-133949520D01*
X150954329Y-133939030D01*
X150977428Y-133930765D01*
X151001227Y-133924804D01*
X151025495Y-133921204D01*
X151049999Y-133920000D01*
X151700001Y-133920000D01*
X151724505Y-133921204D01*
X151724505Y-133921204D01*
G37*
D11*
G04 #@! TD*
G04 #@! TO.P,1K1,1*
G04 #@! TO.N,+3V3*
X151375000Y-134620000D03*
D10*
G04 #@! TO.N,Net-(1K1-Pad2)*
G04 #@! TO.C,1K1*
G36*
X153774505Y-133921204D02*
X153798773Y-133924804D01*
X153822572Y-133930765D01*
X153845671Y-133939030D01*
X153867850Y-133949520D01*
X153888893Y-133962132D01*
X153908599Y-133976747D01*
X153926777Y-133993223D01*
X153943253Y-134011401D01*
X153957868Y-134031107D01*
X153970480Y-134052150D01*
X153980970Y-134074329D01*
X153989235Y-134097428D01*
X153995196Y-134121227D01*
X153998796Y-134145495D01*
X154000000Y-134169999D01*
X154000000Y-135070001D01*
X153998796Y-135094505D01*
X153995196Y-135118773D01*
X153989235Y-135142572D01*
X153980970Y-135165671D01*
X153970480Y-135187850D01*
X153957868Y-135208893D01*
X153943253Y-135228599D01*
X153926777Y-135246777D01*
X153908599Y-135263253D01*
X153888893Y-135277868D01*
X153867850Y-135290480D01*
X153845671Y-135300970D01*
X153822572Y-135309235D01*
X153798773Y-135315196D01*
X153774505Y-135318796D01*
X153750001Y-135320000D01*
X153099999Y-135320000D01*
X153075495Y-135318796D01*
X153051227Y-135315196D01*
X153027428Y-135309235D01*
X153004329Y-135300970D01*
X152982150Y-135290480D01*
X152961107Y-135277868D01*
X152941401Y-135263253D01*
X152923223Y-135246777D01*
X152906747Y-135228599D01*
X152892132Y-135208893D01*
X152879520Y-135187850D01*
X152869030Y-135165671D01*
X152860765Y-135142572D01*
X152854804Y-135118773D01*
X152851204Y-135094505D01*
X152850000Y-135070001D01*
X152850000Y-134169999D01*
X152851204Y-134145495D01*
X152854804Y-134121227D01*
X152860765Y-134097428D01*
X152869030Y-134074329D01*
X152879520Y-134052150D01*
X152892132Y-134031107D01*
X152906747Y-134011401D01*
X152923223Y-133993223D01*
X152941401Y-133976747D01*
X152961107Y-133962132D01*
X152982150Y-133949520D01*
X153004329Y-133939030D01*
X153027428Y-133930765D01*
X153051227Y-133924804D01*
X153075495Y-133921204D01*
X153099999Y-133920000D01*
X153750001Y-133920000D01*
X153774505Y-133921204D01*
X153774505Y-133921204D01*
G37*
D11*
G04 #@! TD*
G04 #@! TO.P,1K1,2*
G04 #@! TO.N,Net-(1K1-Pad2)*
X153425000Y-134620000D03*
D10*
G04 #@! TO.N,Net-(22pF1-Pad2)*
G04 #@! TO.C,22pF1*
G36*
X145637505Y-126682204D02*
X145661773Y-126685804D01*
X145685572Y-126691765D01*
X145708671Y-126700030D01*
X145730850Y-126710520D01*
X145751893Y-126723132D01*
X145771599Y-126737747D01*
X145789777Y-126754223D01*
X145806253Y-126772401D01*
X145820868Y-126792107D01*
X145833480Y-126813150D01*
X145843970Y-126835329D01*
X145852235Y-126858428D01*
X145858196Y-126882227D01*
X145861796Y-126906495D01*
X145863000Y-126930999D01*
X145863000Y-127831001D01*
X145861796Y-127855505D01*
X145858196Y-127879773D01*
X145852235Y-127903572D01*
X145843970Y-127926671D01*
X145833480Y-127948850D01*
X145820868Y-127969893D01*
X145806253Y-127989599D01*
X145789777Y-128007777D01*
X145771599Y-128024253D01*
X145751893Y-128038868D01*
X145730850Y-128051480D01*
X145708671Y-128061970D01*
X145685572Y-128070235D01*
X145661773Y-128076196D01*
X145637505Y-128079796D01*
X145613001Y-128081000D01*
X144962999Y-128081000D01*
X144938495Y-128079796D01*
X144914227Y-128076196D01*
X144890428Y-128070235D01*
X144867329Y-128061970D01*
X144845150Y-128051480D01*
X144824107Y-128038868D01*
X144804401Y-128024253D01*
X144786223Y-128007777D01*
X144769747Y-127989599D01*
X144755132Y-127969893D01*
X144742520Y-127948850D01*
X144732030Y-127926671D01*
X144723765Y-127903572D01*
X144717804Y-127879773D01*
X144714204Y-127855505D01*
X144713000Y-127831001D01*
X144713000Y-126930999D01*
X144714204Y-126906495D01*
X144717804Y-126882227D01*
X144723765Y-126858428D01*
X144732030Y-126835329D01*
X144742520Y-126813150D01*
X144755132Y-126792107D01*
X144769747Y-126772401D01*
X144786223Y-126754223D01*
X144804401Y-126737747D01*
X144824107Y-126723132D01*
X144845150Y-126710520D01*
X144867329Y-126700030D01*
X144890428Y-126691765D01*
X144914227Y-126685804D01*
X144938495Y-126682204D01*
X144962999Y-126681000D01*
X145613001Y-126681000D01*
X145637505Y-126682204D01*
X145637505Y-126682204D01*
G37*
D11*
G04 #@! TD*
G04 #@! TO.P,22pF1,2*
G04 #@! TO.N,Net-(22pF1-Pad2)*
X145288000Y-127381000D03*
D10*
G04 #@! TO.N,GND*
G04 #@! TO.C,22pF1*
G36*
X147687505Y-126682204D02*
X147711773Y-126685804D01*
X147735572Y-126691765D01*
X147758671Y-126700030D01*
X147780850Y-126710520D01*
X147801893Y-126723132D01*
X147821599Y-126737747D01*
X147839777Y-126754223D01*
X147856253Y-126772401D01*
X147870868Y-126792107D01*
X147883480Y-126813150D01*
X147893970Y-126835329D01*
X147902235Y-126858428D01*
X147908196Y-126882227D01*
X147911796Y-126906495D01*
X147913000Y-126930999D01*
X147913000Y-127831001D01*
X147911796Y-127855505D01*
X147908196Y-127879773D01*
X147902235Y-127903572D01*
X147893970Y-127926671D01*
X147883480Y-127948850D01*
X147870868Y-127969893D01*
X147856253Y-127989599D01*
X147839777Y-128007777D01*
X147821599Y-128024253D01*
X147801893Y-128038868D01*
X147780850Y-128051480D01*
X147758671Y-128061970D01*
X147735572Y-128070235D01*
X147711773Y-128076196D01*
X147687505Y-128079796D01*
X147663001Y-128081000D01*
X147012999Y-128081000D01*
X146988495Y-128079796D01*
X146964227Y-128076196D01*
X146940428Y-128070235D01*
X146917329Y-128061970D01*
X146895150Y-128051480D01*
X146874107Y-128038868D01*
X146854401Y-128024253D01*
X146836223Y-128007777D01*
X146819747Y-127989599D01*
X146805132Y-127969893D01*
X146792520Y-127948850D01*
X146782030Y-127926671D01*
X146773765Y-127903572D01*
X146767804Y-127879773D01*
X146764204Y-127855505D01*
X146763000Y-127831001D01*
X146763000Y-126930999D01*
X146764204Y-126906495D01*
X146767804Y-126882227D01*
X146773765Y-126858428D01*
X146782030Y-126835329D01*
X146792520Y-126813150D01*
X146805132Y-126792107D01*
X146819747Y-126772401D01*
X146836223Y-126754223D01*
X146854401Y-126737747D01*
X146874107Y-126723132D01*
X146895150Y-126710520D01*
X146917329Y-126700030D01*
X146940428Y-126691765D01*
X146964227Y-126685804D01*
X146988495Y-126682204D01*
X147012999Y-126681000D01*
X147663001Y-126681000D01*
X147687505Y-126682204D01*
X147687505Y-126682204D01*
G37*
D11*
G04 #@! TD*
G04 #@! TO.P,22pF1,1*
G04 #@! TO.N,GND*
X147338000Y-127381000D03*
D10*
G04 #@! TO.N,GND*
G04 #@! TO.C,22pF2*
G36*
X147499527Y-122019405D02*
X147523795Y-122023005D01*
X147547594Y-122028966D01*
X147570693Y-122037231D01*
X147592872Y-122047721D01*
X147613915Y-122060333D01*
X147633621Y-122074948D01*
X147651799Y-122091424D01*
X147668275Y-122109602D01*
X147682890Y-122129308D01*
X147695502Y-122150351D01*
X147705992Y-122172530D01*
X147714257Y-122195629D01*
X147720218Y-122219428D01*
X147723818Y-122243696D01*
X147725022Y-122268200D01*
X147725022Y-123168202D01*
X147723818Y-123192706D01*
X147720218Y-123216974D01*
X147714257Y-123240773D01*
X147705992Y-123263872D01*
X147695502Y-123286051D01*
X147682890Y-123307094D01*
X147668275Y-123326800D01*
X147651799Y-123344978D01*
X147633621Y-123361454D01*
X147613915Y-123376069D01*
X147592872Y-123388681D01*
X147570693Y-123399171D01*
X147547594Y-123407436D01*
X147523795Y-123413397D01*
X147499527Y-123416997D01*
X147475023Y-123418201D01*
X146825021Y-123418201D01*
X146800517Y-123416997D01*
X146776249Y-123413397D01*
X146752450Y-123407436D01*
X146729351Y-123399171D01*
X146707172Y-123388681D01*
X146686129Y-123376069D01*
X146666423Y-123361454D01*
X146648245Y-123344978D01*
X146631769Y-123326800D01*
X146617154Y-123307094D01*
X146604542Y-123286051D01*
X146594052Y-123263872D01*
X146585787Y-123240773D01*
X146579826Y-123216974D01*
X146576226Y-123192706D01*
X146575022Y-123168202D01*
X146575022Y-122268200D01*
X146576226Y-122243696D01*
X146579826Y-122219428D01*
X146585787Y-122195629D01*
X146594052Y-122172530D01*
X146604542Y-122150351D01*
X146617154Y-122129308D01*
X146631769Y-122109602D01*
X146648245Y-122091424D01*
X146666423Y-122074948D01*
X146686129Y-122060333D01*
X146707172Y-122047721D01*
X146729351Y-122037231D01*
X146752450Y-122028966D01*
X146776249Y-122023005D01*
X146800517Y-122019405D01*
X146825021Y-122018201D01*
X147475023Y-122018201D01*
X147499527Y-122019405D01*
X147499527Y-122019405D01*
G37*
D11*
G04 #@! TD*
G04 #@! TO.P,22pF2,1*
G04 #@! TO.N,GND*
X147150022Y-122718201D03*
D10*
G04 #@! TO.N,Net-(22pF2-Pad2)*
G04 #@! TO.C,22pF2*
G36*
X145449527Y-122019405D02*
X145473795Y-122023005D01*
X145497594Y-122028966D01*
X145520693Y-122037231D01*
X145542872Y-122047721D01*
X145563915Y-122060333D01*
X145583621Y-122074948D01*
X145601799Y-122091424D01*
X145618275Y-122109602D01*
X145632890Y-122129308D01*
X145645502Y-122150351D01*
X145655992Y-122172530D01*
X145664257Y-122195629D01*
X145670218Y-122219428D01*
X145673818Y-122243696D01*
X145675022Y-122268200D01*
X145675022Y-123168202D01*
X145673818Y-123192706D01*
X145670218Y-123216974D01*
X145664257Y-123240773D01*
X145655992Y-123263872D01*
X145645502Y-123286051D01*
X145632890Y-123307094D01*
X145618275Y-123326800D01*
X145601799Y-123344978D01*
X145583621Y-123361454D01*
X145563915Y-123376069D01*
X145542872Y-123388681D01*
X145520693Y-123399171D01*
X145497594Y-123407436D01*
X145473795Y-123413397D01*
X145449527Y-123416997D01*
X145425023Y-123418201D01*
X144775021Y-123418201D01*
X144750517Y-123416997D01*
X144726249Y-123413397D01*
X144702450Y-123407436D01*
X144679351Y-123399171D01*
X144657172Y-123388681D01*
X144636129Y-123376069D01*
X144616423Y-123361454D01*
X144598245Y-123344978D01*
X144581769Y-123326800D01*
X144567154Y-123307094D01*
X144554542Y-123286051D01*
X144544052Y-123263872D01*
X144535787Y-123240773D01*
X144529826Y-123216974D01*
X144526226Y-123192706D01*
X144525022Y-123168202D01*
X144525022Y-122268200D01*
X144526226Y-122243696D01*
X144529826Y-122219428D01*
X144535787Y-122195629D01*
X144544052Y-122172530D01*
X144554542Y-122150351D01*
X144567154Y-122129308D01*
X144581769Y-122109602D01*
X144598245Y-122091424D01*
X144616423Y-122074948D01*
X144636129Y-122060333D01*
X144657172Y-122047721D01*
X144679351Y-122037231D01*
X144702450Y-122028966D01*
X144726249Y-122023005D01*
X144750517Y-122019405D01*
X144775021Y-122018201D01*
X145425023Y-122018201D01*
X145449527Y-122019405D01*
X145449527Y-122019405D01*
G37*
D11*
G04 #@! TD*
G04 #@! TO.P,22pF2,2*
G04 #@! TO.N,Net-(22pF2-Pad2)*
X145100022Y-122718201D03*
D13*
G04 #@! TO.P,8mhz1,1*
G04 #@! TO.N,Net-(22pF2-Pad2)*
X140208000Y-122237000D03*
G04 #@! TO.P,8mhz1,2*
G04 #@! TO.N,Net-(22pF1-Pad2)*
X140208000Y-134112000D03*
G04 #@! TD*
D10*
G04 #@! TO.N,+3V3*
G04 #@! TO.C,D1*
G36*
X147460642Y-136969174D02*
X147484303Y-136972684D01*
X147507507Y-136978496D01*
X147530029Y-136986554D01*
X147551653Y-136996782D01*
X147572170Y-137009079D01*
X147591383Y-137023329D01*
X147609107Y-137039393D01*
X147625171Y-137057117D01*
X147639421Y-137076330D01*
X147651718Y-137096847D01*
X147661946Y-137118471D01*
X147670004Y-137140993D01*
X147675816Y-137164197D01*
X147679326Y-137187858D01*
X147680500Y-137211750D01*
X147680500Y-138124250D01*
X147679326Y-138148142D01*
X147675816Y-138171803D01*
X147670004Y-138195007D01*
X147661946Y-138217529D01*
X147651718Y-138239153D01*
X147639421Y-138259670D01*
X147625171Y-138278883D01*
X147609107Y-138296607D01*
X147591383Y-138312671D01*
X147572170Y-138326921D01*
X147551653Y-138339218D01*
X147530029Y-138349446D01*
X147507507Y-138357504D01*
X147484303Y-138363316D01*
X147460642Y-138366826D01*
X147436750Y-138368000D01*
X146949250Y-138368000D01*
X146925358Y-138366826D01*
X146901697Y-138363316D01*
X146878493Y-138357504D01*
X146855971Y-138349446D01*
X146834347Y-138339218D01*
X146813830Y-138326921D01*
X146794617Y-138312671D01*
X146776893Y-138296607D01*
X146760829Y-138278883D01*
X146746579Y-138259670D01*
X146734282Y-138239153D01*
X146724054Y-138217529D01*
X146715996Y-138195007D01*
X146710184Y-138171803D01*
X146706674Y-138148142D01*
X146705500Y-138124250D01*
X146705500Y-137211750D01*
X146706674Y-137187858D01*
X146710184Y-137164197D01*
X146715996Y-137140993D01*
X146724054Y-137118471D01*
X146734282Y-137096847D01*
X146746579Y-137076330D01*
X146760829Y-137057117D01*
X146776893Y-137039393D01*
X146794617Y-137023329D01*
X146813830Y-137009079D01*
X146834347Y-136996782D01*
X146855971Y-136986554D01*
X146878493Y-136978496D01*
X146901697Y-136972684D01*
X146925358Y-136969174D01*
X146949250Y-136968000D01*
X147436750Y-136968000D01*
X147460642Y-136969174D01*
X147460642Y-136969174D01*
G37*
D14*
G04 #@! TD*
G04 #@! TO.P,D1,1*
G04 #@! TO.N,+3V3*
X147193000Y-137668000D03*
D10*
G04 #@! TO.N,Net-(100k1-Pad2)*
G04 #@! TO.C,D1*
G36*
X145585642Y-136969174D02*
X145609303Y-136972684D01*
X145632507Y-136978496D01*
X145655029Y-136986554D01*
X145676653Y-136996782D01*
X145697170Y-137009079D01*
X145716383Y-137023329D01*
X145734107Y-137039393D01*
X145750171Y-137057117D01*
X145764421Y-137076330D01*
X145776718Y-137096847D01*
X145786946Y-137118471D01*
X145795004Y-137140993D01*
X145800816Y-137164197D01*
X145804326Y-137187858D01*
X145805500Y-137211750D01*
X145805500Y-138124250D01*
X145804326Y-138148142D01*
X145800816Y-138171803D01*
X145795004Y-138195007D01*
X145786946Y-138217529D01*
X145776718Y-138239153D01*
X145764421Y-138259670D01*
X145750171Y-138278883D01*
X145734107Y-138296607D01*
X145716383Y-138312671D01*
X145697170Y-138326921D01*
X145676653Y-138339218D01*
X145655029Y-138349446D01*
X145632507Y-138357504D01*
X145609303Y-138363316D01*
X145585642Y-138366826D01*
X145561750Y-138368000D01*
X145074250Y-138368000D01*
X145050358Y-138366826D01*
X145026697Y-138363316D01*
X145003493Y-138357504D01*
X144980971Y-138349446D01*
X144959347Y-138339218D01*
X144938830Y-138326921D01*
X144919617Y-138312671D01*
X144901893Y-138296607D01*
X144885829Y-138278883D01*
X144871579Y-138259670D01*
X144859282Y-138239153D01*
X144849054Y-138217529D01*
X144840996Y-138195007D01*
X144835184Y-138171803D01*
X144831674Y-138148142D01*
X144830500Y-138124250D01*
X144830500Y-137211750D01*
X144831674Y-137187858D01*
X144835184Y-137164197D01*
X144840996Y-137140993D01*
X144849054Y-137118471D01*
X144859282Y-137096847D01*
X144871579Y-137076330D01*
X144885829Y-137057117D01*
X144901893Y-137039393D01*
X144919617Y-137023329D01*
X144938830Y-137009079D01*
X144959347Y-136996782D01*
X144980971Y-136986554D01*
X145003493Y-136978496D01*
X145026697Y-136972684D01*
X145050358Y-136969174D01*
X145074250Y-136968000D01*
X145561750Y-136968000D01*
X145585642Y-136969174D01*
X145585642Y-136969174D01*
G37*
D14*
G04 #@! TD*
G04 #@! TO.P,D1,2*
G04 #@! TO.N,Net-(100k1-Pad2)*
X145318000Y-137668000D03*
D10*
G04 #@! TO.N,Net-(1K1-Pad2)*
G04 #@! TO.C,D2*
G36*
X155924505Y-133921204D02*
X155948773Y-133924804D01*
X155972572Y-133930765D01*
X155995671Y-133939030D01*
X156017850Y-133949520D01*
X156038893Y-133962132D01*
X156058599Y-133976747D01*
X156076777Y-133993223D01*
X156093253Y-134011401D01*
X156107868Y-134031107D01*
X156120480Y-134052150D01*
X156130970Y-134074329D01*
X156139235Y-134097428D01*
X156145196Y-134121227D01*
X156148796Y-134145495D01*
X156150000Y-134169999D01*
X156150000Y-135070001D01*
X156148796Y-135094505D01*
X156145196Y-135118773D01*
X156139235Y-135142572D01*
X156130970Y-135165671D01*
X156120480Y-135187850D01*
X156107868Y-135208893D01*
X156093253Y-135228599D01*
X156076777Y-135246777D01*
X156058599Y-135263253D01*
X156038893Y-135277868D01*
X156017850Y-135290480D01*
X155995671Y-135300970D01*
X155972572Y-135309235D01*
X155948773Y-135315196D01*
X155924505Y-135318796D01*
X155900001Y-135320000D01*
X155249999Y-135320000D01*
X155225495Y-135318796D01*
X155201227Y-135315196D01*
X155177428Y-135309235D01*
X155154329Y-135300970D01*
X155132150Y-135290480D01*
X155111107Y-135277868D01*
X155091401Y-135263253D01*
X155073223Y-135246777D01*
X155056747Y-135228599D01*
X155042132Y-135208893D01*
X155029520Y-135187850D01*
X155019030Y-135165671D01*
X155010765Y-135142572D01*
X155004804Y-135118773D01*
X155001204Y-135094505D01*
X155000000Y-135070001D01*
X155000000Y-134169999D01*
X155001204Y-134145495D01*
X155004804Y-134121227D01*
X155010765Y-134097428D01*
X155019030Y-134074329D01*
X155029520Y-134052150D01*
X155042132Y-134031107D01*
X155056747Y-134011401D01*
X155073223Y-133993223D01*
X155091401Y-133976747D01*
X155111107Y-133962132D01*
X155132150Y-133949520D01*
X155154329Y-133939030D01*
X155177428Y-133930765D01*
X155201227Y-133924804D01*
X155225495Y-133921204D01*
X155249999Y-133920000D01*
X155900001Y-133920000D01*
X155924505Y-133921204D01*
X155924505Y-133921204D01*
G37*
D11*
G04 #@! TD*
G04 #@! TO.P,D2,1*
G04 #@! TO.N,Net-(1K1-Pad2)*
X155575000Y-134620000D03*
D10*
G04 #@! TO.N,GND*
G04 #@! TO.C,D2*
G36*
X157974505Y-133921204D02*
X157998773Y-133924804D01*
X158022572Y-133930765D01*
X158045671Y-133939030D01*
X158067850Y-133949520D01*
X158088893Y-133962132D01*
X158108599Y-133976747D01*
X158126777Y-133993223D01*
X158143253Y-134011401D01*
X158157868Y-134031107D01*
X158170480Y-134052150D01*
X158180970Y-134074329D01*
X158189235Y-134097428D01*
X158195196Y-134121227D01*
X158198796Y-134145495D01*
X158200000Y-134169999D01*
X158200000Y-135070001D01*
X158198796Y-135094505D01*
X158195196Y-135118773D01*
X158189235Y-135142572D01*
X158180970Y-135165671D01*
X158170480Y-135187850D01*
X158157868Y-135208893D01*
X158143253Y-135228599D01*
X158126777Y-135246777D01*
X158108599Y-135263253D01*
X158088893Y-135277868D01*
X158067850Y-135290480D01*
X158045671Y-135300970D01*
X158022572Y-135309235D01*
X157998773Y-135315196D01*
X157974505Y-135318796D01*
X157950001Y-135320000D01*
X157299999Y-135320000D01*
X157275495Y-135318796D01*
X157251227Y-135315196D01*
X157227428Y-135309235D01*
X157204329Y-135300970D01*
X157182150Y-135290480D01*
X157161107Y-135277868D01*
X157141401Y-135263253D01*
X157123223Y-135246777D01*
X157106747Y-135228599D01*
X157092132Y-135208893D01*
X157079520Y-135187850D01*
X157069030Y-135165671D01*
X157060765Y-135142572D01*
X157054804Y-135118773D01*
X157051204Y-135094505D01*
X157050000Y-135070001D01*
X157050000Y-134169999D01*
X157051204Y-134145495D01*
X157054804Y-134121227D01*
X157060765Y-134097428D01*
X157069030Y-134074329D01*
X157079520Y-134052150D01*
X157092132Y-134031107D01*
X157106747Y-134011401D01*
X157123223Y-133993223D01*
X157141401Y-133976747D01*
X157161107Y-133962132D01*
X157182150Y-133949520D01*
X157204329Y-133939030D01*
X157227428Y-133930765D01*
X157251227Y-133924804D01*
X157275495Y-133921204D01*
X157299999Y-133920000D01*
X157950001Y-133920000D01*
X157974505Y-133921204D01*
X157974505Y-133921204D01*
G37*
D11*
G04 #@! TD*
G04 #@! TO.P,D2,2*
G04 #@! TO.N,GND*
X157625000Y-134620000D03*
D15*
G04 #@! TO.P,FTDI1,1*
G04 #@! TO.N,GND*
X131445000Y-147320000D03*
D16*
G04 #@! TO.P,FTDI1,2*
G04 #@! TO.N,/CTS*
X133985000Y-147320000D03*
G04 #@! TO.P,FTDI1,3*
G04 #@! TO.N,+3V3*
X136525000Y-147320000D03*
G04 #@! TO.P,FTDI1,4*
G04 #@! TO.N,/RX_328*
X139065000Y-147320000D03*
G04 #@! TO.P,FTDI1,5*
G04 #@! TO.N,/TX_328*
X141605000Y-147320000D03*
G04 #@! TO.P,FTDI1,6*
G04 #@! TO.N,/RTS*
X144145000Y-147320000D03*
G04 #@! TD*
D15*
G04 #@! TO.P,J2,1*
G04 #@! TO.N,/MISO*
X157480000Y-87376000D03*
D16*
G04 #@! TO.P,J2,2*
G04 #@! TO.N,+3V3*
X157480000Y-89916000D03*
G04 #@! TO.P,J2,3*
G04 #@! TO.N,/SCK*
X154940000Y-87376000D03*
G04 #@! TO.P,J2,4*
G04 #@! TO.N,/MOSI*
X154940000Y-89916000D03*
G04 #@! TO.P,J2,5*
G04 #@! TO.N,/RESET*
X152400000Y-87376000D03*
G04 #@! TO.P,J2,6*
G04 #@! TO.N,GND*
X152400000Y-89916000D03*
G04 #@! TD*
D17*
G04 #@! TO.P,reset1,2*
G04 #@! TO.N,GND*
X138768000Y-90642000D03*
G04 #@! TO.P,reset1,1*
G04 #@! TO.N,/RESET*
X138768000Y-86142000D03*
X146728000Y-86142000D03*
G04 #@! TO.P,reset1,2*
G04 #@! TO.N,GND*
X146728000Y-90642000D03*
G04 #@! TD*
D18*
G04 #@! TO.P,U1,2*
G04 #@! TO.N,+3V3*
X151130000Y-127635000D03*
D19*
X157430000Y-127635000D03*
G04 #@! TO.P,U1,3*
G04 #@! TO.N,+5V*
X157430000Y-125335000D03*
G04 #@! TO.P,U1,1*
G04 #@! TO.N,GND*
X157430000Y-129935000D03*
G04 #@! TD*
D20*
G04 #@! TO.P,U2,1*
G04 #@! TO.N,Net-(U2-Pad1)*
X140710000Y-108390000D03*
G04 #@! TO.P,U2,2*
G04 #@! TO.N,Net-(U2-Pad2)*
X141510000Y-108390000D03*
G04 #@! TO.P,U2,3*
G04 #@! TO.N,GND*
X142310000Y-108390000D03*
G04 #@! TO.P,U2,4*
G04 #@! TO.N,+3V3*
X143110000Y-108390000D03*
G04 #@! TO.P,U2,5*
G04 #@! TO.N,GND*
X143910000Y-108390000D03*
G04 #@! TO.P,U2,6*
G04 #@! TO.N,+3V3*
X144710000Y-108390000D03*
G04 #@! TO.P,U2,7*
G04 #@! TO.N,Net-(22pF1-Pad2)*
X145510000Y-108390000D03*
G04 #@! TO.P,U2,8*
G04 #@! TO.N,Net-(22pF2-Pad2)*
X146310000Y-108390000D03*
D21*
G04 #@! TO.P,U2,9*
G04 #@! TO.N,Net-(U2-Pad9)*
X147760000Y-106940000D03*
G04 #@! TO.P,U2,10*
G04 #@! TO.N,Net-(U2-Pad10)*
X147760000Y-106140000D03*
G04 #@! TO.P,U2,11*
G04 #@! TO.N,Net-(U2-Pad11)*
X147760000Y-105340000D03*
G04 #@! TO.P,U2,12*
G04 #@! TO.N,Net-(U2-Pad12)*
X147760000Y-104540000D03*
G04 #@! TO.P,U2,13*
G04 #@! TO.N,Net-(U2-Pad13)*
X147760000Y-103740000D03*
G04 #@! TO.P,U2,14*
G04 #@! TO.N,Net-(U2-Pad14)*
X147760000Y-102940000D03*
G04 #@! TO.P,U2,15*
G04 #@! TO.N,/MOSI*
X147760000Y-102140000D03*
G04 #@! TO.P,U2,16*
G04 #@! TO.N,/MISO*
X147760000Y-101340000D03*
D20*
G04 #@! TO.P,U2,17*
G04 #@! TO.N,/SCK*
X146310000Y-99890000D03*
G04 #@! TO.P,U2,18*
G04 #@! TO.N,+3V3*
X145510000Y-99890000D03*
G04 #@! TO.P,U2,19*
G04 #@! TO.N,Net-(U2-Pad19)*
X144710000Y-99890000D03*
G04 #@! TO.P,U2,20*
G04 #@! TO.N,+3V3*
X143910000Y-99890000D03*
G04 #@! TO.P,U2,21*
G04 #@! TO.N,GND*
X143110000Y-99890000D03*
G04 #@! TO.P,U2,22*
G04 #@! TO.N,Net-(U2-Pad22)*
X142310000Y-99890000D03*
G04 #@! TO.P,U2,23*
G04 #@! TO.N,/A0*
X141510000Y-99890000D03*
G04 #@! TO.P,U2,24*
G04 #@! TO.N,/A1*
X140710000Y-99890000D03*
D21*
G04 #@! TO.P,U2,25*
G04 #@! TO.N,/A2*
X139260000Y-101340000D03*
G04 #@! TO.P,U2,26*
G04 #@! TO.N,Net-(U2-Pad26)*
X139260000Y-102140000D03*
G04 #@! TO.P,U2,27*
G04 #@! TO.N,/SDA*
X139260000Y-102940000D03*
G04 #@! TO.P,U2,28*
G04 #@! TO.N,/SCL*
X139260000Y-103740000D03*
G04 #@! TO.P,U2,29*
G04 #@! TO.N,/RESET*
X139260000Y-104540000D03*
G04 #@! TO.P,U2,30*
G04 #@! TO.N,/RX_328*
X139260000Y-105340000D03*
G04 #@! TO.P,U2,31*
G04 #@! TO.N,/TX_328*
X139260000Y-106140000D03*
G04 #@! TO.P,U2,32*
G04 #@! TO.N,Net-(U2-Pad32)*
X139260000Y-106940000D03*
G04 #@! TD*
D15*
G04 #@! TO.P,J3,1*
G04 #@! TO.N,Net-(J3-Pad1)*
X132080000Y-140716000D03*
D16*
G04 #@! TO.P,J3,2*
G04 #@! TO.N,+5V*
X134620000Y-140716000D03*
G04 #@! TO.P,J3,3*
G04 #@! TO.N,Net-(J3-Pad3)*
X132080000Y-138176000D03*
G04 #@! TO.P,J3,4*
G04 #@! TO.N,+5V*
X134620000Y-138176000D03*
G04 #@! TO.P,J3,5*
G04 #@! TO.N,Net-(J3-Pad5)*
X132080000Y-135636000D03*
G04 #@! TO.P,J3,6*
G04 #@! TO.N,GND*
X134620000Y-135636000D03*
G04 #@! TO.P,J3,7*
G04 #@! TO.N,Net-(J3-Pad7)*
X132080000Y-133096000D03*
G04 #@! TO.P,J3,8*
G04 #@! TO.N,/RX_328*
X134620000Y-133096000D03*
G04 #@! TO.P,J3,9*
G04 #@! TO.N,GND*
X132080000Y-130556000D03*
G04 #@! TO.P,J3,10*
G04 #@! TO.N,/TX_328*
X134620000Y-130556000D03*
G04 #@! TO.P,J3,11*
G04 #@! TO.N,Net-(J3-Pad11)*
X132080000Y-128016000D03*
G04 #@! TO.P,J3,12*
G04 #@! TO.N,Net-(J3-Pad12)*
X134620000Y-128016000D03*
G04 #@! TO.P,J3,13*
G04 #@! TO.N,Net-(J3-Pad13)*
X132080000Y-125476000D03*
G04 #@! TO.P,J3,14*
G04 #@! TO.N,GND*
X134620000Y-125476000D03*
G04 #@! TO.P,J3,15*
G04 #@! TO.N,Net-(J3-Pad15)*
X132080000Y-122936000D03*
G04 #@! TO.P,J3,16*
G04 #@! TO.N,Net-(J3-Pad16)*
X134620000Y-122936000D03*
G04 #@! TO.P,J3,17*
G04 #@! TO.N,Net-(J3-Pad17)*
X132080000Y-120396000D03*
G04 #@! TO.P,J3,18*
G04 #@! TO.N,Net-(J3-Pad18)*
X134620000Y-120396000D03*
G04 #@! TO.P,J3,19*
G04 #@! TO.N,Net-(J3-Pad19)*
X132080000Y-117856000D03*
G04 #@! TO.P,J3,20*
G04 #@! TO.N,GND*
X134620000Y-117856000D03*
G04 #@! TO.P,J3,21*
G04 #@! TO.N,Net-(J3-Pad21)*
X132080000Y-115316000D03*
G04 #@! TO.P,J3,22*
G04 #@! TO.N,Net-(J3-Pad22)*
X134620000Y-115316000D03*
G04 #@! TO.P,J3,23*
G04 #@! TO.N,Net-(J3-Pad23)*
X132080000Y-112776000D03*
G04 #@! TO.P,J3,24*
G04 #@! TO.N,Net-(J3-Pad24)*
X134620000Y-112776000D03*
G04 #@! TO.P,J3,25*
G04 #@! TO.N,GND*
X132080000Y-110236000D03*
G04 #@! TO.P,J3,26*
G04 #@! TO.N,Net-(J3-Pad26)*
X134620000Y-110236000D03*
G04 #@! TO.P,J3,27*
G04 #@! TO.N,Net-(J3-Pad27)*
X132080000Y-107696000D03*
G04 #@! TO.P,J3,28*
G04 #@! TO.N,Net-(J3-Pad28)*
X134620000Y-107696000D03*
G04 #@! TO.P,J3,29*
G04 #@! TO.N,Net-(J3-Pad29)*
X132080000Y-105156000D03*
G04 #@! TO.P,J3,30*
G04 #@! TO.N,GND*
X134620000Y-105156000D03*
G04 #@! TO.P,J3,31*
G04 #@! TO.N,Net-(J3-Pad31)*
X132080000Y-102616000D03*
G04 #@! TO.P,J3,32*
G04 #@! TO.N,Net-(J3-Pad32)*
X134620000Y-102616000D03*
G04 #@! TO.P,J3,33*
G04 #@! TO.N,Net-(J3-Pad33)*
X132080000Y-100076000D03*
G04 #@! TO.P,J3,34*
G04 #@! TO.N,GND*
X134620000Y-100076000D03*
G04 #@! TO.P,J3,35*
G04 #@! TO.N,Net-(J3-Pad35)*
X132080000Y-97536000D03*
G04 #@! TO.P,J3,36*
G04 #@! TO.N,Net-(J3-Pad36)*
X134620000Y-97536000D03*
G04 #@! TO.P,J3,37*
G04 #@! TO.N,Net-(J3-Pad37)*
X132080000Y-94996000D03*
G04 #@! TO.P,J3,38*
G04 #@! TO.N,Net-(J3-Pad38)*
X134620000Y-94996000D03*
G04 #@! TO.P,J3,39*
G04 #@! TO.N,GND*
X132080000Y-92456000D03*
G04 #@! TO.P,J3,40*
G04 #@! TO.N,Net-(J3-Pad40)*
X134620000Y-92456000D03*
G04 #@! TD*
D22*
G04 #@! TO.P,SMBJ5.0A1,1*
G04 #@! TO.N,+5V*
X152155000Y-140970000D03*
G04 #@! TO.P,SMBJ5.0A1,2*
G04 #@! TO.N,GND*
X156455000Y-140970000D03*
G04 #@! TD*
D10*
G04 #@! TO.N,GND*
G04 #@! TO.C,D3*
G36*
X132429505Y-86169204D02*
X132453773Y-86172804D01*
X132477572Y-86178765D01*
X132500671Y-86187030D01*
X132522850Y-86197520D01*
X132543893Y-86210132D01*
X132563599Y-86224747D01*
X132581777Y-86241223D01*
X132598253Y-86259401D01*
X132612868Y-86279107D01*
X132625480Y-86300150D01*
X132635970Y-86322329D01*
X132644235Y-86345428D01*
X132650196Y-86369227D01*
X132653796Y-86393495D01*
X132655000Y-86417999D01*
X132655000Y-87318001D01*
X132653796Y-87342505D01*
X132650196Y-87366773D01*
X132644235Y-87390572D01*
X132635970Y-87413671D01*
X132625480Y-87435850D01*
X132612868Y-87456893D01*
X132598253Y-87476599D01*
X132581777Y-87494777D01*
X132563599Y-87511253D01*
X132543893Y-87525868D01*
X132522850Y-87538480D01*
X132500671Y-87548970D01*
X132477572Y-87557235D01*
X132453773Y-87563196D01*
X132429505Y-87566796D01*
X132405001Y-87568000D01*
X131754999Y-87568000D01*
X131730495Y-87566796D01*
X131706227Y-87563196D01*
X131682428Y-87557235D01*
X131659329Y-87548970D01*
X131637150Y-87538480D01*
X131616107Y-87525868D01*
X131596401Y-87511253D01*
X131578223Y-87494777D01*
X131561747Y-87476599D01*
X131547132Y-87456893D01*
X131534520Y-87435850D01*
X131524030Y-87413671D01*
X131515765Y-87390572D01*
X131509804Y-87366773D01*
X131506204Y-87342505D01*
X131505000Y-87318001D01*
X131505000Y-86417999D01*
X131506204Y-86393495D01*
X131509804Y-86369227D01*
X131515765Y-86345428D01*
X131524030Y-86322329D01*
X131534520Y-86300150D01*
X131547132Y-86279107D01*
X131561747Y-86259401D01*
X131578223Y-86241223D01*
X131596401Y-86224747D01*
X131616107Y-86210132D01*
X131637150Y-86197520D01*
X131659329Y-86187030D01*
X131682428Y-86178765D01*
X131706227Y-86172804D01*
X131730495Y-86169204D01*
X131754999Y-86168000D01*
X132405001Y-86168000D01*
X132429505Y-86169204D01*
X132429505Y-86169204D01*
G37*
D11*
G04 #@! TD*
G04 #@! TO.P,D3,1*
G04 #@! TO.N,GND*
X132080000Y-86868000D03*
D10*
G04 #@! TO.N,/SCK*
G04 #@! TO.C,D3*
G36*
X134479505Y-86169204D02*
X134503773Y-86172804D01*
X134527572Y-86178765D01*
X134550671Y-86187030D01*
X134572850Y-86197520D01*
X134593893Y-86210132D01*
X134613599Y-86224747D01*
X134631777Y-86241223D01*
X134648253Y-86259401D01*
X134662868Y-86279107D01*
X134675480Y-86300150D01*
X134685970Y-86322329D01*
X134694235Y-86345428D01*
X134700196Y-86369227D01*
X134703796Y-86393495D01*
X134705000Y-86417999D01*
X134705000Y-87318001D01*
X134703796Y-87342505D01*
X134700196Y-87366773D01*
X134694235Y-87390572D01*
X134685970Y-87413671D01*
X134675480Y-87435850D01*
X134662868Y-87456893D01*
X134648253Y-87476599D01*
X134631777Y-87494777D01*
X134613599Y-87511253D01*
X134593893Y-87525868D01*
X134572850Y-87538480D01*
X134550671Y-87548970D01*
X134527572Y-87557235D01*
X134503773Y-87563196D01*
X134479505Y-87566796D01*
X134455001Y-87568000D01*
X133804999Y-87568000D01*
X133780495Y-87566796D01*
X133756227Y-87563196D01*
X133732428Y-87557235D01*
X133709329Y-87548970D01*
X133687150Y-87538480D01*
X133666107Y-87525868D01*
X133646401Y-87511253D01*
X133628223Y-87494777D01*
X133611747Y-87476599D01*
X133597132Y-87456893D01*
X133584520Y-87435850D01*
X133574030Y-87413671D01*
X133565765Y-87390572D01*
X133559804Y-87366773D01*
X133556204Y-87342505D01*
X133555000Y-87318001D01*
X133555000Y-86417999D01*
X133556204Y-86393495D01*
X133559804Y-86369227D01*
X133565765Y-86345428D01*
X133574030Y-86322329D01*
X133584520Y-86300150D01*
X133597132Y-86279107D01*
X133611747Y-86259401D01*
X133628223Y-86241223D01*
X133646401Y-86224747D01*
X133666107Y-86210132D01*
X133687150Y-86197520D01*
X133709329Y-86187030D01*
X133732428Y-86178765D01*
X133756227Y-86172804D01*
X133780495Y-86169204D01*
X133804999Y-86168000D01*
X134455001Y-86168000D01*
X134479505Y-86169204D01*
X134479505Y-86169204D01*
G37*
D11*
G04 #@! TD*
G04 #@! TO.P,D3,2*
G04 #@! TO.N,/SCK*
X134130000Y-86868000D03*
D15*
G04 #@! TO.P,J4,1*
G04 #@! TO.N,GND*
X157988000Y-94488000D03*
D16*
G04 #@! TO.P,J4,2*
G04 #@! TO.N,+3V3*
X157988000Y-97028000D03*
G04 #@! TO.P,J4,3*
G04 #@! TO.N,/SDA*
X157988000Y-99568000D03*
G04 #@! TO.P,J4,4*
G04 #@! TO.N,/SCL*
X157988000Y-102108000D03*
G04 #@! TO.P,J4,5*
G04 #@! TO.N,/SCK*
X157988000Y-104648000D03*
G04 #@! TO.P,J4,6*
G04 #@! TO.N,/A0*
X157988000Y-107188000D03*
G04 #@! TO.P,J4,7*
G04 #@! TO.N,/A1*
X157988000Y-109728000D03*
G04 #@! TO.P,J4,8*
G04 #@! TO.N,/A2*
X157988000Y-112268000D03*
G04 #@! TD*
D23*
G04 #@! TO.P,J1,1*
G04 #@! TO.N,+5V*
X153132000Y-144404000D03*
G04 #@! TO.P,J1,2*
G04 #@! TO.N,Net-(J1-Pad2)*
X153782000Y-144404000D03*
G04 #@! TO.P,J1,3*
G04 #@! TO.N,Net-(J1-Pad3)*
X154432000Y-144404000D03*
G04 #@! TO.P,J1,4*
G04 #@! TO.N,Net-(J1-Pad4)*
X155082000Y-144404000D03*
G04 #@! TO.P,J1,5*
G04 #@! TO.N,GND*
X155732000Y-144404000D03*
D24*
G04 #@! TO.P,J1,6*
G04 #@! TO.N,Net-(J1-Pad6)*
X150707000Y-144454000D03*
X158157000Y-144454000D03*
D25*
X150557000Y-148254000D03*
X158307000Y-148254000D03*
G04 #@! TD*
D26*
G04 #@! TO.N,+3V3*
X150876000Y-137160000D03*
X149352000Y-120904000D03*
X143256000Y-120396000D03*
G04 #@! TO.N,GND*
X137668000Y-97028000D03*
X143510000Y-113665000D03*
X140335000Y-113665000D03*
X148945010Y-118745000D03*
X147320000Y-117475000D03*
X146304000Y-124460000D03*
X148336000Y-126492000D03*
G04 #@! TO.N,+5V*
X158496000Y-122936000D03*
X145288000Y-116332000D03*
X140208000Y-140716000D03*
X143256000Y-143764000D03*
X149352000Y-140208000D03*
G04 #@! TO.N,Net-(22pF2-Pad2)*
X146812000Y-114808000D03*
X149352000Y-110744000D03*
G04 #@! TO.N,/MISO*
X149860000Y-100615000D03*
G04 #@! TO.N,/SCK*
X149352000Y-97028000D03*
X134112000Y-88900000D03*
X149352000Y-93472000D03*
G04 #@! TO.N,/MOSI*
X150589001Y-101299515D03*
G04 #@! TO.N,/SDA*
X141290805Y-105380195D03*
G04 #@! TO.N,/SCL*
X137439152Y-102553848D03*
G04 #@! TO.N,/TX_328*
X139192000Y-108712000D03*
X139192000Y-128524000D03*
G04 #@! TO.N,/A0*
X151384000Y-104648000D03*
X143256000Y-104648000D03*
G04 #@! TO.N,/A1*
X149860000Y-103632000D03*
X139192000Y-99568000D03*
G04 #@! TO.N,/A2*
X142240000Y-106989998D03*
G04 #@! TD*
D27*
G04 #@! TO.N,Net-(100k1-Pad2)*
X145143000Y-137843000D02*
X145318000Y-137668000D01*
X145143000Y-141859000D02*
X145143000Y-137843000D01*
X145318000Y-133144000D02*
X145270000Y-133096000D01*
X145318000Y-137668000D02*
X145318000Y-133144000D01*
G04 #@! TO.N,+3V3*
X151130000Y-127635000D02*
X157430000Y-127635000D01*
X151130000Y-124201000D02*
X156459000Y-118872000D01*
X151130000Y-127635000D02*
X151130000Y-124201000D01*
X148844000Y-134620000D02*
X147320000Y-133096000D01*
X151375000Y-134620000D02*
X148844000Y-134620000D01*
X150241000Y-134620000D02*
X151375000Y-134620000D01*
X147193000Y-137668000D02*
X150241000Y-134620000D01*
X150876000Y-135119000D02*
X151375000Y-134620000D01*
X150876000Y-137160000D02*
X150876000Y-135119000D01*
D28*
X143110000Y-110636000D02*
X142240000Y-111506000D01*
X143110000Y-108390000D02*
X143110000Y-110636000D01*
X146342626Y-110882628D02*
X146696628Y-110882628D01*
X144710000Y-109250002D02*
X146342626Y-110882628D01*
X146696628Y-110882628D02*
X147320000Y-111506000D01*
X144710000Y-108390000D02*
X144710000Y-109250002D01*
X143910000Y-98181000D02*
X143910000Y-99890000D01*
X141995000Y-96266000D02*
X143910000Y-98181000D01*
X145510000Y-97586000D02*
X145510000Y-99890000D01*
X146830000Y-96266000D02*
X145510000Y-97586000D01*
D27*
X154427000Y-120904000D02*
X149352000Y-120904000D01*
X156459000Y-118872000D02*
X154427000Y-120904000D01*
X142240000Y-119380000D02*
X142240000Y-111506000D01*
X143256000Y-120396000D02*
X142240000Y-119380000D01*
D28*
X144710000Y-107340000D02*
X144710000Y-108390000D01*
X143910000Y-100940000D02*
X144710000Y-101740000D01*
X143910000Y-99890000D02*
X143910000Y-100940000D01*
X145510000Y-100940000D02*
X144780000Y-101670000D01*
X145510000Y-99890000D02*
X145510000Y-100940000D01*
X143110000Y-107264000D02*
X144710000Y-105664000D01*
X143110000Y-108390000D02*
X143110000Y-107264000D01*
X144710000Y-105664000D02*
X144710000Y-107340000D01*
X144710000Y-101740000D02*
X144710000Y-105664000D01*
D27*
X156630001Y-90765999D02*
X157480000Y-89916000D01*
X152400000Y-94996000D02*
X156630001Y-90765999D01*
X148100000Y-94996000D02*
X152400000Y-94996000D01*
X146830000Y-96266000D02*
X148100000Y-94996000D01*
X149630000Y-127635000D02*
X151130000Y-127635000D01*
X147320000Y-129945000D02*
X149630000Y-127635000D01*
X147320000Y-133096000D02*
X147320000Y-129945000D01*
X154432000Y-97028000D02*
X152400000Y-94996000D01*
X157988000Y-97028000D02*
X154432000Y-97028000D01*
D28*
G04 #@! TO.N,GND*
X143910000Y-110146000D02*
X145270000Y-111506000D01*
X143910000Y-108390000D02*
X143910000Y-110146000D01*
X143110000Y-98840000D02*
X143110000Y-99890000D01*
X141561010Y-97291010D02*
X143110000Y-98840000D01*
X140970010Y-97291010D02*
X141561010Y-97291010D01*
X139945000Y-96266000D02*
X140970010Y-97291010D01*
X140568372Y-95642628D02*
X139945000Y-96266000D01*
X140970010Y-95240990D02*
X140568372Y-95642628D01*
X143754990Y-95240990D02*
X140970010Y-95240990D01*
X144780000Y-96266000D02*
X143754990Y-95240990D01*
D27*
X135920001Y-103855999D02*
X135469999Y-104306001D01*
X135920001Y-101376001D02*
X135920001Y-103855999D01*
X135469999Y-104306001D02*
X134620000Y-105156000D01*
X134620000Y-100076000D02*
X135920001Y-101376001D01*
X138430000Y-96266000D02*
X137668000Y-97028000D01*
X139945000Y-96266000D02*
X138430000Y-96266000D01*
D28*
X140244000Y-111506000D02*
X140190000Y-111506000D01*
X142310000Y-108390000D02*
X142310000Y-109440000D01*
X142310000Y-109440000D02*
X140244000Y-111506000D01*
X143510000Y-113266000D02*
X143510000Y-113665000D01*
X145270000Y-111506000D02*
X143510000Y-113266000D01*
X140335000Y-111651000D02*
X140190000Y-111506000D01*
X140335000Y-113665000D02*
X140335000Y-111651000D01*
X151257000Y-118745000D02*
X151384000Y-118872000D01*
X148945010Y-118745000D02*
X151257000Y-118745000D01*
X147320000Y-118872000D02*
X147320000Y-117475000D01*
D27*
X147150022Y-123613978D02*
X146304000Y-124460000D01*
X147150022Y-122718201D02*
X147150022Y-123613978D01*
X148227000Y-126492000D02*
X147338000Y-127381000D01*
X148336000Y-126492000D02*
X148227000Y-126492000D01*
D28*
X133770001Y-106005999D02*
X134620000Y-105156000D01*
X133255001Y-106520999D02*
X133770001Y-106005999D01*
X133255001Y-109060999D02*
X133255001Y-106520999D01*
X132080000Y-110236000D02*
X133255001Y-109060999D01*
D27*
X156455000Y-140970000D02*
X156455000Y-143773000D01*
X155824000Y-144404000D02*
X155757001Y-144404000D01*
X156455000Y-143773000D02*
X155824000Y-144404000D01*
D28*
G04 #@! TO.N,/RTS*
X144145000Y-147320000D02*
X147193000Y-144272000D01*
X147193000Y-144272000D02*
X147193000Y-141859000D01*
D27*
G04 #@! TO.N,+5V*
X152400000Y-141215000D02*
X152155000Y-140970000D01*
X153039966Y-140970000D02*
X156849966Y-137160000D01*
X152155000Y-140970000D02*
X153039966Y-140970000D01*
X156849966Y-137160000D02*
X157988000Y-137160000D01*
X157988000Y-137160000D02*
X159512000Y-135636000D01*
X157680000Y-125335000D02*
X157430000Y-125335000D01*
X159512000Y-127167000D02*
X157680000Y-125335000D01*
X159512000Y-135636000D02*
X159512000Y-127167000D01*
X157430000Y-124002000D02*
X158496000Y-122936000D01*
X157430000Y-125335000D02*
X157430000Y-124002000D01*
X145288000Y-118854000D02*
X145270000Y-118872000D01*
X145288000Y-116332000D02*
X145288000Y-118854000D01*
X140208000Y-140716000D02*
X143256000Y-143764000D01*
X134620000Y-140716000D02*
X134620000Y-138176000D01*
D28*
X153132000Y-141947000D02*
X152155000Y-140970000D01*
D27*
X150114000Y-140970000D02*
X149352000Y-140208000D01*
X152155000Y-140970000D02*
X150114000Y-140970000D01*
X152155000Y-142620000D02*
X152400000Y-142865000D01*
X152155000Y-140970000D02*
X152155000Y-142620000D01*
X152400000Y-143672000D02*
X153106999Y-144378999D01*
X152400000Y-142865000D02*
X152400000Y-143672000D01*
D28*
G04 #@! TO.N,Net-(1K1-Pad2)*
X155575000Y-134620000D02*
X153425000Y-134620000D01*
D27*
G04 #@! TO.N,Net-(22pF1-Pad2)*
X141708000Y-134112000D02*
X143256000Y-132564000D01*
X140208000Y-134112000D02*
X141708000Y-134112000D01*
X143256000Y-129413000D02*
X145288000Y-127381000D01*
X143256000Y-132564000D02*
X143256000Y-129413000D01*
D28*
X145911372Y-126757628D02*
X145288000Y-127381000D01*
X148220010Y-124448990D02*
X145911372Y-126757628D01*
X148220010Y-110817820D02*
X148220010Y-124448990D01*
X147834808Y-110432618D02*
X148220010Y-110817820D01*
X146692616Y-110432618D02*
X147834808Y-110432618D01*
X145510000Y-109250002D02*
X146692616Y-110432618D01*
X145510000Y-108390000D02*
X145510000Y-109250002D01*
D27*
G04 #@! TO.N,Net-(22pF2-Pad2)*
X144618821Y-122237000D02*
X145100022Y-122718201D01*
X140208000Y-122237000D02*
X144618821Y-122237000D01*
D28*
X146170010Y-115449990D02*
X146812000Y-114808000D01*
X146170010Y-121648213D02*
X146170010Y-115449990D01*
X145100022Y-122718201D02*
X146170010Y-121648213D01*
X146998000Y-108390000D02*
X146310000Y-108390000D01*
X149352000Y-110744000D02*
X146998000Y-108390000D01*
G04 #@! TO.N,Net-(J1-Pad6)*
X150707000Y-148104000D02*
X150557000Y-148254000D01*
X150707000Y-144454000D02*
X150707000Y-148104000D01*
X158157000Y-148104000D02*
X158307000Y-148254000D01*
X158157000Y-144454000D02*
X158157000Y-148104000D01*
X150707000Y-145868213D02*
X150707000Y-144454000D01*
X151067788Y-146229001D02*
X150707000Y-145868213D01*
X157796212Y-146229001D02*
X151067788Y-146229001D01*
X158157000Y-145868213D02*
X157796212Y-146229001D01*
X158157000Y-144454000D02*
X158157000Y-145868213D01*
G04 #@! TO.N,/MISO*
X149135000Y-101340000D02*
X149860000Y-100615000D01*
X147760000Y-101340000D02*
X149135000Y-101340000D01*
G04 #@! TO.N,/SCK*
X134112000Y-86886000D02*
X134130000Y-86868000D01*
X134112000Y-88900000D02*
X134112000Y-86886000D01*
X154090001Y-88225999D02*
X154940000Y-87376000D01*
X148786315Y-97028000D02*
X149352000Y-97028000D01*
X148647000Y-97028000D02*
X148786315Y-97028000D01*
X146310000Y-99365000D02*
X148647000Y-97028000D01*
X146310000Y-99890000D02*
X146310000Y-99365000D01*
X150368000Y-97028000D02*
X157988000Y-104648000D01*
X149352000Y-97028000D02*
X150368000Y-97028000D01*
X153575001Y-90480001D02*
X150583002Y-93472000D01*
X153575001Y-88740999D02*
X153575001Y-90480001D01*
X154940000Y-87376000D02*
X153575001Y-88740999D01*
X150583002Y-93472000D02*
X149352000Y-93472000D01*
G04 #@! TO.N,/MOSI*
X149748516Y-102140000D02*
X150589001Y-101299515D01*
X147760000Y-102140000D02*
X149748516Y-102140000D01*
G04 #@! TO.N,/RESET*
X138399998Y-104540000D02*
X136652000Y-102792002D01*
X139260000Y-104540000D02*
X138399998Y-104540000D01*
X138768000Y-87042000D02*
X138768000Y-86142000D01*
X136652000Y-89158000D02*
X138768000Y-87042000D01*
X136652000Y-102792002D02*
X136652000Y-89158000D01*
X138768000Y-86142000D02*
X146728000Y-86142000D01*
X151166000Y-86142000D02*
X146728000Y-86142000D01*
X152400000Y-87376000D02*
X151166000Y-86142000D01*
G04 #@! TO.N,/SDA*
X141290805Y-103920805D02*
X141290805Y-105380195D01*
X140310000Y-102940000D02*
X141290805Y-103920805D01*
X139260000Y-102940000D02*
X140310000Y-102940000D01*
G04 #@! TO.N,/SCL*
X137439152Y-102779154D02*
X137439152Y-102553848D01*
X138399998Y-103740000D02*
X137439152Y-102779154D01*
X139260000Y-103740000D02*
X138399998Y-103740000D01*
D27*
G04 #@! TO.N,/RX_328*
X137309989Y-105990011D02*
X137960000Y-105340000D01*
X139065000Y-146117919D02*
X137309989Y-144362908D01*
X139065000Y-147320000D02*
X139065000Y-146117919D01*
X137960000Y-105340000D02*
X139260000Y-105340000D01*
D28*
X134620000Y-133096000D02*
X136801989Y-133096000D01*
D27*
X137309989Y-133604000D02*
X137309989Y-105990011D01*
D28*
X136801989Y-133096000D02*
X137309989Y-133604000D01*
D27*
X137309989Y-144362908D02*
X137309989Y-133604000D01*
G04 #@! TO.N,/TX_328*
X138174998Y-106140000D02*
X139260000Y-106140000D01*
X138009999Y-106304999D02*
X138174998Y-106140000D01*
X138009999Y-107529999D02*
X138009999Y-106304999D01*
X138176000Y-107696000D02*
X138009999Y-107529999D01*
X141605000Y-147320000D02*
X138176000Y-143891000D01*
G04 #@! TO.N,Net-(J3-Pad32)*
X133985000Y-102870000D02*
X134287918Y-102870000D01*
G04 #@! TO.N,/TX_328*
X139192000Y-108712000D02*
X138176000Y-107696000D01*
D28*
X139192000Y-128524000D02*
X138176000Y-127508000D01*
D27*
X138176000Y-127508000D02*
X138176000Y-107696000D01*
X138176000Y-143891000D02*
X138176000Y-127508000D01*
D28*
G04 #@! TO.N,/A0*
X153924000Y-107188000D02*
X151384000Y-104648000D01*
X157988000Y-107188000D02*
X153924000Y-107188000D01*
X141510000Y-100750002D02*
X141510000Y-99890000D01*
X143256000Y-102496002D02*
X141510000Y-100750002D01*
X143256000Y-104648000D02*
X143256000Y-102496002D01*
G04 #@! TO.N,/A1*
X140524000Y-100076000D02*
X140710000Y-99890000D01*
X155390998Y-109728000D02*
X149860000Y-104197002D01*
X157988000Y-109728000D02*
X155390998Y-109728000D01*
X149860000Y-104197002D02*
X149860000Y-103632000D01*
X140388000Y-99568000D02*
X140710000Y-99890000D01*
X139192000Y-99568000D02*
X140388000Y-99568000D01*
G04 #@! TO.N,/A2*
X142240000Y-103270000D02*
X142240000Y-106989998D01*
X140310000Y-101340000D02*
X142240000Y-103270000D01*
X139260000Y-101340000D02*
X140310000Y-101340000D01*
G04 #@! TD*
D29*
G04 #@! TO.N,GND*
G36*
X160909000Y-148908266D02*
X159694423Y-148915612D01*
X159842000Y-148559330D01*
X159842000Y-147948670D01*
X159608310Y-147384493D01*
X159176507Y-146952690D01*
X158917000Y-146845199D01*
X158917000Y-145943061D01*
X158924403Y-145905842D01*
X159083153Y-145840086D01*
X159543086Y-145380153D01*
X159792000Y-144779222D01*
X159792000Y-144128778D01*
X159543086Y-143527847D01*
X159083153Y-143067914D01*
X158482222Y-142819000D01*
X157831778Y-142819000D01*
X157230847Y-143067914D01*
X156770914Y-143527847D01*
X156592000Y-143959783D01*
X156592000Y-143627690D01*
X156495327Y-143394301D01*
X156316698Y-143215673D01*
X156083309Y-143119000D01*
X156003250Y-143119000D01*
X155844500Y-143277750D01*
X155844500Y-143415456D01*
X155764809Y-143296191D01*
X155554765Y-143155843D01*
X155483397Y-143141647D01*
X155460750Y-143119000D01*
X155380691Y-143119000D01*
X155377074Y-143120498D01*
X155307000Y-143106560D01*
X154857000Y-143106560D01*
X154757000Y-143126451D01*
X154657000Y-143106560D01*
X154207000Y-143106560D01*
X154107000Y-143126451D01*
X154007000Y-143106560D01*
X153557000Y-143106560D01*
X153457000Y-143126451D01*
X153357000Y-143106560D01*
X153285000Y-143106560D01*
X153285000Y-142952159D01*
X153302337Y-142864999D01*
X153285000Y-142777840D01*
X153285000Y-142777835D01*
X153282932Y-142767440D01*
X153405000Y-142767440D01*
X153652765Y-142718157D01*
X153862809Y-142577809D01*
X154003157Y-142367765D01*
X154052440Y-142120000D01*
X154052440Y-141255750D01*
X154570000Y-141255750D01*
X154570000Y-142246310D01*
X154666673Y-142479699D01*
X154845302Y-142658327D01*
X155078691Y-142755000D01*
X156169250Y-142755000D01*
X156328000Y-142596250D01*
X156328000Y-141097000D01*
X156582000Y-141097000D01*
X156582000Y-142596250D01*
X156740750Y-142755000D01*
X157831309Y-142755000D01*
X158064698Y-142658327D01*
X158243327Y-142479699D01*
X158340000Y-142246310D01*
X158340000Y-141255750D01*
X158181250Y-141097000D01*
X156582000Y-141097000D01*
X156328000Y-141097000D01*
X154728750Y-141097000D01*
X154570000Y-141255750D01*
X154052440Y-141255750D01*
X154052440Y-141209104D01*
X154573647Y-140687897D01*
X154728750Y-140843000D01*
X156328000Y-140843000D01*
X156328000Y-139343750D01*
X156582000Y-139343750D01*
X156582000Y-140843000D01*
X158181250Y-140843000D01*
X158340000Y-140684250D01*
X158340000Y-139693690D01*
X158243327Y-139460301D01*
X158064698Y-139281673D01*
X157831309Y-139185000D01*
X156740750Y-139185000D01*
X156582000Y-139343750D01*
X156328000Y-139343750D01*
X156169250Y-139185000D01*
X156076545Y-139185000D01*
X157216545Y-138045000D01*
X157900839Y-138045000D01*
X157988000Y-138062337D01*
X158075161Y-138045000D01*
X158075165Y-138045000D01*
X158333310Y-137993652D01*
X158626049Y-137798049D01*
X158675425Y-137724153D01*
X160076156Y-136323423D01*
X160150049Y-136274049D01*
X160345652Y-135981310D01*
X160397000Y-135723165D01*
X160397000Y-135723161D01*
X160414337Y-135636001D01*
X160397000Y-135548841D01*
X160397000Y-127254159D01*
X160414337Y-127166999D01*
X160397000Y-127079839D01*
X160397000Y-127079835D01*
X160345652Y-126821690D01*
X160245086Y-126671183D01*
X160199424Y-126602845D01*
X160199423Y-126602844D01*
X160150049Y-126528951D01*
X160076156Y-126479577D01*
X159077440Y-125480862D01*
X159077440Y-124585000D01*
X159028157Y-124337235D01*
X158887809Y-124127191D01*
X158689137Y-123994442D01*
X158720148Y-123963431D01*
X159082280Y-123813431D01*
X159373431Y-123522280D01*
X159531000Y-123141874D01*
X159531000Y-122730126D01*
X159373431Y-122349720D01*
X159082280Y-122058569D01*
X158701874Y-121901000D01*
X158290126Y-121901000D01*
X157909720Y-122058569D01*
X157618569Y-122349720D01*
X157468569Y-122711852D01*
X156865845Y-123314577D01*
X156791952Y-123363951D01*
X156742578Y-123437844D01*
X156742576Y-123437846D01*
X156596348Y-123656691D01*
X156540481Y-123937560D01*
X156430000Y-123937560D01*
X156182235Y-123986843D01*
X155972191Y-124127191D01*
X155831843Y-124337235D01*
X155782560Y-124585000D01*
X155782560Y-126085000D01*
X155831843Y-126332765D01*
X155933564Y-126485000D01*
X155831843Y-126637235D01*
X155809413Y-126750000D01*
X152777440Y-126750000D01*
X152777440Y-125735000D01*
X152728157Y-125487235D01*
X152587809Y-125277191D01*
X152377765Y-125136843D01*
X152130000Y-125087560D01*
X152015000Y-125087560D01*
X152015000Y-124567578D01*
X154991155Y-121591424D01*
X155065049Y-121542049D01*
X155114424Y-121468155D01*
X156263139Y-120319440D01*
X157871500Y-120319440D01*
X158214935Y-120251126D01*
X158506086Y-120056586D01*
X158700626Y-119765435D01*
X158768940Y-119422000D01*
X158768940Y-118322000D01*
X158700626Y-117978565D01*
X158506086Y-117687414D01*
X158214935Y-117492874D01*
X157871500Y-117424560D01*
X155046500Y-117424560D01*
X154703065Y-117492874D01*
X154411914Y-117687414D01*
X154217374Y-117978565D01*
X154149060Y-118322000D01*
X154149060Y-119422000D01*
X154217374Y-119765435D01*
X154256071Y-119823350D01*
X154060421Y-120019000D01*
X153590087Y-120019000D01*
X153681500Y-119798310D01*
X153681500Y-119157750D01*
X153522750Y-118999000D01*
X151511000Y-118999000D01*
X151511000Y-119019000D01*
X151257000Y-119019000D01*
X151257000Y-118999000D01*
X149245250Y-118999000D01*
X149086500Y-119157750D01*
X149086500Y-119798310D01*
X149120225Y-119879729D01*
X148980010Y-119937807D01*
X148980010Y-117945690D01*
X149086500Y-117945690D01*
X149086500Y-118586250D01*
X149245250Y-118745000D01*
X151257000Y-118745000D01*
X151257000Y-117595750D01*
X151511000Y-117595750D01*
X151511000Y-118745000D01*
X153522750Y-118745000D01*
X153681500Y-118586250D01*
X153681500Y-117945690D01*
X153584827Y-117712301D01*
X153406198Y-117533673D01*
X153172809Y-117437000D01*
X151669750Y-117437000D01*
X151511000Y-117595750D01*
X151257000Y-117595750D01*
X151098250Y-117437000D01*
X149595191Y-117437000D01*
X149361802Y-117533673D01*
X149183173Y-117712301D01*
X149086500Y-117945690D01*
X148980010Y-117945690D01*
X148980010Y-111710193D01*
X149146126Y-111779000D01*
X149557874Y-111779000D01*
X149938280Y-111621431D01*
X150229431Y-111330280D01*
X150387000Y-110949874D01*
X150387000Y-110538126D01*
X150229431Y-110157720D01*
X149938280Y-109866569D01*
X149557874Y-109709000D01*
X149391802Y-109709000D01*
X147588331Y-107905530D01*
X147559539Y-107862440D01*
X148560000Y-107862440D01*
X148807765Y-107813157D01*
X149017809Y-107672809D01*
X149158157Y-107462765D01*
X149207440Y-107215000D01*
X149207440Y-106665000D01*
X149182576Y-106540000D01*
X149207440Y-106415000D01*
X149207440Y-105865000D01*
X149182576Y-105740000D01*
X149207440Y-105615000D01*
X149207440Y-105065000D01*
X149182576Y-104940000D01*
X149207440Y-104815000D01*
X149207440Y-104588339D01*
X149312071Y-104744931D01*
X149375530Y-104787333D01*
X154800671Y-110212476D01*
X154843069Y-110275929D01*
X154906522Y-110318327D01*
X154906524Y-110318329D01*
X155025993Y-110398155D01*
X155094461Y-110443904D01*
X155316146Y-110488000D01*
X155316150Y-110488000D01*
X155390997Y-110502888D01*
X155465844Y-110488000D01*
X156709822Y-110488000D01*
X156917375Y-110798625D01*
X157215761Y-110998000D01*
X156917375Y-111197375D01*
X156589161Y-111688582D01*
X156473908Y-112268000D01*
X156589161Y-112847418D01*
X156917375Y-113338625D01*
X157408582Y-113666839D01*
X157841744Y-113753000D01*
X158134256Y-113753000D01*
X158567418Y-113666839D01*
X159058625Y-113338625D01*
X159386839Y-112847418D01*
X159502092Y-112268000D01*
X159386839Y-111688582D01*
X159058625Y-111197375D01*
X158760239Y-110998000D01*
X159058625Y-110798625D01*
X159386839Y-110307418D01*
X159502092Y-109728000D01*
X159386839Y-109148582D01*
X159058625Y-108657375D01*
X158760239Y-108458000D01*
X159058625Y-108258625D01*
X159386839Y-107767418D01*
X159502092Y-107188000D01*
X159386839Y-106608582D01*
X159058625Y-106117375D01*
X158760239Y-105918000D01*
X159058625Y-105718625D01*
X159386839Y-105227418D01*
X159502092Y-104648000D01*
X159386839Y-104068582D01*
X159058625Y-103577375D01*
X158760239Y-103378000D01*
X159058625Y-103178625D01*
X159386839Y-102687418D01*
X159502092Y-102108000D01*
X159386839Y-101528582D01*
X159058625Y-101037375D01*
X158760239Y-100838000D01*
X159058625Y-100638625D01*
X159386839Y-100147418D01*
X159502092Y-99568000D01*
X159386839Y-98988582D01*
X159058625Y-98497375D01*
X158760239Y-98298000D01*
X159058625Y-98098625D01*
X159386839Y-97607418D01*
X159502092Y-97028000D01*
X159386839Y-96448582D01*
X159058625Y-95957375D01*
X159036967Y-95942904D01*
X159197698Y-95876327D01*
X159376327Y-95697699D01*
X159473000Y-95464310D01*
X159473000Y-94773750D01*
X159314250Y-94615000D01*
X158115000Y-94615000D01*
X158115000Y-94635000D01*
X157861000Y-94635000D01*
X157861000Y-94615000D01*
X156661750Y-94615000D01*
X156503000Y-94773750D01*
X156503000Y-95464310D01*
X156599673Y-95697699D01*
X156778302Y-95876327D01*
X156939033Y-95942904D01*
X156917375Y-95957375D01*
X156793344Y-96143000D01*
X154798579Y-96143000D01*
X153651578Y-94996000D01*
X155135888Y-93511690D01*
X156503000Y-93511690D01*
X156503000Y-94202250D01*
X156661750Y-94361000D01*
X157861000Y-94361000D01*
X157861000Y-93161750D01*
X158115000Y-93161750D01*
X158115000Y-94361000D01*
X159314250Y-94361000D01*
X159473000Y-94202250D01*
X159473000Y-93511690D01*
X159376327Y-93278301D01*
X159197698Y-93099673D01*
X158964309Y-93003000D01*
X158273750Y-93003000D01*
X158115000Y-93161750D01*
X157861000Y-93161750D01*
X157702250Y-93003000D01*
X157011691Y-93003000D01*
X156778302Y-93099673D01*
X156599673Y-93278301D01*
X156503000Y-93511690D01*
X155135888Y-93511690D01*
X157261041Y-91386538D01*
X157333744Y-91401000D01*
X157626256Y-91401000D01*
X158059418Y-91314839D01*
X158550625Y-90986625D01*
X158878839Y-90495418D01*
X158994092Y-89916000D01*
X158878839Y-89336582D01*
X158550625Y-88845375D01*
X158532381Y-88833184D01*
X158577765Y-88824157D01*
X158787809Y-88683809D01*
X158928157Y-88473765D01*
X158977440Y-88226000D01*
X158977440Y-86526000D01*
X158928157Y-86278235D01*
X158787809Y-86068191D01*
X158577765Y-85927843D01*
X158330000Y-85878560D01*
X156630000Y-85878560D01*
X156382235Y-85927843D01*
X156172191Y-86068191D01*
X156031843Y-86278235D01*
X156022816Y-86323619D01*
X156010625Y-86305375D01*
X155519418Y-85977161D01*
X155086256Y-85891000D01*
X154793744Y-85891000D01*
X154360582Y-85977161D01*
X153869375Y-86305375D01*
X153670000Y-86603761D01*
X153470625Y-86305375D01*
X152979418Y-85977161D01*
X152546256Y-85891000D01*
X152253744Y-85891000D01*
X152033592Y-85934791D01*
X151756331Y-85657530D01*
X151713929Y-85594071D01*
X151462537Y-85426096D01*
X151240852Y-85382000D01*
X151240847Y-85382000D01*
X151166000Y-85367112D01*
X151091153Y-85382000D01*
X148128560Y-85382000D01*
X148101157Y-85244235D01*
X147960809Y-85034191D01*
X147750765Y-84893843D01*
X147503000Y-84844560D01*
X145953000Y-84844560D01*
X145705235Y-84893843D01*
X145495191Y-85034191D01*
X145354843Y-85244235D01*
X145327440Y-85382000D01*
X140168560Y-85382000D01*
X140141157Y-85244235D01*
X140000809Y-85034191D01*
X139790765Y-84893843D01*
X139543000Y-84844560D01*
X137993000Y-84844560D01*
X137745235Y-84893843D01*
X137535191Y-85034191D01*
X137394843Y-85244235D01*
X137345560Y-85492000D01*
X137345560Y-86792000D01*
X137394843Y-87039765D01*
X137515243Y-87219955D01*
X136167528Y-88567671D01*
X136104072Y-88610071D01*
X136061672Y-88673527D01*
X136061671Y-88673528D01*
X135936097Y-88861463D01*
X135877112Y-89158000D01*
X135892001Y-89232852D01*
X135892001Y-91686755D01*
X135690625Y-91385375D01*
X135199418Y-91057161D01*
X134766256Y-90971000D01*
X134473744Y-90971000D01*
X134040582Y-91057161D01*
X133549375Y-91385375D01*
X133348647Y-91685786D01*
X132961358Y-91260817D01*
X132436892Y-91014514D01*
X132207000Y-91135181D01*
X132207000Y-92329000D01*
X132227000Y-92329000D01*
X132227000Y-92583000D01*
X132207000Y-92583000D01*
X132207000Y-92603000D01*
X131953000Y-92603000D01*
X131953000Y-92583000D01*
X130759845Y-92583000D01*
X130638524Y-92812890D01*
X130808355Y-93222924D01*
X131198642Y-93651183D01*
X131328478Y-93712157D01*
X131009375Y-93925375D01*
X130681161Y-94416582D01*
X130565908Y-94996000D01*
X130681161Y-95575418D01*
X131009375Y-96066625D01*
X131307761Y-96266000D01*
X131009375Y-96465375D01*
X130681161Y-96956582D01*
X130565908Y-97536000D01*
X130681161Y-98115418D01*
X131009375Y-98606625D01*
X131307761Y-98806000D01*
X131009375Y-99005375D01*
X130681161Y-99496582D01*
X130565908Y-100076000D01*
X130681161Y-100655418D01*
X131009375Y-101146625D01*
X131307761Y-101346000D01*
X131009375Y-101545375D01*
X130681161Y-102036582D01*
X130565908Y-102616000D01*
X130681161Y-103195418D01*
X131009375Y-103686625D01*
X131307761Y-103886000D01*
X131009375Y-104085375D01*
X130681161Y-104576582D01*
X130565908Y-105156000D01*
X130681161Y-105735418D01*
X131009375Y-106226625D01*
X131307761Y-106426000D01*
X131009375Y-106625375D01*
X130681161Y-107116582D01*
X130565908Y-107696000D01*
X130681161Y-108275418D01*
X131009375Y-108766625D01*
X131328478Y-108979843D01*
X131198642Y-109040817D01*
X130808355Y-109469076D01*
X130638524Y-109879110D01*
X130759845Y-110109000D01*
X131953000Y-110109000D01*
X131953000Y-110089000D01*
X132207000Y-110089000D01*
X132207000Y-110109000D01*
X132227000Y-110109000D01*
X132227000Y-110363000D01*
X132207000Y-110363000D01*
X132207000Y-110383000D01*
X131953000Y-110383000D01*
X131953000Y-110363000D01*
X130759845Y-110363000D01*
X130638524Y-110592890D01*
X130808355Y-111002924D01*
X131198642Y-111431183D01*
X131328478Y-111492157D01*
X131009375Y-111705375D01*
X130681161Y-112196582D01*
X130565908Y-112776000D01*
X130681161Y-113355418D01*
X131009375Y-113846625D01*
X131307761Y-114046000D01*
X131009375Y-114245375D01*
X130681161Y-114736582D01*
X130565908Y-115316000D01*
X130681161Y-115895418D01*
X131009375Y-116386625D01*
X131307761Y-116586000D01*
X131009375Y-116785375D01*
X130681161Y-117276582D01*
X130565908Y-117856000D01*
X130681161Y-118435418D01*
X131009375Y-118926625D01*
X131307761Y-119126000D01*
X131009375Y-119325375D01*
X130681161Y-119816582D01*
X130565908Y-120396000D01*
X130681161Y-120975418D01*
X131009375Y-121466625D01*
X131307761Y-121666000D01*
X131009375Y-121865375D01*
X130681161Y-122356582D01*
X130565908Y-122936000D01*
X130681161Y-123515418D01*
X131009375Y-124006625D01*
X131307761Y-124206000D01*
X131009375Y-124405375D01*
X130681161Y-124896582D01*
X130565908Y-125476000D01*
X130681161Y-126055418D01*
X131009375Y-126546625D01*
X131307761Y-126746000D01*
X131009375Y-126945375D01*
X130681161Y-127436582D01*
X130565908Y-128016000D01*
X130681161Y-128595418D01*
X131009375Y-129086625D01*
X131328478Y-129299843D01*
X131198642Y-129360817D01*
X130808355Y-129789076D01*
X130638524Y-130199110D01*
X130759845Y-130429000D01*
X131953000Y-130429000D01*
X131953000Y-130409000D01*
X132207000Y-130409000D01*
X132207000Y-130429000D01*
X132227000Y-130429000D01*
X132227000Y-130683000D01*
X132207000Y-130683000D01*
X132207000Y-130703000D01*
X131953000Y-130703000D01*
X131953000Y-130683000D01*
X130759845Y-130683000D01*
X130638524Y-130912890D01*
X130808355Y-131322924D01*
X131198642Y-131751183D01*
X131328478Y-131812157D01*
X131009375Y-132025375D01*
X130681161Y-132516582D01*
X130565908Y-133096000D01*
X130681161Y-133675418D01*
X131009375Y-134166625D01*
X131307761Y-134366000D01*
X131009375Y-134565375D01*
X130681161Y-135056582D01*
X130565908Y-135636000D01*
X130681161Y-136215418D01*
X131009375Y-136706625D01*
X131307761Y-136906000D01*
X131009375Y-137105375D01*
X130681161Y-137596582D01*
X130565908Y-138176000D01*
X130681161Y-138755418D01*
X131009375Y-139246625D01*
X131027619Y-139258816D01*
X130982235Y-139267843D01*
X130772191Y-139408191D01*
X130631843Y-139618235D01*
X130582560Y-139866000D01*
X130582560Y-141566000D01*
X130631843Y-141813765D01*
X130772191Y-142023809D01*
X130982235Y-142164157D01*
X131230000Y-142213440D01*
X132930000Y-142213440D01*
X133177765Y-142164157D01*
X133387809Y-142023809D01*
X133528157Y-141813765D01*
X133537184Y-141768381D01*
X133549375Y-141786625D01*
X134040582Y-142114839D01*
X134473744Y-142201000D01*
X134766256Y-142201000D01*
X135199418Y-142114839D01*
X135690625Y-141786625D01*
X136018839Y-141295418D01*
X136134092Y-140716000D01*
X136018839Y-140136582D01*
X135690625Y-139645375D01*
X135505000Y-139521344D01*
X135505000Y-139370656D01*
X135690625Y-139246625D01*
X136018839Y-138755418D01*
X136134092Y-138176000D01*
X136018839Y-137596582D01*
X135690625Y-137105375D01*
X135371522Y-136892157D01*
X135501358Y-136831183D01*
X135891645Y-136402924D01*
X136061476Y-135992890D01*
X135940155Y-135763000D01*
X134747000Y-135763000D01*
X134747000Y-135783000D01*
X134493000Y-135783000D01*
X134493000Y-135763000D01*
X134473000Y-135763000D01*
X134473000Y-135509000D01*
X134493000Y-135509000D01*
X134493000Y-135489000D01*
X134747000Y-135489000D01*
X134747000Y-135509000D01*
X135940155Y-135509000D01*
X136061476Y-135279110D01*
X135891645Y-134869076D01*
X135501358Y-134440817D01*
X135371522Y-134379843D01*
X135690625Y-134166625D01*
X135898178Y-133856000D01*
X136424990Y-133856000D01*
X136424989Y-144275747D01*
X136407652Y-144362908D01*
X136424989Y-144450069D01*
X136424989Y-144450072D01*
X136476337Y-144708217D01*
X136671940Y-145000957D01*
X136745836Y-145050333D01*
X137974549Y-146279047D01*
X137795000Y-146547761D01*
X137595625Y-146249375D01*
X137104418Y-145921161D01*
X136671256Y-145835000D01*
X136378744Y-145835000D01*
X135945582Y-145921161D01*
X135454375Y-146249375D01*
X135255000Y-146547761D01*
X135055625Y-146249375D01*
X134564418Y-145921161D01*
X134131256Y-145835000D01*
X133838744Y-145835000D01*
X133405582Y-145921161D01*
X132914375Y-146249375D01*
X132899904Y-146271033D01*
X132833327Y-146110302D01*
X132654699Y-145931673D01*
X132421310Y-145835000D01*
X131730750Y-145835000D01*
X131572000Y-145993750D01*
X131572000Y-147193000D01*
X131592000Y-147193000D01*
X131592000Y-147447000D01*
X131572000Y-147447000D01*
X131572000Y-148646250D01*
X131730750Y-148805000D01*
X132421310Y-148805000D01*
X132654699Y-148708327D01*
X132833327Y-148529698D01*
X132899904Y-148368967D01*
X132914375Y-148390625D01*
X133405582Y-148718839D01*
X133838744Y-148805000D01*
X134131256Y-148805000D01*
X134564418Y-148718839D01*
X135055625Y-148390625D01*
X135255000Y-148092239D01*
X135454375Y-148390625D01*
X135945582Y-148718839D01*
X136378744Y-148805000D01*
X136671256Y-148805000D01*
X137104418Y-148718839D01*
X137595625Y-148390625D01*
X137795000Y-148092239D01*
X137994375Y-148390625D01*
X138485582Y-148718839D01*
X138918744Y-148805000D01*
X139211256Y-148805000D01*
X139644418Y-148718839D01*
X140135625Y-148390625D01*
X140335000Y-148092239D01*
X140534375Y-148390625D01*
X141025582Y-148718839D01*
X141458744Y-148805000D01*
X141751256Y-148805000D01*
X142184418Y-148718839D01*
X142675625Y-148390625D01*
X142875000Y-148092239D01*
X143074375Y-148390625D01*
X143565582Y-148718839D01*
X143998744Y-148805000D01*
X144291256Y-148805000D01*
X144724418Y-148718839D01*
X145215625Y-148390625D01*
X145543839Y-147899418D01*
X145659092Y-147320000D01*
X145586209Y-146953592D01*
X147677473Y-144862329D01*
X147740929Y-144819929D01*
X147908904Y-144568537D01*
X147953000Y-144346852D01*
X147953000Y-144346847D01*
X147967888Y-144272000D01*
X147953000Y-144197153D01*
X147953000Y-143076946D01*
X148152586Y-142943586D01*
X148347127Y-142652436D01*
X148415440Y-142309001D01*
X148415440Y-141408999D01*
X148347127Y-141065564D01*
X148152586Y-140774414D01*
X147861436Y-140579873D01*
X147518001Y-140511560D01*
X146867999Y-140511560D01*
X146524564Y-140579873D01*
X146233414Y-140774414D01*
X146168000Y-140872313D01*
X146102586Y-140774414D01*
X146028000Y-140724577D01*
X146028000Y-138863942D01*
X146191916Y-138754416D01*
X146255500Y-138659256D01*
X146319084Y-138754416D01*
X146608206Y-138947602D01*
X146949250Y-139015440D01*
X147436750Y-139015440D01*
X147777794Y-138947602D01*
X148066916Y-138754416D01*
X148260102Y-138465294D01*
X148327940Y-138124250D01*
X148327940Y-137784638D01*
X149991001Y-136121578D01*
X149991000Y-136591993D01*
X149841000Y-136954126D01*
X149841000Y-137365874D01*
X149998569Y-137746280D01*
X150289720Y-138037431D01*
X150670126Y-138195000D01*
X151081874Y-138195000D01*
X151462280Y-138037431D01*
X151753431Y-137746280D01*
X151911000Y-137365874D01*
X151911000Y-136954126D01*
X151761000Y-136591993D01*
X151761000Y-135955307D01*
X152043436Y-135899127D01*
X152334586Y-135704586D01*
X152400000Y-135606687D01*
X152465414Y-135704586D01*
X152756564Y-135899127D01*
X153099999Y-135967440D01*
X153750001Y-135967440D01*
X154093436Y-135899127D01*
X154384586Y-135704586D01*
X154500000Y-135531857D01*
X154615414Y-135704586D01*
X154906564Y-135899127D01*
X155249999Y-135967440D01*
X155900001Y-135967440D01*
X156243436Y-135899127D01*
X156534586Y-135704586D01*
X156535377Y-135703403D01*
X156690302Y-135858327D01*
X156923691Y-135955000D01*
X157339250Y-135955000D01*
X157498000Y-135796250D01*
X157498000Y-134747000D01*
X157478000Y-134747000D01*
X157478000Y-134493000D01*
X157498000Y-134493000D01*
X157498000Y-133443750D01*
X157339250Y-133285000D01*
X156923691Y-133285000D01*
X156690302Y-133381673D01*
X156535377Y-133536597D01*
X156534586Y-133535414D01*
X156243436Y-133340873D01*
X155900001Y-133272560D01*
X155249999Y-133272560D01*
X154906564Y-133340873D01*
X154615414Y-133535414D01*
X154500000Y-133708143D01*
X154384586Y-133535414D01*
X154093436Y-133340873D01*
X153750001Y-133272560D01*
X153099999Y-133272560D01*
X152756564Y-133340873D01*
X152465414Y-133535414D01*
X152400000Y-133633313D01*
X152334586Y-133535414D01*
X152043436Y-133340873D01*
X151700001Y-133272560D01*
X151049999Y-133272560D01*
X150706564Y-133340873D01*
X150415414Y-133535414D01*
X150287463Y-133726905D01*
X150241000Y-133717663D01*
X150153839Y-133735000D01*
X149210579Y-133735000D01*
X148542440Y-133066862D01*
X148542440Y-132645999D01*
X148474127Y-132302564D01*
X148279586Y-132011414D01*
X148205000Y-131961577D01*
X148205000Y-130311578D01*
X148295828Y-130220750D01*
X155795000Y-130220750D01*
X155795000Y-130811310D01*
X155891673Y-131044699D01*
X156070302Y-131223327D01*
X156303691Y-131320000D01*
X157144250Y-131320000D01*
X157303000Y-131161250D01*
X157303000Y-130062000D01*
X155953750Y-130062000D01*
X155795000Y-130220750D01*
X148295828Y-130220750D01*
X149482560Y-129034019D01*
X149482560Y-129535000D01*
X149531843Y-129782765D01*
X149672191Y-129992809D01*
X149882235Y-130133157D01*
X150130000Y-130182440D01*
X152130000Y-130182440D01*
X152377765Y-130133157D01*
X152587809Y-129992809D01*
X152728157Y-129782765D01*
X152777440Y-129535000D01*
X152777440Y-128520000D01*
X155809413Y-128520000D01*
X155831843Y-128632765D01*
X155932927Y-128784047D01*
X155891673Y-128825301D01*
X155795000Y-129058690D01*
X155795000Y-129649250D01*
X155953750Y-129808000D01*
X157303000Y-129808000D01*
X157303000Y-129788000D01*
X157557000Y-129788000D01*
X157557000Y-129808000D01*
X157577000Y-129808000D01*
X157577000Y-130062000D01*
X157557000Y-130062000D01*
X157557000Y-131161250D01*
X157715750Y-131320000D01*
X158556309Y-131320000D01*
X158627001Y-131290719D01*
X158627000Y-133448975D01*
X158559698Y-133381673D01*
X158326309Y-133285000D01*
X157910750Y-133285000D01*
X157752000Y-133443750D01*
X157752000Y-134493000D01*
X157772000Y-134493000D01*
X157772000Y-134747000D01*
X157752000Y-134747000D01*
X157752000Y-135796250D01*
X157910750Y-135955000D01*
X157941422Y-135955000D01*
X157621422Y-136275000D01*
X156937127Y-136275000D01*
X156849966Y-136257663D01*
X156762805Y-136275000D01*
X156762801Y-136275000D01*
X156504656Y-136326348D01*
X156285811Y-136472576D01*
X156285810Y-136472577D01*
X156211917Y-136521951D01*
X156162543Y-136595844D01*
X153555827Y-139202561D01*
X153405000Y-139172560D01*
X150905000Y-139172560D01*
X150657235Y-139221843D01*
X150447191Y-139362191D01*
X150306843Y-139572235D01*
X150275079Y-139731925D01*
X150229431Y-139621720D01*
X149938280Y-139330569D01*
X149557874Y-139173000D01*
X149146126Y-139173000D01*
X148765720Y-139330569D01*
X148474569Y-139621720D01*
X148317000Y-140002126D01*
X148317000Y-140413874D01*
X148474569Y-140794280D01*
X148765720Y-141085431D01*
X149127852Y-141235431D01*
X149426577Y-141534156D01*
X149475951Y-141608049D01*
X149549844Y-141657423D01*
X149549845Y-141657424D01*
X149639999Y-141717663D01*
X149768690Y-141803652D01*
X150026835Y-141855000D01*
X150026839Y-141855000D01*
X150114000Y-141872337D01*
X150201161Y-141855000D01*
X150257560Y-141855000D01*
X150257560Y-142120000D01*
X150306843Y-142367765D01*
X150447191Y-142577809D01*
X150657235Y-142718157D01*
X150905000Y-142767440D01*
X151281990Y-142767440D01*
X151315593Y-142936376D01*
X151032222Y-142819000D01*
X150381778Y-142819000D01*
X149780847Y-143067914D01*
X149320914Y-143527847D01*
X149072000Y-144128778D01*
X149072000Y-144779222D01*
X149320914Y-145380153D01*
X149780847Y-145840086D01*
X149939597Y-145905842D01*
X149947000Y-145943062D01*
X149947001Y-146845198D01*
X149687493Y-146952690D01*
X149255690Y-147384493D01*
X149022000Y-147948670D01*
X149022000Y-148559330D01*
X149195879Y-148979111D01*
X129667000Y-149097229D01*
X129667000Y-147605750D01*
X129960000Y-147605750D01*
X129960000Y-148296309D01*
X130056673Y-148529698D01*
X130235301Y-148708327D01*
X130468690Y-148805000D01*
X131159250Y-148805000D01*
X131318000Y-148646250D01*
X131318000Y-147447000D01*
X130118750Y-147447000D01*
X129960000Y-147605750D01*
X129667000Y-147605750D01*
X129667000Y-146343691D01*
X129960000Y-146343691D01*
X129960000Y-147034250D01*
X130118750Y-147193000D01*
X131318000Y-147193000D01*
X131318000Y-145993750D01*
X131159250Y-145835000D01*
X130468690Y-145835000D01*
X130235301Y-145931673D01*
X130056673Y-146110302D01*
X129960000Y-146343691D01*
X129667000Y-146343691D01*
X129667000Y-92099110D01*
X130638524Y-92099110D01*
X130759845Y-92329000D01*
X131953000Y-92329000D01*
X131953000Y-91135181D01*
X131723108Y-91014514D01*
X131198642Y-91260817D01*
X130808355Y-91689076D01*
X130638524Y-92099110D01*
X129667000Y-92099110D01*
X129667000Y-87153750D01*
X130870000Y-87153750D01*
X130870000Y-87694310D01*
X130966673Y-87927699D01*
X131145302Y-88106327D01*
X131378691Y-88203000D01*
X131794250Y-88203000D01*
X131953000Y-88044250D01*
X131953000Y-86995000D01*
X131028750Y-86995000D01*
X130870000Y-87153750D01*
X129667000Y-87153750D01*
X129667000Y-86041690D01*
X130870000Y-86041690D01*
X130870000Y-86582250D01*
X131028750Y-86741000D01*
X131953000Y-86741000D01*
X131953000Y-85691750D01*
X132207000Y-85691750D01*
X132207000Y-86741000D01*
X132227000Y-86741000D01*
X132227000Y-86995000D01*
X132207000Y-86995000D01*
X132207000Y-88044250D01*
X132365750Y-88203000D01*
X132781309Y-88203000D01*
X133014698Y-88106327D01*
X133169623Y-87951403D01*
X133170414Y-87952586D01*
X133352000Y-88073919D01*
X133352000Y-88196289D01*
X133234569Y-88313720D01*
X133077000Y-88694126D01*
X133077000Y-89105874D01*
X133234569Y-89486280D01*
X133525720Y-89777431D01*
X133906126Y-89935000D01*
X134317874Y-89935000D01*
X134698280Y-89777431D01*
X134989431Y-89486280D01*
X135147000Y-89105874D01*
X135147000Y-88694126D01*
X134989431Y-88313720D01*
X134872000Y-88196289D01*
X134872000Y-88097973D01*
X135089586Y-87952586D01*
X135284127Y-87661436D01*
X135352440Y-87318001D01*
X135352440Y-86417999D01*
X135284127Y-86074564D01*
X135089586Y-85783414D01*
X134798436Y-85588873D01*
X134455001Y-85520560D01*
X133804999Y-85520560D01*
X133461564Y-85588873D01*
X133170414Y-85783414D01*
X133169623Y-85784597D01*
X133014698Y-85629673D01*
X132781309Y-85533000D01*
X132365750Y-85533000D01*
X132207000Y-85691750D01*
X131953000Y-85691750D01*
X131794250Y-85533000D01*
X131378691Y-85533000D01*
X131145302Y-85629673D01*
X130966673Y-85808301D01*
X130870000Y-86041690D01*
X129667000Y-86041690D01*
X129667000Y-83946235D01*
X160909000Y-83757271D01*
X160909000Y-148908266D01*
X160909000Y-148908266D01*
G37*
X160909000Y-148908266D02*
X159694423Y-148915612D01*
X159842000Y-148559330D01*
X159842000Y-147948670D01*
X159608310Y-147384493D01*
X159176507Y-146952690D01*
X158917000Y-146845199D01*
X158917000Y-145943061D01*
X158924403Y-145905842D01*
X159083153Y-145840086D01*
X159543086Y-145380153D01*
X159792000Y-144779222D01*
X159792000Y-144128778D01*
X159543086Y-143527847D01*
X159083153Y-143067914D01*
X158482222Y-142819000D01*
X157831778Y-142819000D01*
X157230847Y-143067914D01*
X156770914Y-143527847D01*
X156592000Y-143959783D01*
X156592000Y-143627690D01*
X156495327Y-143394301D01*
X156316698Y-143215673D01*
X156083309Y-143119000D01*
X156003250Y-143119000D01*
X155844500Y-143277750D01*
X155844500Y-143415456D01*
X155764809Y-143296191D01*
X155554765Y-143155843D01*
X155483397Y-143141647D01*
X155460750Y-143119000D01*
X155380691Y-143119000D01*
X155377074Y-143120498D01*
X155307000Y-143106560D01*
X154857000Y-143106560D01*
X154757000Y-143126451D01*
X154657000Y-143106560D01*
X154207000Y-143106560D01*
X154107000Y-143126451D01*
X154007000Y-143106560D01*
X153557000Y-143106560D01*
X153457000Y-143126451D01*
X153357000Y-143106560D01*
X153285000Y-143106560D01*
X153285000Y-142952159D01*
X153302337Y-142864999D01*
X153285000Y-142777840D01*
X153285000Y-142777835D01*
X153282932Y-142767440D01*
X153405000Y-142767440D01*
X153652765Y-142718157D01*
X153862809Y-142577809D01*
X154003157Y-142367765D01*
X154052440Y-142120000D01*
X154052440Y-141255750D01*
X154570000Y-141255750D01*
X154570000Y-142246310D01*
X154666673Y-142479699D01*
X154845302Y-142658327D01*
X155078691Y-142755000D01*
X156169250Y-142755000D01*
X156328000Y-142596250D01*
X156328000Y-141097000D01*
X156582000Y-141097000D01*
X156582000Y-142596250D01*
X156740750Y-142755000D01*
X157831309Y-142755000D01*
X158064698Y-142658327D01*
X158243327Y-142479699D01*
X158340000Y-142246310D01*
X158340000Y-141255750D01*
X158181250Y-141097000D01*
X156582000Y-141097000D01*
X156328000Y-141097000D01*
X154728750Y-141097000D01*
X154570000Y-141255750D01*
X154052440Y-141255750D01*
X154052440Y-141209104D01*
X154573647Y-140687897D01*
X154728750Y-140843000D01*
X156328000Y-140843000D01*
X156328000Y-139343750D01*
X156582000Y-139343750D01*
X156582000Y-140843000D01*
X158181250Y-140843000D01*
X158340000Y-140684250D01*
X158340000Y-139693690D01*
X158243327Y-139460301D01*
X158064698Y-139281673D01*
X157831309Y-139185000D01*
X156740750Y-139185000D01*
X156582000Y-139343750D01*
X156328000Y-139343750D01*
X156169250Y-139185000D01*
X156076545Y-139185000D01*
X157216545Y-138045000D01*
X157900839Y-138045000D01*
X157988000Y-138062337D01*
X158075161Y-138045000D01*
X158075165Y-138045000D01*
X158333310Y-137993652D01*
X158626049Y-137798049D01*
X158675425Y-137724153D01*
X160076156Y-136323423D01*
X160150049Y-136274049D01*
X160345652Y-135981310D01*
X160397000Y-135723165D01*
X160397000Y-135723161D01*
X160414337Y-135636001D01*
X160397000Y-135548841D01*
X160397000Y-127254159D01*
X160414337Y-127166999D01*
X160397000Y-127079839D01*
X160397000Y-127079835D01*
X160345652Y-126821690D01*
X160245086Y-126671183D01*
X160199424Y-126602845D01*
X160199423Y-126602844D01*
X160150049Y-126528951D01*
X160076156Y-126479577D01*
X159077440Y-125480862D01*
X159077440Y-124585000D01*
X159028157Y-124337235D01*
X158887809Y-124127191D01*
X158689137Y-123994442D01*
X158720148Y-123963431D01*
X159082280Y-123813431D01*
X159373431Y-123522280D01*
X159531000Y-123141874D01*
X159531000Y-122730126D01*
X159373431Y-122349720D01*
X159082280Y-122058569D01*
X158701874Y-121901000D01*
X158290126Y-121901000D01*
X157909720Y-122058569D01*
X157618569Y-122349720D01*
X157468569Y-122711852D01*
X156865845Y-123314577D01*
X156791952Y-123363951D01*
X156742578Y-123437844D01*
X156742576Y-123437846D01*
X156596348Y-123656691D01*
X156540481Y-123937560D01*
X156430000Y-123937560D01*
X156182235Y-123986843D01*
X155972191Y-124127191D01*
X155831843Y-124337235D01*
X155782560Y-124585000D01*
X155782560Y-126085000D01*
X155831843Y-126332765D01*
X155933564Y-126485000D01*
X155831843Y-126637235D01*
X155809413Y-126750000D01*
X152777440Y-126750000D01*
X152777440Y-125735000D01*
X152728157Y-125487235D01*
X152587809Y-125277191D01*
X152377765Y-125136843D01*
X152130000Y-125087560D01*
X152015000Y-125087560D01*
X152015000Y-124567578D01*
X154991155Y-121591424D01*
X155065049Y-121542049D01*
X155114424Y-121468155D01*
X156263139Y-120319440D01*
X157871500Y-120319440D01*
X158214935Y-120251126D01*
X158506086Y-120056586D01*
X158700626Y-119765435D01*
X158768940Y-119422000D01*
X158768940Y-118322000D01*
X158700626Y-117978565D01*
X158506086Y-117687414D01*
X158214935Y-117492874D01*
X157871500Y-117424560D01*
X155046500Y-117424560D01*
X154703065Y-117492874D01*
X154411914Y-117687414D01*
X154217374Y-117978565D01*
X154149060Y-118322000D01*
X154149060Y-119422000D01*
X154217374Y-119765435D01*
X154256071Y-119823350D01*
X154060421Y-120019000D01*
X153590087Y-120019000D01*
X153681500Y-119798310D01*
X153681500Y-119157750D01*
X153522750Y-118999000D01*
X151511000Y-118999000D01*
X151511000Y-119019000D01*
X151257000Y-119019000D01*
X151257000Y-118999000D01*
X149245250Y-118999000D01*
X149086500Y-119157750D01*
X149086500Y-119798310D01*
X149120225Y-119879729D01*
X148980010Y-119937807D01*
X148980010Y-117945690D01*
X149086500Y-117945690D01*
X149086500Y-118586250D01*
X149245250Y-118745000D01*
X151257000Y-118745000D01*
X151257000Y-117595750D01*
X151511000Y-117595750D01*
X151511000Y-118745000D01*
X153522750Y-118745000D01*
X153681500Y-118586250D01*
X153681500Y-117945690D01*
X153584827Y-117712301D01*
X153406198Y-117533673D01*
X153172809Y-117437000D01*
X151669750Y-117437000D01*
X151511000Y-117595750D01*
X151257000Y-117595750D01*
X151098250Y-117437000D01*
X149595191Y-117437000D01*
X149361802Y-117533673D01*
X149183173Y-117712301D01*
X149086500Y-117945690D01*
X148980010Y-117945690D01*
X148980010Y-111710193D01*
X149146126Y-111779000D01*
X149557874Y-111779000D01*
X149938280Y-111621431D01*
X150229431Y-111330280D01*
X150387000Y-110949874D01*
X150387000Y-110538126D01*
X150229431Y-110157720D01*
X149938280Y-109866569D01*
X149557874Y-109709000D01*
X149391802Y-109709000D01*
X147588331Y-107905530D01*
X147559539Y-107862440D01*
X148560000Y-107862440D01*
X148807765Y-107813157D01*
X149017809Y-107672809D01*
X149158157Y-107462765D01*
X149207440Y-107215000D01*
X149207440Y-106665000D01*
X149182576Y-106540000D01*
X149207440Y-106415000D01*
X149207440Y-105865000D01*
X149182576Y-105740000D01*
X149207440Y-105615000D01*
X149207440Y-105065000D01*
X149182576Y-104940000D01*
X149207440Y-104815000D01*
X149207440Y-104588339D01*
X149312071Y-104744931D01*
X149375530Y-104787333D01*
X154800671Y-110212476D01*
X154843069Y-110275929D01*
X154906522Y-110318327D01*
X154906524Y-110318329D01*
X155025993Y-110398155D01*
X155094461Y-110443904D01*
X155316146Y-110488000D01*
X155316150Y-110488000D01*
X155390997Y-110502888D01*
X155465844Y-110488000D01*
X156709822Y-110488000D01*
X156917375Y-110798625D01*
X157215761Y-110998000D01*
X156917375Y-111197375D01*
X156589161Y-111688582D01*
X156473908Y-112268000D01*
X156589161Y-112847418D01*
X156917375Y-113338625D01*
X157408582Y-113666839D01*
X157841744Y-113753000D01*
X158134256Y-113753000D01*
X158567418Y-113666839D01*
X159058625Y-113338625D01*
X159386839Y-112847418D01*
X159502092Y-112268000D01*
X159386839Y-111688582D01*
X159058625Y-111197375D01*
X158760239Y-110998000D01*
X159058625Y-110798625D01*
X159386839Y-110307418D01*
X159502092Y-109728000D01*
X159386839Y-109148582D01*
X159058625Y-108657375D01*
X158760239Y-108458000D01*
X159058625Y-108258625D01*
X159386839Y-107767418D01*
X159502092Y-107188000D01*
X159386839Y-106608582D01*
X159058625Y-106117375D01*
X158760239Y-105918000D01*
X159058625Y-105718625D01*
X159386839Y-105227418D01*
X159502092Y-104648000D01*
X159386839Y-104068582D01*
X159058625Y-103577375D01*
X158760239Y-103378000D01*
X159058625Y-103178625D01*
X159386839Y-102687418D01*
X159502092Y-102108000D01*
X159386839Y-101528582D01*
X159058625Y-101037375D01*
X158760239Y-100838000D01*
X159058625Y-100638625D01*
X159386839Y-100147418D01*
X159502092Y-99568000D01*
X159386839Y-98988582D01*
X159058625Y-98497375D01*
X158760239Y-98298000D01*
X159058625Y-98098625D01*
X159386839Y-97607418D01*
X159502092Y-97028000D01*
X159386839Y-96448582D01*
X159058625Y-95957375D01*
X159036967Y-95942904D01*
X159197698Y-95876327D01*
X159376327Y-95697699D01*
X159473000Y-95464310D01*
X159473000Y-94773750D01*
X159314250Y-94615000D01*
X158115000Y-94615000D01*
X158115000Y-94635000D01*
X157861000Y-94635000D01*
X157861000Y-94615000D01*
X156661750Y-94615000D01*
X156503000Y-94773750D01*
X156503000Y-95464310D01*
X156599673Y-95697699D01*
X156778302Y-95876327D01*
X156939033Y-95942904D01*
X156917375Y-95957375D01*
X156793344Y-96143000D01*
X154798579Y-96143000D01*
X153651578Y-94996000D01*
X155135888Y-93511690D01*
X156503000Y-93511690D01*
X156503000Y-94202250D01*
X156661750Y-94361000D01*
X157861000Y-94361000D01*
X157861000Y-93161750D01*
X158115000Y-93161750D01*
X158115000Y-94361000D01*
X159314250Y-94361000D01*
X159473000Y-94202250D01*
X159473000Y-93511690D01*
X159376327Y-93278301D01*
X159197698Y-93099673D01*
X158964309Y-93003000D01*
X158273750Y-93003000D01*
X158115000Y-93161750D01*
X157861000Y-93161750D01*
X157702250Y-93003000D01*
X157011691Y-93003000D01*
X156778302Y-93099673D01*
X156599673Y-93278301D01*
X156503000Y-93511690D01*
X155135888Y-93511690D01*
X157261041Y-91386538D01*
X157333744Y-91401000D01*
X157626256Y-91401000D01*
X158059418Y-91314839D01*
X158550625Y-90986625D01*
X158878839Y-90495418D01*
X158994092Y-89916000D01*
X158878839Y-89336582D01*
X158550625Y-88845375D01*
X158532381Y-88833184D01*
X158577765Y-88824157D01*
X158787809Y-88683809D01*
X158928157Y-88473765D01*
X158977440Y-88226000D01*
X158977440Y-86526000D01*
X158928157Y-86278235D01*
X158787809Y-86068191D01*
X158577765Y-85927843D01*
X158330000Y-85878560D01*
X156630000Y-85878560D01*
X156382235Y-85927843D01*
X156172191Y-86068191D01*
X156031843Y-86278235D01*
X156022816Y-86323619D01*
X156010625Y-86305375D01*
X155519418Y-85977161D01*
X155086256Y-85891000D01*
X154793744Y-85891000D01*
X154360582Y-85977161D01*
X153869375Y-86305375D01*
X153670000Y-86603761D01*
X153470625Y-86305375D01*
X152979418Y-85977161D01*
X152546256Y-85891000D01*
X152253744Y-85891000D01*
X152033592Y-85934791D01*
X151756331Y-85657530D01*
X151713929Y-85594071D01*
X151462537Y-85426096D01*
X151240852Y-85382000D01*
X151240847Y-85382000D01*
X151166000Y-85367112D01*
X151091153Y-85382000D01*
X148128560Y-85382000D01*
X148101157Y-85244235D01*
X147960809Y-85034191D01*
X147750765Y-84893843D01*
X147503000Y-84844560D01*
X145953000Y-84844560D01*
X145705235Y-84893843D01*
X145495191Y-85034191D01*
X145354843Y-85244235D01*
X145327440Y-85382000D01*
X140168560Y-85382000D01*
X140141157Y-85244235D01*
X140000809Y-85034191D01*
X139790765Y-84893843D01*
X139543000Y-84844560D01*
X137993000Y-84844560D01*
X137745235Y-84893843D01*
X137535191Y-85034191D01*
X137394843Y-85244235D01*
X137345560Y-85492000D01*
X137345560Y-86792000D01*
X137394843Y-87039765D01*
X137515243Y-87219955D01*
X136167528Y-88567671D01*
X136104072Y-88610071D01*
X136061672Y-88673527D01*
X136061671Y-88673528D01*
X135936097Y-88861463D01*
X135877112Y-89158000D01*
X135892001Y-89232852D01*
X135892001Y-91686755D01*
X135690625Y-91385375D01*
X135199418Y-91057161D01*
X134766256Y-90971000D01*
X134473744Y-90971000D01*
X134040582Y-91057161D01*
X133549375Y-91385375D01*
X133348647Y-91685786D01*
X132961358Y-91260817D01*
X132436892Y-91014514D01*
X132207000Y-91135181D01*
X132207000Y-92329000D01*
X132227000Y-92329000D01*
X132227000Y-92583000D01*
X132207000Y-92583000D01*
X132207000Y-92603000D01*
X131953000Y-92603000D01*
X131953000Y-92583000D01*
X130759845Y-92583000D01*
X130638524Y-92812890D01*
X130808355Y-93222924D01*
X131198642Y-93651183D01*
X131328478Y-93712157D01*
X131009375Y-93925375D01*
X130681161Y-94416582D01*
X130565908Y-94996000D01*
X130681161Y-95575418D01*
X131009375Y-96066625D01*
X131307761Y-96266000D01*
X131009375Y-96465375D01*
X130681161Y-96956582D01*
X130565908Y-97536000D01*
X130681161Y-98115418D01*
X131009375Y-98606625D01*
X131307761Y-98806000D01*
X131009375Y-99005375D01*
X130681161Y-99496582D01*
X130565908Y-100076000D01*
X130681161Y-100655418D01*
X131009375Y-101146625D01*
X131307761Y-101346000D01*
X131009375Y-101545375D01*
X130681161Y-102036582D01*
X130565908Y-102616000D01*
X130681161Y-103195418D01*
X131009375Y-103686625D01*
X131307761Y-103886000D01*
X131009375Y-104085375D01*
X130681161Y-104576582D01*
X130565908Y-105156000D01*
X130681161Y-105735418D01*
X131009375Y-106226625D01*
X131307761Y-106426000D01*
X131009375Y-106625375D01*
X130681161Y-107116582D01*
X130565908Y-107696000D01*
X130681161Y-108275418D01*
X131009375Y-108766625D01*
X131328478Y-108979843D01*
X131198642Y-109040817D01*
X130808355Y-109469076D01*
X130638524Y-109879110D01*
X130759845Y-110109000D01*
X131953000Y-110109000D01*
X131953000Y-110089000D01*
X132207000Y-110089000D01*
X132207000Y-110109000D01*
X132227000Y-110109000D01*
X132227000Y-110363000D01*
X132207000Y-110363000D01*
X132207000Y-110383000D01*
X131953000Y-110383000D01*
X131953000Y-110363000D01*
X130759845Y-110363000D01*
X130638524Y-110592890D01*
X130808355Y-111002924D01*
X131198642Y-111431183D01*
X131328478Y-111492157D01*
X131009375Y-111705375D01*
X130681161Y-112196582D01*
X130565908Y-112776000D01*
X130681161Y-113355418D01*
X131009375Y-113846625D01*
X131307761Y-114046000D01*
X131009375Y-114245375D01*
X130681161Y-114736582D01*
X130565908Y-115316000D01*
X130681161Y-115895418D01*
X131009375Y-116386625D01*
X131307761Y-116586000D01*
X131009375Y-116785375D01*
X130681161Y-117276582D01*
X130565908Y-117856000D01*
X130681161Y-118435418D01*
X131009375Y-118926625D01*
X131307761Y-119126000D01*
X131009375Y-119325375D01*
X130681161Y-119816582D01*
X130565908Y-120396000D01*
X130681161Y-120975418D01*
X131009375Y-121466625D01*
X131307761Y-121666000D01*
X131009375Y-121865375D01*
X130681161Y-122356582D01*
X130565908Y-122936000D01*
X130681161Y-123515418D01*
X131009375Y-124006625D01*
X131307761Y-124206000D01*
X131009375Y-124405375D01*
X130681161Y-124896582D01*
X130565908Y-125476000D01*
X130681161Y-126055418D01*
X131009375Y-126546625D01*
X131307761Y-126746000D01*
X131009375Y-126945375D01*
X130681161Y-127436582D01*
X130565908Y-128016000D01*
X130681161Y-128595418D01*
X131009375Y-129086625D01*
X131328478Y-129299843D01*
X131198642Y-129360817D01*
X130808355Y-129789076D01*
X130638524Y-130199110D01*
X130759845Y-130429000D01*
X131953000Y-130429000D01*
X131953000Y-130409000D01*
X132207000Y-130409000D01*
X132207000Y-130429000D01*
X132227000Y-130429000D01*
X132227000Y-130683000D01*
X132207000Y-130683000D01*
X132207000Y-130703000D01*
X131953000Y-130703000D01*
X131953000Y-130683000D01*
X130759845Y-130683000D01*
X130638524Y-130912890D01*
X130808355Y-131322924D01*
X131198642Y-131751183D01*
X131328478Y-131812157D01*
X131009375Y-132025375D01*
X130681161Y-132516582D01*
X130565908Y-133096000D01*
X130681161Y-133675418D01*
X131009375Y-134166625D01*
X131307761Y-134366000D01*
X131009375Y-134565375D01*
X130681161Y-135056582D01*
X130565908Y-135636000D01*
X130681161Y-136215418D01*
X131009375Y-136706625D01*
X131307761Y-136906000D01*
X131009375Y-137105375D01*
X130681161Y-137596582D01*
X130565908Y-138176000D01*
X130681161Y-138755418D01*
X131009375Y-139246625D01*
X131027619Y-139258816D01*
X130982235Y-139267843D01*
X130772191Y-139408191D01*
X130631843Y-139618235D01*
X130582560Y-139866000D01*
X130582560Y-141566000D01*
X130631843Y-141813765D01*
X130772191Y-142023809D01*
X130982235Y-142164157D01*
X131230000Y-142213440D01*
X132930000Y-142213440D01*
X133177765Y-142164157D01*
X133387809Y-142023809D01*
X133528157Y-141813765D01*
X133537184Y-141768381D01*
X133549375Y-141786625D01*
X134040582Y-142114839D01*
X134473744Y-142201000D01*
X134766256Y-142201000D01*
X135199418Y-142114839D01*
X135690625Y-141786625D01*
X136018839Y-141295418D01*
X136134092Y-140716000D01*
X136018839Y-140136582D01*
X135690625Y-139645375D01*
X135505000Y-139521344D01*
X135505000Y-139370656D01*
X135690625Y-139246625D01*
X136018839Y-138755418D01*
X136134092Y-138176000D01*
X136018839Y-137596582D01*
X135690625Y-137105375D01*
X135371522Y-136892157D01*
X135501358Y-136831183D01*
X135891645Y-136402924D01*
X136061476Y-135992890D01*
X135940155Y-135763000D01*
X134747000Y-135763000D01*
X134747000Y-135783000D01*
X134493000Y-135783000D01*
X134493000Y-135763000D01*
X134473000Y-135763000D01*
X134473000Y-135509000D01*
X134493000Y-135509000D01*
X134493000Y-135489000D01*
X134747000Y-135489000D01*
X134747000Y-135509000D01*
X135940155Y-135509000D01*
X136061476Y-135279110D01*
X135891645Y-134869076D01*
X135501358Y-134440817D01*
X135371522Y-134379843D01*
X135690625Y-134166625D01*
X135898178Y-133856000D01*
X136424990Y-133856000D01*
X136424989Y-144275747D01*
X136407652Y-144362908D01*
X136424989Y-144450069D01*
X136424989Y-144450072D01*
X136476337Y-144708217D01*
X136671940Y-145000957D01*
X136745836Y-145050333D01*
X137974549Y-146279047D01*
X137795000Y-146547761D01*
X137595625Y-146249375D01*
X137104418Y-145921161D01*
X136671256Y-145835000D01*
X136378744Y-145835000D01*
X135945582Y-145921161D01*
X135454375Y-146249375D01*
X135255000Y-146547761D01*
X135055625Y-146249375D01*
X134564418Y-145921161D01*
X134131256Y-145835000D01*
X133838744Y-145835000D01*
X133405582Y-145921161D01*
X132914375Y-146249375D01*
X132899904Y-146271033D01*
X132833327Y-146110302D01*
X132654699Y-145931673D01*
X132421310Y-145835000D01*
X131730750Y-145835000D01*
X131572000Y-145993750D01*
X131572000Y-147193000D01*
X131592000Y-147193000D01*
X131592000Y-147447000D01*
X131572000Y-147447000D01*
X131572000Y-148646250D01*
X131730750Y-148805000D01*
X132421310Y-148805000D01*
X132654699Y-148708327D01*
X132833327Y-148529698D01*
X132899904Y-148368967D01*
X132914375Y-148390625D01*
X133405582Y-148718839D01*
X133838744Y-148805000D01*
X134131256Y-148805000D01*
X134564418Y-148718839D01*
X135055625Y-148390625D01*
X135255000Y-148092239D01*
X135454375Y-148390625D01*
X135945582Y-148718839D01*
X136378744Y-148805000D01*
X136671256Y-148805000D01*
X137104418Y-148718839D01*
X137595625Y-148390625D01*
X137795000Y-148092239D01*
X137994375Y-148390625D01*
X138485582Y-148718839D01*
X138918744Y-148805000D01*
X139211256Y-148805000D01*
X139644418Y-148718839D01*
X140135625Y-148390625D01*
X140335000Y-148092239D01*
X140534375Y-148390625D01*
X141025582Y-148718839D01*
X141458744Y-148805000D01*
X141751256Y-148805000D01*
X142184418Y-148718839D01*
X142675625Y-148390625D01*
X142875000Y-148092239D01*
X143074375Y-148390625D01*
X143565582Y-148718839D01*
X143998744Y-148805000D01*
X144291256Y-148805000D01*
X144724418Y-148718839D01*
X145215625Y-148390625D01*
X145543839Y-147899418D01*
X145659092Y-147320000D01*
X145586209Y-146953592D01*
X147677473Y-144862329D01*
X147740929Y-144819929D01*
X147908904Y-144568537D01*
X147953000Y-144346852D01*
X147953000Y-144346847D01*
X147967888Y-144272000D01*
X147953000Y-144197153D01*
X147953000Y-143076946D01*
X148152586Y-142943586D01*
X148347127Y-142652436D01*
X148415440Y-142309001D01*
X148415440Y-141408999D01*
X148347127Y-141065564D01*
X148152586Y-140774414D01*
X147861436Y-140579873D01*
X147518001Y-140511560D01*
X146867999Y-140511560D01*
X146524564Y-140579873D01*
X146233414Y-140774414D01*
X146168000Y-140872313D01*
X146102586Y-140774414D01*
X146028000Y-140724577D01*
X146028000Y-138863942D01*
X146191916Y-138754416D01*
X146255500Y-138659256D01*
X146319084Y-138754416D01*
X146608206Y-138947602D01*
X146949250Y-139015440D01*
X147436750Y-139015440D01*
X147777794Y-138947602D01*
X148066916Y-138754416D01*
X148260102Y-138465294D01*
X148327940Y-138124250D01*
X148327940Y-137784638D01*
X149991001Y-136121578D01*
X149991000Y-136591993D01*
X149841000Y-136954126D01*
X149841000Y-137365874D01*
X149998569Y-137746280D01*
X150289720Y-138037431D01*
X150670126Y-138195000D01*
X151081874Y-138195000D01*
X151462280Y-138037431D01*
X151753431Y-137746280D01*
X151911000Y-137365874D01*
X151911000Y-136954126D01*
X151761000Y-136591993D01*
X151761000Y-135955307D01*
X152043436Y-135899127D01*
X152334586Y-135704586D01*
X152400000Y-135606687D01*
X152465414Y-135704586D01*
X152756564Y-135899127D01*
X153099999Y-135967440D01*
X153750001Y-135967440D01*
X154093436Y-135899127D01*
X154384586Y-135704586D01*
X154500000Y-135531857D01*
X154615414Y-135704586D01*
X154906564Y-135899127D01*
X155249999Y-135967440D01*
X155900001Y-135967440D01*
X156243436Y-135899127D01*
X156534586Y-135704586D01*
X156535377Y-135703403D01*
X156690302Y-135858327D01*
X156923691Y-135955000D01*
X157339250Y-135955000D01*
X157498000Y-135796250D01*
X157498000Y-134747000D01*
X157478000Y-134747000D01*
X157478000Y-134493000D01*
X157498000Y-134493000D01*
X157498000Y-133443750D01*
X157339250Y-133285000D01*
X156923691Y-133285000D01*
X156690302Y-133381673D01*
X156535377Y-133536597D01*
X156534586Y-133535414D01*
X156243436Y-133340873D01*
X155900001Y-133272560D01*
X155249999Y-133272560D01*
X154906564Y-133340873D01*
X154615414Y-133535414D01*
X154500000Y-133708143D01*
X154384586Y-133535414D01*
X154093436Y-133340873D01*
X153750001Y-133272560D01*
X153099999Y-133272560D01*
X152756564Y-133340873D01*
X152465414Y-133535414D01*
X152400000Y-133633313D01*
X152334586Y-133535414D01*
X152043436Y-133340873D01*
X151700001Y-133272560D01*
X151049999Y-133272560D01*
X150706564Y-133340873D01*
X150415414Y-133535414D01*
X150287463Y-133726905D01*
X150241000Y-133717663D01*
X150153839Y-133735000D01*
X149210579Y-133735000D01*
X148542440Y-133066862D01*
X148542440Y-132645999D01*
X148474127Y-132302564D01*
X148279586Y-132011414D01*
X148205000Y-131961577D01*
X148205000Y-130311578D01*
X148295828Y-130220750D01*
X155795000Y-130220750D01*
X155795000Y-130811310D01*
X155891673Y-131044699D01*
X156070302Y-131223327D01*
X156303691Y-131320000D01*
X157144250Y-131320000D01*
X157303000Y-131161250D01*
X157303000Y-130062000D01*
X155953750Y-130062000D01*
X155795000Y-130220750D01*
X148295828Y-130220750D01*
X149482560Y-129034019D01*
X149482560Y-129535000D01*
X149531843Y-129782765D01*
X149672191Y-129992809D01*
X149882235Y-130133157D01*
X150130000Y-130182440D01*
X152130000Y-130182440D01*
X152377765Y-130133157D01*
X152587809Y-129992809D01*
X152728157Y-129782765D01*
X152777440Y-129535000D01*
X152777440Y-128520000D01*
X155809413Y-128520000D01*
X155831843Y-128632765D01*
X155932927Y-128784047D01*
X155891673Y-128825301D01*
X155795000Y-129058690D01*
X155795000Y-129649250D01*
X155953750Y-129808000D01*
X157303000Y-129808000D01*
X157303000Y-129788000D01*
X157557000Y-129788000D01*
X157557000Y-129808000D01*
X157577000Y-129808000D01*
X157577000Y-130062000D01*
X157557000Y-130062000D01*
X157557000Y-131161250D01*
X157715750Y-131320000D01*
X158556309Y-131320000D01*
X158627001Y-131290719D01*
X158627000Y-133448975D01*
X158559698Y-133381673D01*
X158326309Y-133285000D01*
X157910750Y-133285000D01*
X157752000Y-133443750D01*
X157752000Y-134493000D01*
X157772000Y-134493000D01*
X157772000Y-134747000D01*
X157752000Y-134747000D01*
X157752000Y-135796250D01*
X157910750Y-135955000D01*
X157941422Y-135955000D01*
X157621422Y-136275000D01*
X156937127Y-136275000D01*
X156849966Y-136257663D01*
X156762805Y-136275000D01*
X156762801Y-136275000D01*
X156504656Y-136326348D01*
X156285811Y-136472576D01*
X156285810Y-136472577D01*
X156211917Y-136521951D01*
X156162543Y-136595844D01*
X153555827Y-139202561D01*
X153405000Y-139172560D01*
X150905000Y-139172560D01*
X150657235Y-139221843D01*
X150447191Y-139362191D01*
X150306843Y-139572235D01*
X150275079Y-139731925D01*
X150229431Y-139621720D01*
X149938280Y-139330569D01*
X149557874Y-139173000D01*
X149146126Y-139173000D01*
X148765720Y-139330569D01*
X148474569Y-139621720D01*
X148317000Y-140002126D01*
X148317000Y-140413874D01*
X148474569Y-140794280D01*
X148765720Y-141085431D01*
X149127852Y-141235431D01*
X149426577Y-141534156D01*
X149475951Y-141608049D01*
X149549844Y-141657423D01*
X149549845Y-141657424D01*
X149639999Y-141717663D01*
X149768690Y-141803652D01*
X150026835Y-141855000D01*
X150026839Y-141855000D01*
X150114000Y-141872337D01*
X150201161Y-141855000D01*
X150257560Y-141855000D01*
X150257560Y-142120000D01*
X150306843Y-142367765D01*
X150447191Y-142577809D01*
X150657235Y-142718157D01*
X150905000Y-142767440D01*
X151281990Y-142767440D01*
X151315593Y-142936376D01*
X151032222Y-142819000D01*
X150381778Y-142819000D01*
X149780847Y-143067914D01*
X149320914Y-143527847D01*
X149072000Y-144128778D01*
X149072000Y-144779222D01*
X149320914Y-145380153D01*
X149780847Y-145840086D01*
X149939597Y-145905842D01*
X149947000Y-145943062D01*
X149947001Y-146845198D01*
X149687493Y-146952690D01*
X149255690Y-147384493D01*
X149022000Y-147948670D01*
X149022000Y-148559330D01*
X149195879Y-148979111D01*
X129667000Y-149097229D01*
X129667000Y-147605750D01*
X129960000Y-147605750D01*
X129960000Y-148296309D01*
X130056673Y-148529698D01*
X130235301Y-148708327D01*
X130468690Y-148805000D01*
X131159250Y-148805000D01*
X131318000Y-148646250D01*
X131318000Y-147447000D01*
X130118750Y-147447000D01*
X129960000Y-147605750D01*
X129667000Y-147605750D01*
X129667000Y-146343691D01*
X129960000Y-146343691D01*
X129960000Y-147034250D01*
X130118750Y-147193000D01*
X131318000Y-147193000D01*
X131318000Y-145993750D01*
X131159250Y-145835000D01*
X130468690Y-145835000D01*
X130235301Y-145931673D01*
X130056673Y-146110302D01*
X129960000Y-146343691D01*
X129667000Y-146343691D01*
X129667000Y-92099110D01*
X130638524Y-92099110D01*
X130759845Y-92329000D01*
X131953000Y-92329000D01*
X131953000Y-91135181D01*
X131723108Y-91014514D01*
X131198642Y-91260817D01*
X130808355Y-91689076D01*
X130638524Y-92099110D01*
X129667000Y-92099110D01*
X129667000Y-87153750D01*
X130870000Y-87153750D01*
X130870000Y-87694310D01*
X130966673Y-87927699D01*
X131145302Y-88106327D01*
X131378691Y-88203000D01*
X131794250Y-88203000D01*
X131953000Y-88044250D01*
X131953000Y-86995000D01*
X131028750Y-86995000D01*
X130870000Y-87153750D01*
X129667000Y-87153750D01*
X129667000Y-86041690D01*
X130870000Y-86041690D01*
X130870000Y-86582250D01*
X131028750Y-86741000D01*
X131953000Y-86741000D01*
X131953000Y-85691750D01*
X132207000Y-85691750D01*
X132207000Y-86741000D01*
X132227000Y-86741000D01*
X132227000Y-86995000D01*
X132207000Y-86995000D01*
X132207000Y-88044250D01*
X132365750Y-88203000D01*
X132781309Y-88203000D01*
X133014698Y-88106327D01*
X133169623Y-87951403D01*
X133170414Y-87952586D01*
X133352000Y-88073919D01*
X133352000Y-88196289D01*
X133234569Y-88313720D01*
X133077000Y-88694126D01*
X133077000Y-89105874D01*
X133234569Y-89486280D01*
X133525720Y-89777431D01*
X133906126Y-89935000D01*
X134317874Y-89935000D01*
X134698280Y-89777431D01*
X134989431Y-89486280D01*
X135147000Y-89105874D01*
X135147000Y-88694126D01*
X134989431Y-88313720D01*
X134872000Y-88196289D01*
X134872000Y-88097973D01*
X135089586Y-87952586D01*
X135284127Y-87661436D01*
X135352440Y-87318001D01*
X135352440Y-86417999D01*
X135284127Y-86074564D01*
X135089586Y-85783414D01*
X134798436Y-85588873D01*
X134455001Y-85520560D01*
X133804999Y-85520560D01*
X133461564Y-85588873D01*
X133170414Y-85783414D01*
X133169623Y-85784597D01*
X133014698Y-85629673D01*
X132781309Y-85533000D01*
X132365750Y-85533000D01*
X132207000Y-85691750D01*
X131953000Y-85691750D01*
X131794250Y-85533000D01*
X131378691Y-85533000D01*
X131145302Y-85629673D01*
X130966673Y-85808301D01*
X130870000Y-86041690D01*
X129667000Y-86041690D01*
X129667000Y-83946235D01*
X160909000Y-83757271D01*
X160909000Y-148908266D01*
G36*
X147460011Y-117682739D02*
X147447000Y-117695750D01*
X147447000Y-118745000D01*
X147460011Y-118745000D01*
X147460011Y-118999000D01*
X147447000Y-118999000D01*
X147447000Y-120048250D01*
X147460011Y-120061261D01*
X147460011Y-121383201D01*
X147435772Y-121383201D01*
X147277022Y-121541951D01*
X147277022Y-122591201D01*
X147297022Y-122591201D01*
X147297022Y-122845201D01*
X147277022Y-122845201D01*
X147277022Y-123894451D01*
X147435772Y-124053201D01*
X147460011Y-124053201D01*
X147460011Y-124134187D01*
X145560639Y-126033560D01*
X144962999Y-126033560D01*
X144619564Y-126101873D01*
X144328414Y-126296414D01*
X144133873Y-126587564D01*
X144065560Y-126930999D01*
X144065560Y-127351861D01*
X142691845Y-128725577D01*
X142617952Y-128774951D01*
X142568578Y-128848844D01*
X142568576Y-128848846D01*
X142422348Y-129067691D01*
X142353663Y-129413000D01*
X142371001Y-129500165D01*
X142371000Y-132197421D01*
X141855440Y-132712982D01*
X141855440Y-130174500D01*
X141806157Y-129926735D01*
X141665809Y-129716691D01*
X141455765Y-129576343D01*
X141208000Y-129527060D01*
X139474984Y-129527060D01*
X139778280Y-129401431D01*
X140069431Y-129110280D01*
X140227000Y-128729874D01*
X140227000Y-128318126D01*
X140069431Y-127937720D01*
X139778280Y-127646569D01*
X139397874Y-127489000D01*
X139231802Y-127489000D01*
X139061000Y-127318199D01*
X139061000Y-126792700D01*
X139208000Y-126821940D01*
X141208000Y-126821940D01*
X141455765Y-126772657D01*
X141665809Y-126632309D01*
X141806157Y-126422265D01*
X141855440Y-126174500D01*
X141855440Y-123122000D01*
X143877582Y-123122000D01*
X143877582Y-123168202D01*
X143945895Y-123511637D01*
X144140436Y-123802787D01*
X144431586Y-123997328D01*
X144775021Y-124065641D01*
X145425023Y-124065641D01*
X145768458Y-123997328D01*
X146059608Y-123802787D01*
X146060399Y-123801604D01*
X146215324Y-123956528D01*
X146448713Y-124053201D01*
X146864272Y-124053201D01*
X147023022Y-123894451D01*
X147023022Y-122845201D01*
X147003022Y-122845201D01*
X147003022Y-122591201D01*
X147023022Y-122591201D01*
X147023022Y-121541951D01*
X146930010Y-121448939D01*
X146930010Y-120207000D01*
X147034250Y-120207000D01*
X147193000Y-120048250D01*
X147193000Y-118999000D01*
X147173000Y-118999000D01*
X147173000Y-118745000D01*
X147193000Y-118745000D01*
X147193000Y-117695750D01*
X147034250Y-117537000D01*
X146930010Y-117537000D01*
X146930010Y-115843000D01*
X147017874Y-115843000D01*
X147398280Y-115685431D01*
X147460010Y-115623701D01*
X147460011Y-117682739D01*
X147460011Y-117682739D01*
G37*
X147460011Y-117682739D02*
X147447000Y-117695750D01*
X147447000Y-118745000D01*
X147460011Y-118745000D01*
X147460011Y-118999000D01*
X147447000Y-118999000D01*
X147447000Y-120048250D01*
X147460011Y-120061261D01*
X147460011Y-121383201D01*
X147435772Y-121383201D01*
X147277022Y-121541951D01*
X147277022Y-122591201D01*
X147297022Y-122591201D01*
X147297022Y-122845201D01*
X147277022Y-122845201D01*
X147277022Y-123894451D01*
X147435772Y-124053201D01*
X147460011Y-124053201D01*
X147460011Y-124134187D01*
X145560639Y-126033560D01*
X144962999Y-126033560D01*
X144619564Y-126101873D01*
X144328414Y-126296414D01*
X144133873Y-126587564D01*
X144065560Y-126930999D01*
X144065560Y-127351861D01*
X142691845Y-128725577D01*
X142617952Y-128774951D01*
X142568578Y-128848844D01*
X142568576Y-128848846D01*
X142422348Y-129067691D01*
X142353663Y-129413000D01*
X142371001Y-129500165D01*
X142371000Y-132197421D01*
X141855440Y-132712982D01*
X141855440Y-130174500D01*
X141806157Y-129926735D01*
X141665809Y-129716691D01*
X141455765Y-129576343D01*
X141208000Y-129527060D01*
X139474984Y-129527060D01*
X139778280Y-129401431D01*
X140069431Y-129110280D01*
X140227000Y-128729874D01*
X140227000Y-128318126D01*
X140069431Y-127937720D01*
X139778280Y-127646569D01*
X139397874Y-127489000D01*
X139231802Y-127489000D01*
X139061000Y-127318199D01*
X139061000Y-126792700D01*
X139208000Y-126821940D01*
X141208000Y-126821940D01*
X141455765Y-126772657D01*
X141665809Y-126632309D01*
X141806157Y-126422265D01*
X141855440Y-126174500D01*
X141855440Y-123122000D01*
X143877582Y-123122000D01*
X143877582Y-123168202D01*
X143945895Y-123511637D01*
X144140436Y-123802787D01*
X144431586Y-123997328D01*
X144775021Y-124065641D01*
X145425023Y-124065641D01*
X145768458Y-123997328D01*
X146059608Y-123802787D01*
X146060399Y-123801604D01*
X146215324Y-123956528D01*
X146448713Y-124053201D01*
X146864272Y-124053201D01*
X147023022Y-123894451D01*
X147023022Y-122845201D01*
X147003022Y-122845201D01*
X147003022Y-122591201D01*
X147023022Y-122591201D01*
X147023022Y-121541951D01*
X146930010Y-121448939D01*
X146930010Y-120207000D01*
X147034250Y-120207000D01*
X147193000Y-120048250D01*
X147193000Y-118999000D01*
X147173000Y-118999000D01*
X147173000Y-118745000D01*
X147193000Y-118745000D01*
X147193000Y-117695750D01*
X147034250Y-117537000D01*
X146930010Y-117537000D01*
X146930010Y-115843000D01*
X147017874Y-115843000D01*
X147398280Y-115685431D01*
X147460010Y-115623701D01*
X147460011Y-117682739D01*
G36*
X136104071Y-103339931D02*
X136167530Y-103382333D01*
X137420978Y-104635783D01*
X137395845Y-104652576D01*
X137395844Y-104652577D01*
X137321951Y-104701951D01*
X137272577Y-104775844D01*
X136745833Y-105302588D01*
X136671941Y-105351962D01*
X136622567Y-105425855D01*
X136622565Y-105425857D01*
X136476337Y-105644702D01*
X136407652Y-105990011D01*
X136424990Y-106077177D01*
X136424989Y-132336000D01*
X135898178Y-132336000D01*
X135690625Y-132025375D01*
X135392239Y-131826000D01*
X135690625Y-131626625D01*
X136018839Y-131135418D01*
X136134092Y-130556000D01*
X136018839Y-129976582D01*
X135690625Y-129485375D01*
X135392239Y-129286000D01*
X135690625Y-129086625D01*
X136018839Y-128595418D01*
X136134092Y-128016000D01*
X136018839Y-127436582D01*
X135690625Y-126945375D01*
X135371522Y-126732157D01*
X135501358Y-126671183D01*
X135891645Y-126242924D01*
X136061476Y-125832890D01*
X135940155Y-125603000D01*
X134747000Y-125603000D01*
X134747000Y-125623000D01*
X134493000Y-125623000D01*
X134493000Y-125603000D01*
X134473000Y-125603000D01*
X134473000Y-125349000D01*
X134493000Y-125349000D01*
X134493000Y-125329000D01*
X134747000Y-125329000D01*
X134747000Y-125349000D01*
X135940155Y-125349000D01*
X136061476Y-125119110D01*
X135891645Y-124709076D01*
X135501358Y-124280817D01*
X135371522Y-124219843D01*
X135690625Y-124006625D01*
X136018839Y-123515418D01*
X136134092Y-122936000D01*
X136018839Y-122356582D01*
X135690625Y-121865375D01*
X135392239Y-121666000D01*
X135690625Y-121466625D01*
X136018839Y-120975418D01*
X136134092Y-120396000D01*
X136018839Y-119816582D01*
X135690625Y-119325375D01*
X135371522Y-119112157D01*
X135501358Y-119051183D01*
X135891645Y-118622924D01*
X136061476Y-118212890D01*
X135940155Y-117983000D01*
X134747000Y-117983000D01*
X134747000Y-118003000D01*
X134493000Y-118003000D01*
X134493000Y-117983000D01*
X134473000Y-117983000D01*
X134473000Y-117729000D01*
X134493000Y-117729000D01*
X134493000Y-117709000D01*
X134747000Y-117709000D01*
X134747000Y-117729000D01*
X135940155Y-117729000D01*
X136061476Y-117499110D01*
X135891645Y-117089076D01*
X135501358Y-116660817D01*
X135371522Y-116599843D01*
X135690625Y-116386625D01*
X136018839Y-115895418D01*
X136134092Y-115316000D01*
X136018839Y-114736582D01*
X135690625Y-114245375D01*
X135392239Y-114046000D01*
X135690625Y-113846625D01*
X136018839Y-113355418D01*
X136134092Y-112776000D01*
X136018839Y-112196582D01*
X135690625Y-111705375D01*
X135392239Y-111506000D01*
X135690625Y-111306625D01*
X136018839Y-110815418D01*
X136134092Y-110236000D01*
X136018839Y-109656582D01*
X135690625Y-109165375D01*
X135392239Y-108966000D01*
X135690625Y-108766625D01*
X136018839Y-108275418D01*
X136134092Y-107696000D01*
X136018839Y-107116582D01*
X135690625Y-106625375D01*
X135371522Y-106412157D01*
X135501358Y-106351183D01*
X135891645Y-105922924D01*
X136061476Y-105512890D01*
X135940155Y-105283000D01*
X134747000Y-105283000D01*
X134747000Y-105303000D01*
X134493000Y-105303000D01*
X134493000Y-105283000D01*
X134473000Y-105283000D01*
X134473000Y-105029000D01*
X134493000Y-105029000D01*
X134493000Y-105009000D01*
X134747000Y-105009000D01*
X134747000Y-105029000D01*
X135940155Y-105029000D01*
X136061476Y-104799110D01*
X135891645Y-104389076D01*
X135501358Y-103960817D01*
X135371522Y-103899843D01*
X135690625Y-103686625D01*
X136013175Y-103203895D01*
X136104071Y-103339931D01*
X136104071Y-103339931D01*
G37*
X136104071Y-103339931D02*
X136167530Y-103382333D01*
X137420978Y-104635783D01*
X137395845Y-104652576D01*
X137395844Y-104652577D01*
X137321951Y-104701951D01*
X137272577Y-104775844D01*
X136745833Y-105302588D01*
X136671941Y-105351962D01*
X136622567Y-105425855D01*
X136622565Y-105425857D01*
X136476337Y-105644702D01*
X136407652Y-105990011D01*
X136424990Y-106077177D01*
X136424989Y-132336000D01*
X135898178Y-132336000D01*
X135690625Y-132025375D01*
X135392239Y-131826000D01*
X135690625Y-131626625D01*
X136018839Y-131135418D01*
X136134092Y-130556000D01*
X136018839Y-129976582D01*
X135690625Y-129485375D01*
X135392239Y-129286000D01*
X135690625Y-129086625D01*
X136018839Y-128595418D01*
X136134092Y-128016000D01*
X136018839Y-127436582D01*
X135690625Y-126945375D01*
X135371522Y-126732157D01*
X135501358Y-126671183D01*
X135891645Y-126242924D01*
X136061476Y-125832890D01*
X135940155Y-125603000D01*
X134747000Y-125603000D01*
X134747000Y-125623000D01*
X134493000Y-125623000D01*
X134493000Y-125603000D01*
X134473000Y-125603000D01*
X134473000Y-125349000D01*
X134493000Y-125349000D01*
X134493000Y-125329000D01*
X134747000Y-125329000D01*
X134747000Y-125349000D01*
X135940155Y-125349000D01*
X136061476Y-125119110D01*
X135891645Y-124709076D01*
X135501358Y-124280817D01*
X135371522Y-124219843D01*
X135690625Y-124006625D01*
X136018839Y-123515418D01*
X136134092Y-122936000D01*
X136018839Y-122356582D01*
X135690625Y-121865375D01*
X135392239Y-121666000D01*
X135690625Y-121466625D01*
X136018839Y-120975418D01*
X136134092Y-120396000D01*
X136018839Y-119816582D01*
X135690625Y-119325375D01*
X135371522Y-119112157D01*
X135501358Y-119051183D01*
X135891645Y-118622924D01*
X136061476Y-118212890D01*
X135940155Y-117983000D01*
X134747000Y-117983000D01*
X134747000Y-118003000D01*
X134493000Y-118003000D01*
X134493000Y-117983000D01*
X134473000Y-117983000D01*
X134473000Y-117729000D01*
X134493000Y-117729000D01*
X134493000Y-117709000D01*
X134747000Y-117709000D01*
X134747000Y-117729000D01*
X135940155Y-117729000D01*
X136061476Y-117499110D01*
X135891645Y-117089076D01*
X135501358Y-116660817D01*
X135371522Y-116599843D01*
X135690625Y-116386625D01*
X136018839Y-115895418D01*
X136134092Y-115316000D01*
X136018839Y-114736582D01*
X135690625Y-114245375D01*
X135392239Y-114046000D01*
X135690625Y-113846625D01*
X136018839Y-113355418D01*
X136134092Y-112776000D01*
X136018839Y-112196582D01*
X135690625Y-111705375D01*
X135392239Y-111506000D01*
X135690625Y-111306625D01*
X136018839Y-110815418D01*
X136134092Y-110236000D01*
X136018839Y-109656582D01*
X135690625Y-109165375D01*
X135392239Y-108966000D01*
X135690625Y-108766625D01*
X136018839Y-108275418D01*
X136134092Y-107696000D01*
X136018839Y-107116582D01*
X135690625Y-106625375D01*
X135371522Y-106412157D01*
X135501358Y-106351183D01*
X135891645Y-105922924D01*
X136061476Y-105512890D01*
X135940155Y-105283000D01*
X134747000Y-105283000D01*
X134747000Y-105303000D01*
X134493000Y-105303000D01*
X134493000Y-105283000D01*
X134473000Y-105283000D01*
X134473000Y-105029000D01*
X134493000Y-105029000D01*
X134493000Y-105009000D01*
X134747000Y-105009000D01*
X134747000Y-105029000D01*
X135940155Y-105029000D01*
X136061476Y-104799110D01*
X135891645Y-104389076D01*
X135501358Y-103960817D01*
X135371522Y-103899843D01*
X135690625Y-103686625D01*
X136013175Y-103203895D01*
X136104071Y-103339931D01*
G36*
X150565845Y-123513577D02*
X150491952Y-123562951D01*
X150442578Y-123636844D01*
X150442576Y-123636846D01*
X150296348Y-123855691D01*
X150227663Y-124201000D01*
X150245001Y-124288165D01*
X150245001Y-125087560D01*
X150130000Y-125087560D01*
X149882235Y-125136843D01*
X149672191Y-125277191D01*
X149531843Y-125487235D01*
X149482560Y-125735000D01*
X149482560Y-126761989D01*
X149284690Y-126801348D01*
X149253872Y-126821940D01*
X149065845Y-126947576D01*
X149065844Y-126947577D01*
X148991951Y-126996951D01*
X148942577Y-127070844D01*
X148447336Y-127566086D01*
X148389250Y-127508000D01*
X147465000Y-127508000D01*
X147465000Y-127528000D01*
X147211000Y-127528000D01*
X147211000Y-127508000D01*
X147191000Y-127508000D01*
X147191000Y-127254000D01*
X147211000Y-127254000D01*
X147211000Y-127234000D01*
X147465000Y-127234000D01*
X147465000Y-127254000D01*
X148389250Y-127254000D01*
X148548000Y-127095250D01*
X148548000Y-126554690D01*
X148451327Y-126321301D01*
X148272698Y-126142673D01*
X148039309Y-126046000D01*
X147697802Y-126046000D01*
X148704483Y-125039319D01*
X148767939Y-124996919D01*
X148935914Y-124745527D01*
X148980010Y-124523842D01*
X148980010Y-124523838D01*
X148994898Y-124448991D01*
X148980010Y-124374144D01*
X148980010Y-121870193D01*
X149146126Y-121939000D01*
X149557874Y-121939000D01*
X149920007Y-121789000D01*
X152290422Y-121789000D01*
X150565845Y-123513577D01*
X150565845Y-123513577D01*
G37*
X150565845Y-123513577D02*
X150491952Y-123562951D01*
X150442578Y-123636844D01*
X150442576Y-123636846D01*
X150296348Y-123855691D01*
X150227663Y-124201000D01*
X150245001Y-124288165D01*
X150245001Y-125087560D01*
X150130000Y-125087560D01*
X149882235Y-125136843D01*
X149672191Y-125277191D01*
X149531843Y-125487235D01*
X149482560Y-125735000D01*
X149482560Y-126761989D01*
X149284690Y-126801348D01*
X149253872Y-126821940D01*
X149065845Y-126947576D01*
X149065844Y-126947577D01*
X148991951Y-126996951D01*
X148942577Y-127070844D01*
X148447336Y-127566086D01*
X148389250Y-127508000D01*
X147465000Y-127508000D01*
X147465000Y-127528000D01*
X147211000Y-127528000D01*
X147211000Y-127508000D01*
X147191000Y-127508000D01*
X147191000Y-127254000D01*
X147211000Y-127254000D01*
X147211000Y-127234000D01*
X147465000Y-127234000D01*
X147465000Y-127254000D01*
X148389250Y-127254000D01*
X148548000Y-127095250D01*
X148548000Y-126554690D01*
X148451327Y-126321301D01*
X148272698Y-126142673D01*
X148039309Y-126046000D01*
X147697802Y-126046000D01*
X148704483Y-125039319D01*
X148767939Y-124996919D01*
X148935914Y-124745527D01*
X148980010Y-124523842D01*
X148980010Y-124523838D01*
X148994898Y-124448991D01*
X148980010Y-124374144D01*
X148980010Y-121870193D01*
X149146126Y-121939000D01*
X149557874Y-121939000D01*
X149920007Y-121789000D01*
X152290422Y-121789000D01*
X150565845Y-123513577D01*
G36*
X143977191Y-109647809D02*
X144101862Y-109731112D01*
X144148764Y-109778014D01*
X144162072Y-109797931D01*
X144181989Y-109811239D01*
X144195750Y-109825000D01*
X144202584Y-109825000D01*
X144225528Y-109840331D01*
X144559856Y-110174659D01*
X144335302Y-110267673D01*
X144156673Y-110446301D01*
X144060000Y-110679690D01*
X144060000Y-111220250D01*
X144218750Y-111379000D01*
X145143000Y-111379000D01*
X145143000Y-111359000D01*
X145397000Y-111359000D01*
X145397000Y-111379000D01*
X145417000Y-111379000D01*
X145417000Y-111633000D01*
X145397000Y-111633000D01*
X145397000Y-112682250D01*
X145555750Y-112841000D01*
X145971309Y-112841000D01*
X146204698Y-112744327D01*
X146359623Y-112589403D01*
X146360414Y-112590586D01*
X146651564Y-112785127D01*
X146994999Y-112853440D01*
X147460010Y-112853440D01*
X147460010Y-113992299D01*
X147398280Y-113930569D01*
X147017874Y-113773000D01*
X146606126Y-113773000D01*
X146225720Y-113930569D01*
X145934569Y-114221720D01*
X145777000Y-114602126D01*
X145777000Y-114768199D01*
X145685538Y-114859661D01*
X145622082Y-114902061D01*
X145579682Y-114965517D01*
X145579681Y-114965518D01*
X145454107Y-115153453D01*
X145425554Y-115297000D01*
X145082126Y-115297000D01*
X144701720Y-115454569D01*
X144410569Y-115745720D01*
X144253000Y-116126126D01*
X144253000Y-116537874D01*
X144403000Y-116900007D01*
X144403001Y-117725549D01*
X144310414Y-117787414D01*
X144115873Y-118078564D01*
X144047560Y-118421999D01*
X144047560Y-119322001D01*
X144115873Y-119665436D01*
X144310414Y-119956586D01*
X144601564Y-120151127D01*
X144944999Y-120219440D01*
X145410010Y-120219440D01*
X145410010Y-121333411D01*
X145372660Y-121370761D01*
X144800304Y-121370761D01*
X144705986Y-121352000D01*
X144705982Y-121352000D01*
X144618821Y-121334663D01*
X144531660Y-121352000D01*
X143652597Y-121352000D01*
X143842280Y-121273431D01*
X144133431Y-120982280D01*
X144291000Y-120601874D01*
X144291000Y-120190126D01*
X144133431Y-119809720D01*
X143842280Y-119518569D01*
X143480148Y-119368569D01*
X143125000Y-119013422D01*
X143125000Y-112640423D01*
X143199586Y-112590586D01*
X143394127Y-112299436D01*
X143462440Y-111956001D01*
X143462440Y-111791750D01*
X144060000Y-111791750D01*
X144060000Y-112332310D01*
X144156673Y-112565699D01*
X144335302Y-112744327D01*
X144568691Y-112841000D01*
X144984250Y-112841000D01*
X145143000Y-112682250D01*
X145143000Y-111633000D01*
X144218750Y-111633000D01*
X144060000Y-111791750D01*
X143462440Y-111791750D01*
X143462440Y-111358362D01*
X143594473Y-111226329D01*
X143657929Y-111183929D01*
X143814320Y-110949874D01*
X143825904Y-110932538D01*
X143838751Y-110867951D01*
X143870000Y-110710852D01*
X143870000Y-110710848D01*
X143884888Y-110636000D01*
X143870000Y-110561152D01*
X143870000Y-109607115D01*
X143910000Y-109547251D01*
X143977191Y-109647809D01*
X143977191Y-109647809D01*
G37*
X143977191Y-109647809D02*
X144101862Y-109731112D01*
X144148764Y-109778014D01*
X144162072Y-109797931D01*
X144181989Y-109811239D01*
X144195750Y-109825000D01*
X144202584Y-109825000D01*
X144225528Y-109840331D01*
X144559856Y-110174659D01*
X144335302Y-110267673D01*
X144156673Y-110446301D01*
X144060000Y-110679690D01*
X144060000Y-111220250D01*
X144218750Y-111379000D01*
X145143000Y-111379000D01*
X145143000Y-111359000D01*
X145397000Y-111359000D01*
X145397000Y-111379000D01*
X145417000Y-111379000D01*
X145417000Y-111633000D01*
X145397000Y-111633000D01*
X145397000Y-112682250D01*
X145555750Y-112841000D01*
X145971309Y-112841000D01*
X146204698Y-112744327D01*
X146359623Y-112589403D01*
X146360414Y-112590586D01*
X146651564Y-112785127D01*
X146994999Y-112853440D01*
X147460010Y-112853440D01*
X147460010Y-113992299D01*
X147398280Y-113930569D01*
X147017874Y-113773000D01*
X146606126Y-113773000D01*
X146225720Y-113930569D01*
X145934569Y-114221720D01*
X145777000Y-114602126D01*
X145777000Y-114768199D01*
X145685538Y-114859661D01*
X145622082Y-114902061D01*
X145579682Y-114965517D01*
X145579681Y-114965518D01*
X145454107Y-115153453D01*
X145425554Y-115297000D01*
X145082126Y-115297000D01*
X144701720Y-115454569D01*
X144410569Y-115745720D01*
X144253000Y-116126126D01*
X144253000Y-116537874D01*
X144403000Y-116900007D01*
X144403001Y-117725549D01*
X144310414Y-117787414D01*
X144115873Y-118078564D01*
X144047560Y-118421999D01*
X144047560Y-119322001D01*
X144115873Y-119665436D01*
X144310414Y-119956586D01*
X144601564Y-120151127D01*
X144944999Y-120219440D01*
X145410010Y-120219440D01*
X145410010Y-121333411D01*
X145372660Y-121370761D01*
X144800304Y-121370761D01*
X144705986Y-121352000D01*
X144705982Y-121352000D01*
X144618821Y-121334663D01*
X144531660Y-121352000D01*
X143652597Y-121352000D01*
X143842280Y-121273431D01*
X144133431Y-120982280D01*
X144291000Y-120601874D01*
X144291000Y-120190126D01*
X144133431Y-119809720D01*
X143842280Y-119518569D01*
X143480148Y-119368569D01*
X143125000Y-119013422D01*
X143125000Y-112640423D01*
X143199586Y-112590586D01*
X143394127Y-112299436D01*
X143462440Y-111956001D01*
X143462440Y-111791750D01*
X144060000Y-111791750D01*
X144060000Y-112332310D01*
X144156673Y-112565699D01*
X144335302Y-112744327D01*
X144568691Y-112841000D01*
X144984250Y-112841000D01*
X145143000Y-112682250D01*
X145143000Y-111633000D01*
X144218750Y-111633000D01*
X144060000Y-111791750D01*
X143462440Y-111791750D01*
X143462440Y-111358362D01*
X143594473Y-111226329D01*
X143657929Y-111183929D01*
X143814320Y-110949874D01*
X143825904Y-110932538D01*
X143838751Y-110867951D01*
X143870000Y-110710852D01*
X143870000Y-110710848D01*
X143884888Y-110636000D01*
X143870000Y-110561152D01*
X143870000Y-109607115D01*
X143910000Y-109547251D01*
X143977191Y-109647809D01*
G36*
X139977191Y-109647809D02*
X140187235Y-109788157D01*
X140435000Y-109837440D01*
X140985000Y-109837440D01*
X141110000Y-109812576D01*
X141235000Y-109837440D01*
X141785000Y-109837440D01*
X141888852Y-109816783D01*
X141908690Y-109825000D01*
X142024250Y-109825000D01*
X142118138Y-109731112D01*
X142242809Y-109647809D01*
X142310000Y-109547251D01*
X142350001Y-109607116D01*
X142350001Y-110158560D01*
X141914999Y-110158560D01*
X141571564Y-110226873D01*
X141280414Y-110421414D01*
X141279623Y-110422597D01*
X141124698Y-110267673D01*
X140891309Y-110171000D01*
X140475750Y-110171000D01*
X140317000Y-110329750D01*
X140317000Y-111379000D01*
X140337000Y-111379000D01*
X140337000Y-111633000D01*
X140317000Y-111633000D01*
X140317000Y-112682250D01*
X140475750Y-112841000D01*
X140891309Y-112841000D01*
X141124698Y-112744327D01*
X141279623Y-112589403D01*
X141280414Y-112590586D01*
X141355001Y-112640424D01*
X141355000Y-117681300D01*
X141208000Y-117652060D01*
X139208000Y-117652060D01*
X139061000Y-117681300D01*
X139061000Y-112527861D01*
X139076673Y-112565699D01*
X139255302Y-112744327D01*
X139488691Y-112841000D01*
X139904250Y-112841000D01*
X140063000Y-112682250D01*
X140063000Y-111633000D01*
X140043000Y-111633000D01*
X140043000Y-111379000D01*
X140063000Y-111379000D01*
X140063000Y-110329750D01*
X139904250Y-110171000D01*
X139488691Y-110171000D01*
X139255302Y-110267673D01*
X139076673Y-110446301D01*
X139061000Y-110484139D01*
X139061000Y-109747000D01*
X139397874Y-109747000D01*
X139778280Y-109589431D01*
X139874135Y-109493576D01*
X139977191Y-109647809D01*
X139977191Y-109647809D01*
G37*
X139977191Y-109647809D02*
X140187235Y-109788157D01*
X140435000Y-109837440D01*
X140985000Y-109837440D01*
X141110000Y-109812576D01*
X141235000Y-109837440D01*
X141785000Y-109837440D01*
X141888852Y-109816783D01*
X141908690Y-109825000D01*
X142024250Y-109825000D01*
X142118138Y-109731112D01*
X142242809Y-109647809D01*
X142310000Y-109547251D01*
X142350001Y-109607116D01*
X142350001Y-110158560D01*
X141914999Y-110158560D01*
X141571564Y-110226873D01*
X141280414Y-110421414D01*
X141279623Y-110422597D01*
X141124698Y-110267673D01*
X140891309Y-110171000D01*
X140475750Y-110171000D01*
X140317000Y-110329750D01*
X140317000Y-111379000D01*
X140337000Y-111379000D01*
X140337000Y-111633000D01*
X140317000Y-111633000D01*
X140317000Y-112682250D01*
X140475750Y-112841000D01*
X140891309Y-112841000D01*
X141124698Y-112744327D01*
X141279623Y-112589403D01*
X141280414Y-112590586D01*
X141355001Y-112640424D01*
X141355000Y-117681300D01*
X141208000Y-117652060D01*
X139208000Y-117652060D01*
X139061000Y-117681300D01*
X139061000Y-112527861D01*
X139076673Y-112565699D01*
X139255302Y-112744327D01*
X139488691Y-112841000D01*
X139904250Y-112841000D01*
X140063000Y-112682250D01*
X140063000Y-111633000D01*
X140043000Y-111633000D01*
X140043000Y-111379000D01*
X140063000Y-111379000D01*
X140063000Y-110329750D01*
X139904250Y-110171000D01*
X139488691Y-110171000D01*
X139255302Y-110267673D01*
X139076673Y-110446301D01*
X139061000Y-110484139D01*
X139061000Y-109747000D01*
X139397874Y-109747000D01*
X139778280Y-109589431D01*
X139874135Y-109493576D01*
X139977191Y-109647809D01*
G36*
X133549375Y-108766625D02*
X133847761Y-108966000D01*
X133549375Y-109165375D01*
X133348647Y-109465786D01*
X132961358Y-109040817D01*
X132831522Y-108979843D01*
X133150625Y-108766625D01*
X133350000Y-108468239D01*
X133549375Y-108766625D01*
X133549375Y-108766625D01*
G37*
X133549375Y-108766625D02*
X133847761Y-108966000D01*
X133549375Y-109165375D01*
X133348647Y-109465786D01*
X132961358Y-109040817D01*
X132831522Y-108979843D01*
X133150625Y-108766625D01*
X133350000Y-108468239D01*
X133549375Y-108766625D01*
G36*
X133738642Y-106351183D02*
X133868478Y-106412157D01*
X133549375Y-106625375D01*
X133350000Y-106923761D01*
X133150625Y-106625375D01*
X132852239Y-106426000D01*
X133150625Y-106226625D01*
X133351353Y-105926214D01*
X133738642Y-106351183D01*
X133738642Y-106351183D01*
G37*
X133738642Y-106351183D02*
X133868478Y-106412157D01*
X133549375Y-106625375D01*
X133350000Y-106923761D01*
X133150625Y-106625375D01*
X132852239Y-106426000D01*
X133150625Y-106226625D01*
X133351353Y-105926214D01*
X133738642Y-106351183D01*
G36*
X135892000Y-101846754D02*
X135690625Y-101545375D01*
X135371522Y-101332157D01*
X135501358Y-101271183D01*
X135891645Y-100842924D01*
X135892000Y-100842067D01*
X135892000Y-101846754D01*
X135892000Y-101846754D01*
G37*
X135892000Y-101846754D02*
X135690625Y-101545375D01*
X135371522Y-101332157D01*
X135501358Y-101271183D01*
X135891645Y-100842924D01*
X135892000Y-100842067D01*
X135892000Y-101846754D01*
G36*
X145354843Y-87039765D02*
X145495191Y-87249809D01*
X145705235Y-87390157D01*
X145953000Y-87439440D01*
X147503000Y-87439440D01*
X147750765Y-87390157D01*
X147960809Y-87249809D01*
X148101157Y-87039765D01*
X148128560Y-86902000D01*
X150851199Y-86902000D01*
X150958791Y-87009592D01*
X150885908Y-87376000D01*
X151001161Y-87955418D01*
X151329375Y-88446625D01*
X151629786Y-88647353D01*
X151204817Y-89034642D01*
X150958514Y-89559108D01*
X151079181Y-89789000D01*
X152273000Y-89789000D01*
X152273000Y-89769000D01*
X152527000Y-89769000D01*
X152527000Y-89789000D01*
X152547000Y-89789000D01*
X152547000Y-90043000D01*
X152527000Y-90043000D01*
X152527000Y-90063000D01*
X152273000Y-90063000D01*
X152273000Y-90043000D01*
X151079181Y-90043000D01*
X150958514Y-90272892D01*
X151204817Y-90797358D01*
X151633076Y-91187645D01*
X151745847Y-91234353D01*
X150268201Y-92712000D01*
X150055711Y-92712000D01*
X149938280Y-92594569D01*
X149557874Y-92437000D01*
X149146126Y-92437000D01*
X148765720Y-92594569D01*
X148474569Y-92885720D01*
X148317000Y-93266126D01*
X148317000Y-93677874D01*
X148474569Y-94058280D01*
X148527289Y-94111000D01*
X148187159Y-94111000D01*
X148099999Y-94093663D01*
X148012839Y-94111000D01*
X148012835Y-94111000D01*
X147754690Y-94162348D01*
X147716443Y-94187904D01*
X147535845Y-94308576D01*
X147535844Y-94308577D01*
X147461951Y-94357951D01*
X147412577Y-94431844D01*
X146925861Y-94918560D01*
X146504999Y-94918560D01*
X146161564Y-94986873D01*
X145870414Y-95181414D01*
X145869623Y-95182597D01*
X145714698Y-95027673D01*
X145481309Y-94931000D01*
X145065750Y-94931000D01*
X144907000Y-95089750D01*
X144907000Y-96139000D01*
X144927000Y-96139000D01*
X144927000Y-96393000D01*
X144907000Y-96393000D01*
X144907000Y-96413000D01*
X144653000Y-96413000D01*
X144653000Y-96393000D01*
X143728750Y-96393000D01*
X143570000Y-96551750D01*
X143570000Y-96766198D01*
X143217440Y-96413639D01*
X143217440Y-95815999D01*
X143149127Y-95472564D01*
X143127162Y-95439690D01*
X143570000Y-95439690D01*
X143570000Y-95980250D01*
X143728750Y-96139000D01*
X144653000Y-96139000D01*
X144653000Y-95089750D01*
X144494250Y-94931000D01*
X144078691Y-94931000D01*
X143845302Y-95027673D01*
X143666673Y-95206301D01*
X143570000Y-95439690D01*
X143127162Y-95439690D01*
X142954586Y-95181414D01*
X142663436Y-94986873D01*
X142320001Y-94918560D01*
X141669999Y-94918560D01*
X141326564Y-94986873D01*
X141035414Y-95181414D01*
X141034623Y-95182597D01*
X140879698Y-95027673D01*
X140646309Y-94931000D01*
X140230750Y-94931000D01*
X140072000Y-95089750D01*
X140072000Y-96139000D01*
X140092000Y-96139000D01*
X140092000Y-96393000D01*
X140072000Y-96393000D01*
X140072000Y-97442250D01*
X140230750Y-97601000D01*
X140646309Y-97601000D01*
X140879698Y-97504327D01*
X141034623Y-97349403D01*
X141035414Y-97350586D01*
X141326564Y-97545127D01*
X141669999Y-97613440D01*
X142267639Y-97613440D01*
X143109198Y-98455000D01*
X142982998Y-98455000D01*
X142982998Y-98592226D01*
X142918138Y-98548888D01*
X142824250Y-98455000D01*
X142708690Y-98455000D01*
X142688852Y-98463217D01*
X142585000Y-98442560D01*
X142035000Y-98442560D01*
X141910000Y-98467424D01*
X141785000Y-98442560D01*
X141235000Y-98442560D01*
X141110000Y-98467424D01*
X140985000Y-98442560D01*
X140435000Y-98442560D01*
X140187235Y-98491843D01*
X139977191Y-98632191D01*
X139874135Y-98786424D01*
X139778280Y-98690569D01*
X139397874Y-98533000D01*
X138986126Y-98533000D01*
X138605720Y-98690569D01*
X138314569Y-98981720D01*
X138157000Y-99362126D01*
X138157000Y-99773874D01*
X138314569Y-100154280D01*
X138577849Y-100417560D01*
X138460000Y-100417560D01*
X138212235Y-100466843D01*
X138002191Y-100607191D01*
X137861843Y-100817235D01*
X137812560Y-101065000D01*
X137812560Y-101588243D01*
X137645026Y-101518848D01*
X137412000Y-101518848D01*
X137412000Y-96551750D01*
X138735000Y-96551750D01*
X138735000Y-97092310D01*
X138831673Y-97325699D01*
X139010302Y-97504327D01*
X139243691Y-97601000D01*
X139659250Y-97601000D01*
X139818000Y-97442250D01*
X139818000Y-96393000D01*
X138893750Y-96393000D01*
X138735000Y-96551750D01*
X137412000Y-96551750D01*
X137412000Y-95439690D01*
X138735000Y-95439690D01*
X138735000Y-95980250D01*
X138893750Y-96139000D01*
X139818000Y-96139000D01*
X139818000Y-95089750D01*
X139659250Y-94931000D01*
X139243691Y-94931000D01*
X139010302Y-95027673D01*
X138831673Y-95206301D01*
X138735000Y-95439690D01*
X137412000Y-95439690D01*
X137412000Y-91548677D01*
X137454673Y-91651699D01*
X137633302Y-91830327D01*
X137866691Y-91927000D01*
X138482250Y-91927000D01*
X138641000Y-91768250D01*
X138641000Y-90769000D01*
X138895000Y-90769000D01*
X138895000Y-91768250D01*
X139053750Y-91927000D01*
X139669309Y-91927000D01*
X139902698Y-91830327D01*
X140081327Y-91651699D01*
X140178000Y-91418310D01*
X140178000Y-90927750D01*
X145318000Y-90927750D01*
X145318000Y-91418310D01*
X145414673Y-91651699D01*
X145593302Y-91830327D01*
X145826691Y-91927000D01*
X146442250Y-91927000D01*
X146601000Y-91768250D01*
X146601000Y-90769000D01*
X146855000Y-90769000D01*
X146855000Y-91768250D01*
X147013750Y-91927000D01*
X147629309Y-91927000D01*
X147862698Y-91830327D01*
X148041327Y-91651699D01*
X148138000Y-91418310D01*
X148138000Y-90927750D01*
X147979250Y-90769000D01*
X146855000Y-90769000D01*
X146601000Y-90769000D01*
X145476750Y-90769000D01*
X145318000Y-90927750D01*
X140178000Y-90927750D01*
X140019250Y-90769000D01*
X138895000Y-90769000D01*
X138641000Y-90769000D01*
X138621000Y-90769000D01*
X138621000Y-90515000D01*
X138641000Y-90515000D01*
X138641000Y-89515750D01*
X138895000Y-89515750D01*
X138895000Y-90515000D01*
X140019250Y-90515000D01*
X140178000Y-90356250D01*
X140178000Y-89865690D01*
X145318000Y-89865690D01*
X145318000Y-90356250D01*
X145476750Y-90515000D01*
X146601000Y-90515000D01*
X146601000Y-89515750D01*
X146855000Y-89515750D01*
X146855000Y-90515000D01*
X147979250Y-90515000D01*
X148138000Y-90356250D01*
X148138000Y-89865690D01*
X148041327Y-89632301D01*
X147862698Y-89453673D01*
X147629309Y-89357000D01*
X147013750Y-89357000D01*
X146855000Y-89515750D01*
X146601000Y-89515750D01*
X146442250Y-89357000D01*
X145826691Y-89357000D01*
X145593302Y-89453673D01*
X145414673Y-89632301D01*
X145318000Y-89865690D01*
X140178000Y-89865690D01*
X140081327Y-89632301D01*
X139902698Y-89453673D01*
X139669309Y-89357000D01*
X139053750Y-89357000D01*
X138895000Y-89515750D01*
X138641000Y-89515750D01*
X138482250Y-89357000D01*
X137866691Y-89357000D01*
X137633302Y-89453673D01*
X137454673Y-89632301D01*
X137412000Y-89735323D01*
X137412000Y-89472801D01*
X139252473Y-87632329D01*
X139315929Y-87589929D01*
X139416483Y-87439440D01*
X139543000Y-87439440D01*
X139790765Y-87390157D01*
X140000809Y-87249809D01*
X140141157Y-87039765D01*
X140168560Y-86902000D01*
X145327440Y-86902000D01*
X145354843Y-87039765D01*
X145354843Y-87039765D01*
G37*
X145354843Y-87039765D02*
X145495191Y-87249809D01*
X145705235Y-87390157D01*
X145953000Y-87439440D01*
X147503000Y-87439440D01*
X147750765Y-87390157D01*
X147960809Y-87249809D01*
X148101157Y-87039765D01*
X148128560Y-86902000D01*
X150851199Y-86902000D01*
X150958791Y-87009592D01*
X150885908Y-87376000D01*
X151001161Y-87955418D01*
X151329375Y-88446625D01*
X151629786Y-88647353D01*
X151204817Y-89034642D01*
X150958514Y-89559108D01*
X151079181Y-89789000D01*
X152273000Y-89789000D01*
X152273000Y-89769000D01*
X152527000Y-89769000D01*
X152527000Y-89789000D01*
X152547000Y-89789000D01*
X152547000Y-90043000D01*
X152527000Y-90043000D01*
X152527000Y-90063000D01*
X152273000Y-90063000D01*
X152273000Y-90043000D01*
X151079181Y-90043000D01*
X150958514Y-90272892D01*
X151204817Y-90797358D01*
X151633076Y-91187645D01*
X151745847Y-91234353D01*
X150268201Y-92712000D01*
X150055711Y-92712000D01*
X149938280Y-92594569D01*
X149557874Y-92437000D01*
X149146126Y-92437000D01*
X148765720Y-92594569D01*
X148474569Y-92885720D01*
X148317000Y-93266126D01*
X148317000Y-93677874D01*
X148474569Y-94058280D01*
X148527289Y-94111000D01*
X148187159Y-94111000D01*
X148099999Y-94093663D01*
X148012839Y-94111000D01*
X148012835Y-94111000D01*
X147754690Y-94162348D01*
X147716443Y-94187904D01*
X147535845Y-94308576D01*
X147535844Y-94308577D01*
X147461951Y-94357951D01*
X147412577Y-94431844D01*
X146925861Y-94918560D01*
X146504999Y-94918560D01*
X146161564Y-94986873D01*
X145870414Y-95181414D01*
X145869623Y-95182597D01*
X145714698Y-95027673D01*
X145481309Y-94931000D01*
X145065750Y-94931000D01*
X144907000Y-95089750D01*
X144907000Y-96139000D01*
X144927000Y-96139000D01*
X144927000Y-96393000D01*
X144907000Y-96393000D01*
X144907000Y-96413000D01*
X144653000Y-96413000D01*
X144653000Y-96393000D01*
X143728750Y-96393000D01*
X143570000Y-96551750D01*
X143570000Y-96766198D01*
X143217440Y-96413639D01*
X143217440Y-95815999D01*
X143149127Y-95472564D01*
X143127162Y-95439690D01*
X143570000Y-95439690D01*
X143570000Y-95980250D01*
X143728750Y-96139000D01*
X144653000Y-96139000D01*
X144653000Y-95089750D01*
X144494250Y-94931000D01*
X144078691Y-94931000D01*
X143845302Y-95027673D01*
X143666673Y-95206301D01*
X143570000Y-95439690D01*
X143127162Y-95439690D01*
X142954586Y-95181414D01*
X142663436Y-94986873D01*
X142320001Y-94918560D01*
X141669999Y-94918560D01*
X141326564Y-94986873D01*
X141035414Y-95181414D01*
X141034623Y-95182597D01*
X140879698Y-95027673D01*
X140646309Y-94931000D01*
X140230750Y-94931000D01*
X140072000Y-95089750D01*
X140072000Y-96139000D01*
X140092000Y-96139000D01*
X140092000Y-96393000D01*
X140072000Y-96393000D01*
X140072000Y-97442250D01*
X140230750Y-97601000D01*
X140646309Y-97601000D01*
X140879698Y-97504327D01*
X141034623Y-97349403D01*
X141035414Y-97350586D01*
X141326564Y-97545127D01*
X141669999Y-97613440D01*
X142267639Y-97613440D01*
X143109198Y-98455000D01*
X142982998Y-98455000D01*
X142982998Y-98592226D01*
X142918138Y-98548888D01*
X142824250Y-98455000D01*
X142708690Y-98455000D01*
X142688852Y-98463217D01*
X142585000Y-98442560D01*
X142035000Y-98442560D01*
X141910000Y-98467424D01*
X141785000Y-98442560D01*
X141235000Y-98442560D01*
X141110000Y-98467424D01*
X140985000Y-98442560D01*
X140435000Y-98442560D01*
X140187235Y-98491843D01*
X139977191Y-98632191D01*
X139874135Y-98786424D01*
X139778280Y-98690569D01*
X139397874Y-98533000D01*
X138986126Y-98533000D01*
X138605720Y-98690569D01*
X138314569Y-98981720D01*
X138157000Y-99362126D01*
X138157000Y-99773874D01*
X138314569Y-100154280D01*
X138577849Y-100417560D01*
X138460000Y-100417560D01*
X138212235Y-100466843D01*
X138002191Y-100607191D01*
X137861843Y-100817235D01*
X137812560Y-101065000D01*
X137812560Y-101588243D01*
X137645026Y-101518848D01*
X137412000Y-101518848D01*
X137412000Y-96551750D01*
X138735000Y-96551750D01*
X138735000Y-97092310D01*
X138831673Y-97325699D01*
X139010302Y-97504327D01*
X139243691Y-97601000D01*
X139659250Y-97601000D01*
X139818000Y-97442250D01*
X139818000Y-96393000D01*
X138893750Y-96393000D01*
X138735000Y-96551750D01*
X137412000Y-96551750D01*
X137412000Y-95439690D01*
X138735000Y-95439690D01*
X138735000Y-95980250D01*
X138893750Y-96139000D01*
X139818000Y-96139000D01*
X139818000Y-95089750D01*
X139659250Y-94931000D01*
X139243691Y-94931000D01*
X139010302Y-95027673D01*
X138831673Y-95206301D01*
X138735000Y-95439690D01*
X137412000Y-95439690D01*
X137412000Y-91548677D01*
X137454673Y-91651699D01*
X137633302Y-91830327D01*
X137866691Y-91927000D01*
X138482250Y-91927000D01*
X138641000Y-91768250D01*
X138641000Y-90769000D01*
X138895000Y-90769000D01*
X138895000Y-91768250D01*
X139053750Y-91927000D01*
X139669309Y-91927000D01*
X139902698Y-91830327D01*
X140081327Y-91651699D01*
X140178000Y-91418310D01*
X140178000Y-90927750D01*
X145318000Y-90927750D01*
X145318000Y-91418310D01*
X145414673Y-91651699D01*
X145593302Y-91830327D01*
X145826691Y-91927000D01*
X146442250Y-91927000D01*
X146601000Y-91768250D01*
X146601000Y-90769000D01*
X146855000Y-90769000D01*
X146855000Y-91768250D01*
X147013750Y-91927000D01*
X147629309Y-91927000D01*
X147862698Y-91830327D01*
X148041327Y-91651699D01*
X148138000Y-91418310D01*
X148138000Y-90927750D01*
X147979250Y-90769000D01*
X146855000Y-90769000D01*
X146601000Y-90769000D01*
X145476750Y-90769000D01*
X145318000Y-90927750D01*
X140178000Y-90927750D01*
X140019250Y-90769000D01*
X138895000Y-90769000D01*
X138641000Y-90769000D01*
X138621000Y-90769000D01*
X138621000Y-90515000D01*
X138641000Y-90515000D01*
X138641000Y-89515750D01*
X138895000Y-89515750D01*
X138895000Y-90515000D01*
X140019250Y-90515000D01*
X140178000Y-90356250D01*
X140178000Y-89865690D01*
X145318000Y-89865690D01*
X145318000Y-90356250D01*
X145476750Y-90515000D01*
X146601000Y-90515000D01*
X146601000Y-89515750D01*
X146855000Y-89515750D01*
X146855000Y-90515000D01*
X147979250Y-90515000D01*
X148138000Y-90356250D01*
X148138000Y-89865690D01*
X148041327Y-89632301D01*
X147862698Y-89453673D01*
X147629309Y-89357000D01*
X147013750Y-89357000D01*
X146855000Y-89515750D01*
X146601000Y-89515750D01*
X146442250Y-89357000D01*
X145826691Y-89357000D01*
X145593302Y-89453673D01*
X145414673Y-89632301D01*
X145318000Y-89865690D01*
X140178000Y-89865690D01*
X140081327Y-89632301D01*
X139902698Y-89453673D01*
X139669309Y-89357000D01*
X139053750Y-89357000D01*
X138895000Y-89515750D01*
X138641000Y-89515750D01*
X138482250Y-89357000D01*
X137866691Y-89357000D01*
X137633302Y-89453673D01*
X137454673Y-89632301D01*
X137412000Y-89735323D01*
X137412000Y-89472801D01*
X139252473Y-87632329D01*
X139315929Y-87589929D01*
X139416483Y-87439440D01*
X139543000Y-87439440D01*
X139790765Y-87390157D01*
X140000809Y-87249809D01*
X140141157Y-87039765D01*
X140168560Y-86902000D01*
X145327440Y-86902000D01*
X145354843Y-87039765D01*
G36*
X134747000Y-99949000D02*
X134767000Y-99949000D01*
X134767000Y-100203000D01*
X134747000Y-100203000D01*
X134747000Y-100223000D01*
X134493000Y-100223000D01*
X134493000Y-100203000D01*
X134473000Y-100203000D01*
X134473000Y-99949000D01*
X134493000Y-99949000D01*
X134493000Y-99929000D01*
X134747000Y-99929000D01*
X134747000Y-99949000D01*
X134747000Y-99949000D01*
G37*
X134747000Y-99949000D02*
X134767000Y-99949000D01*
X134767000Y-100203000D01*
X134747000Y-100203000D01*
X134747000Y-100223000D01*
X134493000Y-100223000D01*
X134493000Y-100203000D01*
X134473000Y-100203000D01*
X134473000Y-99949000D01*
X134493000Y-99949000D01*
X134493000Y-99929000D01*
X134747000Y-99929000D01*
X134747000Y-99949000D01*
G04 #@! TD*
M02*
