M48
;DRILL file {KiCad (5.0.2-5-10.14)} date 2019 March 09, Saturday 09:48:14
;FORMAT={-:-/ absolute / inch / decimal}
FMAT,2
INCH,TZ
T1C0.0157
T2C0.0394
T3C0.0472
T4C0.0551
%
G90
G05
T1
X5.28Y-3.5
X5.411Y-4.0376
X5.42Y-3.82
X5.48Y-3.92
X5.48Y-4.28
X5.48Y-5.06
X5.52Y-5.54
X5.525Y-4.475
X5.5626Y-4.1488
X5.6Y-4.2122
X5.64Y-4.12
X5.64Y-4.74
X5.64Y-5.66
X5.65Y-4.475
X5.72Y-4.58
X5.76Y-4.9
X5.78Y-4.52
X5.8Y-4.625
X5.84Y-4.98
X5.864Y-4.675
X5.88Y-3.68
X5.88Y-3.82
X5.88Y-4.36
X5.88Y-4.76
X5.88Y-5.52
X5.9Y-3.9612
X5.9Y-4.08
X5.9287Y-3.9882
X5.94Y-5.4
X5.96Y-4.12
X6.24Y-4.84
T2
X6.Y-3.44
X6.Y-3.54
X6.1Y-3.44
X6.1Y-3.54
X6.2Y-3.44
X6.2Y-3.54
X6.22Y-3.72
X6.22Y-3.82
X6.22Y-3.92
X6.22Y-4.02
X6.22Y-4.12
X6.22Y-4.22
X6.22Y-4.32
X6.22Y-4.42
X5.2Y-3.64
X5.2Y-3.74
X5.2Y-3.84
X5.2Y-3.94
X5.2Y-4.04
X5.2Y-4.14
X5.2Y-4.24
X5.2Y-4.34
X5.2Y-4.44
X5.2Y-4.54
X5.2Y-4.64
X5.2Y-4.74
X5.2Y-4.84
X5.2Y-4.94
X5.2Y-5.04
X5.2Y-5.14
X5.2Y-5.24
X5.2Y-5.34
X5.2Y-5.44
X5.2Y-5.54
X5.3Y-3.64
X5.3Y-3.74
X5.3Y-3.84
X5.3Y-3.94
X5.3Y-4.04
X5.3Y-4.14
X5.3Y-4.24
X5.3Y-4.34
X5.3Y-4.44
X5.3Y-4.54
X5.3Y-4.64
X5.3Y-4.74
X5.3Y-4.84
X5.3Y-4.94
X5.3Y-5.04
X5.3Y-5.14
X5.3Y-5.24
X5.3Y-5.34
X5.3Y-5.44
X5.3Y-5.54
X5.175Y-5.8
X5.275Y-5.8
X5.375Y-5.8
X5.475Y-5.8
X5.575Y-5.8
X5.675Y-5.8
T3
X5.9274Y-5.8368
X6.2326Y-5.8368
T4
X5.9333Y-5.6872
X6.2267Y-5.6872
T0
M30
