G04 #@! TF.GenerationSoftware,KiCad,Pcbnew,(5.0.2-5-10.14)*
G04 #@! TF.CreationDate,2019-03-09T09:48:24+01:00*
G04 #@! TF.ProjectId,myduino,6d796475-696e-46f2-9e6b-696361645f70,rev?*
G04 #@! TF.SameCoordinates,Original*
G04 #@! TF.FileFunction,Copper,L2,Bot*
G04 #@! TF.FilePolarity,Positive*
%FSLAX46Y46*%
G04 Gerber Fmt 4.6, Leading zero omitted, Abs format (unit mm)*
G04 Created by KiCad (PCBNEW (5.0.2-5-10.14)) date 2019 March 09, Saturday 09:48:24*
%MOMM*%
%LPD*%
G01*
G04 APERTURE LIST*
G04 #@! TA.AperFunction,ComponentPad*
%ADD10R,1.700000X1.700000*%
G04 #@! TD*
G04 #@! TA.AperFunction,ComponentPad*
%ADD11O,1.700000X1.700000*%
G04 #@! TD*
G04 #@! TA.AperFunction,ComponentPad*
%ADD12C,2.000000*%
G04 #@! TD*
G04 #@! TA.AperFunction,ComponentPad*
%ADD13C,1.800000*%
G04 #@! TD*
G04 #@! TA.AperFunction,ViaPad*
%ADD14C,0.800000*%
G04 #@! TD*
G04 #@! TA.AperFunction,Conductor*
%ADD15C,0.500000*%
G04 #@! TD*
G04 #@! TA.AperFunction,Conductor*
%ADD16C,0.250000*%
G04 #@! TD*
G04 APERTURE END LIST*
D10*
G04 #@! TO.P,FTDI1,1*
G04 #@! TO.N,GND*
X131445000Y-147320000D03*
D11*
G04 #@! TO.P,FTDI1,2*
G04 #@! TO.N,/CTS*
X133985000Y-147320000D03*
G04 #@! TO.P,FTDI1,3*
G04 #@! TO.N,+3V3*
X136525000Y-147320000D03*
G04 #@! TO.P,FTDI1,4*
G04 #@! TO.N,/RX_328*
X139065000Y-147320000D03*
G04 #@! TO.P,FTDI1,5*
G04 #@! TO.N,/TX_328*
X141605000Y-147320000D03*
G04 #@! TO.P,FTDI1,6*
G04 #@! TO.N,/RTS*
X144145000Y-147320000D03*
G04 #@! TD*
D10*
G04 #@! TO.P,J2,1*
G04 #@! TO.N,/MISO*
X157480000Y-87376000D03*
D11*
G04 #@! TO.P,J2,2*
G04 #@! TO.N,+3V3*
X157480000Y-89916000D03*
G04 #@! TO.P,J2,3*
G04 #@! TO.N,/SCK*
X154940000Y-87376000D03*
G04 #@! TO.P,J2,4*
G04 #@! TO.N,/MOSI*
X154940000Y-89916000D03*
G04 #@! TO.P,J2,5*
G04 #@! TO.N,/RESET*
X152400000Y-87376000D03*
G04 #@! TO.P,J2,6*
G04 #@! TO.N,GND*
X152400000Y-89916000D03*
G04 #@! TD*
D10*
G04 #@! TO.P,J3,1*
G04 #@! TO.N,Net-(J3-Pad1)*
X132080000Y-140716000D03*
D11*
G04 #@! TO.P,J3,2*
G04 #@! TO.N,+5V*
X134620000Y-140716000D03*
G04 #@! TO.P,J3,3*
G04 #@! TO.N,Net-(J3-Pad3)*
X132080000Y-138176000D03*
G04 #@! TO.P,J3,4*
G04 #@! TO.N,+5V*
X134620000Y-138176000D03*
G04 #@! TO.P,J3,5*
G04 #@! TO.N,Net-(J3-Pad5)*
X132080000Y-135636000D03*
G04 #@! TO.P,J3,6*
G04 #@! TO.N,GND*
X134620000Y-135636000D03*
G04 #@! TO.P,J3,7*
G04 #@! TO.N,Net-(J3-Pad7)*
X132080000Y-133096000D03*
G04 #@! TO.P,J3,8*
G04 #@! TO.N,/RX_328*
X134620000Y-133096000D03*
G04 #@! TO.P,J3,9*
G04 #@! TO.N,GND*
X132080000Y-130556000D03*
G04 #@! TO.P,J3,10*
G04 #@! TO.N,/TX_328*
X134620000Y-130556000D03*
G04 #@! TO.P,J3,11*
G04 #@! TO.N,Net-(J3-Pad11)*
X132080000Y-128016000D03*
G04 #@! TO.P,J3,12*
G04 #@! TO.N,Net-(J3-Pad12)*
X134620000Y-128016000D03*
G04 #@! TO.P,J3,13*
G04 #@! TO.N,Net-(J3-Pad13)*
X132080000Y-125476000D03*
G04 #@! TO.P,J3,14*
G04 #@! TO.N,GND*
X134620000Y-125476000D03*
G04 #@! TO.P,J3,15*
G04 #@! TO.N,Net-(J3-Pad15)*
X132080000Y-122936000D03*
G04 #@! TO.P,J3,16*
G04 #@! TO.N,Net-(J3-Pad16)*
X134620000Y-122936000D03*
G04 #@! TO.P,J3,17*
G04 #@! TO.N,Net-(J3-Pad17)*
X132080000Y-120396000D03*
G04 #@! TO.P,J3,18*
G04 #@! TO.N,Net-(J3-Pad18)*
X134620000Y-120396000D03*
G04 #@! TO.P,J3,19*
G04 #@! TO.N,Net-(J3-Pad19)*
X132080000Y-117856000D03*
G04 #@! TO.P,J3,20*
G04 #@! TO.N,GND*
X134620000Y-117856000D03*
G04 #@! TO.P,J3,21*
G04 #@! TO.N,Net-(J3-Pad21)*
X132080000Y-115316000D03*
G04 #@! TO.P,J3,22*
G04 #@! TO.N,Net-(J3-Pad22)*
X134620000Y-115316000D03*
G04 #@! TO.P,J3,23*
G04 #@! TO.N,Net-(J3-Pad23)*
X132080000Y-112776000D03*
G04 #@! TO.P,J3,24*
G04 #@! TO.N,Net-(J3-Pad24)*
X134620000Y-112776000D03*
G04 #@! TO.P,J3,25*
G04 #@! TO.N,GND*
X132080000Y-110236000D03*
G04 #@! TO.P,J3,26*
G04 #@! TO.N,Net-(J3-Pad26)*
X134620000Y-110236000D03*
G04 #@! TO.P,J3,27*
G04 #@! TO.N,Net-(J3-Pad27)*
X132080000Y-107696000D03*
G04 #@! TO.P,J3,28*
G04 #@! TO.N,Net-(J3-Pad28)*
X134620000Y-107696000D03*
G04 #@! TO.P,J3,29*
G04 #@! TO.N,Net-(J3-Pad29)*
X132080000Y-105156000D03*
G04 #@! TO.P,J3,30*
G04 #@! TO.N,GND*
X134620000Y-105156000D03*
G04 #@! TO.P,J3,31*
G04 #@! TO.N,Net-(J3-Pad31)*
X132080000Y-102616000D03*
G04 #@! TO.P,J3,32*
G04 #@! TO.N,Net-(J3-Pad32)*
X134620000Y-102616000D03*
G04 #@! TO.P,J3,33*
G04 #@! TO.N,Net-(J3-Pad33)*
X132080000Y-100076000D03*
G04 #@! TO.P,J3,34*
G04 #@! TO.N,GND*
X134620000Y-100076000D03*
G04 #@! TO.P,J3,35*
G04 #@! TO.N,Net-(J3-Pad35)*
X132080000Y-97536000D03*
G04 #@! TO.P,J3,36*
G04 #@! TO.N,Net-(J3-Pad36)*
X134620000Y-97536000D03*
G04 #@! TO.P,J3,37*
G04 #@! TO.N,Net-(J3-Pad37)*
X132080000Y-94996000D03*
G04 #@! TO.P,J3,38*
G04 #@! TO.N,Net-(J3-Pad38)*
X134620000Y-94996000D03*
G04 #@! TO.P,J3,39*
G04 #@! TO.N,GND*
X132080000Y-92456000D03*
G04 #@! TO.P,J3,40*
G04 #@! TO.N,Net-(J3-Pad40)*
X134620000Y-92456000D03*
G04 #@! TD*
D10*
G04 #@! TO.P,J4,1*
G04 #@! TO.N,GND*
X157988000Y-94488000D03*
D11*
G04 #@! TO.P,J4,2*
G04 #@! TO.N,+3V3*
X157988000Y-97028000D03*
G04 #@! TO.P,J4,3*
G04 #@! TO.N,/SDA*
X157988000Y-99568000D03*
G04 #@! TO.P,J4,4*
G04 #@! TO.N,/SCL*
X157988000Y-102108000D03*
G04 #@! TO.P,J4,5*
G04 #@! TO.N,/SCK*
X157988000Y-104648000D03*
G04 #@! TO.P,J4,6*
G04 #@! TO.N,/A0*
X157988000Y-107188000D03*
G04 #@! TO.P,J4,7*
G04 #@! TO.N,/A1*
X157988000Y-109728000D03*
G04 #@! TO.P,J4,8*
G04 #@! TO.N,/A2*
X157988000Y-112268000D03*
G04 #@! TD*
D12*
G04 #@! TO.P,J1,6*
G04 #@! TO.N,Net-(J1-Pad6)*
X150707000Y-144454000D03*
X158157000Y-144454000D03*
D13*
X150557000Y-148254000D03*
X158307000Y-148254000D03*
G04 #@! TD*
D14*
G04 #@! TO.N,+3V3*
X150876000Y-137160000D03*
X149352000Y-120904000D03*
X143256000Y-120396000D03*
G04 #@! TO.N,GND*
X137668000Y-97028000D03*
X143510000Y-113665000D03*
X140335000Y-113665000D03*
X148945010Y-118745000D03*
X147320000Y-117475000D03*
X146304000Y-124460000D03*
X148336000Y-126492000D03*
G04 #@! TO.N,+5V*
X158496000Y-122936000D03*
X145288000Y-116332000D03*
X140208000Y-140716000D03*
X143256000Y-143764000D03*
X149352000Y-140208000D03*
G04 #@! TO.N,Net-(22pF2-Pad2)*
X146812000Y-114808000D03*
X149352000Y-110744000D03*
G04 #@! TO.N,/MISO*
X149860000Y-100615000D03*
G04 #@! TO.N,/SCK*
X149352000Y-97028000D03*
X134112000Y-88900000D03*
X149352000Y-93472000D03*
G04 #@! TO.N,/MOSI*
X150589001Y-101299515D03*
G04 #@! TO.N,/SDA*
X141290805Y-105380195D03*
G04 #@! TO.N,/SCL*
X137439152Y-102553848D03*
G04 #@! TO.N,/TX_328*
X139192000Y-108712000D03*
X139192000Y-128524000D03*
G04 #@! TO.N,/A0*
X151384000Y-104648000D03*
X143256000Y-104648000D03*
G04 #@! TO.N,/A1*
X149860000Y-103632000D03*
X139192000Y-99568000D03*
G04 #@! TO.N,/A2*
X142240000Y-106989998D03*
G04 #@! TD*
D15*
G04 #@! TO.N,+3V3*
X146685000Y-137160000D02*
X150876000Y-137160000D01*
X136525000Y-147320000D02*
X146685000Y-137160000D01*
X143764000Y-120904000D02*
X143256000Y-120396000D01*
X149352000Y-120904000D02*
X143764000Y-120904000D01*
G04 #@! TO.N,GND*
X137668000Y-97028000D02*
X134620000Y-100076000D01*
D16*
X143510000Y-113665000D02*
X140335000Y-113665000D01*
X146627998Y-118745000D02*
X148945010Y-118745000D01*
X143510000Y-113665000D02*
X143510000Y-115627002D01*
X146742002Y-117475000D02*
X146050000Y-118167002D01*
X147320000Y-117475000D02*
X146742002Y-117475000D01*
X146050000Y-118167002D02*
X146627998Y-118745000D01*
X143510000Y-115627002D02*
X146050000Y-118167002D01*
D15*
X146304000Y-124460000D02*
X147320000Y-125476000D01*
X147320000Y-125476000D02*
X148336000Y-126492000D01*
G04 #@! TO.N,+5V*
X151892000Y-116332000D02*
X145288000Y-116332000D01*
X158496000Y-122936000D02*
X151892000Y-116332000D01*
X134620000Y-140716000D02*
X140208000Y-140716000D01*
X143256000Y-143764000D02*
X145796000Y-141224000D01*
X148336000Y-141224000D02*
X145796000Y-141224000D01*
X149352000Y-140208000D02*
X148336000Y-141224000D01*
D16*
G04 #@! TO.N,Net-(22pF2-Pad2)*
X149352000Y-112268000D02*
X149352000Y-110744000D01*
X146812000Y-114808000D02*
X149352000Y-112268000D01*
G04 #@! TO.N,/MISO*
X157480000Y-86276000D02*
X157480000Y-87376000D01*
X157404999Y-86200999D02*
X157480000Y-86276000D01*
X151835999Y-86200999D02*
X157404999Y-86200999D01*
X150368000Y-87668998D02*
X151835999Y-86200999D01*
X150368000Y-100107000D02*
X150368000Y-87668998D01*
X149860000Y-100615000D02*
X150368000Y-100107000D01*
G04 #@! TO.N,/SCK*
X142240000Y-97028000D02*
X134112000Y-88900000D01*
X149352000Y-97028000D02*
X142240000Y-97028000D01*
X149352000Y-93472000D02*
X149352000Y-97028000D01*
G04 #@! TO.N,/MOSI*
X150989000Y-100899516D02*
X150989000Y-93867000D01*
X150589001Y-101299515D02*
X150989000Y-100899516D01*
X150989000Y-93867000D02*
X154940000Y-89916000D01*
G04 #@! TO.N,/SDA*
X141290805Y-105380195D02*
X152175805Y-105380195D01*
X152175805Y-105380195D02*
X157988000Y-99568000D01*
G04 #@! TO.N,/SCL*
X137439152Y-102553848D02*
X141057304Y-106172000D01*
X141057304Y-106172000D02*
X152400000Y-106172000D01*
X156464000Y-102108000D02*
X157988000Y-102108000D01*
X152400000Y-106172000D02*
X156464000Y-102108000D01*
G04 #@! TO.N,/TX_328*
X134620000Y-130556000D02*
X137160000Y-130556000D01*
X137160000Y-130556000D02*
X139192000Y-128524000D01*
G04 #@! TO.N,/A0*
X151384000Y-104648000D02*
X143256000Y-104648000D01*
G04 #@! TO.N,/A1*
X143256000Y-103632000D02*
X139192000Y-99568000D01*
X149860000Y-103632000D02*
X143256000Y-103632000D01*
G04 #@! TO.N,/A2*
X152709998Y-106989998D02*
X157988000Y-112268000D01*
X142240000Y-106989998D02*
X152709998Y-106989998D01*
G04 #@! TD*
M02*
