G04 #@! TF.GenerationSoftware,KiCad,Pcbnew,(5.0.2-5-10.14)*
G04 #@! TF.CreationDate,2019-03-09T09:48:24+01:00*
G04 #@! TF.ProjectId,myduino,6d796475-696e-46f2-9e6b-696361645f70,rev?*
G04 #@! TF.SameCoordinates,Original*
G04 #@! TF.FileFunction,Legend,Top*
G04 #@! TF.FilePolarity,Positive*
%FSLAX46Y46*%
G04 Gerber Fmt 4.6, Leading zero omitted, Abs format (unit mm)*
G04 Created by KiCad (PCBNEW (5.0.2-5-10.14)) date 2019 March 09, Saturday 09:48:24*
%MOMM*%
%LPD*%
G01*
G04 APERTURE LIST*
%ADD10C,0.120000*%
%ADD11C,0.150000*%
G04 APERTURE END LIST*
D10*
G04 #@! TO.C,100k1*
X146556252Y-132386000D02*
X146033748Y-132386000D01*
X146556252Y-133806000D02*
X146033748Y-133806000D01*
G04 #@! TO.C,100nF1*
X141231252Y-95556000D02*
X140708748Y-95556000D01*
X141231252Y-96976000D02*
X140708748Y-96976000D01*
G04 #@! TO.C,100nF2*
X141476252Y-112216000D02*
X140953748Y-112216000D01*
X141476252Y-110796000D02*
X140953748Y-110796000D01*
G04 #@! TO.C,100nF3*
X145906748Y-142569000D02*
X146429252Y-142569000D01*
X145906748Y-141149000D02*
X146429252Y-141149000D01*
G04 #@! TO.C,100nF4*
X146066252Y-95556000D02*
X145543748Y-95556000D01*
X146066252Y-96976000D02*
X145543748Y-96976000D01*
G04 #@! TO.C,100nF5*
X146556252Y-112216000D02*
X146033748Y-112216000D01*
X146556252Y-110796000D02*
X146033748Y-110796000D01*
G04 #@! TO.C,100uF1*
X150511500Y-115462000D02*
X150511500Y-117812000D01*
X150511500Y-122282000D02*
X150511500Y-119932000D01*
X156267063Y-122282000D02*
X150511500Y-122282000D01*
X156267063Y-115462000D02*
X150511500Y-115462000D01*
X157331500Y-116526437D02*
X157331500Y-117812000D01*
X157331500Y-121217563D02*
X157331500Y-119932000D01*
X157331500Y-121217563D02*
X156267063Y-122282000D01*
X157331500Y-116526437D02*
X156267063Y-115462000D01*
G04 #@! TO.C,10uF1*
X146033748Y-118162000D02*
X146556252Y-118162000D01*
X146033748Y-119582000D02*
X146556252Y-119582000D01*
G04 #@! TO.C,1K1*
X152138748Y-133910000D02*
X152661252Y-133910000D01*
X152138748Y-135330000D02*
X152661252Y-135330000D01*
G04 #@! TO.C,22pF1*
X146574252Y-126671000D02*
X146051748Y-126671000D01*
X146574252Y-128091000D02*
X146051748Y-128091000D01*
G04 #@! TO.C,22pF2*
X146386274Y-123428201D02*
X145863770Y-123428201D01*
X146386274Y-122008201D02*
X145863770Y-122008201D01*
G04 #@! TO.C,8mhz1*
X142758000Y-134074500D02*
X142758000Y-118099500D01*
X142758000Y-118099500D02*
X137658000Y-118099500D01*
X137658000Y-118099500D02*
X137658000Y-134074500D01*
G04 #@! TO.C,D1*
X145255500Y-138628000D02*
X147940500Y-138628000D01*
X147940500Y-138628000D02*
X147940500Y-136708000D01*
X147940500Y-136708000D02*
X145255500Y-136708000D01*
G04 #@! TO.C,D2*
X157600000Y-133660000D02*
X154740000Y-133660000D01*
X154740000Y-133660000D02*
X154740000Y-135580000D01*
X154740000Y-135580000D02*
X157600000Y-135580000D01*
G04 #@! TO.C,FTDI1*
X132715000Y-148650000D02*
X132715000Y-145990000D01*
X132715000Y-148650000D02*
X145475000Y-148650000D01*
X145475000Y-148650000D02*
X145475000Y-145990000D01*
X132715000Y-145990000D02*
X145475000Y-145990000D01*
X130115000Y-145990000D02*
X131445000Y-145990000D01*
X130115000Y-147320000D02*
X130115000Y-145990000D01*
G04 #@! TO.C,J2*
X151070000Y-86046000D02*
X151070000Y-91246000D01*
X156210000Y-86046000D02*
X151070000Y-86046000D01*
X158810000Y-91246000D02*
X151070000Y-91246000D01*
X156210000Y-86046000D02*
X156210000Y-88646000D01*
X156210000Y-88646000D02*
X158810000Y-88646000D01*
X158810000Y-88646000D02*
X158810000Y-91246000D01*
X157480000Y-86046000D02*
X158810000Y-86046000D01*
X158810000Y-86046000D02*
X158810000Y-87376000D01*
G04 #@! TO.C,reset1*
X145978000Y-85162000D02*
X145978000Y-85192000D01*
X145978000Y-91622000D02*
X145978000Y-91592000D01*
X139518000Y-91622000D02*
X139518000Y-91592000D01*
X139518000Y-85192000D02*
X139518000Y-85162000D01*
X145978000Y-87092000D02*
X145978000Y-89692000D01*
X139518000Y-85162000D02*
X145978000Y-85162000D01*
X139518000Y-87092000D02*
X139518000Y-89692000D01*
X139518000Y-91622000D02*
X145978000Y-91622000D01*
G04 #@! TO.C,U1*
X152370000Y-124225000D02*
X152370000Y-125485000D01*
X152370000Y-131045000D02*
X152370000Y-129785000D01*
X156130000Y-124225000D02*
X152370000Y-124225000D01*
X158380000Y-131045000D02*
X152370000Y-131045000D01*
D11*
G04 #@! TO.C,U2*
X139885000Y-107765000D02*
X140110000Y-107765000D01*
X139885000Y-100515000D02*
X140210000Y-100515000D01*
X147135000Y-100515000D02*
X146810000Y-100515000D01*
X147135000Y-107765000D02*
X146810000Y-107765000D01*
X139885000Y-107765000D02*
X139885000Y-107440000D01*
X147135000Y-107765000D02*
X147135000Y-107440000D01*
X147135000Y-100515000D02*
X147135000Y-100840000D01*
X139885000Y-100515000D02*
X139885000Y-100840000D01*
X140110000Y-107765000D02*
X140110000Y-109190000D01*
D10*
G04 #@! TO.C,SMBJ5.0A1*
X150755000Y-138820000D02*
X150755000Y-143120000D01*
X150755000Y-143120000D02*
X156455000Y-143120000D01*
X150755000Y-138820000D02*
X156455000Y-138820000D01*
G04 #@! TO.C,D3*
X134105000Y-85908000D02*
X131245000Y-85908000D01*
X131245000Y-85908000D02*
X131245000Y-87828000D01*
X131245000Y-87828000D02*
X134105000Y-87828000D01*
G04 #@! TO.C,J4*
X156658000Y-95758000D02*
X159318000Y-95758000D01*
X156658000Y-95758000D02*
X156658000Y-113598000D01*
X156658000Y-113598000D02*
X159318000Y-113598000D01*
X159318000Y-95758000D02*
X159318000Y-113598000D01*
X159318000Y-93158000D02*
X159318000Y-94488000D01*
X157988000Y-93158000D02*
X159318000Y-93158000D01*
D11*
G04 #@! TO.C,J1*
X150282000Y-145654000D02*
X150282000Y-147054000D01*
X150282000Y-149454000D02*
X150282000Y-149604000D01*
X150282000Y-149604000D02*
X150582000Y-149604000D01*
X150582000Y-149604000D02*
X150582000Y-150054000D01*
X158282000Y-150054000D02*
X158282000Y-149604000D01*
X158282000Y-149604000D02*
X158582000Y-149604000D01*
X158582000Y-149604000D02*
X158582000Y-149454000D01*
X158582000Y-147054000D02*
X158582000Y-145654000D01*
X153357000Y-143479000D02*
X152632000Y-143479000D01*
X152632000Y-143479000D02*
X152632000Y-143904000D01*
X152632000Y-143904000D02*
X151907000Y-143904000D01*
X156232000Y-143904000D02*
X156957000Y-143904000D01*
G04 #@! TO.C,100k1*
X144747380Y-135198380D02*
X144175952Y-135198380D01*
X144461666Y-135198380D02*
X144461666Y-134198380D01*
X144366428Y-134341238D01*
X144271190Y-134436476D01*
X144175952Y-134484095D01*
X145366428Y-134198380D02*
X145461666Y-134198380D01*
X145556904Y-134246000D01*
X145604523Y-134293619D01*
X145652142Y-134388857D01*
X145699761Y-134579333D01*
X145699761Y-134817428D01*
X145652142Y-135007904D01*
X145604523Y-135103142D01*
X145556904Y-135150761D01*
X145461666Y-135198380D01*
X145366428Y-135198380D01*
X145271190Y-135150761D01*
X145223571Y-135103142D01*
X145175952Y-135007904D01*
X145128333Y-134817428D01*
X145128333Y-134579333D01*
X145175952Y-134388857D01*
X145223571Y-134293619D01*
X145271190Y-134246000D01*
X145366428Y-134198380D01*
X146318809Y-134198380D02*
X146414047Y-134198380D01*
X146509285Y-134246000D01*
X146556904Y-134293619D01*
X146604523Y-134388857D01*
X146652142Y-134579333D01*
X146652142Y-134817428D01*
X146604523Y-135007904D01*
X146556904Y-135103142D01*
X146509285Y-135150761D01*
X146414047Y-135198380D01*
X146318809Y-135198380D01*
X146223571Y-135150761D01*
X146175952Y-135103142D01*
X146128333Y-135007904D01*
X146080714Y-134817428D01*
X146080714Y-134579333D01*
X146128333Y-134388857D01*
X146175952Y-134293619D01*
X146223571Y-134246000D01*
X146318809Y-134198380D01*
X147080714Y-135198380D02*
X147080714Y-134198380D01*
X147175952Y-134817428D02*
X147461666Y-135198380D01*
X147461666Y-134531714D02*
X147080714Y-134912666D01*
X148414047Y-135198380D02*
X147842619Y-135198380D01*
X148128333Y-135198380D02*
X148128333Y-134198380D01*
X148033095Y-134341238D01*
X147937857Y-134436476D01*
X147842619Y-134484095D01*
G04 #@! TO.C,100nF1*
X138946190Y-98368380D02*
X138374761Y-98368380D01*
X138660476Y-98368380D02*
X138660476Y-97368380D01*
X138565238Y-97511238D01*
X138470000Y-97606476D01*
X138374761Y-97654095D01*
X139565238Y-97368380D02*
X139660476Y-97368380D01*
X139755714Y-97416000D01*
X139803333Y-97463619D01*
X139850952Y-97558857D01*
X139898571Y-97749333D01*
X139898571Y-97987428D01*
X139850952Y-98177904D01*
X139803333Y-98273142D01*
X139755714Y-98320761D01*
X139660476Y-98368380D01*
X139565238Y-98368380D01*
X139470000Y-98320761D01*
X139422380Y-98273142D01*
X139374761Y-98177904D01*
X139327142Y-97987428D01*
X139327142Y-97749333D01*
X139374761Y-97558857D01*
X139422380Y-97463619D01*
X139470000Y-97416000D01*
X139565238Y-97368380D01*
X140517619Y-97368380D02*
X140612857Y-97368380D01*
X140708095Y-97416000D01*
X140755714Y-97463619D01*
X140803333Y-97558857D01*
X140850952Y-97749333D01*
X140850952Y-97987428D01*
X140803333Y-98177904D01*
X140755714Y-98273142D01*
X140708095Y-98320761D01*
X140612857Y-98368380D01*
X140517619Y-98368380D01*
X140422380Y-98320761D01*
X140374761Y-98273142D01*
X140327142Y-98177904D01*
X140279523Y-97987428D01*
X140279523Y-97749333D01*
X140327142Y-97558857D01*
X140374761Y-97463619D01*
X140422380Y-97416000D01*
X140517619Y-97368380D01*
X141279523Y-97701714D02*
X141279523Y-98368380D01*
X141279523Y-97796952D02*
X141327142Y-97749333D01*
X141422380Y-97701714D01*
X141565238Y-97701714D01*
X141660476Y-97749333D01*
X141708095Y-97844571D01*
X141708095Y-98368380D01*
X142517619Y-97844571D02*
X142184285Y-97844571D01*
X142184285Y-98368380D02*
X142184285Y-97368380D01*
X142660476Y-97368380D01*
X143565238Y-98368380D02*
X142993809Y-98368380D01*
X143279523Y-98368380D02*
X143279523Y-97368380D01*
X143184285Y-97511238D01*
X143089047Y-97606476D01*
X142993809Y-97654095D01*
G04 #@! TO.C,100nF2*
X139191190Y-113608380D02*
X138619761Y-113608380D01*
X138905476Y-113608380D02*
X138905476Y-112608380D01*
X138810238Y-112751238D01*
X138715000Y-112846476D01*
X138619761Y-112894095D01*
X139810238Y-112608380D02*
X139905476Y-112608380D01*
X140000714Y-112656000D01*
X140048333Y-112703619D01*
X140095952Y-112798857D01*
X140143571Y-112989333D01*
X140143571Y-113227428D01*
X140095952Y-113417904D01*
X140048333Y-113513142D01*
X140000714Y-113560761D01*
X139905476Y-113608380D01*
X139810238Y-113608380D01*
X139715000Y-113560761D01*
X139667380Y-113513142D01*
X139619761Y-113417904D01*
X139572142Y-113227428D01*
X139572142Y-112989333D01*
X139619761Y-112798857D01*
X139667380Y-112703619D01*
X139715000Y-112656000D01*
X139810238Y-112608380D01*
X140762619Y-112608380D02*
X140857857Y-112608380D01*
X140953095Y-112656000D01*
X141000714Y-112703619D01*
X141048333Y-112798857D01*
X141095952Y-112989333D01*
X141095952Y-113227428D01*
X141048333Y-113417904D01*
X141000714Y-113513142D01*
X140953095Y-113560761D01*
X140857857Y-113608380D01*
X140762619Y-113608380D01*
X140667380Y-113560761D01*
X140619761Y-113513142D01*
X140572142Y-113417904D01*
X140524523Y-113227428D01*
X140524523Y-112989333D01*
X140572142Y-112798857D01*
X140619761Y-112703619D01*
X140667380Y-112656000D01*
X140762619Y-112608380D01*
X141524523Y-112941714D02*
X141524523Y-113608380D01*
X141524523Y-113036952D02*
X141572142Y-112989333D01*
X141667380Y-112941714D01*
X141810238Y-112941714D01*
X141905476Y-112989333D01*
X141953095Y-113084571D01*
X141953095Y-113608380D01*
X142762619Y-113084571D02*
X142429285Y-113084571D01*
X142429285Y-113608380D02*
X142429285Y-112608380D01*
X142905476Y-112608380D01*
X143238809Y-112703619D02*
X143286428Y-112656000D01*
X143381666Y-112608380D01*
X143619761Y-112608380D01*
X143715000Y-112656000D01*
X143762619Y-112703619D01*
X143810238Y-112798857D01*
X143810238Y-112894095D01*
X143762619Y-113036952D01*
X143191190Y-113608380D01*
X143810238Y-113608380D01*
G04 #@! TO.C,100nF3*
X144144190Y-140661380D02*
X143572761Y-140661380D01*
X143858476Y-140661380D02*
X143858476Y-139661380D01*
X143763238Y-139804238D01*
X143668000Y-139899476D01*
X143572761Y-139947095D01*
X144763238Y-139661380D02*
X144858476Y-139661380D01*
X144953714Y-139709000D01*
X145001333Y-139756619D01*
X145048952Y-139851857D01*
X145096571Y-140042333D01*
X145096571Y-140280428D01*
X145048952Y-140470904D01*
X145001333Y-140566142D01*
X144953714Y-140613761D01*
X144858476Y-140661380D01*
X144763238Y-140661380D01*
X144668000Y-140613761D01*
X144620380Y-140566142D01*
X144572761Y-140470904D01*
X144525142Y-140280428D01*
X144525142Y-140042333D01*
X144572761Y-139851857D01*
X144620380Y-139756619D01*
X144668000Y-139709000D01*
X144763238Y-139661380D01*
X145715619Y-139661380D02*
X145810857Y-139661380D01*
X145906095Y-139709000D01*
X145953714Y-139756619D01*
X146001333Y-139851857D01*
X146048952Y-140042333D01*
X146048952Y-140280428D01*
X146001333Y-140470904D01*
X145953714Y-140566142D01*
X145906095Y-140613761D01*
X145810857Y-140661380D01*
X145715619Y-140661380D01*
X145620380Y-140613761D01*
X145572761Y-140566142D01*
X145525142Y-140470904D01*
X145477523Y-140280428D01*
X145477523Y-140042333D01*
X145525142Y-139851857D01*
X145572761Y-139756619D01*
X145620380Y-139709000D01*
X145715619Y-139661380D01*
X146477523Y-139994714D02*
X146477523Y-140661380D01*
X146477523Y-140089952D02*
X146525142Y-140042333D01*
X146620380Y-139994714D01*
X146763238Y-139994714D01*
X146858476Y-140042333D01*
X146906095Y-140137571D01*
X146906095Y-140661380D01*
X147715619Y-140137571D02*
X147382285Y-140137571D01*
X147382285Y-140661380D02*
X147382285Y-139661380D01*
X147858476Y-139661380D01*
X148144190Y-139661380D02*
X148763238Y-139661380D01*
X148429904Y-140042333D01*
X148572761Y-140042333D01*
X148668000Y-140089952D01*
X148715619Y-140137571D01*
X148763238Y-140232809D01*
X148763238Y-140470904D01*
X148715619Y-140566142D01*
X148668000Y-140613761D01*
X148572761Y-140661380D01*
X148287047Y-140661380D01*
X148191809Y-140613761D01*
X148144190Y-140566142D01*
G04 #@! TO.C,100nF4*
X143781190Y-98368380D02*
X143209761Y-98368380D01*
X143495476Y-98368380D02*
X143495476Y-97368380D01*
X143400238Y-97511238D01*
X143305000Y-97606476D01*
X143209761Y-97654095D01*
X144400238Y-97368380D02*
X144495476Y-97368380D01*
X144590714Y-97416000D01*
X144638333Y-97463619D01*
X144685952Y-97558857D01*
X144733571Y-97749333D01*
X144733571Y-97987428D01*
X144685952Y-98177904D01*
X144638333Y-98273142D01*
X144590714Y-98320761D01*
X144495476Y-98368380D01*
X144400238Y-98368380D01*
X144305000Y-98320761D01*
X144257380Y-98273142D01*
X144209761Y-98177904D01*
X144162142Y-97987428D01*
X144162142Y-97749333D01*
X144209761Y-97558857D01*
X144257380Y-97463619D01*
X144305000Y-97416000D01*
X144400238Y-97368380D01*
X145352619Y-97368380D02*
X145447857Y-97368380D01*
X145543095Y-97416000D01*
X145590714Y-97463619D01*
X145638333Y-97558857D01*
X145685952Y-97749333D01*
X145685952Y-97987428D01*
X145638333Y-98177904D01*
X145590714Y-98273142D01*
X145543095Y-98320761D01*
X145447857Y-98368380D01*
X145352619Y-98368380D01*
X145257380Y-98320761D01*
X145209761Y-98273142D01*
X145162142Y-98177904D01*
X145114523Y-97987428D01*
X145114523Y-97749333D01*
X145162142Y-97558857D01*
X145209761Y-97463619D01*
X145257380Y-97416000D01*
X145352619Y-97368380D01*
X146114523Y-97701714D02*
X146114523Y-98368380D01*
X146114523Y-97796952D02*
X146162142Y-97749333D01*
X146257380Y-97701714D01*
X146400238Y-97701714D01*
X146495476Y-97749333D01*
X146543095Y-97844571D01*
X146543095Y-98368380D01*
X147352619Y-97844571D02*
X147019285Y-97844571D01*
X147019285Y-98368380D02*
X147019285Y-97368380D01*
X147495476Y-97368380D01*
X148305000Y-97701714D02*
X148305000Y-98368380D01*
X148066904Y-97320761D02*
X147828809Y-98035047D01*
X148447857Y-98035047D01*
G04 #@! TO.C,100nF5*
X144271190Y-113608380D02*
X143699761Y-113608380D01*
X143985476Y-113608380D02*
X143985476Y-112608380D01*
X143890238Y-112751238D01*
X143795000Y-112846476D01*
X143699761Y-112894095D01*
X144890238Y-112608380D02*
X144985476Y-112608380D01*
X145080714Y-112656000D01*
X145128333Y-112703619D01*
X145175952Y-112798857D01*
X145223571Y-112989333D01*
X145223571Y-113227428D01*
X145175952Y-113417904D01*
X145128333Y-113513142D01*
X145080714Y-113560761D01*
X144985476Y-113608380D01*
X144890238Y-113608380D01*
X144795000Y-113560761D01*
X144747380Y-113513142D01*
X144699761Y-113417904D01*
X144652142Y-113227428D01*
X144652142Y-112989333D01*
X144699761Y-112798857D01*
X144747380Y-112703619D01*
X144795000Y-112656000D01*
X144890238Y-112608380D01*
X145842619Y-112608380D02*
X145937857Y-112608380D01*
X146033095Y-112656000D01*
X146080714Y-112703619D01*
X146128333Y-112798857D01*
X146175952Y-112989333D01*
X146175952Y-113227428D01*
X146128333Y-113417904D01*
X146080714Y-113513142D01*
X146033095Y-113560761D01*
X145937857Y-113608380D01*
X145842619Y-113608380D01*
X145747380Y-113560761D01*
X145699761Y-113513142D01*
X145652142Y-113417904D01*
X145604523Y-113227428D01*
X145604523Y-112989333D01*
X145652142Y-112798857D01*
X145699761Y-112703619D01*
X145747380Y-112656000D01*
X145842619Y-112608380D01*
X146604523Y-112941714D02*
X146604523Y-113608380D01*
X146604523Y-113036952D02*
X146652142Y-112989333D01*
X146747380Y-112941714D01*
X146890238Y-112941714D01*
X146985476Y-112989333D01*
X147033095Y-113084571D01*
X147033095Y-113608380D01*
X147842619Y-113084571D02*
X147509285Y-113084571D01*
X147509285Y-113608380D02*
X147509285Y-112608380D01*
X147985476Y-112608380D01*
X148842619Y-112608380D02*
X148366428Y-112608380D01*
X148318809Y-113084571D01*
X148366428Y-113036952D01*
X148461666Y-112989333D01*
X148699761Y-112989333D01*
X148795000Y-113036952D01*
X148842619Y-113084571D01*
X148890238Y-113179809D01*
X148890238Y-113417904D01*
X148842619Y-113513142D01*
X148795000Y-113560761D01*
X148699761Y-113608380D01*
X148461666Y-113608380D01*
X148366428Y-113560761D01*
X148318809Y-113513142D01*
G04 #@! TO.C,100uF1*
X151897690Y-123674380D02*
X151326261Y-123674380D01*
X151611976Y-123674380D02*
X151611976Y-122674380D01*
X151516738Y-122817238D01*
X151421500Y-122912476D01*
X151326261Y-122960095D01*
X152516738Y-122674380D02*
X152611976Y-122674380D01*
X152707214Y-122722000D01*
X152754833Y-122769619D01*
X152802452Y-122864857D01*
X152850071Y-123055333D01*
X152850071Y-123293428D01*
X152802452Y-123483904D01*
X152754833Y-123579142D01*
X152707214Y-123626761D01*
X152611976Y-123674380D01*
X152516738Y-123674380D01*
X152421500Y-123626761D01*
X152373880Y-123579142D01*
X152326261Y-123483904D01*
X152278642Y-123293428D01*
X152278642Y-123055333D01*
X152326261Y-122864857D01*
X152373880Y-122769619D01*
X152421500Y-122722000D01*
X152516738Y-122674380D01*
X153469119Y-122674380D02*
X153564357Y-122674380D01*
X153659595Y-122722000D01*
X153707214Y-122769619D01*
X153754833Y-122864857D01*
X153802452Y-123055333D01*
X153802452Y-123293428D01*
X153754833Y-123483904D01*
X153707214Y-123579142D01*
X153659595Y-123626761D01*
X153564357Y-123674380D01*
X153469119Y-123674380D01*
X153373880Y-123626761D01*
X153326261Y-123579142D01*
X153278642Y-123483904D01*
X153231023Y-123293428D01*
X153231023Y-123055333D01*
X153278642Y-122864857D01*
X153326261Y-122769619D01*
X153373880Y-122722000D01*
X153469119Y-122674380D01*
X154659595Y-123007714D02*
X154659595Y-123674380D01*
X154231023Y-123007714D02*
X154231023Y-123531523D01*
X154278642Y-123626761D01*
X154373880Y-123674380D01*
X154516738Y-123674380D01*
X154611976Y-123626761D01*
X154659595Y-123579142D01*
X155469119Y-123150571D02*
X155135785Y-123150571D01*
X155135785Y-123674380D02*
X155135785Y-122674380D01*
X155611976Y-122674380D01*
X156516738Y-123674380D02*
X155945309Y-123674380D01*
X156231023Y-123674380D02*
X156231023Y-122674380D01*
X156135785Y-122817238D01*
X156040547Y-122912476D01*
X155945309Y-122960095D01*
G04 #@! TO.C,10uF1*
X144747380Y-117674380D02*
X144175952Y-117674380D01*
X144461666Y-117674380D02*
X144461666Y-116674380D01*
X144366428Y-116817238D01*
X144271190Y-116912476D01*
X144175952Y-116960095D01*
X145366428Y-116674380D02*
X145461666Y-116674380D01*
X145556904Y-116722000D01*
X145604523Y-116769619D01*
X145652142Y-116864857D01*
X145699761Y-117055333D01*
X145699761Y-117293428D01*
X145652142Y-117483904D01*
X145604523Y-117579142D01*
X145556904Y-117626761D01*
X145461666Y-117674380D01*
X145366428Y-117674380D01*
X145271190Y-117626761D01*
X145223571Y-117579142D01*
X145175952Y-117483904D01*
X145128333Y-117293428D01*
X145128333Y-117055333D01*
X145175952Y-116864857D01*
X145223571Y-116769619D01*
X145271190Y-116722000D01*
X145366428Y-116674380D01*
X146556904Y-117007714D02*
X146556904Y-117674380D01*
X146128333Y-117007714D02*
X146128333Y-117531523D01*
X146175952Y-117626761D01*
X146271190Y-117674380D01*
X146414047Y-117674380D01*
X146509285Y-117626761D01*
X146556904Y-117579142D01*
X147366428Y-117150571D02*
X147033095Y-117150571D01*
X147033095Y-117674380D02*
X147033095Y-116674380D01*
X147509285Y-116674380D01*
X148414047Y-117674380D02*
X147842619Y-117674380D01*
X148128333Y-117674380D02*
X148128333Y-116674380D01*
X148033095Y-116817238D01*
X147937857Y-116912476D01*
X147842619Y-116960095D01*
G04 #@! TO.C,1K1*
X151709523Y-133422380D02*
X151138095Y-133422380D01*
X151423809Y-133422380D02*
X151423809Y-132422380D01*
X151328571Y-132565238D01*
X151233333Y-132660476D01*
X151138095Y-132708095D01*
X152138095Y-133422380D02*
X152138095Y-132422380D01*
X152709523Y-133422380D02*
X152280952Y-132850952D01*
X152709523Y-132422380D02*
X152138095Y-132993809D01*
X153661904Y-133422380D02*
X153090476Y-133422380D01*
X153376190Y-133422380D02*
X153376190Y-132422380D01*
X153280952Y-132565238D01*
X153185714Y-132660476D01*
X153090476Y-132708095D01*
G04 #@! TO.C,22pF1*
X144193952Y-128578619D02*
X144241571Y-128531000D01*
X144336809Y-128483380D01*
X144574904Y-128483380D01*
X144670142Y-128531000D01*
X144717761Y-128578619D01*
X144765380Y-128673857D01*
X144765380Y-128769095D01*
X144717761Y-128911952D01*
X144146333Y-129483380D01*
X144765380Y-129483380D01*
X145146333Y-128578619D02*
X145193952Y-128531000D01*
X145289190Y-128483380D01*
X145527285Y-128483380D01*
X145622523Y-128531000D01*
X145670142Y-128578619D01*
X145717761Y-128673857D01*
X145717761Y-128769095D01*
X145670142Y-128911952D01*
X145098714Y-129483380D01*
X145717761Y-129483380D01*
X146146333Y-128816714D02*
X146146333Y-129816714D01*
X146146333Y-128864333D02*
X146241571Y-128816714D01*
X146432047Y-128816714D01*
X146527285Y-128864333D01*
X146574904Y-128911952D01*
X146622523Y-129007190D01*
X146622523Y-129292904D01*
X146574904Y-129388142D01*
X146527285Y-129435761D01*
X146432047Y-129483380D01*
X146241571Y-129483380D01*
X146146333Y-129435761D01*
X147384428Y-128959571D02*
X147051095Y-128959571D01*
X147051095Y-129483380D02*
X147051095Y-128483380D01*
X147527285Y-128483380D01*
X148432047Y-129483380D02*
X147860619Y-129483380D01*
X148146333Y-129483380D02*
X148146333Y-128483380D01*
X148051095Y-128626238D01*
X147955857Y-128721476D01*
X147860619Y-128769095D01*
G04 #@! TO.C,22pF2*
X144005974Y-123915820D02*
X144053593Y-123868201D01*
X144148831Y-123820581D01*
X144386926Y-123820581D01*
X144482164Y-123868201D01*
X144529783Y-123915820D01*
X144577402Y-124011058D01*
X144577402Y-124106296D01*
X144529783Y-124249153D01*
X143958355Y-124820581D01*
X144577402Y-124820581D01*
X144958355Y-123915820D02*
X145005974Y-123868201D01*
X145101212Y-123820581D01*
X145339307Y-123820581D01*
X145434545Y-123868201D01*
X145482164Y-123915820D01*
X145529783Y-124011058D01*
X145529783Y-124106296D01*
X145482164Y-124249153D01*
X144910736Y-124820581D01*
X145529783Y-124820581D01*
X145958355Y-124153915D02*
X145958355Y-125153915D01*
X145958355Y-124201534D02*
X146053593Y-124153915D01*
X146244069Y-124153915D01*
X146339307Y-124201534D01*
X146386926Y-124249153D01*
X146434545Y-124344391D01*
X146434545Y-124630105D01*
X146386926Y-124725343D01*
X146339307Y-124772962D01*
X146244069Y-124820581D01*
X146053593Y-124820581D01*
X145958355Y-124772962D01*
X147196450Y-124296772D02*
X146863117Y-124296772D01*
X146863117Y-124820581D02*
X146863117Y-123820581D01*
X147339307Y-123820581D01*
X147672641Y-123915820D02*
X147720260Y-123868201D01*
X147815498Y-123820581D01*
X148053593Y-123820581D01*
X148148831Y-123868201D01*
X148196450Y-123915820D01*
X148244069Y-124011058D01*
X148244069Y-124106296D01*
X148196450Y-124249153D01*
X147625022Y-124820581D01*
X148244069Y-124820581D01*
G04 #@! TO.C,8mhz1*
X143638952Y-130269738D02*
X143591333Y-130364976D01*
X143543714Y-130412595D01*
X143448476Y-130460214D01*
X143400857Y-130460214D01*
X143305619Y-130412595D01*
X143258000Y-130364976D01*
X143210380Y-130269738D01*
X143210380Y-130079261D01*
X143258000Y-129984023D01*
X143305619Y-129936404D01*
X143400857Y-129888785D01*
X143448476Y-129888785D01*
X143543714Y-129936404D01*
X143591333Y-129984023D01*
X143638952Y-130079261D01*
X143638952Y-130269738D01*
X143686571Y-130364976D01*
X143734190Y-130412595D01*
X143829428Y-130460214D01*
X144019904Y-130460214D01*
X144115142Y-130412595D01*
X144162761Y-130364976D01*
X144210380Y-130269738D01*
X144210380Y-130079261D01*
X144162761Y-129984023D01*
X144115142Y-129936404D01*
X144019904Y-129888785D01*
X143829428Y-129888785D01*
X143734190Y-129936404D01*
X143686571Y-129984023D01*
X143638952Y-130079261D01*
X144210380Y-129460214D02*
X143543714Y-129460214D01*
X143638952Y-129460214D02*
X143591333Y-129412595D01*
X143543714Y-129317357D01*
X143543714Y-129174500D01*
X143591333Y-129079261D01*
X143686571Y-129031642D01*
X144210380Y-129031642D01*
X143686571Y-129031642D02*
X143591333Y-128984023D01*
X143543714Y-128888785D01*
X143543714Y-128745928D01*
X143591333Y-128650690D01*
X143686571Y-128603071D01*
X144210380Y-128603071D01*
X144210380Y-128126880D02*
X143210380Y-128126880D01*
X144210380Y-127698309D02*
X143686571Y-127698309D01*
X143591333Y-127745928D01*
X143543714Y-127841166D01*
X143543714Y-127984023D01*
X143591333Y-128079261D01*
X143638952Y-128126880D01*
X143543714Y-127317357D02*
X143543714Y-126793547D01*
X144210380Y-127317357D01*
X144210380Y-126793547D01*
X144210380Y-125888785D02*
X144210380Y-126460214D01*
X144210380Y-126174500D02*
X143210380Y-126174500D01*
X143353238Y-126269738D01*
X143448476Y-126364976D01*
X143496095Y-126460214D01*
G04 #@! TO.C,D1*
X145517404Y-139770380D02*
X145517404Y-138770380D01*
X145755500Y-138770380D01*
X145898357Y-138818000D01*
X145993595Y-138913238D01*
X146041214Y-139008476D01*
X146088833Y-139198952D01*
X146088833Y-139341809D01*
X146041214Y-139532285D01*
X145993595Y-139627523D01*
X145898357Y-139722761D01*
X145755500Y-139770380D01*
X145517404Y-139770380D01*
X147041214Y-139770380D02*
X146469785Y-139770380D01*
X146755500Y-139770380D02*
X146755500Y-138770380D01*
X146660261Y-138913238D01*
X146565023Y-139008476D01*
X146469785Y-139056095D01*
G04 #@! TO.C,D2*
X155861904Y-133422380D02*
X155861904Y-132422380D01*
X156100000Y-132422380D01*
X156242857Y-132470000D01*
X156338095Y-132565238D01*
X156385714Y-132660476D01*
X156433333Y-132850952D01*
X156433333Y-132993809D01*
X156385714Y-133184285D01*
X156338095Y-133279523D01*
X156242857Y-133374761D01*
X156100000Y-133422380D01*
X155861904Y-133422380D01*
X156814285Y-132517619D02*
X156861904Y-132470000D01*
X156957142Y-132422380D01*
X157195238Y-132422380D01*
X157290476Y-132470000D01*
X157338095Y-132517619D01*
X157385714Y-132612857D01*
X157385714Y-132708095D01*
X157338095Y-132850952D01*
X156766666Y-133422380D01*
X157385714Y-133422380D01*
G04 #@! TO.C,FTDI1*
X128603571Y-148772380D02*
X128603571Y-149105714D01*
X129127380Y-149105714D02*
X128127380Y-149105714D01*
X128127380Y-148629523D01*
X128127380Y-148391428D02*
X128127380Y-147820000D01*
X129127380Y-148105714D02*
X128127380Y-148105714D01*
X129127380Y-147486666D02*
X128127380Y-147486666D01*
X128127380Y-147248571D01*
X128175000Y-147105714D01*
X128270238Y-147010476D01*
X128365476Y-146962857D01*
X128555952Y-146915238D01*
X128698809Y-146915238D01*
X128889285Y-146962857D01*
X128984523Y-147010476D01*
X129079761Y-147105714D01*
X129127380Y-147248571D01*
X129127380Y-147486666D01*
X129127380Y-146486666D02*
X128127380Y-146486666D01*
X129127380Y-145486666D02*
X129127380Y-146058095D01*
X129127380Y-145772380D02*
X128127380Y-145772380D01*
X128270238Y-145867619D01*
X128365476Y-145962857D01*
X128413095Y-146058095D01*
G04 #@! TO.C,J2*
X159262380Y-88979333D02*
X159976666Y-88979333D01*
X160119523Y-89026952D01*
X160214761Y-89122190D01*
X160262380Y-89265047D01*
X160262380Y-89360285D01*
X159357619Y-88550761D02*
X159310000Y-88503142D01*
X159262380Y-88407904D01*
X159262380Y-88169809D01*
X159310000Y-88074571D01*
X159357619Y-88026952D01*
X159452857Y-87979333D01*
X159548095Y-87979333D01*
X159690952Y-88026952D01*
X160262380Y-88598380D01*
X160262380Y-87979333D01*
G04 #@! TO.C,reset1*
X140652761Y-84794380D02*
X140652761Y-84127714D01*
X140652761Y-84318190D02*
X140700380Y-84222952D01*
X140748000Y-84175333D01*
X140843238Y-84127714D01*
X140938476Y-84127714D01*
X141652761Y-84746761D02*
X141557523Y-84794380D01*
X141367047Y-84794380D01*
X141271809Y-84746761D01*
X141224190Y-84651523D01*
X141224190Y-84270571D01*
X141271809Y-84175333D01*
X141367047Y-84127714D01*
X141557523Y-84127714D01*
X141652761Y-84175333D01*
X141700380Y-84270571D01*
X141700380Y-84365809D01*
X141224190Y-84461047D01*
X142081333Y-84746761D02*
X142176571Y-84794380D01*
X142367047Y-84794380D01*
X142462285Y-84746761D01*
X142509904Y-84651523D01*
X142509904Y-84603904D01*
X142462285Y-84508666D01*
X142367047Y-84461047D01*
X142224190Y-84461047D01*
X142128952Y-84413428D01*
X142081333Y-84318190D01*
X142081333Y-84270571D01*
X142128952Y-84175333D01*
X142224190Y-84127714D01*
X142367047Y-84127714D01*
X142462285Y-84175333D01*
X143319428Y-84746761D02*
X143224190Y-84794380D01*
X143033714Y-84794380D01*
X142938476Y-84746761D01*
X142890857Y-84651523D01*
X142890857Y-84270571D01*
X142938476Y-84175333D01*
X143033714Y-84127714D01*
X143224190Y-84127714D01*
X143319428Y-84175333D01*
X143367047Y-84270571D01*
X143367047Y-84365809D01*
X142890857Y-84461047D01*
X143652761Y-84127714D02*
X144033714Y-84127714D01*
X143795619Y-83794380D02*
X143795619Y-84651523D01*
X143843238Y-84746761D01*
X143938476Y-84794380D01*
X144033714Y-84794380D01*
X144890857Y-84794380D02*
X144319428Y-84794380D01*
X144605142Y-84794380D02*
X144605142Y-83794380D01*
X144509904Y-83937238D01*
X144414666Y-84032476D01*
X144319428Y-84080095D01*
G04 #@! TO.C,U1*
X153518095Y-131587380D02*
X153518095Y-132396904D01*
X153565714Y-132492142D01*
X153613333Y-132539761D01*
X153708571Y-132587380D01*
X153899047Y-132587380D01*
X153994285Y-132539761D01*
X154041904Y-132492142D01*
X154089523Y-132396904D01*
X154089523Y-131587380D01*
X155089523Y-132587380D02*
X154518095Y-132587380D01*
X154803809Y-132587380D02*
X154803809Y-131587380D01*
X154708571Y-131730238D01*
X154613333Y-131825476D01*
X154518095Y-131873095D01*
G04 #@! TO.C,U2*
X136912380Y-104901904D02*
X137721904Y-104901904D01*
X137817142Y-104854285D01*
X137864761Y-104806666D01*
X137912380Y-104711428D01*
X137912380Y-104520952D01*
X137864761Y-104425714D01*
X137817142Y-104378095D01*
X137721904Y-104330476D01*
X136912380Y-104330476D01*
X137007619Y-103901904D02*
X136960000Y-103854285D01*
X136912380Y-103759047D01*
X136912380Y-103520952D01*
X136960000Y-103425714D01*
X137007619Y-103378095D01*
X137102857Y-103330476D01*
X137198095Y-103330476D01*
X137340952Y-103378095D01*
X137912380Y-103949523D01*
X137912380Y-103330476D01*
G04 #@! TO.C,SMBJ5.0A1*
X150471666Y-138374761D02*
X150614523Y-138422380D01*
X150852619Y-138422380D01*
X150947857Y-138374761D01*
X150995476Y-138327142D01*
X151043095Y-138231904D01*
X151043095Y-138136666D01*
X150995476Y-138041428D01*
X150947857Y-137993809D01*
X150852619Y-137946190D01*
X150662142Y-137898571D01*
X150566904Y-137850952D01*
X150519285Y-137803333D01*
X150471666Y-137708095D01*
X150471666Y-137612857D01*
X150519285Y-137517619D01*
X150566904Y-137470000D01*
X150662142Y-137422380D01*
X150900238Y-137422380D01*
X151043095Y-137470000D01*
X151471666Y-138422380D02*
X151471666Y-137422380D01*
X151805000Y-138136666D01*
X152138333Y-137422380D01*
X152138333Y-138422380D01*
X152947857Y-137898571D02*
X153090714Y-137946190D01*
X153138333Y-137993809D01*
X153185952Y-138089047D01*
X153185952Y-138231904D01*
X153138333Y-138327142D01*
X153090714Y-138374761D01*
X152995476Y-138422380D01*
X152614523Y-138422380D01*
X152614523Y-137422380D01*
X152947857Y-137422380D01*
X153043095Y-137470000D01*
X153090714Y-137517619D01*
X153138333Y-137612857D01*
X153138333Y-137708095D01*
X153090714Y-137803333D01*
X153043095Y-137850952D01*
X152947857Y-137898571D01*
X152614523Y-137898571D01*
X153900238Y-137422380D02*
X153900238Y-138136666D01*
X153852619Y-138279523D01*
X153757380Y-138374761D01*
X153614523Y-138422380D01*
X153519285Y-138422380D01*
X154852619Y-137422380D02*
X154376428Y-137422380D01*
X154328809Y-137898571D01*
X154376428Y-137850952D01*
X154471666Y-137803333D01*
X154709761Y-137803333D01*
X154805000Y-137850952D01*
X154852619Y-137898571D01*
X154900238Y-137993809D01*
X154900238Y-138231904D01*
X154852619Y-138327142D01*
X154805000Y-138374761D01*
X154709761Y-138422380D01*
X154471666Y-138422380D01*
X154376428Y-138374761D01*
X154328809Y-138327142D01*
X155328809Y-138327142D02*
X155376428Y-138374761D01*
X155328809Y-138422380D01*
X155281190Y-138374761D01*
X155328809Y-138327142D01*
X155328809Y-138422380D01*
X155995476Y-137422380D02*
X156090714Y-137422380D01*
X156185952Y-137470000D01*
X156233571Y-137517619D01*
X156281190Y-137612857D01*
X156328809Y-137803333D01*
X156328809Y-138041428D01*
X156281190Y-138231904D01*
X156233571Y-138327142D01*
X156185952Y-138374761D01*
X156090714Y-138422380D01*
X155995476Y-138422380D01*
X155900238Y-138374761D01*
X155852619Y-138327142D01*
X155805000Y-138231904D01*
X155757380Y-138041428D01*
X155757380Y-137803333D01*
X155805000Y-137612857D01*
X155852619Y-137517619D01*
X155900238Y-137470000D01*
X155995476Y-137422380D01*
X156709761Y-138136666D02*
X157185952Y-138136666D01*
X156614523Y-138422380D02*
X156947857Y-137422380D01*
X157281190Y-138422380D01*
X158138333Y-138422380D02*
X157566904Y-138422380D01*
X157852619Y-138422380D02*
X157852619Y-137422380D01*
X157757380Y-137565238D01*
X157662142Y-137660476D01*
X157566904Y-137708095D01*
G04 #@! TO.C,D3*
X132366904Y-85670380D02*
X132366904Y-84670380D01*
X132605000Y-84670380D01*
X132747857Y-84718000D01*
X132843095Y-84813238D01*
X132890714Y-84908476D01*
X132938333Y-85098952D01*
X132938333Y-85241809D01*
X132890714Y-85432285D01*
X132843095Y-85527523D01*
X132747857Y-85622761D01*
X132605000Y-85670380D01*
X132366904Y-85670380D01*
X133271666Y-84670380D02*
X133890714Y-84670380D01*
X133557380Y-85051333D01*
X133700238Y-85051333D01*
X133795476Y-85098952D01*
X133843095Y-85146571D01*
X133890714Y-85241809D01*
X133890714Y-85479904D01*
X133843095Y-85575142D01*
X133795476Y-85622761D01*
X133700238Y-85670380D01*
X133414523Y-85670380D01*
X133319285Y-85622761D01*
X133271666Y-85575142D01*
G04 #@! TO.C,J4*
X157654666Y-91170380D02*
X157654666Y-91884666D01*
X157607047Y-92027523D01*
X157511809Y-92122761D01*
X157368952Y-92170380D01*
X157273714Y-92170380D01*
X158559428Y-91503714D02*
X158559428Y-92170380D01*
X158321333Y-91122761D02*
X158083238Y-91837047D01*
X158702285Y-91837047D01*
G04 #@! TO.C,J1*
X154098666Y-142256380D02*
X154098666Y-142970666D01*
X154051047Y-143113523D01*
X153955809Y-143208761D01*
X153812952Y-143256380D01*
X153717714Y-143256380D01*
X155098666Y-143256380D02*
X154527238Y-143256380D01*
X154812952Y-143256380D02*
X154812952Y-142256380D01*
X154717714Y-142399238D01*
X154622476Y-142494476D01*
X154527238Y-142542095D01*
G04 #@! TD*
M02*
