G04 #@! TF.GenerationSoftware,KiCad,Pcbnew,(5.0.2-5-10.14)*
G04 #@! TF.CreationDate,2019-03-09T09:48:24+01:00*
G04 #@! TF.ProjectId,myduino,6d796475-696e-46f2-9e6b-696361645f70,rev?*
G04 #@! TF.SameCoordinates,Original*
G04 #@! TF.FileFunction,Soldermask,Top*
G04 #@! TF.FilePolarity,Negative*
%FSLAX46Y46*%
G04 Gerber Fmt 4.6, Leading zero omitted, Abs format (unit mm)*
G04 Created by KiCad (PCBNEW (5.0.2-5-10.14)) date 2019 March 09, Saturday 09:48:24*
%MOMM*%
%LPD*%
G01*
G04 APERTURE LIST*
%ADD10C,0.100000*%
G04 APERTURE END LIST*
D10*
G36*
X158584396Y-147339546D02*
X158757466Y-147411234D01*
X158913230Y-147515312D01*
X159045688Y-147647770D01*
X159149766Y-147803534D01*
X159221454Y-147976604D01*
X159258000Y-148160333D01*
X159258000Y-148347667D01*
X159221454Y-148531396D01*
X159149766Y-148704466D01*
X159045688Y-148860230D01*
X158913230Y-148992688D01*
X158757466Y-149096766D01*
X158584396Y-149168454D01*
X158400667Y-149205000D01*
X158213333Y-149205000D01*
X158029604Y-149168454D01*
X157856534Y-149096766D01*
X157700770Y-148992688D01*
X157568312Y-148860230D01*
X157464234Y-148704466D01*
X157392546Y-148531396D01*
X157356000Y-148347667D01*
X157356000Y-148160333D01*
X157392546Y-147976604D01*
X157464234Y-147803534D01*
X157568312Y-147647770D01*
X157700770Y-147515312D01*
X157856534Y-147411234D01*
X158029604Y-147339546D01*
X158213333Y-147303000D01*
X158400667Y-147303000D01*
X158584396Y-147339546D01*
X158584396Y-147339546D01*
G37*
G36*
X150834396Y-147339546D02*
X151007466Y-147411234D01*
X151163230Y-147515312D01*
X151295688Y-147647770D01*
X151399766Y-147803534D01*
X151471454Y-147976604D01*
X151508000Y-148160333D01*
X151508000Y-148347667D01*
X151471454Y-148531396D01*
X151399766Y-148704466D01*
X151295688Y-148860230D01*
X151163230Y-148992688D01*
X151007466Y-149096766D01*
X150834396Y-149168454D01*
X150650667Y-149205000D01*
X150463333Y-149205000D01*
X150279604Y-149168454D01*
X150106534Y-149096766D01*
X149950770Y-148992688D01*
X149818312Y-148860230D01*
X149714234Y-148704466D01*
X149642546Y-148531396D01*
X149606000Y-148347667D01*
X149606000Y-148160333D01*
X149642546Y-147976604D01*
X149714234Y-147803534D01*
X149818312Y-147647770D01*
X149950770Y-147515312D01*
X150106534Y-147411234D01*
X150279604Y-147339546D01*
X150463333Y-147303000D01*
X150650667Y-147303000D01*
X150834396Y-147339546D01*
X150834396Y-147339546D01*
G37*
G36*
X144255442Y-146425518D02*
X144321627Y-146432037D01*
X144434853Y-146466384D01*
X144491467Y-146483557D01*
X144630087Y-146557652D01*
X144647991Y-146567222D01*
X144683729Y-146596552D01*
X144785186Y-146679814D01*
X144868448Y-146781271D01*
X144897778Y-146817009D01*
X144897779Y-146817011D01*
X144981443Y-146973533D01*
X144981443Y-146973534D01*
X145032963Y-147143373D01*
X145050359Y-147320000D01*
X145032963Y-147496627D01*
X144998616Y-147609853D01*
X144981443Y-147666467D01*
X144908179Y-147803533D01*
X144897778Y-147822991D01*
X144868448Y-147858729D01*
X144785186Y-147960186D01*
X144683729Y-148043448D01*
X144647991Y-148072778D01*
X144647989Y-148072779D01*
X144491467Y-148156443D01*
X144434853Y-148173616D01*
X144321627Y-148207963D01*
X144255442Y-148214482D01*
X144189260Y-148221000D01*
X144100740Y-148221000D01*
X144034558Y-148214482D01*
X143968373Y-148207963D01*
X143855147Y-148173616D01*
X143798533Y-148156443D01*
X143642011Y-148072779D01*
X143642009Y-148072778D01*
X143606271Y-148043448D01*
X143504814Y-147960186D01*
X143421552Y-147858729D01*
X143392222Y-147822991D01*
X143381821Y-147803533D01*
X143308557Y-147666467D01*
X143291384Y-147609853D01*
X143257037Y-147496627D01*
X143239641Y-147320000D01*
X143257037Y-147143373D01*
X143308557Y-146973534D01*
X143308557Y-146973533D01*
X143392221Y-146817011D01*
X143392222Y-146817009D01*
X143421552Y-146781271D01*
X143504814Y-146679814D01*
X143606271Y-146596552D01*
X143642009Y-146567222D01*
X143659913Y-146557652D01*
X143798533Y-146483557D01*
X143855147Y-146466384D01*
X143968373Y-146432037D01*
X144034558Y-146425518D01*
X144100740Y-146419000D01*
X144189260Y-146419000D01*
X144255442Y-146425518D01*
X144255442Y-146425518D01*
G37*
G36*
X141715442Y-146425518D02*
X141781627Y-146432037D01*
X141894853Y-146466384D01*
X141951467Y-146483557D01*
X142090087Y-146557652D01*
X142107991Y-146567222D01*
X142143729Y-146596552D01*
X142245186Y-146679814D01*
X142328448Y-146781271D01*
X142357778Y-146817009D01*
X142357779Y-146817011D01*
X142441443Y-146973533D01*
X142441443Y-146973534D01*
X142492963Y-147143373D01*
X142510359Y-147320000D01*
X142492963Y-147496627D01*
X142458616Y-147609853D01*
X142441443Y-147666467D01*
X142368179Y-147803533D01*
X142357778Y-147822991D01*
X142328448Y-147858729D01*
X142245186Y-147960186D01*
X142143729Y-148043448D01*
X142107991Y-148072778D01*
X142107989Y-148072779D01*
X141951467Y-148156443D01*
X141894853Y-148173616D01*
X141781627Y-148207963D01*
X141715442Y-148214482D01*
X141649260Y-148221000D01*
X141560740Y-148221000D01*
X141494558Y-148214482D01*
X141428373Y-148207963D01*
X141315147Y-148173616D01*
X141258533Y-148156443D01*
X141102011Y-148072779D01*
X141102009Y-148072778D01*
X141066271Y-148043448D01*
X140964814Y-147960186D01*
X140881552Y-147858729D01*
X140852222Y-147822991D01*
X140841821Y-147803533D01*
X140768557Y-147666467D01*
X140751384Y-147609853D01*
X140717037Y-147496627D01*
X140699641Y-147320000D01*
X140717037Y-147143373D01*
X140768557Y-146973534D01*
X140768557Y-146973533D01*
X140852221Y-146817011D01*
X140852222Y-146817009D01*
X140881552Y-146781271D01*
X140964814Y-146679814D01*
X141066271Y-146596552D01*
X141102009Y-146567222D01*
X141119913Y-146557652D01*
X141258533Y-146483557D01*
X141315147Y-146466384D01*
X141428373Y-146432037D01*
X141494558Y-146425518D01*
X141560740Y-146419000D01*
X141649260Y-146419000D01*
X141715442Y-146425518D01*
X141715442Y-146425518D01*
G37*
G36*
X139175442Y-146425518D02*
X139241627Y-146432037D01*
X139354853Y-146466384D01*
X139411467Y-146483557D01*
X139550087Y-146557652D01*
X139567991Y-146567222D01*
X139603729Y-146596552D01*
X139705186Y-146679814D01*
X139788448Y-146781271D01*
X139817778Y-146817009D01*
X139817779Y-146817011D01*
X139901443Y-146973533D01*
X139901443Y-146973534D01*
X139952963Y-147143373D01*
X139970359Y-147320000D01*
X139952963Y-147496627D01*
X139918616Y-147609853D01*
X139901443Y-147666467D01*
X139828179Y-147803533D01*
X139817778Y-147822991D01*
X139788448Y-147858729D01*
X139705186Y-147960186D01*
X139603729Y-148043448D01*
X139567991Y-148072778D01*
X139567989Y-148072779D01*
X139411467Y-148156443D01*
X139354853Y-148173616D01*
X139241627Y-148207963D01*
X139175442Y-148214482D01*
X139109260Y-148221000D01*
X139020740Y-148221000D01*
X138954558Y-148214482D01*
X138888373Y-148207963D01*
X138775147Y-148173616D01*
X138718533Y-148156443D01*
X138562011Y-148072779D01*
X138562009Y-148072778D01*
X138526271Y-148043448D01*
X138424814Y-147960186D01*
X138341552Y-147858729D01*
X138312222Y-147822991D01*
X138301821Y-147803533D01*
X138228557Y-147666467D01*
X138211384Y-147609853D01*
X138177037Y-147496627D01*
X138159641Y-147320000D01*
X138177037Y-147143373D01*
X138228557Y-146973534D01*
X138228557Y-146973533D01*
X138312221Y-146817011D01*
X138312222Y-146817009D01*
X138341552Y-146781271D01*
X138424814Y-146679814D01*
X138526271Y-146596552D01*
X138562009Y-146567222D01*
X138579913Y-146557652D01*
X138718533Y-146483557D01*
X138775147Y-146466384D01*
X138888373Y-146432037D01*
X138954558Y-146425518D01*
X139020740Y-146419000D01*
X139109260Y-146419000D01*
X139175442Y-146425518D01*
X139175442Y-146425518D01*
G37*
G36*
X136635442Y-146425518D02*
X136701627Y-146432037D01*
X136814853Y-146466384D01*
X136871467Y-146483557D01*
X137010087Y-146557652D01*
X137027991Y-146567222D01*
X137063729Y-146596552D01*
X137165186Y-146679814D01*
X137248448Y-146781271D01*
X137277778Y-146817009D01*
X137277779Y-146817011D01*
X137361443Y-146973533D01*
X137361443Y-146973534D01*
X137412963Y-147143373D01*
X137430359Y-147320000D01*
X137412963Y-147496627D01*
X137378616Y-147609853D01*
X137361443Y-147666467D01*
X137288179Y-147803533D01*
X137277778Y-147822991D01*
X137248448Y-147858729D01*
X137165186Y-147960186D01*
X137063729Y-148043448D01*
X137027991Y-148072778D01*
X137027989Y-148072779D01*
X136871467Y-148156443D01*
X136814853Y-148173616D01*
X136701627Y-148207963D01*
X136635442Y-148214482D01*
X136569260Y-148221000D01*
X136480740Y-148221000D01*
X136414558Y-148214482D01*
X136348373Y-148207963D01*
X136235147Y-148173616D01*
X136178533Y-148156443D01*
X136022011Y-148072779D01*
X136022009Y-148072778D01*
X135986271Y-148043448D01*
X135884814Y-147960186D01*
X135801552Y-147858729D01*
X135772222Y-147822991D01*
X135761821Y-147803533D01*
X135688557Y-147666467D01*
X135671384Y-147609853D01*
X135637037Y-147496627D01*
X135619641Y-147320000D01*
X135637037Y-147143373D01*
X135688557Y-146973534D01*
X135688557Y-146973533D01*
X135772221Y-146817011D01*
X135772222Y-146817009D01*
X135801552Y-146781271D01*
X135884814Y-146679814D01*
X135986271Y-146596552D01*
X136022009Y-146567222D01*
X136039913Y-146557652D01*
X136178533Y-146483557D01*
X136235147Y-146466384D01*
X136348373Y-146432037D01*
X136414558Y-146425518D01*
X136480740Y-146419000D01*
X136569260Y-146419000D01*
X136635442Y-146425518D01*
X136635442Y-146425518D01*
G37*
G36*
X134095442Y-146425518D02*
X134161627Y-146432037D01*
X134274853Y-146466384D01*
X134331467Y-146483557D01*
X134470087Y-146557652D01*
X134487991Y-146567222D01*
X134523729Y-146596552D01*
X134625186Y-146679814D01*
X134708448Y-146781271D01*
X134737778Y-146817009D01*
X134737779Y-146817011D01*
X134821443Y-146973533D01*
X134821443Y-146973534D01*
X134872963Y-147143373D01*
X134890359Y-147320000D01*
X134872963Y-147496627D01*
X134838616Y-147609853D01*
X134821443Y-147666467D01*
X134748179Y-147803533D01*
X134737778Y-147822991D01*
X134708448Y-147858729D01*
X134625186Y-147960186D01*
X134523729Y-148043448D01*
X134487991Y-148072778D01*
X134487989Y-148072779D01*
X134331467Y-148156443D01*
X134274853Y-148173616D01*
X134161627Y-148207963D01*
X134095442Y-148214482D01*
X134029260Y-148221000D01*
X133940740Y-148221000D01*
X133874558Y-148214482D01*
X133808373Y-148207963D01*
X133695147Y-148173616D01*
X133638533Y-148156443D01*
X133482011Y-148072779D01*
X133482009Y-148072778D01*
X133446271Y-148043448D01*
X133344814Y-147960186D01*
X133261552Y-147858729D01*
X133232222Y-147822991D01*
X133221821Y-147803533D01*
X133148557Y-147666467D01*
X133131384Y-147609853D01*
X133097037Y-147496627D01*
X133079641Y-147320000D01*
X133097037Y-147143373D01*
X133148557Y-146973534D01*
X133148557Y-146973533D01*
X133232221Y-146817011D01*
X133232222Y-146817009D01*
X133261552Y-146781271D01*
X133344814Y-146679814D01*
X133446271Y-146596552D01*
X133482009Y-146567222D01*
X133499913Y-146557652D01*
X133638533Y-146483557D01*
X133695147Y-146466384D01*
X133808373Y-146432037D01*
X133874558Y-146425518D01*
X133940740Y-146419000D01*
X134029260Y-146419000D01*
X134095442Y-146425518D01*
X134095442Y-146425518D01*
G37*
G36*
X132346000Y-148221000D02*
X130544000Y-148221000D01*
X130544000Y-146419000D01*
X132346000Y-146419000D01*
X132346000Y-148221000D01*
X132346000Y-148221000D01*
G37*
G36*
X158463565Y-143443389D02*
X158654834Y-143522615D01*
X158826976Y-143637637D01*
X158973363Y-143784024D01*
X159088385Y-143956166D01*
X159167611Y-144147435D01*
X159208000Y-144350484D01*
X159208000Y-144557516D01*
X159167611Y-144760565D01*
X159088385Y-144951834D01*
X158973363Y-145123976D01*
X158826976Y-145270363D01*
X158654834Y-145385385D01*
X158463565Y-145464611D01*
X158260516Y-145505000D01*
X158053484Y-145505000D01*
X157850435Y-145464611D01*
X157659166Y-145385385D01*
X157574566Y-145328857D01*
X157552956Y-145317306D01*
X157529507Y-145310193D01*
X157505120Y-145307791D01*
X157480734Y-145310193D01*
X157457285Y-145317306D01*
X157435674Y-145328857D01*
X157416732Y-145344402D01*
X157401186Y-145363345D01*
X157389635Y-145384955D01*
X157382522Y-145408404D01*
X157380120Y-145432791D01*
X157382522Y-145457178D01*
X157383000Y-145459581D01*
X157383000Y-145548421D01*
X157365669Y-145635552D01*
X157331673Y-145717625D01*
X157331671Y-145717629D01*
X157282314Y-145791496D01*
X157282311Y-145791500D01*
X157219500Y-145854311D01*
X157219497Y-145854313D01*
X157219496Y-145854314D01*
X157145629Y-145903671D01*
X157145626Y-145903672D01*
X157145625Y-145903673D01*
X157063552Y-145937669D01*
X156976421Y-145955000D01*
X156887579Y-145955000D01*
X156800448Y-145937669D01*
X156718375Y-145903673D01*
X156718374Y-145903672D01*
X156718371Y-145903671D01*
X156644504Y-145854314D01*
X156644503Y-145854313D01*
X156644500Y-145854311D01*
X156581689Y-145791500D01*
X156581686Y-145791496D01*
X156532329Y-145717629D01*
X156532327Y-145717625D01*
X156498331Y-145635552D01*
X156481000Y-145548421D01*
X156481000Y-145459579D01*
X156498331Y-145372448D01*
X156532327Y-145290375D01*
X156532328Y-145290374D01*
X156532329Y-145290371D01*
X156581686Y-145216504D01*
X156581687Y-145216503D01*
X156581689Y-145216500D01*
X156644500Y-145153689D01*
X156688968Y-145123976D01*
X156718371Y-145104329D01*
X156718374Y-145104328D01*
X156718375Y-145104327D01*
X156800448Y-145070331D01*
X156887579Y-145053000D01*
X156976422Y-145053000D01*
X157064293Y-145070478D01*
X157088679Y-145072880D01*
X157113065Y-145070478D01*
X157136514Y-145063365D01*
X157158125Y-145051813D01*
X157177067Y-145036268D01*
X157192612Y-145017326D01*
X157204163Y-144995715D01*
X157211276Y-144972265D01*
X157213678Y-144947879D01*
X157211276Y-144923493D01*
X157204163Y-144900045D01*
X157146389Y-144760566D01*
X157106000Y-144557516D01*
X157106000Y-144350484D01*
X157146389Y-144147435D01*
X157225615Y-143956166D01*
X157340637Y-143784024D01*
X157487024Y-143637637D01*
X157659166Y-143522615D01*
X157850435Y-143443389D01*
X158053484Y-143403000D01*
X158260516Y-143403000D01*
X158463565Y-143443389D01*
X158463565Y-143443389D01*
G37*
G36*
X151013565Y-143443389D02*
X151204834Y-143522615D01*
X151376976Y-143637637D01*
X151523363Y-143784024D01*
X151638385Y-143956166D01*
X151717611Y-144147435D01*
X151758000Y-144350484D01*
X151758000Y-144557516D01*
X151717611Y-144760566D01*
X151659837Y-144900045D01*
X151652724Y-144923494D01*
X151650322Y-144947880D01*
X151652724Y-144972267D01*
X151659837Y-144995716D01*
X151671388Y-145017326D01*
X151686934Y-145036269D01*
X151705876Y-145051814D01*
X151727487Y-145063365D01*
X151750936Y-145070478D01*
X151775322Y-145072880D01*
X151799707Y-145070478D01*
X151887578Y-145053000D01*
X151976421Y-145053000D01*
X152063552Y-145070331D01*
X152145625Y-145104327D01*
X152145626Y-145104328D01*
X152145629Y-145104329D01*
X152175032Y-145123976D01*
X152219500Y-145153689D01*
X152282311Y-145216500D01*
X152282313Y-145216503D01*
X152282314Y-145216504D01*
X152331671Y-145290371D01*
X152331672Y-145290374D01*
X152331673Y-145290375D01*
X152365669Y-145372448D01*
X152383000Y-145459579D01*
X152383000Y-145548421D01*
X152365669Y-145635552D01*
X152331673Y-145717625D01*
X152331671Y-145717629D01*
X152282314Y-145791496D01*
X152282311Y-145791500D01*
X152219500Y-145854311D01*
X152219497Y-145854313D01*
X152219496Y-145854314D01*
X152145629Y-145903671D01*
X152145626Y-145903672D01*
X152145625Y-145903673D01*
X152063552Y-145937669D01*
X151976421Y-145955000D01*
X151887579Y-145955000D01*
X151800448Y-145937669D01*
X151718375Y-145903673D01*
X151718374Y-145903672D01*
X151718371Y-145903671D01*
X151644504Y-145854314D01*
X151644503Y-145854313D01*
X151644500Y-145854311D01*
X151581689Y-145791500D01*
X151581686Y-145791496D01*
X151532329Y-145717629D01*
X151532327Y-145717625D01*
X151498331Y-145635552D01*
X151481000Y-145548421D01*
X151481000Y-145459581D01*
X151481478Y-145457178D01*
X151483880Y-145432792D01*
X151481478Y-145408406D01*
X151474365Y-145384957D01*
X151462814Y-145363346D01*
X151447269Y-145344404D01*
X151428327Y-145328858D01*
X151406717Y-145317307D01*
X151383267Y-145310193D01*
X151358881Y-145307791D01*
X151334495Y-145310193D01*
X151311046Y-145317306D01*
X151289434Y-145328857D01*
X151204834Y-145385385D01*
X151013565Y-145464611D01*
X150810516Y-145505000D01*
X150603484Y-145505000D01*
X150400435Y-145464611D01*
X150209166Y-145385385D01*
X150037024Y-145270363D01*
X149890637Y-145123976D01*
X149775615Y-144951834D01*
X149696389Y-144760565D01*
X149656000Y-144557516D01*
X149656000Y-144350484D01*
X149696389Y-144147435D01*
X149775615Y-143956166D01*
X149890637Y-143784024D01*
X150037024Y-143637637D01*
X150209166Y-143522615D01*
X150400435Y-143443389D01*
X150603484Y-143403000D01*
X150810516Y-143403000D01*
X151013565Y-143443389D01*
X151013565Y-143443389D01*
G37*
G36*
X156008000Y-145105000D02*
X152856000Y-145105000D01*
X152856000Y-143703000D01*
X156008000Y-143703000D01*
X156008000Y-145105000D01*
X156008000Y-145105000D01*
G37*
G36*
X147656677Y-141112465D02*
X147694364Y-141123898D01*
X147729103Y-141142466D01*
X147759548Y-141167452D01*
X147784534Y-141197897D01*
X147803102Y-141232636D01*
X147814535Y-141270323D01*
X147819000Y-141315661D01*
X147819000Y-142402339D01*
X147814535Y-142447677D01*
X147803102Y-142485364D01*
X147784534Y-142520103D01*
X147759548Y-142550548D01*
X147729103Y-142575534D01*
X147694364Y-142594102D01*
X147656677Y-142605535D01*
X147611339Y-142610000D01*
X146774661Y-142610000D01*
X146729323Y-142605535D01*
X146691636Y-142594102D01*
X146656897Y-142575534D01*
X146626452Y-142550548D01*
X146601466Y-142520103D01*
X146582898Y-142485364D01*
X146571465Y-142447677D01*
X146567000Y-142402339D01*
X146567000Y-141315661D01*
X146571465Y-141270323D01*
X146582898Y-141232636D01*
X146601466Y-141197897D01*
X146626452Y-141167452D01*
X146656897Y-141142466D01*
X146691636Y-141123898D01*
X146729323Y-141112465D01*
X146774661Y-141108000D01*
X147611339Y-141108000D01*
X147656677Y-141112465D01*
X147656677Y-141112465D01*
G37*
G36*
X145606677Y-141112465D02*
X145644364Y-141123898D01*
X145679103Y-141142466D01*
X145709548Y-141167452D01*
X145734534Y-141197897D01*
X145753102Y-141232636D01*
X145764535Y-141270323D01*
X145769000Y-141315661D01*
X145769000Y-142402339D01*
X145764535Y-142447677D01*
X145753102Y-142485364D01*
X145734534Y-142520103D01*
X145709548Y-142550548D01*
X145679103Y-142575534D01*
X145644364Y-142594102D01*
X145606677Y-142605535D01*
X145561339Y-142610000D01*
X144724661Y-142610000D01*
X144679323Y-142605535D01*
X144641636Y-142594102D01*
X144606897Y-142575534D01*
X144576452Y-142550548D01*
X144551466Y-142520103D01*
X144532898Y-142485364D01*
X144521465Y-142447677D01*
X144517000Y-142402339D01*
X144517000Y-141315661D01*
X144521465Y-141270323D01*
X144532898Y-141232636D01*
X144551466Y-141197897D01*
X144576452Y-141167452D01*
X144606897Y-141142466D01*
X144641636Y-141123898D01*
X144679323Y-141112465D01*
X144724661Y-141108000D01*
X145561339Y-141108000D01*
X145606677Y-141112465D01*
X145606677Y-141112465D01*
G37*
G36*
X157756000Y-142171000D02*
X155154000Y-142171000D01*
X155154000Y-139769000D01*
X157756000Y-139769000D01*
X157756000Y-142171000D01*
X157756000Y-142171000D01*
G37*
G36*
X153456000Y-142171000D02*
X150854000Y-142171000D01*
X150854000Y-139769000D01*
X153456000Y-139769000D01*
X153456000Y-142171000D01*
X153456000Y-142171000D01*
G37*
G36*
X134730443Y-139821519D02*
X134796627Y-139828037D01*
X134909853Y-139862384D01*
X134966467Y-139879557D01*
X135105087Y-139953652D01*
X135122991Y-139963222D01*
X135158729Y-139992552D01*
X135260186Y-140075814D01*
X135343448Y-140177271D01*
X135372778Y-140213009D01*
X135372779Y-140213011D01*
X135456443Y-140369533D01*
X135456443Y-140369534D01*
X135507963Y-140539373D01*
X135525359Y-140716000D01*
X135507963Y-140892627D01*
X135473616Y-141005853D01*
X135456443Y-141062467D01*
X135389494Y-141187718D01*
X135372778Y-141218991D01*
X135343448Y-141254729D01*
X135260186Y-141356186D01*
X135158729Y-141439448D01*
X135122991Y-141468778D01*
X135122989Y-141468779D01*
X134966467Y-141552443D01*
X134909853Y-141569616D01*
X134796627Y-141603963D01*
X134730443Y-141610481D01*
X134664260Y-141617000D01*
X134575740Y-141617000D01*
X134509557Y-141610481D01*
X134443373Y-141603963D01*
X134330147Y-141569616D01*
X134273533Y-141552443D01*
X134117011Y-141468779D01*
X134117009Y-141468778D01*
X134081271Y-141439448D01*
X133979814Y-141356186D01*
X133896552Y-141254729D01*
X133867222Y-141218991D01*
X133850506Y-141187718D01*
X133783557Y-141062467D01*
X133766384Y-141005853D01*
X133732037Y-140892627D01*
X133714641Y-140716000D01*
X133732037Y-140539373D01*
X133783557Y-140369534D01*
X133783557Y-140369533D01*
X133867221Y-140213011D01*
X133867222Y-140213009D01*
X133896552Y-140177271D01*
X133979814Y-140075814D01*
X134081271Y-139992552D01*
X134117009Y-139963222D01*
X134134913Y-139953652D01*
X134273533Y-139879557D01*
X134330147Y-139862384D01*
X134443373Y-139828037D01*
X134509557Y-139821519D01*
X134575740Y-139815000D01*
X134664260Y-139815000D01*
X134730443Y-139821519D01*
X134730443Y-139821519D01*
G37*
G36*
X132981000Y-141617000D02*
X131179000Y-141617000D01*
X131179000Y-139815000D01*
X132981000Y-139815000D01*
X132981000Y-141617000D01*
X132981000Y-141617000D01*
G37*
G36*
X134730442Y-137281518D02*
X134796627Y-137288037D01*
X134909853Y-137322384D01*
X134966467Y-137339557D01*
X135105087Y-137413652D01*
X135122991Y-137423222D01*
X135158729Y-137452552D01*
X135260186Y-137535814D01*
X135343448Y-137637271D01*
X135372778Y-137673009D01*
X135372779Y-137673011D01*
X135456443Y-137829533D01*
X135456443Y-137829534D01*
X135507963Y-137999373D01*
X135525359Y-138176000D01*
X135507963Y-138352627D01*
X135489214Y-138414435D01*
X135456443Y-138522467D01*
X135382348Y-138661087D01*
X135372778Y-138678991D01*
X135343448Y-138714729D01*
X135260186Y-138816186D01*
X135158729Y-138899448D01*
X135122991Y-138928778D01*
X135122989Y-138928779D01*
X134966467Y-139012443D01*
X134909853Y-139029616D01*
X134796627Y-139063963D01*
X134730442Y-139070482D01*
X134664260Y-139077000D01*
X134575740Y-139077000D01*
X134509558Y-139070482D01*
X134443373Y-139063963D01*
X134330147Y-139029616D01*
X134273533Y-139012443D01*
X134117011Y-138928779D01*
X134117009Y-138928778D01*
X134081271Y-138899448D01*
X133979814Y-138816186D01*
X133896552Y-138714729D01*
X133867222Y-138678991D01*
X133857652Y-138661087D01*
X133783557Y-138522467D01*
X133750786Y-138414435D01*
X133732037Y-138352627D01*
X133714641Y-138176000D01*
X133732037Y-137999373D01*
X133783557Y-137829534D01*
X133783557Y-137829533D01*
X133867221Y-137673011D01*
X133867222Y-137673009D01*
X133896552Y-137637271D01*
X133979814Y-137535814D01*
X134081271Y-137452552D01*
X134117009Y-137423222D01*
X134134913Y-137413652D01*
X134273533Y-137339557D01*
X134330147Y-137322384D01*
X134443373Y-137288037D01*
X134509558Y-137281518D01*
X134575740Y-137275000D01*
X134664260Y-137275000D01*
X134730442Y-137281518D01*
X134730442Y-137281518D01*
G37*
G36*
X132190442Y-137281518D02*
X132256627Y-137288037D01*
X132369853Y-137322384D01*
X132426467Y-137339557D01*
X132565087Y-137413652D01*
X132582991Y-137423222D01*
X132618729Y-137452552D01*
X132720186Y-137535814D01*
X132803448Y-137637271D01*
X132832778Y-137673009D01*
X132832779Y-137673011D01*
X132916443Y-137829533D01*
X132916443Y-137829534D01*
X132967963Y-137999373D01*
X132985359Y-138176000D01*
X132967963Y-138352627D01*
X132949214Y-138414435D01*
X132916443Y-138522467D01*
X132842348Y-138661087D01*
X132832778Y-138678991D01*
X132803448Y-138714729D01*
X132720186Y-138816186D01*
X132618729Y-138899448D01*
X132582991Y-138928778D01*
X132582989Y-138928779D01*
X132426467Y-139012443D01*
X132369853Y-139029616D01*
X132256627Y-139063963D01*
X132190442Y-139070482D01*
X132124260Y-139077000D01*
X132035740Y-139077000D01*
X131969558Y-139070482D01*
X131903373Y-139063963D01*
X131790147Y-139029616D01*
X131733533Y-139012443D01*
X131577011Y-138928779D01*
X131577009Y-138928778D01*
X131541271Y-138899448D01*
X131439814Y-138816186D01*
X131356552Y-138714729D01*
X131327222Y-138678991D01*
X131317652Y-138661087D01*
X131243557Y-138522467D01*
X131210786Y-138414435D01*
X131192037Y-138352627D01*
X131174641Y-138176000D01*
X131192037Y-137999373D01*
X131243557Y-137829534D01*
X131243557Y-137829533D01*
X131327221Y-137673011D01*
X131327222Y-137673009D01*
X131356552Y-137637271D01*
X131439814Y-137535814D01*
X131541271Y-137452552D01*
X131577009Y-137423222D01*
X131594913Y-137413652D01*
X131733533Y-137339557D01*
X131790147Y-137322384D01*
X131903373Y-137288037D01*
X131969558Y-137281518D01*
X132035740Y-137275000D01*
X132124260Y-137275000D01*
X132190442Y-137281518D01*
X132190442Y-137281518D01*
G37*
G36*
X147564966Y-136921565D02*
X147603637Y-136933296D01*
X147639279Y-136952348D01*
X147670517Y-136977983D01*
X147696152Y-137009221D01*
X147715204Y-137044863D01*
X147726935Y-137083534D01*
X147731500Y-137129888D01*
X147731500Y-138206112D01*
X147726935Y-138252466D01*
X147715204Y-138291137D01*
X147696152Y-138326779D01*
X147670517Y-138358017D01*
X147639279Y-138383652D01*
X147603637Y-138402704D01*
X147564966Y-138414435D01*
X147518612Y-138419000D01*
X146867388Y-138419000D01*
X146821034Y-138414435D01*
X146782363Y-138402704D01*
X146746721Y-138383652D01*
X146715483Y-138358017D01*
X146689848Y-138326779D01*
X146670796Y-138291137D01*
X146659065Y-138252466D01*
X146654500Y-138206112D01*
X146654500Y-137129888D01*
X146659065Y-137083534D01*
X146670796Y-137044863D01*
X146689848Y-137009221D01*
X146715483Y-136977983D01*
X146746721Y-136952348D01*
X146782363Y-136933296D01*
X146821034Y-136921565D01*
X146867388Y-136917000D01*
X147518612Y-136917000D01*
X147564966Y-136921565D01*
X147564966Y-136921565D01*
G37*
G36*
X145689966Y-136921565D02*
X145728637Y-136933296D01*
X145764279Y-136952348D01*
X145795517Y-136977983D01*
X145821152Y-137009221D01*
X145840204Y-137044863D01*
X145851935Y-137083534D01*
X145856500Y-137129888D01*
X145856500Y-138206112D01*
X145851935Y-138252466D01*
X145840204Y-138291137D01*
X145821152Y-138326779D01*
X145795517Y-138358017D01*
X145764279Y-138383652D01*
X145728637Y-138402704D01*
X145689966Y-138414435D01*
X145643612Y-138419000D01*
X144992388Y-138419000D01*
X144946034Y-138414435D01*
X144907363Y-138402704D01*
X144871721Y-138383652D01*
X144840483Y-138358017D01*
X144814848Y-138326779D01*
X144795796Y-138291137D01*
X144784065Y-138252466D01*
X144779500Y-138206112D01*
X144779500Y-137129888D01*
X144784065Y-137083534D01*
X144795796Y-137044863D01*
X144814848Y-137009221D01*
X144840483Y-136977983D01*
X144871721Y-136952348D01*
X144907363Y-136933296D01*
X144946034Y-136921565D01*
X144992388Y-136917000D01*
X145643612Y-136917000D01*
X145689966Y-136921565D01*
X145689966Y-136921565D01*
G37*
G36*
X141259000Y-138100500D02*
X139157000Y-138100500D01*
X139157000Y-130123500D01*
X141259000Y-130123500D01*
X141259000Y-138100500D01*
X141259000Y-138100500D01*
G37*
G36*
X134730442Y-134741518D02*
X134796627Y-134748037D01*
X134909853Y-134782384D01*
X134966467Y-134799557D01*
X135105087Y-134873652D01*
X135122991Y-134883222D01*
X135158729Y-134912552D01*
X135260186Y-134995814D01*
X135343448Y-135097271D01*
X135372778Y-135133009D01*
X135372779Y-135133011D01*
X135456443Y-135289533D01*
X135463121Y-135311548D01*
X135507963Y-135459373D01*
X135525359Y-135636000D01*
X135507963Y-135812627D01*
X135473616Y-135925853D01*
X135456443Y-135982467D01*
X135382348Y-136121087D01*
X135372778Y-136138991D01*
X135343448Y-136174729D01*
X135260186Y-136276186D01*
X135158729Y-136359448D01*
X135122991Y-136388778D01*
X135122989Y-136388779D01*
X134966467Y-136472443D01*
X134909853Y-136489616D01*
X134796627Y-136523963D01*
X134730443Y-136530481D01*
X134664260Y-136537000D01*
X134575740Y-136537000D01*
X134509557Y-136530481D01*
X134443373Y-136523963D01*
X134330147Y-136489616D01*
X134273533Y-136472443D01*
X134117011Y-136388779D01*
X134117009Y-136388778D01*
X134081271Y-136359448D01*
X133979814Y-136276186D01*
X133896552Y-136174729D01*
X133867222Y-136138991D01*
X133857652Y-136121087D01*
X133783557Y-135982467D01*
X133766384Y-135925853D01*
X133732037Y-135812627D01*
X133714641Y-135636000D01*
X133732037Y-135459373D01*
X133776879Y-135311548D01*
X133783557Y-135289533D01*
X133867221Y-135133011D01*
X133867222Y-135133009D01*
X133896552Y-135097271D01*
X133979814Y-134995814D01*
X134081271Y-134912552D01*
X134117009Y-134883222D01*
X134134913Y-134873652D01*
X134273533Y-134799557D01*
X134330147Y-134782384D01*
X134443373Y-134748037D01*
X134509558Y-134741518D01*
X134575740Y-134735000D01*
X134664260Y-134735000D01*
X134730442Y-134741518D01*
X134730442Y-134741518D01*
G37*
G36*
X132190442Y-134741518D02*
X132256627Y-134748037D01*
X132369853Y-134782384D01*
X132426467Y-134799557D01*
X132565087Y-134873652D01*
X132582991Y-134883222D01*
X132618729Y-134912552D01*
X132720186Y-134995814D01*
X132803448Y-135097271D01*
X132832778Y-135133009D01*
X132832779Y-135133011D01*
X132916443Y-135289533D01*
X132923121Y-135311548D01*
X132967963Y-135459373D01*
X132985359Y-135636000D01*
X132967963Y-135812627D01*
X132933616Y-135925853D01*
X132916443Y-135982467D01*
X132842348Y-136121087D01*
X132832778Y-136138991D01*
X132803448Y-136174729D01*
X132720186Y-136276186D01*
X132618729Y-136359448D01*
X132582991Y-136388778D01*
X132582989Y-136388779D01*
X132426467Y-136472443D01*
X132369853Y-136489616D01*
X132256627Y-136523963D01*
X132190443Y-136530481D01*
X132124260Y-136537000D01*
X132035740Y-136537000D01*
X131969557Y-136530481D01*
X131903373Y-136523963D01*
X131790147Y-136489616D01*
X131733533Y-136472443D01*
X131577011Y-136388779D01*
X131577009Y-136388778D01*
X131541271Y-136359448D01*
X131439814Y-136276186D01*
X131356552Y-136174729D01*
X131327222Y-136138991D01*
X131317652Y-136121087D01*
X131243557Y-135982467D01*
X131226384Y-135925853D01*
X131192037Y-135812627D01*
X131174641Y-135636000D01*
X131192037Y-135459373D01*
X131236879Y-135311548D01*
X131243557Y-135289533D01*
X131327221Y-135133011D01*
X131327222Y-135133009D01*
X131356552Y-135097271D01*
X131439814Y-134995814D01*
X131541271Y-134912552D01*
X131577009Y-134883222D01*
X131594913Y-134873652D01*
X131733533Y-134799557D01*
X131790147Y-134782384D01*
X131903373Y-134748037D01*
X131969558Y-134741518D01*
X132035740Y-134735000D01*
X132124260Y-134735000D01*
X132190442Y-134741518D01*
X132190442Y-134741518D01*
G37*
G36*
X156038677Y-133873465D02*
X156076364Y-133884898D01*
X156111103Y-133903466D01*
X156141548Y-133928452D01*
X156166534Y-133958897D01*
X156185102Y-133993636D01*
X156196535Y-134031323D01*
X156201000Y-134076661D01*
X156201000Y-135163339D01*
X156196535Y-135208677D01*
X156185102Y-135246364D01*
X156166534Y-135281103D01*
X156141548Y-135311548D01*
X156111103Y-135336534D01*
X156076364Y-135355102D01*
X156038677Y-135366535D01*
X155993339Y-135371000D01*
X155156661Y-135371000D01*
X155111323Y-135366535D01*
X155073636Y-135355102D01*
X155038897Y-135336534D01*
X155008452Y-135311548D01*
X154983466Y-135281103D01*
X154964898Y-135246364D01*
X154953465Y-135208677D01*
X154949000Y-135163339D01*
X154949000Y-134076661D01*
X154953465Y-134031323D01*
X154964898Y-133993636D01*
X154983466Y-133958897D01*
X155008452Y-133928452D01*
X155038897Y-133903466D01*
X155073636Y-133884898D01*
X155111323Y-133873465D01*
X155156661Y-133869000D01*
X155993339Y-133869000D01*
X156038677Y-133873465D01*
X156038677Y-133873465D01*
G37*
G36*
X158088677Y-133873465D02*
X158126364Y-133884898D01*
X158161103Y-133903466D01*
X158191548Y-133928452D01*
X158216534Y-133958897D01*
X158235102Y-133993636D01*
X158246535Y-134031323D01*
X158251000Y-134076661D01*
X158251000Y-135163339D01*
X158246535Y-135208677D01*
X158235102Y-135246364D01*
X158216534Y-135281103D01*
X158191548Y-135311548D01*
X158161103Y-135336534D01*
X158126364Y-135355102D01*
X158088677Y-135366535D01*
X158043339Y-135371000D01*
X157206661Y-135371000D01*
X157161323Y-135366535D01*
X157123636Y-135355102D01*
X157088897Y-135336534D01*
X157058452Y-135311548D01*
X157033466Y-135281103D01*
X157014898Y-135246364D01*
X157003465Y-135208677D01*
X156999000Y-135163339D01*
X156999000Y-134076661D01*
X157003465Y-134031323D01*
X157014898Y-133993636D01*
X157033466Y-133958897D01*
X157058452Y-133928452D01*
X157088897Y-133903466D01*
X157123636Y-133884898D01*
X157161323Y-133873465D01*
X157206661Y-133869000D01*
X158043339Y-133869000D01*
X158088677Y-133873465D01*
X158088677Y-133873465D01*
G37*
G36*
X153888677Y-133873465D02*
X153926364Y-133884898D01*
X153961103Y-133903466D01*
X153991548Y-133928452D01*
X154016534Y-133958897D01*
X154035102Y-133993636D01*
X154046535Y-134031323D01*
X154051000Y-134076661D01*
X154051000Y-135163339D01*
X154046535Y-135208677D01*
X154035102Y-135246364D01*
X154016534Y-135281103D01*
X153991548Y-135311548D01*
X153961103Y-135336534D01*
X153926364Y-135355102D01*
X153888677Y-135366535D01*
X153843339Y-135371000D01*
X153006661Y-135371000D01*
X152961323Y-135366535D01*
X152923636Y-135355102D01*
X152888897Y-135336534D01*
X152858452Y-135311548D01*
X152833466Y-135281103D01*
X152814898Y-135246364D01*
X152803465Y-135208677D01*
X152799000Y-135163339D01*
X152799000Y-134076661D01*
X152803465Y-134031323D01*
X152814898Y-133993636D01*
X152833466Y-133958897D01*
X152858452Y-133928452D01*
X152888897Y-133903466D01*
X152923636Y-133884898D01*
X152961323Y-133873465D01*
X153006661Y-133869000D01*
X153843339Y-133869000D01*
X153888677Y-133873465D01*
X153888677Y-133873465D01*
G37*
G36*
X151838677Y-133873465D02*
X151876364Y-133884898D01*
X151911103Y-133903466D01*
X151941548Y-133928452D01*
X151966534Y-133958897D01*
X151985102Y-133993636D01*
X151996535Y-134031323D01*
X152001000Y-134076661D01*
X152001000Y-135163339D01*
X151996535Y-135208677D01*
X151985102Y-135246364D01*
X151966534Y-135281103D01*
X151941548Y-135311548D01*
X151911103Y-135336534D01*
X151876364Y-135355102D01*
X151838677Y-135366535D01*
X151793339Y-135371000D01*
X150956661Y-135371000D01*
X150911323Y-135366535D01*
X150873636Y-135355102D01*
X150838897Y-135336534D01*
X150808452Y-135311548D01*
X150783466Y-135281103D01*
X150764898Y-135246364D01*
X150753465Y-135208677D01*
X150749000Y-135163339D01*
X150749000Y-134076661D01*
X150753465Y-134031323D01*
X150764898Y-133993636D01*
X150783466Y-133958897D01*
X150808452Y-133928452D01*
X150838897Y-133903466D01*
X150873636Y-133884898D01*
X150911323Y-133873465D01*
X150956661Y-133869000D01*
X151793339Y-133869000D01*
X151838677Y-133873465D01*
X151838677Y-133873465D01*
G37*
G36*
X134730442Y-132201518D02*
X134796627Y-132208037D01*
X134909853Y-132242384D01*
X134966467Y-132259557D01*
X135105087Y-132333652D01*
X135122991Y-132343222D01*
X135131530Y-132350230D01*
X135260186Y-132455814D01*
X135339665Y-132552661D01*
X135372778Y-132593009D01*
X135372779Y-132593011D01*
X135456443Y-132749533D01*
X135456443Y-132749534D01*
X135507963Y-132919373D01*
X135525359Y-133096000D01*
X135507963Y-133272627D01*
X135473616Y-133385853D01*
X135456443Y-133442467D01*
X135385694Y-133574827D01*
X135372778Y-133598991D01*
X135349032Y-133627925D01*
X135260186Y-133736186D01*
X135181049Y-133801131D01*
X135122991Y-133848778D01*
X135122989Y-133848779D01*
X134966467Y-133932443D01*
X134912814Y-133948718D01*
X134796627Y-133983963D01*
X134735717Y-133989962D01*
X134664260Y-133997000D01*
X134575740Y-133997000D01*
X134504283Y-133989962D01*
X134443373Y-133983963D01*
X134327186Y-133948718D01*
X134273533Y-133932443D01*
X134117011Y-133848779D01*
X134117009Y-133848778D01*
X134058951Y-133801131D01*
X133979814Y-133736186D01*
X133890968Y-133627925D01*
X133867222Y-133598991D01*
X133854306Y-133574827D01*
X133783557Y-133442467D01*
X133766384Y-133385853D01*
X133732037Y-133272627D01*
X133714641Y-133096000D01*
X133732037Y-132919373D01*
X133783557Y-132749534D01*
X133783557Y-132749533D01*
X133867221Y-132593011D01*
X133867222Y-132593009D01*
X133900335Y-132552661D01*
X133979814Y-132455814D01*
X134108470Y-132350230D01*
X134117009Y-132343222D01*
X134134913Y-132333652D01*
X134273533Y-132259557D01*
X134330147Y-132242384D01*
X134443373Y-132208037D01*
X134509558Y-132201518D01*
X134575740Y-132195000D01*
X134664260Y-132195000D01*
X134730442Y-132201518D01*
X134730442Y-132201518D01*
G37*
G36*
X132190442Y-132201518D02*
X132256627Y-132208037D01*
X132369853Y-132242384D01*
X132426467Y-132259557D01*
X132565087Y-132333652D01*
X132582991Y-132343222D01*
X132591530Y-132350230D01*
X132720186Y-132455814D01*
X132799665Y-132552661D01*
X132832778Y-132593009D01*
X132832779Y-132593011D01*
X132916443Y-132749533D01*
X132916443Y-132749534D01*
X132967963Y-132919373D01*
X132985359Y-133096000D01*
X132967963Y-133272627D01*
X132933616Y-133385853D01*
X132916443Y-133442467D01*
X132845694Y-133574827D01*
X132832778Y-133598991D01*
X132809032Y-133627925D01*
X132720186Y-133736186D01*
X132641049Y-133801131D01*
X132582991Y-133848778D01*
X132582989Y-133848779D01*
X132426467Y-133932443D01*
X132372814Y-133948718D01*
X132256627Y-133983963D01*
X132195717Y-133989962D01*
X132124260Y-133997000D01*
X132035740Y-133997000D01*
X131964283Y-133989962D01*
X131903373Y-133983963D01*
X131787186Y-133948718D01*
X131733533Y-133932443D01*
X131577011Y-133848779D01*
X131577009Y-133848778D01*
X131518951Y-133801131D01*
X131439814Y-133736186D01*
X131350968Y-133627925D01*
X131327222Y-133598991D01*
X131314306Y-133574827D01*
X131243557Y-133442467D01*
X131226384Y-133385853D01*
X131192037Y-133272627D01*
X131174641Y-133096000D01*
X131192037Y-132919373D01*
X131243557Y-132749534D01*
X131243557Y-132749533D01*
X131327221Y-132593011D01*
X131327222Y-132593009D01*
X131360335Y-132552661D01*
X131439814Y-132455814D01*
X131568470Y-132350230D01*
X131577009Y-132343222D01*
X131594913Y-132333652D01*
X131733533Y-132259557D01*
X131790147Y-132242384D01*
X131903373Y-132208037D01*
X131969558Y-132201518D01*
X132035740Y-132195000D01*
X132124260Y-132195000D01*
X132190442Y-132201518D01*
X132190442Y-132201518D01*
G37*
G36*
X147783677Y-132349465D02*
X147821364Y-132360898D01*
X147856103Y-132379466D01*
X147886548Y-132404452D01*
X147911534Y-132434897D01*
X147930102Y-132469636D01*
X147941535Y-132507323D01*
X147946000Y-132552661D01*
X147946000Y-133639339D01*
X147941535Y-133684677D01*
X147930102Y-133722364D01*
X147911534Y-133757103D01*
X147886548Y-133787548D01*
X147856103Y-133812534D01*
X147821364Y-133831102D01*
X147783677Y-133842535D01*
X147738339Y-133847000D01*
X146901661Y-133847000D01*
X146856323Y-133842535D01*
X146818636Y-133831102D01*
X146783897Y-133812534D01*
X146753452Y-133787548D01*
X146728466Y-133757103D01*
X146709898Y-133722364D01*
X146698465Y-133684677D01*
X146694000Y-133639339D01*
X146694000Y-132552661D01*
X146698465Y-132507323D01*
X146709898Y-132469636D01*
X146728466Y-132434897D01*
X146753452Y-132404452D01*
X146783897Y-132379466D01*
X146818636Y-132360898D01*
X146856323Y-132349465D01*
X146901661Y-132345000D01*
X147738339Y-132345000D01*
X147783677Y-132349465D01*
X147783677Y-132349465D01*
G37*
G36*
X145733677Y-132349465D02*
X145771364Y-132360898D01*
X145806103Y-132379466D01*
X145836548Y-132404452D01*
X145861534Y-132434897D01*
X145880102Y-132469636D01*
X145891535Y-132507323D01*
X145896000Y-132552661D01*
X145896000Y-133639339D01*
X145891535Y-133684677D01*
X145880102Y-133722364D01*
X145861534Y-133757103D01*
X145836548Y-133787548D01*
X145806103Y-133812534D01*
X145771364Y-133831102D01*
X145733677Y-133842535D01*
X145688339Y-133847000D01*
X144851661Y-133847000D01*
X144806323Y-133842535D01*
X144768636Y-133831102D01*
X144733897Y-133812534D01*
X144703452Y-133787548D01*
X144678466Y-133757103D01*
X144659898Y-133722364D01*
X144648465Y-133684677D01*
X144644000Y-133639339D01*
X144644000Y-132552661D01*
X144648465Y-132507323D01*
X144659898Y-132469636D01*
X144678466Y-132434897D01*
X144703452Y-132404452D01*
X144733897Y-132379466D01*
X144768636Y-132360898D01*
X144806323Y-132349465D01*
X144851661Y-132345000D01*
X145688339Y-132345000D01*
X145733677Y-132349465D01*
X145733677Y-132349465D01*
G37*
G36*
X132190442Y-129661518D02*
X132256627Y-129668037D01*
X132369853Y-129702384D01*
X132426467Y-129719557D01*
X132565087Y-129793652D01*
X132582991Y-129803222D01*
X132618729Y-129832552D01*
X132720186Y-129915814D01*
X132803448Y-130017271D01*
X132832778Y-130053009D01*
X132832779Y-130053011D01*
X132916443Y-130209533D01*
X132916443Y-130209534D01*
X132967963Y-130379373D01*
X132985359Y-130556000D01*
X132967963Y-130732627D01*
X132933616Y-130845853D01*
X132916443Y-130902467D01*
X132842348Y-131041087D01*
X132832778Y-131058991D01*
X132803448Y-131094729D01*
X132720186Y-131196186D01*
X132618729Y-131279448D01*
X132582991Y-131308778D01*
X132582989Y-131308779D01*
X132426467Y-131392443D01*
X132369853Y-131409616D01*
X132256627Y-131443963D01*
X132190442Y-131450482D01*
X132124260Y-131457000D01*
X132035740Y-131457000D01*
X131969558Y-131450482D01*
X131903373Y-131443963D01*
X131790147Y-131409616D01*
X131733533Y-131392443D01*
X131577011Y-131308779D01*
X131577009Y-131308778D01*
X131541271Y-131279448D01*
X131439814Y-131196186D01*
X131356552Y-131094729D01*
X131327222Y-131058991D01*
X131317652Y-131041087D01*
X131243557Y-130902467D01*
X131226384Y-130845853D01*
X131192037Y-130732627D01*
X131174641Y-130556000D01*
X131192037Y-130379373D01*
X131243557Y-130209534D01*
X131243557Y-130209533D01*
X131327221Y-130053011D01*
X131327222Y-130053009D01*
X131356552Y-130017271D01*
X131439814Y-129915814D01*
X131541271Y-129832552D01*
X131577009Y-129803222D01*
X131594913Y-129793652D01*
X131733533Y-129719557D01*
X131790147Y-129702384D01*
X131903373Y-129668037D01*
X131969558Y-129661518D01*
X132035740Y-129655000D01*
X132124260Y-129655000D01*
X132190442Y-129661518D01*
X132190442Y-129661518D01*
G37*
G36*
X134730442Y-129661518D02*
X134796627Y-129668037D01*
X134909853Y-129702384D01*
X134966467Y-129719557D01*
X135105087Y-129793652D01*
X135122991Y-129803222D01*
X135158729Y-129832552D01*
X135260186Y-129915814D01*
X135343448Y-130017271D01*
X135372778Y-130053009D01*
X135372779Y-130053011D01*
X135456443Y-130209533D01*
X135456443Y-130209534D01*
X135507963Y-130379373D01*
X135525359Y-130556000D01*
X135507963Y-130732627D01*
X135473616Y-130845853D01*
X135456443Y-130902467D01*
X135382348Y-131041087D01*
X135372778Y-131058991D01*
X135343448Y-131094729D01*
X135260186Y-131196186D01*
X135158729Y-131279448D01*
X135122991Y-131308778D01*
X135122989Y-131308779D01*
X134966467Y-131392443D01*
X134909853Y-131409616D01*
X134796627Y-131443963D01*
X134730442Y-131450482D01*
X134664260Y-131457000D01*
X134575740Y-131457000D01*
X134509558Y-131450482D01*
X134443373Y-131443963D01*
X134330147Y-131409616D01*
X134273533Y-131392443D01*
X134117011Y-131308779D01*
X134117009Y-131308778D01*
X134081271Y-131279448D01*
X133979814Y-131196186D01*
X133896552Y-131094729D01*
X133867222Y-131058991D01*
X133857652Y-131041087D01*
X133783557Y-130902467D01*
X133766384Y-130845853D01*
X133732037Y-130732627D01*
X133714641Y-130556000D01*
X133732037Y-130379373D01*
X133783557Y-130209534D01*
X133783557Y-130209533D01*
X133867221Y-130053011D01*
X133867222Y-130053009D01*
X133896552Y-130017271D01*
X133979814Y-129915814D01*
X134081271Y-129832552D01*
X134117009Y-129803222D01*
X134134913Y-129793652D01*
X134273533Y-129719557D01*
X134330147Y-129702384D01*
X134443373Y-129668037D01*
X134509558Y-129661518D01*
X134575740Y-129655000D01*
X134664260Y-129655000D01*
X134730442Y-129661518D01*
X134730442Y-129661518D01*
G37*
G36*
X158481000Y-130736000D02*
X156379000Y-130736000D01*
X156379000Y-129134000D01*
X158481000Y-129134000D01*
X158481000Y-130736000D01*
X158481000Y-130736000D01*
G37*
G36*
X152181000Y-129586000D02*
X150079000Y-129586000D01*
X150079000Y-125684000D01*
X152181000Y-125684000D01*
X152181000Y-129586000D01*
X152181000Y-129586000D01*
G37*
G36*
X132190443Y-127121519D02*
X132256627Y-127128037D01*
X132369853Y-127162384D01*
X132426467Y-127179557D01*
X132565087Y-127253652D01*
X132582991Y-127263222D01*
X132618729Y-127292552D01*
X132720186Y-127375814D01*
X132803448Y-127477271D01*
X132832778Y-127513009D01*
X132832779Y-127513011D01*
X132916443Y-127669533D01*
X132916443Y-127669534D01*
X132967963Y-127839373D01*
X132985359Y-128016000D01*
X132967963Y-128192627D01*
X132933616Y-128305853D01*
X132916443Y-128362467D01*
X132877138Y-128436000D01*
X132832778Y-128518991D01*
X132803448Y-128554729D01*
X132720186Y-128656186D01*
X132618729Y-128739448D01*
X132582991Y-128768778D01*
X132582989Y-128768779D01*
X132426467Y-128852443D01*
X132369853Y-128869616D01*
X132256627Y-128903963D01*
X132190442Y-128910482D01*
X132124260Y-128917000D01*
X132035740Y-128917000D01*
X131969558Y-128910482D01*
X131903373Y-128903963D01*
X131790147Y-128869616D01*
X131733533Y-128852443D01*
X131577011Y-128768779D01*
X131577009Y-128768778D01*
X131541271Y-128739448D01*
X131439814Y-128656186D01*
X131356552Y-128554729D01*
X131327222Y-128518991D01*
X131282862Y-128436000D01*
X131243557Y-128362467D01*
X131226384Y-128305853D01*
X131192037Y-128192627D01*
X131174641Y-128016000D01*
X131192037Y-127839373D01*
X131243557Y-127669534D01*
X131243557Y-127669533D01*
X131327221Y-127513011D01*
X131327222Y-127513009D01*
X131356552Y-127477271D01*
X131439814Y-127375814D01*
X131541271Y-127292552D01*
X131577009Y-127263222D01*
X131594913Y-127253652D01*
X131733533Y-127179557D01*
X131790147Y-127162384D01*
X131903373Y-127128037D01*
X131969557Y-127121519D01*
X132035740Y-127115000D01*
X132124260Y-127115000D01*
X132190443Y-127121519D01*
X132190443Y-127121519D01*
G37*
G36*
X134730443Y-127121519D02*
X134796627Y-127128037D01*
X134909853Y-127162384D01*
X134966467Y-127179557D01*
X135105087Y-127253652D01*
X135122991Y-127263222D01*
X135158729Y-127292552D01*
X135260186Y-127375814D01*
X135343448Y-127477271D01*
X135372778Y-127513009D01*
X135372779Y-127513011D01*
X135456443Y-127669533D01*
X135456443Y-127669534D01*
X135507963Y-127839373D01*
X135525359Y-128016000D01*
X135507963Y-128192627D01*
X135473616Y-128305853D01*
X135456443Y-128362467D01*
X135417138Y-128436000D01*
X135372778Y-128518991D01*
X135343448Y-128554729D01*
X135260186Y-128656186D01*
X135158729Y-128739448D01*
X135122991Y-128768778D01*
X135122989Y-128768779D01*
X134966467Y-128852443D01*
X134909853Y-128869616D01*
X134796627Y-128903963D01*
X134730442Y-128910482D01*
X134664260Y-128917000D01*
X134575740Y-128917000D01*
X134509558Y-128910482D01*
X134443373Y-128903963D01*
X134330147Y-128869616D01*
X134273533Y-128852443D01*
X134117011Y-128768779D01*
X134117009Y-128768778D01*
X134081271Y-128739448D01*
X133979814Y-128656186D01*
X133896552Y-128554729D01*
X133867222Y-128518991D01*
X133822862Y-128436000D01*
X133783557Y-128362467D01*
X133766384Y-128305853D01*
X133732037Y-128192627D01*
X133714641Y-128016000D01*
X133732037Y-127839373D01*
X133783557Y-127669534D01*
X133783557Y-127669533D01*
X133867221Y-127513011D01*
X133867222Y-127513009D01*
X133896552Y-127477271D01*
X133979814Y-127375814D01*
X134081271Y-127292552D01*
X134117009Y-127263222D01*
X134134913Y-127253652D01*
X134273533Y-127179557D01*
X134330147Y-127162384D01*
X134443373Y-127128037D01*
X134509557Y-127121519D01*
X134575740Y-127115000D01*
X134664260Y-127115000D01*
X134730443Y-127121519D01*
X134730443Y-127121519D01*
G37*
G36*
X158481000Y-128436000D02*
X156379000Y-128436000D01*
X156379000Y-126834000D01*
X158481000Y-126834000D01*
X158481000Y-128436000D01*
X158481000Y-128436000D01*
G37*
G36*
X147801677Y-126634465D02*
X147839364Y-126645898D01*
X147874103Y-126664466D01*
X147904548Y-126689452D01*
X147929534Y-126719897D01*
X147948102Y-126754636D01*
X147959535Y-126792323D01*
X147964000Y-126837661D01*
X147964000Y-127924339D01*
X147959535Y-127969677D01*
X147948102Y-128007364D01*
X147929534Y-128042103D01*
X147904548Y-128072548D01*
X147874103Y-128097534D01*
X147839364Y-128116102D01*
X147801677Y-128127535D01*
X147756339Y-128132000D01*
X146919661Y-128132000D01*
X146874323Y-128127535D01*
X146836636Y-128116102D01*
X146801897Y-128097534D01*
X146771452Y-128072548D01*
X146746466Y-128042103D01*
X146727898Y-128007364D01*
X146716465Y-127969677D01*
X146712000Y-127924339D01*
X146712000Y-126837661D01*
X146716465Y-126792323D01*
X146727898Y-126754636D01*
X146746466Y-126719897D01*
X146771452Y-126689452D01*
X146801897Y-126664466D01*
X146836636Y-126645898D01*
X146874323Y-126634465D01*
X146919661Y-126630000D01*
X147756339Y-126630000D01*
X147801677Y-126634465D01*
X147801677Y-126634465D01*
G37*
G36*
X145751677Y-126634465D02*
X145789364Y-126645898D01*
X145824103Y-126664466D01*
X145854548Y-126689452D01*
X145879534Y-126719897D01*
X145898102Y-126754636D01*
X145909535Y-126792323D01*
X145914000Y-126837661D01*
X145914000Y-127924339D01*
X145909535Y-127969677D01*
X145898102Y-128007364D01*
X145879534Y-128042103D01*
X145854548Y-128072548D01*
X145824103Y-128097534D01*
X145789364Y-128116102D01*
X145751677Y-128127535D01*
X145706339Y-128132000D01*
X144869661Y-128132000D01*
X144824323Y-128127535D01*
X144786636Y-128116102D01*
X144751897Y-128097534D01*
X144721452Y-128072548D01*
X144696466Y-128042103D01*
X144677898Y-128007364D01*
X144666465Y-127969677D01*
X144662000Y-127924339D01*
X144662000Y-126837661D01*
X144666465Y-126792323D01*
X144677898Y-126754636D01*
X144696466Y-126719897D01*
X144721452Y-126689452D01*
X144751897Y-126664466D01*
X144786636Y-126645898D01*
X144824323Y-126634465D01*
X144869661Y-126630000D01*
X145706339Y-126630000D01*
X145751677Y-126634465D01*
X145751677Y-126634465D01*
G37*
G36*
X132190443Y-124581519D02*
X132256627Y-124588037D01*
X132369853Y-124622384D01*
X132426467Y-124639557D01*
X132565087Y-124713652D01*
X132582991Y-124723222D01*
X132618729Y-124752552D01*
X132720186Y-124835814D01*
X132803448Y-124937271D01*
X132832778Y-124973009D01*
X132832779Y-124973011D01*
X132916443Y-125129533D01*
X132916443Y-125129534D01*
X132967963Y-125299373D01*
X132985359Y-125476000D01*
X132967963Y-125652627D01*
X132958446Y-125684000D01*
X132916443Y-125822467D01*
X132842348Y-125961087D01*
X132832778Y-125978991D01*
X132803448Y-126014729D01*
X132720186Y-126116186D01*
X132618729Y-126199448D01*
X132582991Y-126228778D01*
X132582989Y-126228779D01*
X132426467Y-126312443D01*
X132369853Y-126329616D01*
X132256627Y-126363963D01*
X132190442Y-126370482D01*
X132124260Y-126377000D01*
X132035740Y-126377000D01*
X131969558Y-126370482D01*
X131903373Y-126363963D01*
X131790147Y-126329616D01*
X131733533Y-126312443D01*
X131577011Y-126228779D01*
X131577009Y-126228778D01*
X131541271Y-126199448D01*
X131439814Y-126116186D01*
X131356552Y-126014729D01*
X131327222Y-125978991D01*
X131317652Y-125961087D01*
X131243557Y-125822467D01*
X131201554Y-125684000D01*
X131192037Y-125652627D01*
X131174641Y-125476000D01*
X131192037Y-125299373D01*
X131243557Y-125129534D01*
X131243557Y-125129533D01*
X131327221Y-124973011D01*
X131327222Y-124973009D01*
X131356552Y-124937271D01*
X131439814Y-124835814D01*
X131541271Y-124752552D01*
X131577009Y-124723222D01*
X131594913Y-124713652D01*
X131733533Y-124639557D01*
X131790147Y-124622384D01*
X131903373Y-124588037D01*
X131969557Y-124581519D01*
X132035740Y-124575000D01*
X132124260Y-124575000D01*
X132190443Y-124581519D01*
X132190443Y-124581519D01*
G37*
G36*
X134730443Y-124581519D02*
X134796627Y-124588037D01*
X134909853Y-124622384D01*
X134966467Y-124639557D01*
X135105087Y-124713652D01*
X135122991Y-124723222D01*
X135158729Y-124752552D01*
X135260186Y-124835814D01*
X135343448Y-124937271D01*
X135372778Y-124973009D01*
X135372779Y-124973011D01*
X135456443Y-125129533D01*
X135456443Y-125129534D01*
X135507963Y-125299373D01*
X135525359Y-125476000D01*
X135507963Y-125652627D01*
X135498446Y-125684000D01*
X135456443Y-125822467D01*
X135382348Y-125961087D01*
X135372778Y-125978991D01*
X135343448Y-126014729D01*
X135260186Y-126116186D01*
X135158729Y-126199448D01*
X135122991Y-126228778D01*
X135122989Y-126228779D01*
X134966467Y-126312443D01*
X134909853Y-126329616D01*
X134796627Y-126363963D01*
X134730442Y-126370482D01*
X134664260Y-126377000D01*
X134575740Y-126377000D01*
X134509558Y-126370482D01*
X134443373Y-126363963D01*
X134330147Y-126329616D01*
X134273533Y-126312443D01*
X134117011Y-126228779D01*
X134117009Y-126228778D01*
X134081271Y-126199448D01*
X133979814Y-126116186D01*
X133896552Y-126014729D01*
X133867222Y-125978991D01*
X133857652Y-125961087D01*
X133783557Y-125822467D01*
X133741554Y-125684000D01*
X133732037Y-125652627D01*
X133714641Y-125476000D01*
X133732037Y-125299373D01*
X133783557Y-125129534D01*
X133783557Y-125129533D01*
X133867221Y-124973011D01*
X133867222Y-124973009D01*
X133896552Y-124937271D01*
X133979814Y-124835814D01*
X134081271Y-124752552D01*
X134117009Y-124723222D01*
X134134913Y-124713652D01*
X134273533Y-124639557D01*
X134330147Y-124622384D01*
X134443373Y-124588037D01*
X134509557Y-124581519D01*
X134575740Y-124575000D01*
X134664260Y-124575000D01*
X134730443Y-124581519D01*
X134730443Y-124581519D01*
G37*
G36*
X141259000Y-126225500D02*
X139157000Y-126225500D01*
X139157000Y-118248500D01*
X141259000Y-118248500D01*
X141259000Y-126225500D01*
X141259000Y-126225500D01*
G37*
G36*
X158481000Y-126136000D02*
X156379000Y-126136000D01*
X156379000Y-124534000D01*
X158481000Y-124534000D01*
X158481000Y-126136000D01*
X158481000Y-126136000D01*
G37*
G36*
X132190442Y-122041518D02*
X132256627Y-122048037D01*
X132369853Y-122082384D01*
X132426467Y-122099557D01*
X132482530Y-122129524D01*
X132582991Y-122183222D01*
X132586712Y-122186276D01*
X132720186Y-122295814D01*
X132803448Y-122397271D01*
X132832778Y-122433009D01*
X132832779Y-122433011D01*
X132916443Y-122589533D01*
X132916443Y-122589534D01*
X132967963Y-122759373D01*
X132985359Y-122936000D01*
X132967963Y-123112627D01*
X132942360Y-123197028D01*
X132916443Y-123282467D01*
X132864682Y-123379304D01*
X132832778Y-123438991D01*
X132824988Y-123448483D01*
X132720186Y-123576186D01*
X132618729Y-123659448D01*
X132582991Y-123688778D01*
X132582989Y-123688779D01*
X132426467Y-123772443D01*
X132369853Y-123789616D01*
X132256627Y-123823963D01*
X132190443Y-123830481D01*
X132124260Y-123837000D01*
X132035740Y-123837000D01*
X131969557Y-123830481D01*
X131903373Y-123823963D01*
X131790147Y-123789616D01*
X131733533Y-123772443D01*
X131577011Y-123688779D01*
X131577009Y-123688778D01*
X131541271Y-123659448D01*
X131439814Y-123576186D01*
X131335012Y-123448483D01*
X131327222Y-123438991D01*
X131295318Y-123379304D01*
X131243557Y-123282467D01*
X131217640Y-123197028D01*
X131192037Y-123112627D01*
X131174641Y-122936000D01*
X131192037Y-122759373D01*
X131243557Y-122589534D01*
X131243557Y-122589533D01*
X131327221Y-122433011D01*
X131327222Y-122433009D01*
X131356552Y-122397271D01*
X131439814Y-122295814D01*
X131573288Y-122186276D01*
X131577009Y-122183222D01*
X131677470Y-122129524D01*
X131733533Y-122099557D01*
X131790147Y-122082384D01*
X131903373Y-122048037D01*
X131969558Y-122041518D01*
X132035740Y-122035000D01*
X132124260Y-122035000D01*
X132190442Y-122041518D01*
X132190442Y-122041518D01*
G37*
G36*
X134730442Y-122041518D02*
X134796627Y-122048037D01*
X134909853Y-122082384D01*
X134966467Y-122099557D01*
X135022530Y-122129524D01*
X135122991Y-122183222D01*
X135126712Y-122186276D01*
X135260186Y-122295814D01*
X135343448Y-122397271D01*
X135372778Y-122433009D01*
X135372779Y-122433011D01*
X135456443Y-122589533D01*
X135456443Y-122589534D01*
X135507963Y-122759373D01*
X135525359Y-122936000D01*
X135507963Y-123112627D01*
X135482360Y-123197028D01*
X135456443Y-123282467D01*
X135404682Y-123379304D01*
X135372778Y-123438991D01*
X135364988Y-123448483D01*
X135260186Y-123576186D01*
X135158729Y-123659448D01*
X135122991Y-123688778D01*
X135122989Y-123688779D01*
X134966467Y-123772443D01*
X134909853Y-123789616D01*
X134796627Y-123823963D01*
X134730443Y-123830481D01*
X134664260Y-123837000D01*
X134575740Y-123837000D01*
X134509557Y-123830481D01*
X134443373Y-123823963D01*
X134330147Y-123789616D01*
X134273533Y-123772443D01*
X134117011Y-123688779D01*
X134117009Y-123688778D01*
X134081271Y-123659448D01*
X133979814Y-123576186D01*
X133875012Y-123448483D01*
X133867222Y-123438991D01*
X133835318Y-123379304D01*
X133783557Y-123282467D01*
X133757640Y-123197028D01*
X133732037Y-123112627D01*
X133714641Y-122936000D01*
X133732037Y-122759373D01*
X133783557Y-122589534D01*
X133783557Y-122589533D01*
X133867221Y-122433011D01*
X133867222Y-122433009D01*
X133896552Y-122397271D01*
X133979814Y-122295814D01*
X134113288Y-122186276D01*
X134117009Y-122183222D01*
X134217470Y-122129524D01*
X134273533Y-122099557D01*
X134330147Y-122082384D01*
X134443373Y-122048037D01*
X134509558Y-122041518D01*
X134575740Y-122035000D01*
X134664260Y-122035000D01*
X134730442Y-122041518D01*
X134730442Y-122041518D01*
G37*
G36*
X147613699Y-121971666D02*
X147651386Y-121983099D01*
X147686125Y-122001667D01*
X147716570Y-122026653D01*
X147741556Y-122057098D01*
X147760124Y-122091837D01*
X147771557Y-122129524D01*
X147776022Y-122174862D01*
X147776022Y-123261540D01*
X147771557Y-123306878D01*
X147760124Y-123344565D01*
X147741556Y-123379304D01*
X147716570Y-123409749D01*
X147686125Y-123434735D01*
X147651386Y-123453303D01*
X147613699Y-123464736D01*
X147568361Y-123469201D01*
X146731683Y-123469201D01*
X146686345Y-123464736D01*
X146648658Y-123453303D01*
X146613919Y-123434735D01*
X146583474Y-123409749D01*
X146558488Y-123379304D01*
X146539920Y-123344565D01*
X146528487Y-123306878D01*
X146524022Y-123261540D01*
X146524022Y-122174862D01*
X146528487Y-122129524D01*
X146539920Y-122091837D01*
X146558488Y-122057098D01*
X146583474Y-122026653D01*
X146613919Y-122001667D01*
X146648658Y-121983099D01*
X146686345Y-121971666D01*
X146731683Y-121967201D01*
X147568361Y-121967201D01*
X147613699Y-121971666D01*
X147613699Y-121971666D01*
G37*
G36*
X145563699Y-121971666D02*
X145601386Y-121983099D01*
X145636125Y-122001667D01*
X145666570Y-122026653D01*
X145691556Y-122057098D01*
X145710124Y-122091837D01*
X145721557Y-122129524D01*
X145726022Y-122174862D01*
X145726022Y-123261540D01*
X145721557Y-123306878D01*
X145710124Y-123344565D01*
X145691556Y-123379304D01*
X145666570Y-123409749D01*
X145636125Y-123434735D01*
X145601386Y-123453303D01*
X145563699Y-123464736D01*
X145518361Y-123469201D01*
X144681683Y-123469201D01*
X144636345Y-123464736D01*
X144598658Y-123453303D01*
X144563919Y-123434735D01*
X144533474Y-123409749D01*
X144508488Y-123379304D01*
X144489920Y-123344565D01*
X144478487Y-123306878D01*
X144474022Y-123261540D01*
X144474022Y-122174862D01*
X144478487Y-122129524D01*
X144489920Y-122091837D01*
X144508488Y-122057098D01*
X144533474Y-122026653D01*
X144563919Y-122001667D01*
X144598658Y-121983099D01*
X144636345Y-121971666D01*
X144681683Y-121967201D01*
X145518361Y-121967201D01*
X145563699Y-121971666D01*
X145563699Y-121971666D01*
G37*
G36*
X132190443Y-119501519D02*
X132256627Y-119508037D01*
X132351650Y-119536862D01*
X132426467Y-119559557D01*
X132511128Y-119604810D01*
X132582991Y-119643222D01*
X132618729Y-119672552D01*
X132720186Y-119755814D01*
X132803448Y-119857271D01*
X132832778Y-119893009D01*
X132832779Y-119893011D01*
X132916443Y-120049533D01*
X132916443Y-120049534D01*
X132967963Y-120219373D01*
X132985359Y-120396000D01*
X132967963Y-120572627D01*
X132933616Y-120685853D01*
X132916443Y-120742467D01*
X132842348Y-120881087D01*
X132832778Y-120898991D01*
X132803448Y-120934729D01*
X132720186Y-121036186D01*
X132618729Y-121119448D01*
X132582991Y-121148778D01*
X132582989Y-121148779D01*
X132426467Y-121232443D01*
X132369853Y-121249616D01*
X132256627Y-121283963D01*
X132190443Y-121290481D01*
X132124260Y-121297000D01*
X132035740Y-121297000D01*
X131969557Y-121290481D01*
X131903373Y-121283963D01*
X131790147Y-121249616D01*
X131733533Y-121232443D01*
X131577011Y-121148779D01*
X131577009Y-121148778D01*
X131541271Y-121119448D01*
X131439814Y-121036186D01*
X131356552Y-120934729D01*
X131327222Y-120898991D01*
X131317652Y-120881087D01*
X131243557Y-120742467D01*
X131226384Y-120685853D01*
X131192037Y-120572627D01*
X131174641Y-120396000D01*
X131192037Y-120219373D01*
X131243557Y-120049534D01*
X131243557Y-120049533D01*
X131327221Y-119893011D01*
X131327222Y-119893009D01*
X131356552Y-119857271D01*
X131439814Y-119755814D01*
X131541271Y-119672552D01*
X131577009Y-119643222D01*
X131648872Y-119604810D01*
X131733533Y-119559557D01*
X131808350Y-119536862D01*
X131903373Y-119508037D01*
X131969557Y-119501519D01*
X132035740Y-119495000D01*
X132124260Y-119495000D01*
X132190443Y-119501519D01*
X132190443Y-119501519D01*
G37*
G36*
X134730443Y-119501519D02*
X134796627Y-119508037D01*
X134891650Y-119536862D01*
X134966467Y-119559557D01*
X135051128Y-119604810D01*
X135122991Y-119643222D01*
X135158729Y-119672552D01*
X135260186Y-119755814D01*
X135343448Y-119857271D01*
X135372778Y-119893009D01*
X135372779Y-119893011D01*
X135456443Y-120049533D01*
X135456443Y-120049534D01*
X135507963Y-120219373D01*
X135525359Y-120396000D01*
X135507963Y-120572627D01*
X135473616Y-120685853D01*
X135456443Y-120742467D01*
X135382348Y-120881087D01*
X135372778Y-120898991D01*
X135343448Y-120934729D01*
X135260186Y-121036186D01*
X135158729Y-121119448D01*
X135122991Y-121148778D01*
X135122989Y-121148779D01*
X134966467Y-121232443D01*
X134909853Y-121249616D01*
X134796627Y-121283963D01*
X134730443Y-121290481D01*
X134664260Y-121297000D01*
X134575740Y-121297000D01*
X134509557Y-121290481D01*
X134443373Y-121283963D01*
X134330147Y-121249616D01*
X134273533Y-121232443D01*
X134117011Y-121148779D01*
X134117009Y-121148778D01*
X134081271Y-121119448D01*
X133979814Y-121036186D01*
X133896552Y-120934729D01*
X133867222Y-120898991D01*
X133857652Y-120881087D01*
X133783557Y-120742467D01*
X133766384Y-120685853D01*
X133732037Y-120572627D01*
X133714641Y-120396000D01*
X133732037Y-120219373D01*
X133783557Y-120049534D01*
X133783557Y-120049533D01*
X133867221Y-119893011D01*
X133867222Y-119893009D01*
X133896552Y-119857271D01*
X133979814Y-119755814D01*
X134081271Y-119672552D01*
X134117009Y-119643222D01*
X134188872Y-119604810D01*
X134273533Y-119559557D01*
X134348350Y-119536862D01*
X134443373Y-119508037D01*
X134509557Y-119501519D01*
X134575740Y-119495000D01*
X134664260Y-119495000D01*
X134730443Y-119501519D01*
X134730443Y-119501519D01*
G37*
G36*
X152952496Y-118025051D02*
X152986153Y-118035261D01*
X153017167Y-118051838D01*
X153044352Y-118074148D01*
X153066662Y-118101333D01*
X153083239Y-118132347D01*
X153093449Y-118166004D01*
X153097500Y-118207138D01*
X153097500Y-119536862D01*
X153093449Y-119577996D01*
X153083239Y-119611653D01*
X153066662Y-119642667D01*
X153044352Y-119669852D01*
X153017167Y-119692162D01*
X152986153Y-119708739D01*
X152952496Y-119718949D01*
X152911362Y-119723000D01*
X149856638Y-119723000D01*
X149815504Y-119718949D01*
X149781847Y-119708739D01*
X149750833Y-119692162D01*
X149723648Y-119669852D01*
X149701338Y-119642667D01*
X149684761Y-119611653D01*
X149674551Y-119577996D01*
X149670500Y-119536862D01*
X149670500Y-118207138D01*
X149674551Y-118166004D01*
X149684761Y-118132347D01*
X149701338Y-118101333D01*
X149723648Y-118074148D01*
X149750833Y-118051838D01*
X149781847Y-118035261D01*
X149815504Y-118025051D01*
X149856638Y-118021000D01*
X152911362Y-118021000D01*
X152952496Y-118025051D01*
X152952496Y-118025051D01*
G37*
G36*
X158027496Y-118025051D02*
X158061153Y-118035261D01*
X158092167Y-118051838D01*
X158119352Y-118074148D01*
X158141662Y-118101333D01*
X158158239Y-118132347D01*
X158168449Y-118166004D01*
X158172500Y-118207138D01*
X158172500Y-119536862D01*
X158168449Y-119577996D01*
X158158239Y-119611653D01*
X158141662Y-119642667D01*
X158119352Y-119669852D01*
X158092167Y-119692162D01*
X158061153Y-119708739D01*
X158027496Y-119718949D01*
X157986362Y-119723000D01*
X154931638Y-119723000D01*
X154890504Y-119718949D01*
X154856847Y-119708739D01*
X154825833Y-119692162D01*
X154798648Y-119669852D01*
X154776338Y-119642667D01*
X154759761Y-119611653D01*
X154749551Y-119577996D01*
X154745500Y-119536862D01*
X154745500Y-118207138D01*
X154749551Y-118166004D01*
X154759761Y-118132347D01*
X154776338Y-118101333D01*
X154798648Y-118074148D01*
X154825833Y-118051838D01*
X154856847Y-118035261D01*
X154890504Y-118025051D01*
X154931638Y-118021000D01*
X157986362Y-118021000D01*
X158027496Y-118025051D01*
X158027496Y-118025051D01*
G37*
G36*
X147783677Y-118125465D02*
X147821364Y-118136898D01*
X147856103Y-118155466D01*
X147886548Y-118180452D01*
X147911534Y-118210897D01*
X147930102Y-118245636D01*
X147941535Y-118283323D01*
X147946000Y-118328661D01*
X147946000Y-119415339D01*
X147941535Y-119460677D01*
X147930102Y-119498364D01*
X147911534Y-119533103D01*
X147886548Y-119563548D01*
X147856103Y-119588534D01*
X147821364Y-119607102D01*
X147783677Y-119618535D01*
X147738339Y-119623000D01*
X146901661Y-119623000D01*
X146856323Y-119618535D01*
X146818636Y-119607102D01*
X146783897Y-119588534D01*
X146753452Y-119563548D01*
X146728466Y-119533103D01*
X146709898Y-119498364D01*
X146698465Y-119460677D01*
X146694000Y-119415339D01*
X146694000Y-118328661D01*
X146698465Y-118283323D01*
X146709898Y-118245636D01*
X146728466Y-118210897D01*
X146753452Y-118180452D01*
X146783897Y-118155466D01*
X146818636Y-118136898D01*
X146856323Y-118125465D01*
X146901661Y-118121000D01*
X147738339Y-118121000D01*
X147783677Y-118125465D01*
X147783677Y-118125465D01*
G37*
G36*
X145733677Y-118125465D02*
X145771364Y-118136898D01*
X145806103Y-118155466D01*
X145836548Y-118180452D01*
X145861534Y-118210897D01*
X145880102Y-118245636D01*
X145891535Y-118283323D01*
X145896000Y-118328661D01*
X145896000Y-119415339D01*
X145891535Y-119460677D01*
X145880102Y-119498364D01*
X145861534Y-119533103D01*
X145836548Y-119563548D01*
X145806103Y-119588534D01*
X145771364Y-119607102D01*
X145733677Y-119618535D01*
X145688339Y-119623000D01*
X144851661Y-119623000D01*
X144806323Y-119618535D01*
X144768636Y-119607102D01*
X144733897Y-119588534D01*
X144703452Y-119563548D01*
X144678466Y-119533103D01*
X144659898Y-119498364D01*
X144648465Y-119460677D01*
X144644000Y-119415339D01*
X144644000Y-118328661D01*
X144648465Y-118283323D01*
X144659898Y-118245636D01*
X144678466Y-118210897D01*
X144703452Y-118180452D01*
X144733897Y-118155466D01*
X144768636Y-118136898D01*
X144806323Y-118125465D01*
X144851661Y-118121000D01*
X145688339Y-118121000D01*
X145733677Y-118125465D01*
X145733677Y-118125465D01*
G37*
G36*
X132190443Y-116961519D02*
X132256627Y-116968037D01*
X132369853Y-117002384D01*
X132426467Y-117019557D01*
X132565087Y-117093652D01*
X132582991Y-117103222D01*
X132618729Y-117132552D01*
X132720186Y-117215814D01*
X132803448Y-117317271D01*
X132832778Y-117353009D01*
X132832779Y-117353011D01*
X132916443Y-117509533D01*
X132916443Y-117509534D01*
X132967963Y-117679373D01*
X132985359Y-117856000D01*
X132967963Y-118032627D01*
X132934871Y-118141718D01*
X132916443Y-118202467D01*
X132913946Y-118207138D01*
X132832778Y-118358991D01*
X132804725Y-118393173D01*
X132720186Y-118496186D01*
X132618729Y-118579448D01*
X132582991Y-118608778D01*
X132582989Y-118608779D01*
X132426467Y-118692443D01*
X132369853Y-118709616D01*
X132256627Y-118743963D01*
X132190442Y-118750482D01*
X132124260Y-118757000D01*
X132035740Y-118757000D01*
X131969558Y-118750482D01*
X131903373Y-118743963D01*
X131790147Y-118709616D01*
X131733533Y-118692443D01*
X131577011Y-118608779D01*
X131577009Y-118608778D01*
X131541271Y-118579448D01*
X131439814Y-118496186D01*
X131355275Y-118393173D01*
X131327222Y-118358991D01*
X131246054Y-118207138D01*
X131243557Y-118202467D01*
X131225129Y-118141718D01*
X131192037Y-118032627D01*
X131174641Y-117856000D01*
X131192037Y-117679373D01*
X131243557Y-117509534D01*
X131243557Y-117509533D01*
X131327221Y-117353011D01*
X131327222Y-117353009D01*
X131356552Y-117317271D01*
X131439814Y-117215814D01*
X131541271Y-117132552D01*
X131577009Y-117103222D01*
X131594913Y-117093652D01*
X131733533Y-117019557D01*
X131790147Y-117002384D01*
X131903373Y-116968037D01*
X131969557Y-116961519D01*
X132035740Y-116955000D01*
X132124260Y-116955000D01*
X132190443Y-116961519D01*
X132190443Y-116961519D01*
G37*
G36*
X134730443Y-116961519D02*
X134796627Y-116968037D01*
X134909853Y-117002384D01*
X134966467Y-117019557D01*
X135105087Y-117093652D01*
X135122991Y-117103222D01*
X135158729Y-117132552D01*
X135260186Y-117215814D01*
X135343448Y-117317271D01*
X135372778Y-117353009D01*
X135372779Y-117353011D01*
X135456443Y-117509533D01*
X135456443Y-117509534D01*
X135507963Y-117679373D01*
X135525359Y-117856000D01*
X135507963Y-118032627D01*
X135474871Y-118141718D01*
X135456443Y-118202467D01*
X135453946Y-118207138D01*
X135372778Y-118358991D01*
X135344725Y-118393173D01*
X135260186Y-118496186D01*
X135158729Y-118579448D01*
X135122991Y-118608778D01*
X135122989Y-118608779D01*
X134966467Y-118692443D01*
X134909853Y-118709616D01*
X134796627Y-118743963D01*
X134730442Y-118750482D01*
X134664260Y-118757000D01*
X134575740Y-118757000D01*
X134509558Y-118750482D01*
X134443373Y-118743963D01*
X134330147Y-118709616D01*
X134273533Y-118692443D01*
X134117011Y-118608779D01*
X134117009Y-118608778D01*
X134081271Y-118579448D01*
X133979814Y-118496186D01*
X133895275Y-118393173D01*
X133867222Y-118358991D01*
X133786054Y-118207138D01*
X133783557Y-118202467D01*
X133765129Y-118141718D01*
X133732037Y-118032627D01*
X133714641Y-117856000D01*
X133732037Y-117679373D01*
X133783557Y-117509534D01*
X133783557Y-117509533D01*
X133867221Y-117353011D01*
X133867222Y-117353009D01*
X133896552Y-117317271D01*
X133979814Y-117215814D01*
X134081271Y-117132552D01*
X134117009Y-117103222D01*
X134134913Y-117093652D01*
X134273533Y-117019557D01*
X134330147Y-117002384D01*
X134443373Y-116968037D01*
X134509557Y-116961519D01*
X134575740Y-116955000D01*
X134664260Y-116955000D01*
X134730443Y-116961519D01*
X134730443Y-116961519D01*
G37*
G36*
X132190442Y-114421518D02*
X132256627Y-114428037D01*
X132369853Y-114462384D01*
X132426467Y-114479557D01*
X132565087Y-114553652D01*
X132582991Y-114563222D01*
X132618729Y-114592552D01*
X132720186Y-114675814D01*
X132803448Y-114777271D01*
X132832778Y-114813009D01*
X132832779Y-114813011D01*
X132916443Y-114969533D01*
X132916443Y-114969534D01*
X132967963Y-115139373D01*
X132985359Y-115316000D01*
X132967963Y-115492627D01*
X132933616Y-115605853D01*
X132916443Y-115662467D01*
X132842348Y-115801087D01*
X132832778Y-115818991D01*
X132803448Y-115854729D01*
X132720186Y-115956186D01*
X132618729Y-116039448D01*
X132582991Y-116068778D01*
X132582989Y-116068779D01*
X132426467Y-116152443D01*
X132369853Y-116169616D01*
X132256627Y-116203963D01*
X132190443Y-116210481D01*
X132124260Y-116217000D01*
X132035740Y-116217000D01*
X131969557Y-116210481D01*
X131903373Y-116203963D01*
X131790147Y-116169616D01*
X131733533Y-116152443D01*
X131577011Y-116068779D01*
X131577009Y-116068778D01*
X131541271Y-116039448D01*
X131439814Y-115956186D01*
X131356552Y-115854729D01*
X131327222Y-115818991D01*
X131317652Y-115801087D01*
X131243557Y-115662467D01*
X131226384Y-115605853D01*
X131192037Y-115492627D01*
X131174641Y-115316000D01*
X131192037Y-115139373D01*
X131243557Y-114969534D01*
X131243557Y-114969533D01*
X131327221Y-114813011D01*
X131327222Y-114813009D01*
X131356552Y-114777271D01*
X131439814Y-114675814D01*
X131541271Y-114592552D01*
X131577009Y-114563222D01*
X131594913Y-114553652D01*
X131733533Y-114479557D01*
X131790147Y-114462384D01*
X131903373Y-114428037D01*
X131969558Y-114421518D01*
X132035740Y-114415000D01*
X132124260Y-114415000D01*
X132190442Y-114421518D01*
X132190442Y-114421518D01*
G37*
G36*
X134730442Y-114421518D02*
X134796627Y-114428037D01*
X134909853Y-114462384D01*
X134966467Y-114479557D01*
X135105087Y-114553652D01*
X135122991Y-114563222D01*
X135158729Y-114592552D01*
X135260186Y-114675814D01*
X135343448Y-114777271D01*
X135372778Y-114813009D01*
X135372779Y-114813011D01*
X135456443Y-114969533D01*
X135456443Y-114969534D01*
X135507963Y-115139373D01*
X135525359Y-115316000D01*
X135507963Y-115492627D01*
X135473616Y-115605853D01*
X135456443Y-115662467D01*
X135382348Y-115801087D01*
X135372778Y-115818991D01*
X135343448Y-115854729D01*
X135260186Y-115956186D01*
X135158729Y-116039448D01*
X135122991Y-116068778D01*
X135122989Y-116068779D01*
X134966467Y-116152443D01*
X134909853Y-116169616D01*
X134796627Y-116203963D01*
X134730443Y-116210481D01*
X134664260Y-116217000D01*
X134575740Y-116217000D01*
X134509557Y-116210481D01*
X134443373Y-116203963D01*
X134330147Y-116169616D01*
X134273533Y-116152443D01*
X134117011Y-116068779D01*
X134117009Y-116068778D01*
X134081271Y-116039448D01*
X133979814Y-115956186D01*
X133896552Y-115854729D01*
X133867222Y-115818991D01*
X133857652Y-115801087D01*
X133783557Y-115662467D01*
X133766384Y-115605853D01*
X133732037Y-115492627D01*
X133714641Y-115316000D01*
X133732037Y-115139373D01*
X133783557Y-114969534D01*
X133783557Y-114969533D01*
X133867221Y-114813011D01*
X133867222Y-114813009D01*
X133896552Y-114777271D01*
X133979814Y-114675814D01*
X134081271Y-114592552D01*
X134117009Y-114563222D01*
X134134913Y-114553652D01*
X134273533Y-114479557D01*
X134330147Y-114462384D01*
X134443373Y-114428037D01*
X134509558Y-114421518D01*
X134575740Y-114415000D01*
X134664260Y-114415000D01*
X134730442Y-114421518D01*
X134730442Y-114421518D01*
G37*
G36*
X134730442Y-111881518D02*
X134796627Y-111888037D01*
X134907049Y-111921533D01*
X134966467Y-111939557D01*
X135051160Y-111984827D01*
X135122991Y-112023222D01*
X135154814Y-112049339D01*
X135260186Y-112135814D01*
X135321996Y-112211131D01*
X135372778Y-112273009D01*
X135372779Y-112273011D01*
X135456443Y-112429533D01*
X135473616Y-112486147D01*
X135507963Y-112599373D01*
X135525359Y-112776000D01*
X135507963Y-112952627D01*
X135487289Y-113020779D01*
X135456443Y-113122467D01*
X135431570Y-113169000D01*
X135372778Y-113278991D01*
X135343448Y-113314729D01*
X135260186Y-113416186D01*
X135158729Y-113499448D01*
X135122991Y-113528778D01*
X135122989Y-113528779D01*
X134966467Y-113612443D01*
X134909853Y-113629616D01*
X134796627Y-113663963D01*
X134730443Y-113670481D01*
X134664260Y-113677000D01*
X134575740Y-113677000D01*
X134509557Y-113670481D01*
X134443373Y-113663963D01*
X134330147Y-113629616D01*
X134273533Y-113612443D01*
X134117011Y-113528779D01*
X134117009Y-113528778D01*
X134081271Y-113499448D01*
X133979814Y-113416186D01*
X133896552Y-113314729D01*
X133867222Y-113278991D01*
X133808430Y-113169000D01*
X133783557Y-113122467D01*
X133752711Y-113020779D01*
X133732037Y-112952627D01*
X133714641Y-112776000D01*
X133732037Y-112599373D01*
X133766384Y-112486147D01*
X133783557Y-112429533D01*
X133867221Y-112273011D01*
X133867222Y-112273009D01*
X133918004Y-112211131D01*
X133979814Y-112135814D01*
X134085186Y-112049339D01*
X134117009Y-112023222D01*
X134188840Y-111984827D01*
X134273533Y-111939557D01*
X134332951Y-111921533D01*
X134443373Y-111888037D01*
X134509558Y-111881518D01*
X134575740Y-111875000D01*
X134664260Y-111875000D01*
X134730442Y-111881518D01*
X134730442Y-111881518D01*
G37*
G36*
X132190442Y-111881518D02*
X132256627Y-111888037D01*
X132367049Y-111921533D01*
X132426467Y-111939557D01*
X132511160Y-111984827D01*
X132582991Y-112023222D01*
X132614814Y-112049339D01*
X132720186Y-112135814D01*
X132781996Y-112211131D01*
X132832778Y-112273009D01*
X132832779Y-112273011D01*
X132916443Y-112429533D01*
X132933616Y-112486147D01*
X132967963Y-112599373D01*
X132985359Y-112776000D01*
X132967963Y-112952627D01*
X132947289Y-113020779D01*
X132916443Y-113122467D01*
X132891570Y-113169000D01*
X132832778Y-113278991D01*
X132803448Y-113314729D01*
X132720186Y-113416186D01*
X132618729Y-113499448D01*
X132582991Y-113528778D01*
X132582989Y-113528779D01*
X132426467Y-113612443D01*
X132369853Y-113629616D01*
X132256627Y-113663963D01*
X132190443Y-113670481D01*
X132124260Y-113677000D01*
X132035740Y-113677000D01*
X131969557Y-113670481D01*
X131903373Y-113663963D01*
X131790147Y-113629616D01*
X131733533Y-113612443D01*
X131577011Y-113528779D01*
X131577009Y-113528778D01*
X131541271Y-113499448D01*
X131439814Y-113416186D01*
X131356552Y-113314729D01*
X131327222Y-113278991D01*
X131268430Y-113169000D01*
X131243557Y-113122467D01*
X131212711Y-113020779D01*
X131192037Y-112952627D01*
X131174641Y-112776000D01*
X131192037Y-112599373D01*
X131226384Y-112486147D01*
X131243557Y-112429533D01*
X131327221Y-112273011D01*
X131327222Y-112273009D01*
X131378004Y-112211131D01*
X131439814Y-112135814D01*
X131545186Y-112049339D01*
X131577009Y-112023222D01*
X131648840Y-111984827D01*
X131733533Y-111939557D01*
X131792951Y-111921533D01*
X131903373Y-111888037D01*
X131969558Y-111881518D01*
X132035740Y-111875000D01*
X132124260Y-111875000D01*
X132190442Y-111881518D01*
X132190442Y-111881518D01*
G37*
G36*
X158098443Y-111373519D02*
X158164627Y-111380037D01*
X158277853Y-111414384D01*
X158334467Y-111431557D01*
X158473087Y-111505652D01*
X158490991Y-111515222D01*
X158526729Y-111544552D01*
X158628186Y-111627814D01*
X158711448Y-111729271D01*
X158740778Y-111765009D01*
X158740779Y-111765011D01*
X158824443Y-111921533D01*
X158824443Y-111921534D01*
X158875963Y-112091373D01*
X158893359Y-112268000D01*
X158875963Y-112444627D01*
X158841616Y-112557853D01*
X158824443Y-112614467D01*
X158750348Y-112753087D01*
X158740778Y-112770991D01*
X158736667Y-112776000D01*
X158628186Y-112908186D01*
X158526729Y-112991448D01*
X158490991Y-113020778D01*
X158490989Y-113020779D01*
X158334467Y-113104443D01*
X158277853Y-113121616D01*
X158164627Y-113155963D01*
X158098442Y-113162482D01*
X158032260Y-113169000D01*
X157943740Y-113169000D01*
X157877558Y-113162482D01*
X157811373Y-113155963D01*
X157698147Y-113121616D01*
X157641533Y-113104443D01*
X157485011Y-113020779D01*
X157485009Y-113020778D01*
X157449271Y-112991448D01*
X157347814Y-112908186D01*
X157239333Y-112776000D01*
X157235222Y-112770991D01*
X157225652Y-112753087D01*
X157151557Y-112614467D01*
X157134384Y-112557853D01*
X157100037Y-112444627D01*
X157082641Y-112268000D01*
X157100037Y-112091373D01*
X157151557Y-111921534D01*
X157151557Y-111921533D01*
X157235221Y-111765011D01*
X157235222Y-111765009D01*
X157264552Y-111729271D01*
X157347814Y-111627814D01*
X157449271Y-111544552D01*
X157485009Y-111515222D01*
X157502913Y-111505652D01*
X157641533Y-111431557D01*
X157698147Y-111414384D01*
X157811373Y-111380037D01*
X157877557Y-111373519D01*
X157943740Y-111367000D01*
X158032260Y-111367000D01*
X158098443Y-111373519D01*
X158098443Y-111373519D01*
G37*
G36*
X140653677Y-110759465D02*
X140691364Y-110770898D01*
X140726103Y-110789466D01*
X140756548Y-110814452D01*
X140781534Y-110844897D01*
X140800102Y-110879636D01*
X140811535Y-110917323D01*
X140816000Y-110962661D01*
X140816000Y-112049339D01*
X140811535Y-112094677D01*
X140800102Y-112132364D01*
X140781534Y-112167103D01*
X140756548Y-112197548D01*
X140726103Y-112222534D01*
X140691364Y-112241102D01*
X140653677Y-112252535D01*
X140608339Y-112257000D01*
X139771661Y-112257000D01*
X139726323Y-112252535D01*
X139688636Y-112241102D01*
X139653897Y-112222534D01*
X139623452Y-112197548D01*
X139598466Y-112167103D01*
X139579898Y-112132364D01*
X139568465Y-112094677D01*
X139564000Y-112049339D01*
X139564000Y-110962661D01*
X139568465Y-110917323D01*
X139579898Y-110879636D01*
X139598466Y-110844897D01*
X139623452Y-110814452D01*
X139653897Y-110789466D01*
X139688636Y-110770898D01*
X139726323Y-110759465D01*
X139771661Y-110755000D01*
X140608339Y-110755000D01*
X140653677Y-110759465D01*
X140653677Y-110759465D01*
G37*
G36*
X145733677Y-110759465D02*
X145771364Y-110770898D01*
X145806103Y-110789466D01*
X145836548Y-110814452D01*
X145861534Y-110844897D01*
X145880102Y-110879636D01*
X145891535Y-110917323D01*
X145896000Y-110962661D01*
X145896000Y-112049339D01*
X145891535Y-112094677D01*
X145880102Y-112132364D01*
X145861534Y-112167103D01*
X145836548Y-112197548D01*
X145806103Y-112222534D01*
X145771364Y-112241102D01*
X145733677Y-112252535D01*
X145688339Y-112257000D01*
X144851661Y-112257000D01*
X144806323Y-112252535D01*
X144768636Y-112241102D01*
X144733897Y-112222534D01*
X144703452Y-112197548D01*
X144678466Y-112167103D01*
X144659898Y-112132364D01*
X144648465Y-112094677D01*
X144644000Y-112049339D01*
X144644000Y-110962661D01*
X144648465Y-110917323D01*
X144659898Y-110879636D01*
X144678466Y-110844897D01*
X144703452Y-110814452D01*
X144733897Y-110789466D01*
X144768636Y-110770898D01*
X144806323Y-110759465D01*
X144851661Y-110755000D01*
X145688339Y-110755000D01*
X145733677Y-110759465D01*
X145733677Y-110759465D01*
G37*
G36*
X142703677Y-110759465D02*
X142741364Y-110770898D01*
X142776103Y-110789466D01*
X142806548Y-110814452D01*
X142831534Y-110844897D01*
X142850102Y-110879636D01*
X142861535Y-110917323D01*
X142866000Y-110962661D01*
X142866000Y-112049339D01*
X142861535Y-112094677D01*
X142850102Y-112132364D01*
X142831534Y-112167103D01*
X142806548Y-112197548D01*
X142776103Y-112222534D01*
X142741364Y-112241102D01*
X142703677Y-112252535D01*
X142658339Y-112257000D01*
X141821661Y-112257000D01*
X141776323Y-112252535D01*
X141738636Y-112241102D01*
X141703897Y-112222534D01*
X141673452Y-112197548D01*
X141648466Y-112167103D01*
X141629898Y-112132364D01*
X141618465Y-112094677D01*
X141614000Y-112049339D01*
X141614000Y-110962661D01*
X141618465Y-110917323D01*
X141629898Y-110879636D01*
X141648466Y-110844897D01*
X141673452Y-110814452D01*
X141703897Y-110789466D01*
X141738636Y-110770898D01*
X141776323Y-110759465D01*
X141821661Y-110755000D01*
X142658339Y-110755000D01*
X142703677Y-110759465D01*
X142703677Y-110759465D01*
G37*
G36*
X147783677Y-110759465D02*
X147821364Y-110770898D01*
X147856103Y-110789466D01*
X147886548Y-110814452D01*
X147911534Y-110844897D01*
X147930102Y-110879636D01*
X147941535Y-110917323D01*
X147946000Y-110962661D01*
X147946000Y-112049339D01*
X147941535Y-112094677D01*
X147930102Y-112132364D01*
X147911534Y-112167103D01*
X147886548Y-112197548D01*
X147856103Y-112222534D01*
X147821364Y-112241102D01*
X147783677Y-112252535D01*
X147738339Y-112257000D01*
X146901661Y-112257000D01*
X146856323Y-112252535D01*
X146818636Y-112241102D01*
X146783897Y-112222534D01*
X146753452Y-112197548D01*
X146728466Y-112167103D01*
X146709898Y-112132364D01*
X146698465Y-112094677D01*
X146694000Y-112049339D01*
X146694000Y-110962661D01*
X146698465Y-110917323D01*
X146709898Y-110879636D01*
X146728466Y-110844897D01*
X146753452Y-110814452D01*
X146783897Y-110789466D01*
X146818636Y-110770898D01*
X146856323Y-110759465D01*
X146901661Y-110755000D01*
X147738339Y-110755000D01*
X147783677Y-110759465D01*
X147783677Y-110759465D01*
G37*
G36*
X132190442Y-109341518D02*
X132256627Y-109348037D01*
X132367049Y-109381533D01*
X132426467Y-109399557D01*
X132565087Y-109473652D01*
X132582991Y-109483222D01*
X132618729Y-109512552D01*
X132720186Y-109595814D01*
X132803448Y-109697271D01*
X132832778Y-109733009D01*
X132832779Y-109733011D01*
X132916443Y-109889533D01*
X132933616Y-109946147D01*
X132967963Y-110059373D01*
X132985359Y-110236000D01*
X132967963Y-110412627D01*
X132947289Y-110480779D01*
X132916443Y-110582467D01*
X132891570Y-110629000D01*
X132832778Y-110738991D01*
X132815975Y-110759465D01*
X132720186Y-110876186D01*
X132618729Y-110959448D01*
X132582991Y-110988778D01*
X132582989Y-110988779D01*
X132426467Y-111072443D01*
X132369853Y-111089616D01*
X132256627Y-111123963D01*
X132190442Y-111130482D01*
X132124260Y-111137000D01*
X132035740Y-111137000D01*
X131969558Y-111130482D01*
X131903373Y-111123963D01*
X131790147Y-111089616D01*
X131733533Y-111072443D01*
X131577011Y-110988779D01*
X131577009Y-110988778D01*
X131541271Y-110959448D01*
X131439814Y-110876186D01*
X131344025Y-110759465D01*
X131327222Y-110738991D01*
X131268430Y-110629000D01*
X131243557Y-110582467D01*
X131212711Y-110480779D01*
X131192037Y-110412627D01*
X131174641Y-110236000D01*
X131192037Y-110059373D01*
X131226384Y-109946147D01*
X131243557Y-109889533D01*
X131327221Y-109733011D01*
X131327222Y-109733009D01*
X131356552Y-109697271D01*
X131439814Y-109595814D01*
X131541271Y-109512552D01*
X131577009Y-109483222D01*
X131594913Y-109473652D01*
X131733533Y-109399557D01*
X131792951Y-109381533D01*
X131903373Y-109348037D01*
X131969558Y-109341518D01*
X132035740Y-109335000D01*
X132124260Y-109335000D01*
X132190442Y-109341518D01*
X132190442Y-109341518D01*
G37*
G36*
X134730442Y-109341518D02*
X134796627Y-109348037D01*
X134907049Y-109381533D01*
X134966467Y-109399557D01*
X135105087Y-109473652D01*
X135122991Y-109483222D01*
X135158729Y-109512552D01*
X135260186Y-109595814D01*
X135343448Y-109697271D01*
X135372778Y-109733009D01*
X135372779Y-109733011D01*
X135456443Y-109889533D01*
X135473616Y-109946147D01*
X135507963Y-110059373D01*
X135525359Y-110236000D01*
X135507963Y-110412627D01*
X135487289Y-110480779D01*
X135456443Y-110582467D01*
X135431570Y-110629000D01*
X135372778Y-110738991D01*
X135355975Y-110759465D01*
X135260186Y-110876186D01*
X135158729Y-110959448D01*
X135122991Y-110988778D01*
X135122989Y-110988779D01*
X134966467Y-111072443D01*
X134909853Y-111089616D01*
X134796627Y-111123963D01*
X134730442Y-111130482D01*
X134664260Y-111137000D01*
X134575740Y-111137000D01*
X134509558Y-111130482D01*
X134443373Y-111123963D01*
X134330147Y-111089616D01*
X134273533Y-111072443D01*
X134117011Y-110988779D01*
X134117009Y-110988778D01*
X134081271Y-110959448D01*
X133979814Y-110876186D01*
X133884025Y-110759465D01*
X133867222Y-110738991D01*
X133808430Y-110629000D01*
X133783557Y-110582467D01*
X133752711Y-110480779D01*
X133732037Y-110412627D01*
X133714641Y-110236000D01*
X133732037Y-110059373D01*
X133766384Y-109946147D01*
X133783557Y-109889533D01*
X133867221Y-109733011D01*
X133867222Y-109733009D01*
X133896552Y-109697271D01*
X133979814Y-109595814D01*
X134081271Y-109512552D01*
X134117009Y-109483222D01*
X134134913Y-109473652D01*
X134273533Y-109399557D01*
X134332951Y-109381533D01*
X134443373Y-109348037D01*
X134509558Y-109341518D01*
X134575740Y-109335000D01*
X134664260Y-109335000D01*
X134730442Y-109341518D01*
X134730442Y-109341518D01*
G37*
G36*
X158098443Y-108833519D02*
X158164627Y-108840037D01*
X158277853Y-108874384D01*
X158334467Y-108891557D01*
X158473087Y-108965652D01*
X158490991Y-108975222D01*
X158526729Y-109004552D01*
X158628186Y-109087814D01*
X158711448Y-109189271D01*
X158740778Y-109225009D01*
X158740779Y-109225011D01*
X158824443Y-109381533D01*
X158824443Y-109381534D01*
X158875963Y-109551373D01*
X158893359Y-109728000D01*
X158875963Y-109904627D01*
X158841616Y-110017853D01*
X158824443Y-110074467D01*
X158750348Y-110213087D01*
X158740778Y-110230991D01*
X158736667Y-110236000D01*
X158628186Y-110368186D01*
X158526729Y-110451448D01*
X158490991Y-110480778D01*
X158490989Y-110480779D01*
X158334467Y-110564443D01*
X158277853Y-110581616D01*
X158164627Y-110615963D01*
X158098442Y-110622482D01*
X158032260Y-110629000D01*
X157943740Y-110629000D01*
X157877558Y-110622482D01*
X157811373Y-110615963D01*
X157698147Y-110581616D01*
X157641533Y-110564443D01*
X157485011Y-110480779D01*
X157485009Y-110480778D01*
X157449271Y-110451448D01*
X157347814Y-110368186D01*
X157239333Y-110236000D01*
X157235222Y-110230991D01*
X157225652Y-110213087D01*
X157151557Y-110074467D01*
X157134384Y-110017853D01*
X157100037Y-109904627D01*
X157082641Y-109728000D01*
X157100037Y-109551373D01*
X157151557Y-109381534D01*
X157151557Y-109381533D01*
X157235221Y-109225011D01*
X157235222Y-109225009D01*
X157264552Y-109189271D01*
X157347814Y-109087814D01*
X157449271Y-109004552D01*
X157485009Y-108975222D01*
X157502913Y-108965652D01*
X157641533Y-108891557D01*
X157698147Y-108874384D01*
X157811373Y-108840037D01*
X157877557Y-108833519D01*
X157943740Y-108827000D01*
X158032260Y-108827000D01*
X158098443Y-108833519D01*
X158098443Y-108833519D01*
G37*
G36*
X146636000Y-109241000D02*
X140384000Y-109241000D01*
X140384000Y-107539000D01*
X146636000Y-107539000D01*
X146636000Y-109241000D01*
X146636000Y-109241000D01*
G37*
G36*
X134730443Y-106801519D02*
X134796627Y-106808037D01*
X134907049Y-106841533D01*
X134966467Y-106859557D01*
X135105087Y-106933652D01*
X135122991Y-106943222D01*
X135158729Y-106972552D01*
X135260186Y-107055814D01*
X135343448Y-107157271D01*
X135372778Y-107193009D01*
X135372779Y-107193011D01*
X135456443Y-107349533D01*
X135473616Y-107406147D01*
X135507963Y-107519373D01*
X135525359Y-107696000D01*
X135507963Y-107872627D01*
X135487289Y-107940779D01*
X135456443Y-108042467D01*
X135431570Y-108089000D01*
X135372778Y-108198991D01*
X135343448Y-108234729D01*
X135260186Y-108336186D01*
X135158729Y-108419448D01*
X135122991Y-108448778D01*
X135122989Y-108448779D01*
X134966467Y-108532443D01*
X134909853Y-108549616D01*
X134796627Y-108583963D01*
X134730442Y-108590482D01*
X134664260Y-108597000D01*
X134575740Y-108597000D01*
X134509558Y-108590482D01*
X134443373Y-108583963D01*
X134330147Y-108549616D01*
X134273533Y-108532443D01*
X134117011Y-108448779D01*
X134117009Y-108448778D01*
X134081271Y-108419448D01*
X133979814Y-108336186D01*
X133896552Y-108234729D01*
X133867222Y-108198991D01*
X133808430Y-108089000D01*
X133783557Y-108042467D01*
X133752711Y-107940779D01*
X133732037Y-107872627D01*
X133714641Y-107696000D01*
X133732037Y-107519373D01*
X133766384Y-107406147D01*
X133783557Y-107349533D01*
X133867221Y-107193011D01*
X133867222Y-107193009D01*
X133896552Y-107157271D01*
X133979814Y-107055814D01*
X134081271Y-106972552D01*
X134117009Y-106943222D01*
X134134913Y-106933652D01*
X134273533Y-106859557D01*
X134332951Y-106841533D01*
X134443373Y-106808037D01*
X134509557Y-106801519D01*
X134575740Y-106795000D01*
X134664260Y-106795000D01*
X134730443Y-106801519D01*
X134730443Y-106801519D01*
G37*
G36*
X132190443Y-106801519D02*
X132256627Y-106808037D01*
X132367049Y-106841533D01*
X132426467Y-106859557D01*
X132565087Y-106933652D01*
X132582991Y-106943222D01*
X132618729Y-106972552D01*
X132720186Y-107055814D01*
X132803448Y-107157271D01*
X132832778Y-107193009D01*
X132832779Y-107193011D01*
X132916443Y-107349533D01*
X132933616Y-107406147D01*
X132967963Y-107519373D01*
X132985359Y-107696000D01*
X132967963Y-107872627D01*
X132947289Y-107940779D01*
X132916443Y-108042467D01*
X132891570Y-108089000D01*
X132832778Y-108198991D01*
X132803448Y-108234729D01*
X132720186Y-108336186D01*
X132618729Y-108419448D01*
X132582991Y-108448778D01*
X132582989Y-108448779D01*
X132426467Y-108532443D01*
X132369853Y-108549616D01*
X132256627Y-108583963D01*
X132190442Y-108590482D01*
X132124260Y-108597000D01*
X132035740Y-108597000D01*
X131969558Y-108590482D01*
X131903373Y-108583963D01*
X131790147Y-108549616D01*
X131733533Y-108532443D01*
X131577011Y-108448779D01*
X131577009Y-108448778D01*
X131541271Y-108419448D01*
X131439814Y-108336186D01*
X131356552Y-108234729D01*
X131327222Y-108198991D01*
X131268430Y-108089000D01*
X131243557Y-108042467D01*
X131212711Y-107940779D01*
X131192037Y-107872627D01*
X131174641Y-107696000D01*
X131192037Y-107519373D01*
X131226384Y-107406147D01*
X131243557Y-107349533D01*
X131327221Y-107193011D01*
X131327222Y-107193009D01*
X131356552Y-107157271D01*
X131439814Y-107055814D01*
X131541271Y-106972552D01*
X131577009Y-106943222D01*
X131594913Y-106933652D01*
X131733533Y-106859557D01*
X131792951Y-106841533D01*
X131903373Y-106808037D01*
X131969557Y-106801519D01*
X132035740Y-106795000D01*
X132124260Y-106795000D01*
X132190443Y-106801519D01*
X132190443Y-106801519D01*
G37*
G36*
X158098442Y-106293518D02*
X158164627Y-106300037D01*
X158277853Y-106334384D01*
X158334467Y-106351557D01*
X158473087Y-106425652D01*
X158490991Y-106435222D01*
X158526729Y-106464552D01*
X158628186Y-106547814D01*
X158711448Y-106649271D01*
X158740778Y-106685009D01*
X158740779Y-106685011D01*
X158824443Y-106841533D01*
X158824443Y-106841534D01*
X158875963Y-107011373D01*
X158893359Y-107188000D01*
X158875963Y-107364627D01*
X158841616Y-107477853D01*
X158824443Y-107534467D01*
X158822020Y-107539000D01*
X158740778Y-107690991D01*
X158736667Y-107696000D01*
X158628186Y-107828186D01*
X158526729Y-107911448D01*
X158490991Y-107940778D01*
X158490989Y-107940779D01*
X158334467Y-108024443D01*
X158277853Y-108041616D01*
X158164627Y-108075963D01*
X158098442Y-108082482D01*
X158032260Y-108089000D01*
X157943740Y-108089000D01*
X157877558Y-108082482D01*
X157811373Y-108075963D01*
X157698147Y-108041616D01*
X157641533Y-108024443D01*
X157485011Y-107940779D01*
X157485009Y-107940778D01*
X157449271Y-107911448D01*
X157347814Y-107828186D01*
X157239333Y-107696000D01*
X157235222Y-107690991D01*
X157153980Y-107539000D01*
X157151557Y-107534467D01*
X157134384Y-107477853D01*
X157100037Y-107364627D01*
X157082641Y-107188000D01*
X157100037Y-107011373D01*
X157151557Y-106841534D01*
X157151557Y-106841533D01*
X157235221Y-106685011D01*
X157235222Y-106685009D01*
X157264552Y-106649271D01*
X157347814Y-106547814D01*
X157449271Y-106464552D01*
X157485009Y-106435222D01*
X157502913Y-106425652D01*
X157641533Y-106351557D01*
X157698147Y-106334384D01*
X157811373Y-106300037D01*
X157877558Y-106293518D01*
X157943740Y-106287000D01*
X158032260Y-106287000D01*
X158098442Y-106293518D01*
X158098442Y-106293518D01*
G37*
G36*
X140111000Y-107266000D02*
X138409000Y-107266000D01*
X138409000Y-101014000D01*
X140111000Y-101014000D01*
X140111000Y-107266000D01*
X140111000Y-107266000D01*
G37*
G36*
X148611000Y-107266000D02*
X146909000Y-107266000D01*
X146909000Y-101014000D01*
X148611000Y-101014000D01*
X148611000Y-107266000D01*
X148611000Y-107266000D01*
G37*
G36*
X132190442Y-104261518D02*
X132256627Y-104268037D01*
X132367049Y-104301533D01*
X132426467Y-104319557D01*
X132565087Y-104393652D01*
X132582991Y-104403222D01*
X132618729Y-104432552D01*
X132720186Y-104515814D01*
X132803448Y-104617271D01*
X132832778Y-104653009D01*
X132832779Y-104653011D01*
X132916443Y-104809533D01*
X132933572Y-104866000D01*
X132967963Y-104979373D01*
X132985359Y-105156000D01*
X132967963Y-105332627D01*
X132947289Y-105400779D01*
X132916443Y-105502467D01*
X132891570Y-105549000D01*
X132832778Y-105658991D01*
X132803448Y-105694729D01*
X132720186Y-105796186D01*
X132618729Y-105879448D01*
X132582991Y-105908778D01*
X132582989Y-105908779D01*
X132426467Y-105992443D01*
X132369853Y-106009616D01*
X132256627Y-106043963D01*
X132190442Y-106050482D01*
X132124260Y-106057000D01*
X132035740Y-106057000D01*
X131969558Y-106050482D01*
X131903373Y-106043963D01*
X131790147Y-106009616D01*
X131733533Y-105992443D01*
X131577011Y-105908779D01*
X131577009Y-105908778D01*
X131541271Y-105879448D01*
X131439814Y-105796186D01*
X131356552Y-105694729D01*
X131327222Y-105658991D01*
X131268430Y-105549000D01*
X131243557Y-105502467D01*
X131212711Y-105400779D01*
X131192037Y-105332627D01*
X131174641Y-105156000D01*
X131192037Y-104979373D01*
X131226428Y-104866000D01*
X131243557Y-104809533D01*
X131327221Y-104653011D01*
X131327222Y-104653009D01*
X131356552Y-104617271D01*
X131439814Y-104515814D01*
X131541271Y-104432552D01*
X131577009Y-104403222D01*
X131594913Y-104393652D01*
X131733533Y-104319557D01*
X131792951Y-104301533D01*
X131903373Y-104268037D01*
X131969558Y-104261518D01*
X132035740Y-104255000D01*
X132124260Y-104255000D01*
X132190442Y-104261518D01*
X132190442Y-104261518D01*
G37*
G36*
X134730442Y-104261518D02*
X134796627Y-104268037D01*
X134907049Y-104301533D01*
X134966467Y-104319557D01*
X135105087Y-104393652D01*
X135122991Y-104403222D01*
X135158729Y-104432552D01*
X135260186Y-104515814D01*
X135343448Y-104617271D01*
X135372778Y-104653009D01*
X135372779Y-104653011D01*
X135456443Y-104809533D01*
X135473572Y-104866000D01*
X135507963Y-104979373D01*
X135525359Y-105156000D01*
X135507963Y-105332627D01*
X135487289Y-105400779D01*
X135456443Y-105502467D01*
X135431570Y-105549000D01*
X135372778Y-105658991D01*
X135343448Y-105694729D01*
X135260186Y-105796186D01*
X135158729Y-105879448D01*
X135122991Y-105908778D01*
X135122989Y-105908779D01*
X134966467Y-105992443D01*
X134909853Y-106009616D01*
X134796627Y-106043963D01*
X134730442Y-106050482D01*
X134664260Y-106057000D01*
X134575740Y-106057000D01*
X134509558Y-106050482D01*
X134443373Y-106043963D01*
X134330147Y-106009616D01*
X134273533Y-105992443D01*
X134117011Y-105908779D01*
X134117009Y-105908778D01*
X134081271Y-105879448D01*
X133979814Y-105796186D01*
X133896552Y-105694729D01*
X133867222Y-105658991D01*
X133808430Y-105549000D01*
X133783557Y-105502467D01*
X133752711Y-105400779D01*
X133732037Y-105332627D01*
X133714641Y-105156000D01*
X133732037Y-104979373D01*
X133766428Y-104866000D01*
X133783557Y-104809533D01*
X133867221Y-104653011D01*
X133867222Y-104653009D01*
X133896552Y-104617271D01*
X133979814Y-104515814D01*
X134081271Y-104432552D01*
X134117009Y-104403222D01*
X134134913Y-104393652D01*
X134273533Y-104319557D01*
X134332951Y-104301533D01*
X134443373Y-104268037D01*
X134509558Y-104261518D01*
X134575740Y-104255000D01*
X134664260Y-104255000D01*
X134730442Y-104261518D01*
X134730442Y-104261518D01*
G37*
G36*
X158098442Y-103753518D02*
X158164627Y-103760037D01*
X158277853Y-103794384D01*
X158334467Y-103811557D01*
X158473087Y-103885652D01*
X158490991Y-103895222D01*
X158526729Y-103924552D01*
X158628186Y-104007814D01*
X158675937Y-104066000D01*
X158740778Y-104145009D01*
X158740779Y-104145011D01*
X158824443Y-104301533D01*
X158824443Y-104301534D01*
X158875963Y-104471373D01*
X158893359Y-104648000D01*
X158875963Y-104824627D01*
X158841616Y-104937853D01*
X158824443Y-104994467D01*
X158814002Y-105014000D01*
X158740778Y-105150991D01*
X158736667Y-105156000D01*
X158628186Y-105288186D01*
X158526729Y-105371448D01*
X158490991Y-105400778D01*
X158490989Y-105400779D01*
X158334467Y-105484443D01*
X158277853Y-105501616D01*
X158164627Y-105535963D01*
X158098442Y-105542482D01*
X158032260Y-105549000D01*
X157943740Y-105549000D01*
X157877558Y-105542482D01*
X157811373Y-105535963D01*
X157698147Y-105501616D01*
X157641533Y-105484443D01*
X157485011Y-105400779D01*
X157485009Y-105400778D01*
X157449271Y-105371448D01*
X157347814Y-105288186D01*
X157239333Y-105156000D01*
X157235222Y-105150991D01*
X157161998Y-105014000D01*
X157151557Y-104994467D01*
X157134384Y-104937853D01*
X157100037Y-104824627D01*
X157082641Y-104648000D01*
X157100037Y-104471373D01*
X157151557Y-104301534D01*
X157151557Y-104301533D01*
X157235221Y-104145011D01*
X157235222Y-104145009D01*
X157300063Y-104066000D01*
X157347814Y-104007814D01*
X157449271Y-103924552D01*
X157485009Y-103895222D01*
X157502913Y-103885652D01*
X157641533Y-103811557D01*
X157698147Y-103794384D01*
X157811373Y-103760037D01*
X157877558Y-103753518D01*
X157943740Y-103747000D01*
X158032260Y-103747000D01*
X158098442Y-103753518D01*
X158098442Y-103753518D01*
G37*
G36*
X134730443Y-101721519D02*
X134796627Y-101728037D01*
X134907049Y-101761533D01*
X134966467Y-101779557D01*
X135030904Y-101814000D01*
X135122991Y-101863222D01*
X135158729Y-101892552D01*
X135260186Y-101975814D01*
X135343448Y-102077271D01*
X135372778Y-102113009D01*
X135372779Y-102113011D01*
X135456443Y-102269533D01*
X135473616Y-102326147D01*
X135507963Y-102439373D01*
X135525359Y-102616000D01*
X135507963Y-102792627D01*
X135487289Y-102860779D01*
X135456443Y-102962467D01*
X135431570Y-103009000D01*
X135372778Y-103118991D01*
X135343448Y-103154729D01*
X135260186Y-103256186D01*
X135158729Y-103339448D01*
X135122991Y-103368778D01*
X135122989Y-103368779D01*
X134966467Y-103452443D01*
X134909853Y-103469616D01*
X134796627Y-103503963D01*
X134730443Y-103510481D01*
X134664260Y-103517000D01*
X134575740Y-103517000D01*
X134509558Y-103510482D01*
X134443373Y-103503963D01*
X134330147Y-103469616D01*
X134273533Y-103452443D01*
X134117011Y-103368779D01*
X134117009Y-103368778D01*
X134081271Y-103339448D01*
X133979814Y-103256186D01*
X133896552Y-103154729D01*
X133867222Y-103118991D01*
X133808430Y-103009000D01*
X133783557Y-102962467D01*
X133752711Y-102860779D01*
X133732037Y-102792627D01*
X133714641Y-102616000D01*
X133732037Y-102439373D01*
X133766384Y-102326147D01*
X133783557Y-102269533D01*
X133867221Y-102113011D01*
X133867222Y-102113009D01*
X133896552Y-102077271D01*
X133979814Y-101975814D01*
X134081271Y-101892552D01*
X134117009Y-101863222D01*
X134209096Y-101814000D01*
X134273533Y-101779557D01*
X134332951Y-101761533D01*
X134443373Y-101728037D01*
X134509558Y-101721518D01*
X134575740Y-101715000D01*
X134664260Y-101715000D01*
X134730443Y-101721519D01*
X134730443Y-101721519D01*
G37*
G36*
X132190443Y-101721519D02*
X132256627Y-101728037D01*
X132367049Y-101761533D01*
X132426467Y-101779557D01*
X132490904Y-101814000D01*
X132582991Y-101863222D01*
X132618729Y-101892552D01*
X132720186Y-101975814D01*
X132803448Y-102077271D01*
X132832778Y-102113009D01*
X132832779Y-102113011D01*
X132916443Y-102269533D01*
X132933616Y-102326147D01*
X132967963Y-102439373D01*
X132985359Y-102616000D01*
X132967963Y-102792627D01*
X132947289Y-102860779D01*
X132916443Y-102962467D01*
X132891570Y-103009000D01*
X132832778Y-103118991D01*
X132803448Y-103154729D01*
X132720186Y-103256186D01*
X132618729Y-103339448D01*
X132582991Y-103368778D01*
X132582989Y-103368779D01*
X132426467Y-103452443D01*
X132369853Y-103469616D01*
X132256627Y-103503963D01*
X132190443Y-103510481D01*
X132124260Y-103517000D01*
X132035740Y-103517000D01*
X131969558Y-103510482D01*
X131903373Y-103503963D01*
X131790147Y-103469616D01*
X131733533Y-103452443D01*
X131577011Y-103368779D01*
X131577009Y-103368778D01*
X131541271Y-103339448D01*
X131439814Y-103256186D01*
X131356552Y-103154729D01*
X131327222Y-103118991D01*
X131268430Y-103009000D01*
X131243557Y-102962467D01*
X131212711Y-102860779D01*
X131192037Y-102792627D01*
X131174641Y-102616000D01*
X131192037Y-102439373D01*
X131226384Y-102326147D01*
X131243557Y-102269533D01*
X131327221Y-102113011D01*
X131327222Y-102113009D01*
X131356552Y-102077271D01*
X131439814Y-101975814D01*
X131541271Y-101892552D01*
X131577009Y-101863222D01*
X131669096Y-101814000D01*
X131733533Y-101779557D01*
X131792951Y-101761533D01*
X131903373Y-101728037D01*
X131969558Y-101721518D01*
X132035740Y-101715000D01*
X132124260Y-101715000D01*
X132190443Y-101721519D01*
X132190443Y-101721519D01*
G37*
G36*
X158098442Y-101213518D02*
X158164627Y-101220037D01*
X158277853Y-101254384D01*
X158334467Y-101271557D01*
X158473087Y-101345652D01*
X158490991Y-101355222D01*
X158526729Y-101384552D01*
X158628186Y-101467814D01*
X158711448Y-101569271D01*
X158740778Y-101605009D01*
X158740779Y-101605011D01*
X158824443Y-101761533D01*
X158824443Y-101761534D01*
X158875963Y-101931373D01*
X158893359Y-102108000D01*
X158875963Y-102284627D01*
X158841616Y-102397853D01*
X158824443Y-102454467D01*
X158818278Y-102466000D01*
X158740778Y-102610991D01*
X158736667Y-102616000D01*
X158628186Y-102748186D01*
X158526729Y-102831448D01*
X158490991Y-102860778D01*
X158490989Y-102860779D01*
X158334467Y-102944443D01*
X158277853Y-102961616D01*
X158164627Y-102995963D01*
X158098443Y-103002481D01*
X158032260Y-103009000D01*
X157943740Y-103009000D01*
X157877558Y-103002482D01*
X157811373Y-102995963D01*
X157698147Y-102961616D01*
X157641533Y-102944443D01*
X157485011Y-102860779D01*
X157485009Y-102860778D01*
X157449271Y-102831448D01*
X157347814Y-102748186D01*
X157239333Y-102616000D01*
X157235222Y-102610991D01*
X157157722Y-102466000D01*
X157151557Y-102454467D01*
X157134384Y-102397853D01*
X157100037Y-102284627D01*
X157082641Y-102108000D01*
X157100037Y-101931373D01*
X157151557Y-101761534D01*
X157151557Y-101761533D01*
X157235221Y-101605011D01*
X157235222Y-101605009D01*
X157264552Y-101569271D01*
X157347814Y-101467814D01*
X157449271Y-101384552D01*
X157485009Y-101355222D01*
X157502913Y-101345652D01*
X157641533Y-101271557D01*
X157698147Y-101254384D01*
X157811373Y-101220037D01*
X157877557Y-101213519D01*
X157943740Y-101207000D01*
X158032260Y-101207000D01*
X158098442Y-101213518D01*
X158098442Y-101213518D01*
G37*
G36*
X132190442Y-99181518D02*
X132256627Y-99188037D01*
X132367049Y-99221533D01*
X132426467Y-99239557D01*
X132565087Y-99313652D01*
X132582991Y-99323222D01*
X132618729Y-99352552D01*
X132720186Y-99435814D01*
X132803448Y-99537271D01*
X132832778Y-99573009D01*
X132832779Y-99573011D01*
X132916443Y-99729533D01*
X132933616Y-99786147D01*
X132967963Y-99899373D01*
X132985359Y-100076000D01*
X132967963Y-100252627D01*
X132947289Y-100320779D01*
X132916443Y-100422467D01*
X132891570Y-100469000D01*
X132832778Y-100578991D01*
X132803448Y-100614729D01*
X132720186Y-100716186D01*
X132618729Y-100799448D01*
X132582991Y-100828778D01*
X132582989Y-100828779D01*
X132426467Y-100912443D01*
X132369853Y-100929616D01*
X132256627Y-100963963D01*
X132190442Y-100970482D01*
X132124260Y-100977000D01*
X132035740Y-100977000D01*
X131969558Y-100970482D01*
X131903373Y-100963963D01*
X131790147Y-100929616D01*
X131733533Y-100912443D01*
X131577011Y-100828779D01*
X131577009Y-100828778D01*
X131541271Y-100799448D01*
X131439814Y-100716186D01*
X131356552Y-100614729D01*
X131327222Y-100578991D01*
X131268430Y-100469000D01*
X131243557Y-100422467D01*
X131212711Y-100320779D01*
X131192037Y-100252627D01*
X131174641Y-100076000D01*
X131192037Y-99899373D01*
X131226384Y-99786147D01*
X131243557Y-99729533D01*
X131327221Y-99573011D01*
X131327222Y-99573009D01*
X131356552Y-99537271D01*
X131439814Y-99435814D01*
X131541271Y-99352552D01*
X131577009Y-99323222D01*
X131594913Y-99313652D01*
X131733533Y-99239557D01*
X131792951Y-99221533D01*
X131903373Y-99188037D01*
X131969558Y-99181518D01*
X132035740Y-99175000D01*
X132124260Y-99175000D01*
X132190442Y-99181518D01*
X132190442Y-99181518D01*
G37*
G36*
X134730442Y-99181518D02*
X134796627Y-99188037D01*
X134907049Y-99221533D01*
X134966467Y-99239557D01*
X135105087Y-99313652D01*
X135122991Y-99323222D01*
X135158729Y-99352552D01*
X135260186Y-99435814D01*
X135343448Y-99537271D01*
X135372778Y-99573009D01*
X135372779Y-99573011D01*
X135456443Y-99729533D01*
X135473616Y-99786147D01*
X135507963Y-99899373D01*
X135525359Y-100076000D01*
X135507963Y-100252627D01*
X135487289Y-100320779D01*
X135456443Y-100422467D01*
X135431570Y-100469000D01*
X135372778Y-100578991D01*
X135343448Y-100614729D01*
X135260186Y-100716186D01*
X135158729Y-100799448D01*
X135122991Y-100828778D01*
X135122989Y-100828779D01*
X134966467Y-100912443D01*
X134909853Y-100929616D01*
X134796627Y-100963963D01*
X134730442Y-100970482D01*
X134664260Y-100977000D01*
X134575740Y-100977000D01*
X134509558Y-100970482D01*
X134443373Y-100963963D01*
X134330147Y-100929616D01*
X134273533Y-100912443D01*
X134117011Y-100828779D01*
X134117009Y-100828778D01*
X134081271Y-100799448D01*
X133979814Y-100716186D01*
X133896552Y-100614729D01*
X133867222Y-100578991D01*
X133808430Y-100469000D01*
X133783557Y-100422467D01*
X133752711Y-100320779D01*
X133732037Y-100252627D01*
X133714641Y-100076000D01*
X133732037Y-99899373D01*
X133766384Y-99786147D01*
X133783557Y-99729533D01*
X133867221Y-99573011D01*
X133867222Y-99573009D01*
X133896552Y-99537271D01*
X133979814Y-99435814D01*
X134081271Y-99352552D01*
X134117009Y-99323222D01*
X134134913Y-99313652D01*
X134273533Y-99239557D01*
X134332951Y-99221533D01*
X134443373Y-99188037D01*
X134509558Y-99181518D01*
X134575740Y-99175000D01*
X134664260Y-99175000D01*
X134730442Y-99181518D01*
X134730442Y-99181518D01*
G37*
G36*
X146636000Y-100741000D02*
X140384000Y-100741000D01*
X140384000Y-99039000D01*
X146636000Y-99039000D01*
X146636000Y-100741000D01*
X146636000Y-100741000D01*
G37*
G36*
X158098442Y-98673518D02*
X158164627Y-98680037D01*
X158277853Y-98714384D01*
X158334467Y-98731557D01*
X158473087Y-98805652D01*
X158490991Y-98815222D01*
X158526729Y-98844552D01*
X158628186Y-98927814D01*
X158711448Y-99029271D01*
X158740778Y-99065009D01*
X158740779Y-99065011D01*
X158824443Y-99221533D01*
X158824443Y-99221534D01*
X158875963Y-99391373D01*
X158893359Y-99568000D01*
X158875963Y-99744627D01*
X158841616Y-99857853D01*
X158824443Y-99914467D01*
X158750348Y-100053087D01*
X158740778Y-100070991D01*
X158736667Y-100076000D01*
X158628186Y-100208186D01*
X158526729Y-100291448D01*
X158490991Y-100320778D01*
X158490989Y-100320779D01*
X158334467Y-100404443D01*
X158277853Y-100421616D01*
X158164627Y-100455963D01*
X158098442Y-100462482D01*
X158032260Y-100469000D01*
X157943740Y-100469000D01*
X157877557Y-100462481D01*
X157811373Y-100455963D01*
X157698147Y-100421616D01*
X157641533Y-100404443D01*
X157485011Y-100320779D01*
X157485009Y-100320778D01*
X157449271Y-100291448D01*
X157347814Y-100208186D01*
X157239333Y-100076000D01*
X157235222Y-100070991D01*
X157225652Y-100053087D01*
X157151557Y-99914467D01*
X157134384Y-99857853D01*
X157100037Y-99744627D01*
X157082641Y-99568000D01*
X157100037Y-99391373D01*
X157151557Y-99221534D01*
X157151557Y-99221533D01*
X157235221Y-99065011D01*
X157235222Y-99065009D01*
X157264552Y-99029271D01*
X157347814Y-98927814D01*
X157449271Y-98844552D01*
X157485009Y-98815222D01*
X157502913Y-98805652D01*
X157641533Y-98731557D01*
X157698147Y-98714384D01*
X157811373Y-98680037D01*
X157877558Y-98673518D01*
X157943740Y-98667000D01*
X158032260Y-98667000D01*
X158098442Y-98673518D01*
X158098442Y-98673518D01*
G37*
G36*
X132190442Y-96641518D02*
X132256627Y-96648037D01*
X132367049Y-96681533D01*
X132426467Y-96699557D01*
X132511160Y-96744827D01*
X132582991Y-96783222D01*
X132614814Y-96809339D01*
X132720186Y-96895814D01*
X132781996Y-96971131D01*
X132832778Y-97033009D01*
X132832779Y-97033011D01*
X132916443Y-97189533D01*
X132933616Y-97246147D01*
X132967963Y-97359373D01*
X132985359Y-97536000D01*
X132967963Y-97712627D01*
X132947289Y-97780779D01*
X132916443Y-97882467D01*
X132891570Y-97929000D01*
X132832778Y-98038991D01*
X132803448Y-98074729D01*
X132720186Y-98176186D01*
X132618729Y-98259448D01*
X132582991Y-98288778D01*
X132582989Y-98288779D01*
X132426467Y-98372443D01*
X132369853Y-98389616D01*
X132256627Y-98423963D01*
X132190443Y-98430481D01*
X132124260Y-98437000D01*
X132035740Y-98437000D01*
X131969558Y-98430482D01*
X131903373Y-98423963D01*
X131790147Y-98389616D01*
X131733533Y-98372443D01*
X131577011Y-98288779D01*
X131577009Y-98288778D01*
X131541271Y-98259448D01*
X131439814Y-98176186D01*
X131356552Y-98074729D01*
X131327222Y-98038991D01*
X131268430Y-97929000D01*
X131243557Y-97882467D01*
X131212711Y-97780779D01*
X131192037Y-97712627D01*
X131174641Y-97536000D01*
X131192037Y-97359373D01*
X131226384Y-97246147D01*
X131243557Y-97189533D01*
X131327221Y-97033011D01*
X131327222Y-97033009D01*
X131378004Y-96971131D01*
X131439814Y-96895814D01*
X131545186Y-96809339D01*
X131577009Y-96783222D01*
X131648840Y-96744827D01*
X131733533Y-96699557D01*
X131792951Y-96681533D01*
X131903373Y-96648037D01*
X131969557Y-96641519D01*
X132035740Y-96635000D01*
X132124260Y-96635000D01*
X132190442Y-96641518D01*
X132190442Y-96641518D01*
G37*
G36*
X134730442Y-96641518D02*
X134796627Y-96648037D01*
X134907049Y-96681533D01*
X134966467Y-96699557D01*
X135051160Y-96744827D01*
X135122991Y-96783222D01*
X135154814Y-96809339D01*
X135260186Y-96895814D01*
X135321996Y-96971131D01*
X135372778Y-97033009D01*
X135372779Y-97033011D01*
X135456443Y-97189533D01*
X135473616Y-97246147D01*
X135507963Y-97359373D01*
X135525359Y-97536000D01*
X135507963Y-97712627D01*
X135487289Y-97780779D01*
X135456443Y-97882467D01*
X135431570Y-97929000D01*
X135372778Y-98038991D01*
X135343448Y-98074729D01*
X135260186Y-98176186D01*
X135158729Y-98259448D01*
X135122991Y-98288778D01*
X135122989Y-98288779D01*
X134966467Y-98372443D01*
X134909853Y-98389616D01*
X134796627Y-98423963D01*
X134730443Y-98430481D01*
X134664260Y-98437000D01*
X134575740Y-98437000D01*
X134509558Y-98430482D01*
X134443373Y-98423963D01*
X134330147Y-98389616D01*
X134273533Y-98372443D01*
X134117011Y-98288779D01*
X134117009Y-98288778D01*
X134081271Y-98259448D01*
X133979814Y-98176186D01*
X133896552Y-98074729D01*
X133867222Y-98038991D01*
X133808430Y-97929000D01*
X133783557Y-97882467D01*
X133752711Y-97780779D01*
X133732037Y-97712627D01*
X133714641Y-97536000D01*
X133732037Y-97359373D01*
X133766384Y-97246147D01*
X133783557Y-97189533D01*
X133867221Y-97033011D01*
X133867222Y-97033009D01*
X133918004Y-96971131D01*
X133979814Y-96895814D01*
X134085186Y-96809339D01*
X134117009Y-96783222D01*
X134188840Y-96744827D01*
X134273533Y-96699557D01*
X134332951Y-96681533D01*
X134443373Y-96648037D01*
X134509557Y-96641519D01*
X134575740Y-96635000D01*
X134664260Y-96635000D01*
X134730442Y-96641518D01*
X134730442Y-96641518D01*
G37*
G36*
X158098443Y-96133519D02*
X158164627Y-96140037D01*
X158277853Y-96174384D01*
X158334467Y-96191557D01*
X158473087Y-96265652D01*
X158490991Y-96275222D01*
X158526729Y-96304552D01*
X158628186Y-96387814D01*
X158711448Y-96489271D01*
X158740778Y-96525009D01*
X158740779Y-96525011D01*
X158824443Y-96681533D01*
X158824443Y-96681534D01*
X158875963Y-96851373D01*
X158893359Y-97028000D01*
X158875963Y-97204627D01*
X158841616Y-97317853D01*
X158824443Y-97374467D01*
X158750348Y-97513087D01*
X158740778Y-97530991D01*
X158736667Y-97536000D01*
X158628186Y-97668186D01*
X158526729Y-97751448D01*
X158490991Y-97780778D01*
X158490989Y-97780779D01*
X158334467Y-97864443D01*
X158277853Y-97881616D01*
X158164627Y-97915963D01*
X158098442Y-97922482D01*
X158032260Y-97929000D01*
X157943740Y-97929000D01*
X157877558Y-97922482D01*
X157811373Y-97915963D01*
X157698147Y-97881616D01*
X157641533Y-97864443D01*
X157485011Y-97780779D01*
X157485009Y-97780778D01*
X157449271Y-97751448D01*
X157347814Y-97668186D01*
X157239333Y-97536000D01*
X157235222Y-97530991D01*
X157225652Y-97513087D01*
X157151557Y-97374467D01*
X157134384Y-97317853D01*
X157100037Y-97204627D01*
X157082641Y-97028000D01*
X157100037Y-96851373D01*
X157151557Y-96681534D01*
X157151557Y-96681533D01*
X157235221Y-96525011D01*
X157235222Y-96525009D01*
X157264552Y-96489271D01*
X157347814Y-96387814D01*
X157449271Y-96304552D01*
X157485009Y-96275222D01*
X157502913Y-96265652D01*
X157641533Y-96191557D01*
X157698147Y-96174384D01*
X157811373Y-96140037D01*
X157877557Y-96133519D01*
X157943740Y-96127000D01*
X158032260Y-96127000D01*
X158098443Y-96133519D01*
X158098443Y-96133519D01*
G37*
G36*
X142458677Y-95519465D02*
X142496364Y-95530898D01*
X142531103Y-95549466D01*
X142561548Y-95574452D01*
X142586534Y-95604897D01*
X142605102Y-95639636D01*
X142616535Y-95677323D01*
X142621000Y-95722661D01*
X142621000Y-96809339D01*
X142616535Y-96854677D01*
X142605102Y-96892364D01*
X142586534Y-96927103D01*
X142561548Y-96957548D01*
X142531103Y-96982534D01*
X142496364Y-97001102D01*
X142458677Y-97012535D01*
X142413339Y-97017000D01*
X141576661Y-97017000D01*
X141531323Y-97012535D01*
X141493636Y-97001102D01*
X141458897Y-96982534D01*
X141428452Y-96957548D01*
X141403466Y-96927103D01*
X141384898Y-96892364D01*
X141373465Y-96854677D01*
X141369000Y-96809339D01*
X141369000Y-95722661D01*
X141373465Y-95677323D01*
X141384898Y-95639636D01*
X141403466Y-95604897D01*
X141428452Y-95574452D01*
X141458897Y-95549466D01*
X141493636Y-95530898D01*
X141531323Y-95519465D01*
X141576661Y-95515000D01*
X142413339Y-95515000D01*
X142458677Y-95519465D01*
X142458677Y-95519465D01*
G37*
G36*
X147293677Y-95519465D02*
X147331364Y-95530898D01*
X147366103Y-95549466D01*
X147396548Y-95574452D01*
X147421534Y-95604897D01*
X147440102Y-95639636D01*
X147451535Y-95677323D01*
X147456000Y-95722661D01*
X147456000Y-96809339D01*
X147451535Y-96854677D01*
X147440102Y-96892364D01*
X147421534Y-96927103D01*
X147396548Y-96957548D01*
X147366103Y-96982534D01*
X147331364Y-97001102D01*
X147293677Y-97012535D01*
X147248339Y-97017000D01*
X146411661Y-97017000D01*
X146366323Y-97012535D01*
X146328636Y-97001102D01*
X146293897Y-96982534D01*
X146263452Y-96957548D01*
X146238466Y-96927103D01*
X146219898Y-96892364D01*
X146208465Y-96854677D01*
X146204000Y-96809339D01*
X146204000Y-95722661D01*
X146208465Y-95677323D01*
X146219898Y-95639636D01*
X146238466Y-95604897D01*
X146263452Y-95574452D01*
X146293897Y-95549466D01*
X146328636Y-95530898D01*
X146366323Y-95519465D01*
X146411661Y-95515000D01*
X147248339Y-95515000D01*
X147293677Y-95519465D01*
X147293677Y-95519465D01*
G37*
G36*
X140408677Y-95519465D02*
X140446364Y-95530898D01*
X140481103Y-95549466D01*
X140511548Y-95574452D01*
X140536534Y-95604897D01*
X140555102Y-95639636D01*
X140566535Y-95677323D01*
X140571000Y-95722661D01*
X140571000Y-96809339D01*
X140566535Y-96854677D01*
X140555102Y-96892364D01*
X140536534Y-96927103D01*
X140511548Y-96957548D01*
X140481103Y-96982534D01*
X140446364Y-97001102D01*
X140408677Y-97012535D01*
X140363339Y-97017000D01*
X139526661Y-97017000D01*
X139481323Y-97012535D01*
X139443636Y-97001102D01*
X139408897Y-96982534D01*
X139378452Y-96957548D01*
X139353466Y-96927103D01*
X139334898Y-96892364D01*
X139323465Y-96854677D01*
X139319000Y-96809339D01*
X139319000Y-95722661D01*
X139323465Y-95677323D01*
X139334898Y-95639636D01*
X139353466Y-95604897D01*
X139378452Y-95574452D01*
X139408897Y-95549466D01*
X139443636Y-95530898D01*
X139481323Y-95519465D01*
X139526661Y-95515000D01*
X140363339Y-95515000D01*
X140408677Y-95519465D01*
X140408677Y-95519465D01*
G37*
G36*
X145243677Y-95519465D02*
X145281364Y-95530898D01*
X145316103Y-95549466D01*
X145346548Y-95574452D01*
X145371534Y-95604897D01*
X145390102Y-95639636D01*
X145401535Y-95677323D01*
X145406000Y-95722661D01*
X145406000Y-96809339D01*
X145401535Y-96854677D01*
X145390102Y-96892364D01*
X145371534Y-96927103D01*
X145346548Y-96957548D01*
X145316103Y-96982534D01*
X145281364Y-97001102D01*
X145243677Y-97012535D01*
X145198339Y-97017000D01*
X144361661Y-97017000D01*
X144316323Y-97012535D01*
X144278636Y-97001102D01*
X144243897Y-96982534D01*
X144213452Y-96957548D01*
X144188466Y-96927103D01*
X144169898Y-96892364D01*
X144158465Y-96854677D01*
X144154000Y-96809339D01*
X144154000Y-95722661D01*
X144158465Y-95677323D01*
X144169898Y-95639636D01*
X144188466Y-95604897D01*
X144213452Y-95574452D01*
X144243897Y-95549466D01*
X144278636Y-95530898D01*
X144316323Y-95519465D01*
X144361661Y-95515000D01*
X145198339Y-95515000D01*
X145243677Y-95519465D01*
X145243677Y-95519465D01*
G37*
G36*
X134730442Y-94101518D02*
X134796627Y-94108037D01*
X134909853Y-94142384D01*
X134966467Y-94159557D01*
X135105087Y-94233652D01*
X135122991Y-94243222D01*
X135158729Y-94272552D01*
X135260186Y-94355814D01*
X135343448Y-94457271D01*
X135372778Y-94493009D01*
X135372779Y-94493011D01*
X135456443Y-94649533D01*
X135456443Y-94649534D01*
X135507963Y-94819373D01*
X135525359Y-94996000D01*
X135507963Y-95172627D01*
X135473616Y-95285853D01*
X135456443Y-95342467D01*
X135431570Y-95389000D01*
X135372778Y-95498991D01*
X135355975Y-95519465D01*
X135260186Y-95636186D01*
X135158729Y-95719448D01*
X135122991Y-95748778D01*
X135122989Y-95748779D01*
X134966467Y-95832443D01*
X134909853Y-95849616D01*
X134796627Y-95883963D01*
X134730442Y-95890482D01*
X134664260Y-95897000D01*
X134575740Y-95897000D01*
X134509557Y-95890481D01*
X134443373Y-95883963D01*
X134330147Y-95849616D01*
X134273533Y-95832443D01*
X134117011Y-95748779D01*
X134117009Y-95748778D01*
X134081271Y-95719448D01*
X133979814Y-95636186D01*
X133884025Y-95519465D01*
X133867222Y-95498991D01*
X133808430Y-95389000D01*
X133783557Y-95342467D01*
X133766384Y-95285853D01*
X133732037Y-95172627D01*
X133714641Y-94996000D01*
X133732037Y-94819373D01*
X133783557Y-94649534D01*
X133783557Y-94649533D01*
X133867221Y-94493011D01*
X133867222Y-94493009D01*
X133896552Y-94457271D01*
X133979814Y-94355814D01*
X134081271Y-94272552D01*
X134117009Y-94243222D01*
X134134913Y-94233652D01*
X134273533Y-94159557D01*
X134330147Y-94142384D01*
X134443373Y-94108037D01*
X134509558Y-94101518D01*
X134575740Y-94095000D01*
X134664260Y-94095000D01*
X134730442Y-94101518D01*
X134730442Y-94101518D01*
G37*
G36*
X132190442Y-94101518D02*
X132256627Y-94108037D01*
X132369853Y-94142384D01*
X132426467Y-94159557D01*
X132565087Y-94233652D01*
X132582991Y-94243222D01*
X132618729Y-94272552D01*
X132720186Y-94355814D01*
X132803448Y-94457271D01*
X132832778Y-94493009D01*
X132832779Y-94493011D01*
X132916443Y-94649533D01*
X132916443Y-94649534D01*
X132967963Y-94819373D01*
X132985359Y-94996000D01*
X132967963Y-95172627D01*
X132933616Y-95285853D01*
X132916443Y-95342467D01*
X132891570Y-95389000D01*
X132832778Y-95498991D01*
X132815975Y-95519465D01*
X132720186Y-95636186D01*
X132618729Y-95719448D01*
X132582991Y-95748778D01*
X132582989Y-95748779D01*
X132426467Y-95832443D01*
X132369853Y-95849616D01*
X132256627Y-95883963D01*
X132190442Y-95890482D01*
X132124260Y-95897000D01*
X132035740Y-95897000D01*
X131969557Y-95890481D01*
X131903373Y-95883963D01*
X131790147Y-95849616D01*
X131733533Y-95832443D01*
X131577011Y-95748779D01*
X131577009Y-95748778D01*
X131541271Y-95719448D01*
X131439814Y-95636186D01*
X131344025Y-95519465D01*
X131327222Y-95498991D01*
X131268430Y-95389000D01*
X131243557Y-95342467D01*
X131226384Y-95285853D01*
X131192037Y-95172627D01*
X131174641Y-94996000D01*
X131192037Y-94819373D01*
X131243557Y-94649534D01*
X131243557Y-94649533D01*
X131327221Y-94493011D01*
X131327222Y-94493009D01*
X131356552Y-94457271D01*
X131439814Y-94355814D01*
X131541271Y-94272552D01*
X131577009Y-94243222D01*
X131594913Y-94233652D01*
X131733533Y-94159557D01*
X131790147Y-94142384D01*
X131903373Y-94108037D01*
X131969558Y-94101518D01*
X132035740Y-94095000D01*
X132124260Y-94095000D01*
X132190442Y-94101518D01*
X132190442Y-94101518D01*
G37*
G36*
X158889000Y-95389000D02*
X157087000Y-95389000D01*
X157087000Y-93587000D01*
X158889000Y-93587000D01*
X158889000Y-95389000D01*
X158889000Y-95389000D01*
G37*
G36*
X132190443Y-91561519D02*
X132256627Y-91568037D01*
X132369853Y-91602384D01*
X132426467Y-91619557D01*
X132565087Y-91693652D01*
X132582991Y-91703222D01*
X132618729Y-91732552D01*
X132720186Y-91815814D01*
X132803448Y-91917271D01*
X132832778Y-91953009D01*
X132832779Y-91953011D01*
X132916443Y-92109533D01*
X132916443Y-92109534D01*
X132967963Y-92279373D01*
X132985359Y-92456000D01*
X132967963Y-92632627D01*
X132933616Y-92745853D01*
X132916443Y-92802467D01*
X132842348Y-92941087D01*
X132832778Y-92958991D01*
X132803448Y-92994729D01*
X132720186Y-93096186D01*
X132618729Y-93179448D01*
X132582991Y-93208778D01*
X132582989Y-93208779D01*
X132426467Y-93292443D01*
X132369853Y-93309616D01*
X132256627Y-93343963D01*
X132190442Y-93350482D01*
X132124260Y-93357000D01*
X132035740Y-93357000D01*
X131969558Y-93350482D01*
X131903373Y-93343963D01*
X131790147Y-93309616D01*
X131733533Y-93292443D01*
X131577011Y-93208779D01*
X131577009Y-93208778D01*
X131541271Y-93179448D01*
X131439814Y-93096186D01*
X131356552Y-92994729D01*
X131327222Y-92958991D01*
X131317652Y-92941087D01*
X131243557Y-92802467D01*
X131226384Y-92745853D01*
X131192037Y-92632627D01*
X131174641Y-92456000D01*
X131192037Y-92279373D01*
X131243557Y-92109534D01*
X131243557Y-92109533D01*
X131327221Y-91953011D01*
X131327222Y-91953009D01*
X131356552Y-91917271D01*
X131439814Y-91815814D01*
X131541271Y-91732552D01*
X131577009Y-91703222D01*
X131594913Y-91693652D01*
X131733533Y-91619557D01*
X131790147Y-91602384D01*
X131903373Y-91568037D01*
X131969557Y-91561519D01*
X132035740Y-91555000D01*
X132124260Y-91555000D01*
X132190443Y-91561519D01*
X132190443Y-91561519D01*
G37*
G36*
X134730443Y-91561519D02*
X134796627Y-91568037D01*
X134909853Y-91602384D01*
X134966467Y-91619557D01*
X135105087Y-91693652D01*
X135122991Y-91703222D01*
X135158729Y-91732552D01*
X135260186Y-91815814D01*
X135343448Y-91917271D01*
X135372778Y-91953009D01*
X135372779Y-91953011D01*
X135456443Y-92109533D01*
X135456443Y-92109534D01*
X135507963Y-92279373D01*
X135525359Y-92456000D01*
X135507963Y-92632627D01*
X135473616Y-92745853D01*
X135456443Y-92802467D01*
X135382348Y-92941087D01*
X135372778Y-92958991D01*
X135343448Y-92994729D01*
X135260186Y-93096186D01*
X135158729Y-93179448D01*
X135122991Y-93208778D01*
X135122989Y-93208779D01*
X134966467Y-93292443D01*
X134909853Y-93309616D01*
X134796627Y-93343963D01*
X134730442Y-93350482D01*
X134664260Y-93357000D01*
X134575740Y-93357000D01*
X134509558Y-93350482D01*
X134443373Y-93343963D01*
X134330147Y-93309616D01*
X134273533Y-93292443D01*
X134117011Y-93208779D01*
X134117009Y-93208778D01*
X134081271Y-93179448D01*
X133979814Y-93096186D01*
X133896552Y-92994729D01*
X133867222Y-92958991D01*
X133857652Y-92941087D01*
X133783557Y-92802467D01*
X133766384Y-92745853D01*
X133732037Y-92632627D01*
X133714641Y-92456000D01*
X133732037Y-92279373D01*
X133783557Y-92109534D01*
X133783557Y-92109533D01*
X133867221Y-91953011D01*
X133867222Y-91953009D01*
X133896552Y-91917271D01*
X133979814Y-91815814D01*
X134081271Y-91732552D01*
X134117009Y-91703222D01*
X134134913Y-91693652D01*
X134273533Y-91619557D01*
X134330147Y-91602384D01*
X134443373Y-91568037D01*
X134509557Y-91561519D01*
X134575740Y-91555000D01*
X134664260Y-91555000D01*
X134730443Y-91561519D01*
X134730443Y-91561519D01*
G37*
G36*
X147554000Y-91343000D02*
X145902000Y-91343000D01*
X145902000Y-89941000D01*
X147554000Y-89941000D01*
X147554000Y-91343000D01*
X147554000Y-91343000D01*
G37*
G36*
X139594000Y-91343000D02*
X137942000Y-91343000D01*
X137942000Y-89941000D01*
X139594000Y-89941000D01*
X139594000Y-91343000D01*
X139594000Y-91343000D01*
G37*
G36*
X152510442Y-89021518D02*
X152576627Y-89028037D01*
X152689853Y-89062384D01*
X152746467Y-89079557D01*
X152885087Y-89153652D01*
X152902991Y-89163222D01*
X152938729Y-89192552D01*
X153040186Y-89275814D01*
X153123448Y-89377271D01*
X153152778Y-89413009D01*
X153152779Y-89413011D01*
X153236443Y-89569533D01*
X153236443Y-89569534D01*
X153287963Y-89739373D01*
X153305359Y-89916000D01*
X153287963Y-90092627D01*
X153253616Y-90205853D01*
X153236443Y-90262467D01*
X153162348Y-90401087D01*
X153152778Y-90418991D01*
X153123448Y-90454729D01*
X153040186Y-90556186D01*
X152938729Y-90639448D01*
X152902991Y-90668778D01*
X152902989Y-90668779D01*
X152746467Y-90752443D01*
X152689853Y-90769616D01*
X152576627Y-90803963D01*
X152510443Y-90810481D01*
X152444260Y-90817000D01*
X152355740Y-90817000D01*
X152289557Y-90810481D01*
X152223373Y-90803963D01*
X152110147Y-90769616D01*
X152053533Y-90752443D01*
X151897011Y-90668779D01*
X151897009Y-90668778D01*
X151861271Y-90639448D01*
X151759814Y-90556186D01*
X151676552Y-90454729D01*
X151647222Y-90418991D01*
X151637652Y-90401087D01*
X151563557Y-90262467D01*
X151546384Y-90205853D01*
X151512037Y-90092627D01*
X151494641Y-89916000D01*
X151512037Y-89739373D01*
X151563557Y-89569534D01*
X151563557Y-89569533D01*
X151647221Y-89413011D01*
X151647222Y-89413009D01*
X151676552Y-89377271D01*
X151759814Y-89275814D01*
X151861271Y-89192552D01*
X151897009Y-89163222D01*
X151914913Y-89153652D01*
X152053533Y-89079557D01*
X152110147Y-89062384D01*
X152223373Y-89028037D01*
X152289558Y-89021518D01*
X152355740Y-89015000D01*
X152444260Y-89015000D01*
X152510442Y-89021518D01*
X152510442Y-89021518D01*
G37*
G36*
X155050442Y-89021518D02*
X155116627Y-89028037D01*
X155229853Y-89062384D01*
X155286467Y-89079557D01*
X155425087Y-89153652D01*
X155442991Y-89163222D01*
X155478729Y-89192552D01*
X155580186Y-89275814D01*
X155663448Y-89377271D01*
X155692778Y-89413009D01*
X155692779Y-89413011D01*
X155776443Y-89569533D01*
X155776443Y-89569534D01*
X155827963Y-89739373D01*
X155845359Y-89916000D01*
X155827963Y-90092627D01*
X155793616Y-90205853D01*
X155776443Y-90262467D01*
X155702348Y-90401087D01*
X155692778Y-90418991D01*
X155663448Y-90454729D01*
X155580186Y-90556186D01*
X155478729Y-90639448D01*
X155442991Y-90668778D01*
X155442989Y-90668779D01*
X155286467Y-90752443D01*
X155229853Y-90769616D01*
X155116627Y-90803963D01*
X155050443Y-90810481D01*
X154984260Y-90817000D01*
X154895740Y-90817000D01*
X154829557Y-90810481D01*
X154763373Y-90803963D01*
X154650147Y-90769616D01*
X154593533Y-90752443D01*
X154437011Y-90668779D01*
X154437009Y-90668778D01*
X154401271Y-90639448D01*
X154299814Y-90556186D01*
X154216552Y-90454729D01*
X154187222Y-90418991D01*
X154177652Y-90401087D01*
X154103557Y-90262467D01*
X154086384Y-90205853D01*
X154052037Y-90092627D01*
X154034641Y-89916000D01*
X154052037Y-89739373D01*
X154103557Y-89569534D01*
X154103557Y-89569533D01*
X154187221Y-89413011D01*
X154187222Y-89413009D01*
X154216552Y-89377271D01*
X154299814Y-89275814D01*
X154401271Y-89192552D01*
X154437009Y-89163222D01*
X154454913Y-89153652D01*
X154593533Y-89079557D01*
X154650147Y-89062384D01*
X154763373Y-89028037D01*
X154829558Y-89021518D01*
X154895740Y-89015000D01*
X154984260Y-89015000D01*
X155050442Y-89021518D01*
X155050442Y-89021518D01*
G37*
G36*
X157590442Y-89021518D02*
X157656627Y-89028037D01*
X157769853Y-89062384D01*
X157826467Y-89079557D01*
X157965087Y-89153652D01*
X157982991Y-89163222D01*
X158018729Y-89192552D01*
X158120186Y-89275814D01*
X158203448Y-89377271D01*
X158232778Y-89413009D01*
X158232779Y-89413011D01*
X158316443Y-89569533D01*
X158316443Y-89569534D01*
X158367963Y-89739373D01*
X158385359Y-89916000D01*
X158367963Y-90092627D01*
X158333616Y-90205853D01*
X158316443Y-90262467D01*
X158242348Y-90401087D01*
X158232778Y-90418991D01*
X158203448Y-90454729D01*
X158120186Y-90556186D01*
X158018729Y-90639448D01*
X157982991Y-90668778D01*
X157982989Y-90668779D01*
X157826467Y-90752443D01*
X157769853Y-90769616D01*
X157656627Y-90803963D01*
X157590443Y-90810481D01*
X157524260Y-90817000D01*
X157435740Y-90817000D01*
X157369557Y-90810481D01*
X157303373Y-90803963D01*
X157190147Y-90769616D01*
X157133533Y-90752443D01*
X156977011Y-90668779D01*
X156977009Y-90668778D01*
X156941271Y-90639448D01*
X156839814Y-90556186D01*
X156756552Y-90454729D01*
X156727222Y-90418991D01*
X156717652Y-90401087D01*
X156643557Y-90262467D01*
X156626384Y-90205853D01*
X156592037Y-90092627D01*
X156574641Y-89916000D01*
X156592037Y-89739373D01*
X156643557Y-89569534D01*
X156643557Y-89569533D01*
X156727221Y-89413011D01*
X156727222Y-89413009D01*
X156756552Y-89377271D01*
X156839814Y-89275814D01*
X156941271Y-89192552D01*
X156977009Y-89163222D01*
X156994913Y-89153652D01*
X157133533Y-89079557D01*
X157190147Y-89062384D01*
X157303373Y-89028037D01*
X157369558Y-89021518D01*
X157435740Y-89015000D01*
X157524260Y-89015000D01*
X157590442Y-89021518D01*
X157590442Y-89021518D01*
G37*
G36*
X152510442Y-86481518D02*
X152576627Y-86488037D01*
X152689853Y-86522384D01*
X152746467Y-86539557D01*
X152885087Y-86613652D01*
X152902991Y-86623222D01*
X152938729Y-86652552D01*
X153040186Y-86735814D01*
X153123448Y-86837271D01*
X153152778Y-86873009D01*
X153152779Y-86873011D01*
X153236443Y-87029533D01*
X153236443Y-87029534D01*
X153287963Y-87199373D01*
X153305359Y-87376000D01*
X153287963Y-87552627D01*
X153269183Y-87614535D01*
X153236443Y-87722467D01*
X153162348Y-87861087D01*
X153152778Y-87878991D01*
X153123448Y-87914729D01*
X153040186Y-88016186D01*
X152938729Y-88099448D01*
X152902991Y-88128778D01*
X152902989Y-88128779D01*
X152746467Y-88212443D01*
X152689853Y-88229616D01*
X152576627Y-88263963D01*
X152510442Y-88270482D01*
X152444260Y-88277000D01*
X152355740Y-88277000D01*
X152289558Y-88270482D01*
X152223373Y-88263963D01*
X152110147Y-88229616D01*
X152053533Y-88212443D01*
X151897011Y-88128779D01*
X151897009Y-88128778D01*
X151861271Y-88099448D01*
X151759814Y-88016186D01*
X151676552Y-87914729D01*
X151647222Y-87878991D01*
X151637652Y-87861087D01*
X151563557Y-87722467D01*
X151530817Y-87614535D01*
X151512037Y-87552627D01*
X151494641Y-87376000D01*
X151512037Y-87199373D01*
X151563557Y-87029534D01*
X151563557Y-87029533D01*
X151647221Y-86873011D01*
X151647222Y-86873009D01*
X151676552Y-86837271D01*
X151759814Y-86735814D01*
X151861271Y-86652552D01*
X151897009Y-86623222D01*
X151914913Y-86613652D01*
X152053533Y-86539557D01*
X152110147Y-86522384D01*
X152223373Y-86488037D01*
X152289558Y-86481518D01*
X152355740Y-86475000D01*
X152444260Y-86475000D01*
X152510442Y-86481518D01*
X152510442Y-86481518D01*
G37*
G36*
X155050442Y-86481518D02*
X155116627Y-86488037D01*
X155229853Y-86522384D01*
X155286467Y-86539557D01*
X155425087Y-86613652D01*
X155442991Y-86623222D01*
X155478729Y-86652552D01*
X155580186Y-86735814D01*
X155663448Y-86837271D01*
X155692778Y-86873009D01*
X155692779Y-86873011D01*
X155776443Y-87029533D01*
X155776443Y-87029534D01*
X155827963Y-87199373D01*
X155845359Y-87376000D01*
X155827963Y-87552627D01*
X155809183Y-87614535D01*
X155776443Y-87722467D01*
X155702348Y-87861087D01*
X155692778Y-87878991D01*
X155663448Y-87914729D01*
X155580186Y-88016186D01*
X155478729Y-88099448D01*
X155442991Y-88128778D01*
X155442989Y-88128779D01*
X155286467Y-88212443D01*
X155229853Y-88229616D01*
X155116627Y-88263963D01*
X155050442Y-88270482D01*
X154984260Y-88277000D01*
X154895740Y-88277000D01*
X154829558Y-88270482D01*
X154763373Y-88263963D01*
X154650147Y-88229616D01*
X154593533Y-88212443D01*
X154437011Y-88128779D01*
X154437009Y-88128778D01*
X154401271Y-88099448D01*
X154299814Y-88016186D01*
X154216552Y-87914729D01*
X154187222Y-87878991D01*
X154177652Y-87861087D01*
X154103557Y-87722467D01*
X154070817Y-87614535D01*
X154052037Y-87552627D01*
X154034641Y-87376000D01*
X154052037Y-87199373D01*
X154103557Y-87029534D01*
X154103557Y-87029533D01*
X154187221Y-86873011D01*
X154187222Y-86873009D01*
X154216552Y-86837271D01*
X154299814Y-86735814D01*
X154401271Y-86652552D01*
X154437009Y-86623222D01*
X154454913Y-86613652D01*
X154593533Y-86539557D01*
X154650147Y-86522384D01*
X154763373Y-86488037D01*
X154829558Y-86481518D01*
X154895740Y-86475000D01*
X154984260Y-86475000D01*
X155050442Y-86481518D01*
X155050442Y-86481518D01*
G37*
G36*
X158381000Y-88277000D02*
X156579000Y-88277000D01*
X156579000Y-86475000D01*
X158381000Y-86475000D01*
X158381000Y-88277000D01*
X158381000Y-88277000D01*
G37*
G36*
X132543677Y-86121465D02*
X132581364Y-86132898D01*
X132616103Y-86151466D01*
X132646548Y-86176452D01*
X132671534Y-86206897D01*
X132690102Y-86241636D01*
X132701535Y-86279323D01*
X132706000Y-86324661D01*
X132706000Y-87411339D01*
X132701535Y-87456677D01*
X132690102Y-87494364D01*
X132671534Y-87529103D01*
X132646548Y-87559548D01*
X132616103Y-87584534D01*
X132581364Y-87603102D01*
X132543677Y-87614535D01*
X132498339Y-87619000D01*
X131661661Y-87619000D01*
X131616323Y-87614535D01*
X131578636Y-87603102D01*
X131543897Y-87584534D01*
X131513452Y-87559548D01*
X131488466Y-87529103D01*
X131469898Y-87494364D01*
X131458465Y-87456677D01*
X131454000Y-87411339D01*
X131454000Y-86324661D01*
X131458465Y-86279323D01*
X131469898Y-86241636D01*
X131488466Y-86206897D01*
X131513452Y-86176452D01*
X131543897Y-86151466D01*
X131578636Y-86132898D01*
X131616323Y-86121465D01*
X131661661Y-86117000D01*
X132498339Y-86117000D01*
X132543677Y-86121465D01*
X132543677Y-86121465D01*
G37*
G36*
X134593677Y-86121465D02*
X134631364Y-86132898D01*
X134666103Y-86151466D01*
X134696548Y-86176452D01*
X134721534Y-86206897D01*
X134740102Y-86241636D01*
X134751535Y-86279323D01*
X134756000Y-86324661D01*
X134756000Y-87411339D01*
X134751535Y-87456677D01*
X134740102Y-87494364D01*
X134721534Y-87529103D01*
X134696548Y-87559548D01*
X134666103Y-87584534D01*
X134631364Y-87603102D01*
X134593677Y-87614535D01*
X134548339Y-87619000D01*
X133711661Y-87619000D01*
X133666323Y-87614535D01*
X133628636Y-87603102D01*
X133593897Y-87584534D01*
X133563452Y-87559548D01*
X133538466Y-87529103D01*
X133519898Y-87494364D01*
X133508465Y-87456677D01*
X133504000Y-87411339D01*
X133504000Y-86324661D01*
X133508465Y-86279323D01*
X133519898Y-86241636D01*
X133538466Y-86206897D01*
X133563452Y-86176452D01*
X133593897Y-86151466D01*
X133628636Y-86132898D01*
X133666323Y-86121465D01*
X133711661Y-86117000D01*
X134548339Y-86117000D01*
X134593677Y-86121465D01*
X134593677Y-86121465D01*
G37*
G36*
X147554000Y-86843000D02*
X145902000Y-86843000D01*
X145902000Y-85441000D01*
X147554000Y-85441000D01*
X147554000Y-86843000D01*
X147554000Y-86843000D01*
G37*
G36*
X139594000Y-86843000D02*
X137942000Y-86843000D01*
X137942000Y-85441000D01*
X139594000Y-85441000D01*
X139594000Y-86843000D01*
X139594000Y-86843000D01*
G37*
M02*
